%
M48
M72
T01C0.0200
T02C0.0236
T03C0.0276
T04C0.0320
T05C0.0354
T06C0.0394
T07C0.0400
T08C0.0520
T09C0.0591
T10C0.0800
T11C0.1300
%
T01
X20525Y9825
X24225Y17325
T02
X21522Y11825
X15925Y12925
T03
X4325Y18325
X3325Y18325
X3325Y20425
X4325Y20425
T04
X13625Y20525
X14625Y20525
X15625Y20525
X16625Y20525
X19925Y20525
X20925Y20525
X21925Y20525
X22925Y20525
X22925Y17525
X21925Y17525
X20925Y17525
X19925Y17525
X16625Y17525
X15625Y17525
X14625Y17525
X13625Y17525
X19025Y9125
X20025Y9125
X21025Y9125
X22025Y9125
X23025Y9125
X24025Y9125
X25025Y9125
X26025Y9125
X27025Y9125
X28025Y9125
X29025Y9125
X30025Y9125
X31025Y9125
X32025Y9125
X35125Y8575
X37125Y8575
X38125Y8575
X38125Y6675
X37125Y6675
X35125Y6675
X32025Y6125
X31025Y6125
X30025Y6125
X29025Y6125
X28025Y6125
X27025Y6125
X26025Y6125
X25025Y6125
X24025Y6125
X23025Y6125
X22025Y6125
X21025Y6125
X20025Y6125
X19025Y6125
X35425Y20325
X35425Y21325
X36825Y22740
X36825Y24710
X32225Y24710
X32225Y22740
X28725Y23675
X27725Y23675
X27725Y24725
X28725Y24725
T05
X29125Y22375
X25125Y22375
X23225Y22325
X22725Y24025
X19225Y22325
X18225Y21075
X18725Y24025
X9575Y18525
X5575Y18525
X16625Y15925
X18225Y17075
X16625Y11925
X36825Y17325
X36825Y21325
T06
X33081Y20709
X33081Y19725
X33081Y18741
X32406Y16131
X31422Y16131
X30438Y16131
X27103Y16131
X26119Y16131
X25134Y16131
X21800Y16131
X20816Y16131
X19831Y16131
X12275Y20075
X11275Y19075
X11275Y21075
X35741Y16081
X36725Y16081
X37709Y16081
T07
X26415Y17895
X24635Y17895
X24635Y20455
X26415Y20455
X22725Y25825
X21725Y25825
X20725Y25825
X19725Y25825
X18725Y25825
X17725Y25825
X9125Y20025
X6125Y20025
X6583Y17154
X5583Y17154
X7583Y17154
X8583Y17154
X9583Y17154
X10583Y17154
X11583Y17154
X12583Y17154
X14075Y13475
X15075Y13475
X15075Y12475
X15075Y11475
X14075Y11475
X14075Y12475
X4125Y13425
X3125Y13425
X2125Y13425
X1125Y15025
X4125Y15025
X1125Y19275
X1125Y20275
X1125Y21275
X1675Y23336
X1675Y24714
X19235Y3855
X21015Y3855
X22235Y3855
X24015Y3855
X25235Y3855
X27015Y3855
X28235Y3855
X30015Y3855
X31235Y3855
X33015Y3855
X34235Y3855
X36015Y3855
X36015Y1295
X34235Y1295
X33015Y1295
X31235Y1295
X30015Y1295
X28235Y1295
X27015Y1295
X25235Y1295
X24015Y1295
X22235Y1295
X21015Y1295
X19235Y1295
X12583Y1406
X11583Y1406
X10583Y1406
X9583Y1406
X8583Y1406
X7583Y1406
X6583Y1406
X5583Y1406
T08
X5625Y21812
X4625Y22772
X7625Y22733
X9625Y21812
X10586Y22772
X9625Y26694
X8625Y26694
X6625Y26694
X5625Y26694
T09
X12603Y25547
X14375Y26925
X15359Y24327
X16344Y23657
X12721Y22555
T10
X19083Y13375
X22548Y13375
X24386Y13375
X27851Y13375
X29690Y13375
X33154Y13375
X34993Y13325
X38457Y13325
X30325Y17993
X30325Y21457
T11
X1225Y1225
X3125Y7525
X1225Y26725
X38225Y26725
X38225Y1225
M30
