G75*
%MOIN*%
%OFA0B0*%
%FSLAX24Y24*%
%IPPOS*%
%LPD*%
%AMOC8*
5,1,8,0,0,1.08239X$1,22.5*
%
%ADD10C,0.0720*%
%ADD11C,0.1380*%
%ADD12C,0.0730*%
%ADD13C,0.0880*%
%ADD14R,0.0880X0.0880*%
%ADD15R,0.0820X0.0820*%
%ADD16C,0.0820*%
%ADD17C,0.0640*%
%ADD18C,0.0640*%
%ADD19C,0.0740*%
%ADD20OC8,0.1261*%
%ADD21C,0.0860*%
%ADD22C,0.1080*%
%ADD23C,0.0860*%
%ADD24OC8,0.0940*%
%ADD25C,0.0516*%
D10*
X002275Y013255D02*
X002275Y013895D01*
X003275Y013895D02*
X003275Y013255D01*
X004275Y013255D02*
X004275Y013895D01*
D11*
X001375Y001375D03*
X003275Y007675D03*
X001375Y026875D03*
X038375Y026875D03*
X038375Y001375D03*
D12*
X036975Y022890D03*
X036975Y024860D03*
X032375Y024860D03*
X032375Y022890D03*
X004575Y020275D03*
X003575Y020275D03*
X003575Y018175D03*
X004575Y018175D03*
D13*
X001825Y023336D03*
D14*
X001825Y024714D03*
D15*
X005733Y016910D03*
X014225Y013625D03*
X019391Y016281D03*
X020375Y016281D03*
X021359Y016281D03*
X024891Y016281D03*
X025875Y016281D03*
X026859Y016281D03*
X030391Y016281D03*
X031375Y016281D03*
X032359Y016281D03*
X033231Y018891D03*
X033231Y019875D03*
X033231Y020859D03*
X035891Y016231D03*
X036875Y016231D03*
X037859Y016231D03*
X017875Y025975D03*
X005733Y001162D03*
D16*
X006733Y001162D03*
X007733Y001162D03*
X008733Y001162D03*
X009733Y001162D03*
X010733Y001162D03*
X011733Y001162D03*
X012733Y001162D03*
X019385Y001445D03*
X021165Y001445D03*
X022385Y001445D03*
X024165Y001445D03*
X025385Y001445D03*
X027165Y001445D03*
X028385Y001445D03*
X030165Y001445D03*
X031385Y001445D03*
X033165Y001445D03*
X034385Y001445D03*
X036165Y001445D03*
X036165Y004005D03*
X034385Y004005D03*
X033165Y004005D03*
X031385Y004005D03*
X030165Y004005D03*
X028385Y004005D03*
X027165Y004005D03*
X025385Y004005D03*
X024165Y004005D03*
X022385Y004005D03*
X021165Y004005D03*
X019385Y004005D03*
X015225Y011625D03*
X014225Y011625D03*
X014225Y012625D03*
X015225Y012625D03*
X015225Y013625D03*
X016775Y012075D03*
X016775Y016075D03*
X018375Y017225D03*
X018375Y021225D03*
X019375Y022475D03*
X018875Y024175D03*
X018875Y025975D03*
X019875Y025975D03*
X020875Y025975D03*
X021875Y025975D03*
X022875Y025975D03*
X022875Y024175D03*
X023375Y022475D03*
X025275Y022525D03*
X024785Y020605D03*
X026565Y020605D03*
X029275Y022525D03*
X026565Y018045D03*
X024785Y018045D03*
X012733Y016910D03*
X011733Y016910D03*
X010733Y016910D03*
X009733Y016910D03*
X008733Y016910D03*
X007733Y016910D03*
X006733Y016910D03*
X005725Y018225D03*
X009725Y018225D03*
X010675Y019275D03*
X011675Y020275D03*
X012675Y019275D03*
X001275Y019025D03*
X001275Y020025D03*
X001275Y021025D03*
X036975Y021475D03*
X036975Y017475D03*
D17*
X032175Y009555D02*
X032175Y008995D01*
X031175Y008995D02*
X031175Y009555D01*
X030175Y009555D02*
X030175Y008995D01*
X029175Y008995D02*
X029175Y009555D01*
X028175Y009555D02*
X028175Y008995D01*
X027175Y008995D02*
X027175Y009555D01*
X026175Y009555D02*
X026175Y008995D01*
X025175Y008995D02*
X025175Y009555D01*
X024175Y009555D02*
X024175Y008995D01*
X023175Y008995D02*
X023175Y009555D01*
X022175Y009555D02*
X022175Y008995D01*
X021175Y008995D02*
X021175Y009555D01*
X020175Y009555D02*
X020175Y008995D01*
X019175Y008995D02*
X019175Y009555D01*
X019175Y006555D02*
X019175Y005995D01*
X020175Y005995D02*
X020175Y006555D01*
X021175Y006555D02*
X021175Y005995D01*
X022175Y005995D02*
X022175Y006555D01*
X023175Y006555D02*
X023175Y005995D01*
X024175Y005995D02*
X024175Y006555D01*
X025175Y006555D02*
X025175Y005995D01*
X026175Y005995D02*
X026175Y006555D01*
X027175Y006555D02*
X027175Y005995D01*
X028175Y005995D02*
X028175Y006555D01*
X029175Y006555D02*
X029175Y005995D01*
X030175Y005995D02*
X030175Y006555D01*
X031175Y006555D02*
X031175Y005995D01*
X032175Y005995D02*
X032175Y006555D01*
X023075Y017395D02*
X023075Y017955D01*
X022075Y017955D02*
X022075Y017395D01*
X021075Y017395D02*
X021075Y017955D01*
X020075Y017955D02*
X020075Y017395D01*
X016775Y017395D02*
X016775Y017955D01*
X015775Y017955D02*
X015775Y017395D01*
X014775Y017395D02*
X014775Y017955D01*
X013775Y017955D02*
X013775Y017395D01*
X013775Y020395D02*
X013775Y020955D01*
X014775Y020955D02*
X014775Y020395D01*
X015775Y020395D02*
X015775Y020955D01*
X016775Y020955D02*
X016775Y020395D01*
X020075Y020395D02*
X020075Y020955D01*
X021075Y020955D02*
X021075Y020395D01*
X022075Y020395D02*
X022075Y020955D01*
X023075Y020955D02*
X023075Y020395D01*
D18*
X035275Y008725D03*
X035275Y006825D03*
D19*
X037275Y006825D03*
X038275Y006825D03*
X038275Y008725D03*
X037275Y008725D03*
X035575Y020475D03*
X035575Y021475D03*
X028875Y023825D03*
X027875Y023825D03*
X027875Y024875D03*
X028875Y024875D03*
D20*
X030475Y021607D03*
X030475Y018143D03*
X029643Y013525D03*
X027607Y013525D03*
X024143Y013525D03*
X022107Y013525D03*
X018643Y013525D03*
X033107Y013525D03*
X035143Y013475D03*
X038607Y013475D03*
D21*
X009275Y019875D03*
X006275Y019875D03*
X004275Y015175D03*
X001275Y015175D03*
D22*
X012871Y022705D03*
X015509Y024477D03*
X016494Y023807D03*
X012753Y025697D03*
X014525Y027075D03*
D23*
X007775Y023273D02*
X007775Y022493D01*
D24*
X005775Y021962D03*
X004775Y022922D03*
X009775Y021962D03*
X010736Y022922D03*
X009775Y026844D03*
X008775Y026844D03*
X006775Y026844D03*
X005775Y026844D03*
D25*
X016075Y013075D03*
X021675Y012125D03*
M02*
