%
M48
M72
T01C0.0200
T02C0.0236
T03C0.0276
T04C0.0320
T05C0.0354
T06C0.0394
T07C0.0400
T08C0.0551
T09C0.0591
T10C0.0787
T11C0.1300
%
T01
X20525Y9825
X24225Y17325
X16775Y19625
X13025Y19625
X12075Y19375
T02
X21525Y14475
T03
X4825Y19725
X3825Y19725
X2225Y19725
X1225Y19725
T04
X13625Y20525
X14625Y20525
X15625Y20525
X16625Y20525
X19925Y20525
X20925Y20525
X21925Y20525
X22925Y20525
X22925Y17525
X21925Y17525
X20925Y17525
X19925Y17525
X16625Y17525
X15625Y17525
X14625Y17525
X13625Y17525
X19025Y9125
X20025Y9125
X21025Y9125
X22025Y9125
X23025Y9125
X24025Y9125
X25025Y9125
X26025Y9125
X27025Y9125
X28025Y9125
X29025Y9125
X30025Y9125
X31025Y9125
X32025Y9125
X35125Y8575
X37625Y8125
X37625Y7125
X35125Y6675
X37625Y5125
X32025Y6125
X31025Y6125
X30025Y6125
X29025Y6125
X28025Y6125
X27025Y6125
X26025Y6125
X25025Y6125
X24025Y6125
X23025Y6125
X22025Y6125
X21025Y6125
X20025Y6125
X19025Y6125
X37625Y10125
X34725Y20325
X34725Y21325
X36825Y22740
X36825Y24710
X32225Y24710
X32225Y22740
X28725Y23675
X27725Y23675
X27725Y24725
X28725Y24725
T05
X29225Y22225
X25225Y22225
X23225Y22225
X19225Y22225
X18225Y20975
X17225Y22225
X13225Y22225
X10175Y18075
X6175Y18075
X17125Y15925
X18225Y16975
X17125Y11925
X36825Y17325
X36825Y21325
T06
X36709Y16231
X35725Y16231
X34741Y16231
X31709Y16231
X30725Y16231
X29741Y16231
X28219Y18241
X28219Y19225
X28219Y20209
X26709Y16231
X25725Y16231
X24741Y16231
X21709Y16231
X20725Y16231
X19741Y16231
X9125Y19725
X6125Y19725
T07
X6583Y16760
X5583Y16760
X4025Y16725
X3025Y16725
X2025Y16725
X7583Y16760
X8583Y16760
X9583Y16760
X10583Y16760
X11583Y16760
X12583Y16760
X17725Y24225
X18725Y24225
X19725Y24225
X20725Y24225
X21725Y24225
X22725Y24225
X24635Y20455
X26415Y20455
X26415Y17895
X24635Y17895
X24535Y3855
X23315Y3855
X21535Y3855
X20315Y3855
X18535Y3855
X18535Y1295
X20315Y1295
X21535Y1295
X23315Y1295
X24535Y1295
X26315Y1295
X27535Y1295
X29315Y1295
X30535Y1295
X32315Y1295
X33535Y1295
X35315Y1295
X35315Y3855
X33535Y3855
X32315Y3855
X30535Y3855
X29315Y3855
X27535Y3855
X26315Y3855
X12583Y1012
X11583Y1012
X10583Y1012
X9583Y1012
X8583Y1012
X7583Y1012
X6583Y1012
X5583Y1012
X1625Y23036
X1625Y24414
T08
X4599Y22808
X5571Y21812
X7544Y22804
X9508Y21816
X10508Y22808
X9508Y26738
X5568Y26738
T09
X12225Y24625
X13225Y24625
X14225Y24625
X15225Y24625
X16225Y24625
X16194Y26594
X14225Y26625
X12256Y26594
T10
X18993Y13475
X22457Y13475
X23993Y13475
X27457Y13475
X28993Y13475
X32457Y13475
X33993Y13475
X37457Y13475
X30975Y17493
X30975Y20957
T11
X1225Y1225
X3025Y10825
X1225Y26725
X38225Y26725
X38225Y1225
M30
