G75*
%MOIN*%
%OFA0B0*%
%FSLAX24Y24*%
%IPPOS*%
%LPD*%
%AMOC8*
5,1,8,0,0,1.08239X$1,22.5*
%
%ADD10C,0.0010*%
%ADD11C,0.0640*%
%ADD12C,0.0000*%
%ADD13C,0.0650*%
%ADD14C,0.0800*%
%ADD15R,0.0800X0.0800*%
%ADD16R,0.0740X0.0740*%
%ADD17C,0.0740*%
%ADD18C,0.0560*%
%ADD19C,0.0660*%
%ADD20OC8,0.1200*%
%ADD21C,0.1000*%
%ADD22C,0.0780*%
%ADD23OC8,0.0860*%
%ADD24C,0.0240*%
%ADD25C,0.0160*%
%ADD26C,0.0200*%
%ADD27C,0.0400*%
%ADD28C,0.0436*%
D10*
X001225Y000225D02*
X038225Y000225D01*
X038285Y000227D01*
X038346Y000232D01*
X038405Y000241D01*
X038464Y000254D01*
X038523Y000270D01*
X038580Y000290D01*
X038635Y000313D01*
X038690Y000340D01*
X038742Y000369D01*
X038793Y000402D01*
X038842Y000438D01*
X038888Y000476D01*
X038932Y000518D01*
X038974Y000562D01*
X039012Y000608D01*
X039048Y000657D01*
X039081Y000708D01*
X039110Y000760D01*
X039137Y000815D01*
X039160Y000870D01*
X039180Y000927D01*
X039196Y000986D01*
X039209Y001045D01*
X039218Y001104D01*
X039223Y001165D01*
X039225Y001225D01*
X039225Y026725D01*
X039223Y026785D01*
X039218Y026846D01*
X039209Y026905D01*
X039196Y026964D01*
X039180Y027023D01*
X039160Y027080D01*
X039137Y027135D01*
X039110Y027190D01*
X039081Y027242D01*
X039048Y027293D01*
X039012Y027342D01*
X038974Y027388D01*
X038932Y027432D01*
X038888Y027474D01*
X038842Y027512D01*
X038793Y027548D01*
X038742Y027581D01*
X038690Y027610D01*
X038635Y027637D01*
X038580Y027660D01*
X038523Y027680D01*
X038464Y027696D01*
X038405Y027709D01*
X038346Y027718D01*
X038285Y027723D01*
X038225Y027725D01*
X001225Y027725D01*
X001165Y027723D01*
X001104Y027718D01*
X001045Y027709D01*
X000986Y027696D01*
X000927Y027680D01*
X000870Y027660D01*
X000815Y027637D01*
X000760Y027610D01*
X000708Y027581D01*
X000657Y027548D01*
X000608Y027512D01*
X000562Y027474D01*
X000518Y027432D01*
X000476Y027388D01*
X000438Y027342D01*
X000402Y027293D01*
X000369Y027242D01*
X000340Y027190D01*
X000313Y027135D01*
X000290Y027080D01*
X000270Y027023D01*
X000254Y026964D01*
X000241Y026905D01*
X000232Y026846D01*
X000227Y026785D01*
X000225Y026725D01*
X000225Y001225D01*
X000227Y001165D01*
X000232Y001104D01*
X000241Y001045D01*
X000254Y000986D01*
X000270Y000927D01*
X000290Y000870D01*
X000313Y000815D01*
X000340Y000760D01*
X000369Y000708D01*
X000402Y000657D01*
X000438Y000608D01*
X000476Y000562D01*
X000518Y000518D01*
X000562Y000476D01*
X000608Y000438D01*
X000657Y000402D01*
X000708Y000369D01*
X000760Y000340D01*
X000815Y000313D01*
X000870Y000290D01*
X000927Y000270D01*
X000986Y000254D01*
X001045Y000241D01*
X001104Y000232D01*
X001165Y000227D01*
X001225Y000225D01*
D11*
X002125Y013105D02*
X002125Y013745D01*
X003125Y013745D02*
X003125Y013105D01*
X004125Y013105D02*
X004125Y013745D01*
D12*
X002475Y007525D02*
X002477Y007575D01*
X002483Y007625D01*
X002493Y007675D01*
X002506Y007723D01*
X002523Y007771D01*
X002544Y007817D01*
X002568Y007861D01*
X002596Y007903D01*
X002627Y007943D01*
X002661Y007980D01*
X002698Y008015D01*
X002737Y008046D01*
X002778Y008075D01*
X002822Y008100D01*
X002868Y008122D01*
X002915Y008140D01*
X002963Y008154D01*
X003012Y008165D01*
X003062Y008172D01*
X003112Y008175D01*
X003163Y008174D01*
X003213Y008169D01*
X003263Y008160D01*
X003311Y008148D01*
X003359Y008131D01*
X003405Y008111D01*
X003450Y008088D01*
X003493Y008061D01*
X003533Y008031D01*
X003571Y007998D01*
X003606Y007962D01*
X003639Y007923D01*
X003668Y007882D01*
X003694Y007839D01*
X003717Y007794D01*
X003736Y007747D01*
X003751Y007699D01*
X003763Y007650D01*
X003771Y007600D01*
X003775Y007550D01*
X003775Y007500D01*
X003771Y007450D01*
X003763Y007400D01*
X003751Y007351D01*
X003736Y007303D01*
X003717Y007256D01*
X003694Y007211D01*
X003668Y007168D01*
X003639Y007127D01*
X003606Y007088D01*
X003571Y007052D01*
X003533Y007019D01*
X003493Y006989D01*
X003450Y006962D01*
X003405Y006939D01*
X003359Y006919D01*
X003311Y006902D01*
X003263Y006890D01*
X003213Y006881D01*
X003163Y006876D01*
X003112Y006875D01*
X003062Y006878D01*
X003012Y006885D01*
X002963Y006896D01*
X002915Y006910D01*
X002868Y006928D01*
X002822Y006950D01*
X002778Y006975D01*
X002737Y007004D01*
X002698Y007035D01*
X002661Y007070D01*
X002627Y007107D01*
X002596Y007147D01*
X002568Y007189D01*
X002544Y007233D01*
X002523Y007279D01*
X002506Y007327D01*
X002493Y007375D01*
X002483Y007425D01*
X002477Y007475D01*
X002475Y007525D01*
X000575Y001225D02*
X000577Y001275D01*
X000583Y001325D01*
X000593Y001375D01*
X000606Y001423D01*
X000623Y001471D01*
X000644Y001517D01*
X000668Y001561D01*
X000696Y001603D01*
X000727Y001643D01*
X000761Y001680D01*
X000798Y001715D01*
X000837Y001746D01*
X000878Y001775D01*
X000922Y001800D01*
X000968Y001822D01*
X001015Y001840D01*
X001063Y001854D01*
X001112Y001865D01*
X001162Y001872D01*
X001212Y001875D01*
X001263Y001874D01*
X001313Y001869D01*
X001363Y001860D01*
X001411Y001848D01*
X001459Y001831D01*
X001505Y001811D01*
X001550Y001788D01*
X001593Y001761D01*
X001633Y001731D01*
X001671Y001698D01*
X001706Y001662D01*
X001739Y001623D01*
X001768Y001582D01*
X001794Y001539D01*
X001817Y001494D01*
X001836Y001447D01*
X001851Y001399D01*
X001863Y001350D01*
X001871Y001300D01*
X001875Y001250D01*
X001875Y001200D01*
X001871Y001150D01*
X001863Y001100D01*
X001851Y001051D01*
X001836Y001003D01*
X001817Y000956D01*
X001794Y000911D01*
X001768Y000868D01*
X001739Y000827D01*
X001706Y000788D01*
X001671Y000752D01*
X001633Y000719D01*
X001593Y000689D01*
X001550Y000662D01*
X001505Y000639D01*
X001459Y000619D01*
X001411Y000602D01*
X001363Y000590D01*
X001313Y000581D01*
X001263Y000576D01*
X001212Y000575D01*
X001162Y000578D01*
X001112Y000585D01*
X001063Y000596D01*
X001015Y000610D01*
X000968Y000628D01*
X000922Y000650D01*
X000878Y000675D01*
X000837Y000704D01*
X000798Y000735D01*
X000761Y000770D01*
X000727Y000807D01*
X000696Y000847D01*
X000668Y000889D01*
X000644Y000933D01*
X000623Y000979D01*
X000606Y001027D01*
X000593Y001075D01*
X000583Y001125D01*
X000577Y001175D01*
X000575Y001225D01*
X000575Y026725D02*
X000577Y026775D01*
X000583Y026825D01*
X000593Y026875D01*
X000606Y026923D01*
X000623Y026971D01*
X000644Y027017D01*
X000668Y027061D01*
X000696Y027103D01*
X000727Y027143D01*
X000761Y027180D01*
X000798Y027215D01*
X000837Y027246D01*
X000878Y027275D01*
X000922Y027300D01*
X000968Y027322D01*
X001015Y027340D01*
X001063Y027354D01*
X001112Y027365D01*
X001162Y027372D01*
X001212Y027375D01*
X001263Y027374D01*
X001313Y027369D01*
X001363Y027360D01*
X001411Y027348D01*
X001459Y027331D01*
X001505Y027311D01*
X001550Y027288D01*
X001593Y027261D01*
X001633Y027231D01*
X001671Y027198D01*
X001706Y027162D01*
X001739Y027123D01*
X001768Y027082D01*
X001794Y027039D01*
X001817Y026994D01*
X001836Y026947D01*
X001851Y026899D01*
X001863Y026850D01*
X001871Y026800D01*
X001875Y026750D01*
X001875Y026700D01*
X001871Y026650D01*
X001863Y026600D01*
X001851Y026551D01*
X001836Y026503D01*
X001817Y026456D01*
X001794Y026411D01*
X001768Y026368D01*
X001739Y026327D01*
X001706Y026288D01*
X001671Y026252D01*
X001633Y026219D01*
X001593Y026189D01*
X001550Y026162D01*
X001505Y026139D01*
X001459Y026119D01*
X001411Y026102D01*
X001363Y026090D01*
X001313Y026081D01*
X001263Y026076D01*
X001212Y026075D01*
X001162Y026078D01*
X001112Y026085D01*
X001063Y026096D01*
X001015Y026110D01*
X000968Y026128D01*
X000922Y026150D01*
X000878Y026175D01*
X000837Y026204D01*
X000798Y026235D01*
X000761Y026270D01*
X000727Y026307D01*
X000696Y026347D01*
X000668Y026389D01*
X000644Y026433D01*
X000623Y026479D01*
X000606Y026527D01*
X000593Y026575D01*
X000583Y026625D01*
X000577Y026675D01*
X000575Y026725D01*
X037575Y026725D02*
X037577Y026775D01*
X037583Y026825D01*
X037593Y026875D01*
X037606Y026923D01*
X037623Y026971D01*
X037644Y027017D01*
X037668Y027061D01*
X037696Y027103D01*
X037727Y027143D01*
X037761Y027180D01*
X037798Y027215D01*
X037837Y027246D01*
X037878Y027275D01*
X037922Y027300D01*
X037968Y027322D01*
X038015Y027340D01*
X038063Y027354D01*
X038112Y027365D01*
X038162Y027372D01*
X038212Y027375D01*
X038263Y027374D01*
X038313Y027369D01*
X038363Y027360D01*
X038411Y027348D01*
X038459Y027331D01*
X038505Y027311D01*
X038550Y027288D01*
X038593Y027261D01*
X038633Y027231D01*
X038671Y027198D01*
X038706Y027162D01*
X038739Y027123D01*
X038768Y027082D01*
X038794Y027039D01*
X038817Y026994D01*
X038836Y026947D01*
X038851Y026899D01*
X038863Y026850D01*
X038871Y026800D01*
X038875Y026750D01*
X038875Y026700D01*
X038871Y026650D01*
X038863Y026600D01*
X038851Y026551D01*
X038836Y026503D01*
X038817Y026456D01*
X038794Y026411D01*
X038768Y026368D01*
X038739Y026327D01*
X038706Y026288D01*
X038671Y026252D01*
X038633Y026219D01*
X038593Y026189D01*
X038550Y026162D01*
X038505Y026139D01*
X038459Y026119D01*
X038411Y026102D01*
X038363Y026090D01*
X038313Y026081D01*
X038263Y026076D01*
X038212Y026075D01*
X038162Y026078D01*
X038112Y026085D01*
X038063Y026096D01*
X038015Y026110D01*
X037968Y026128D01*
X037922Y026150D01*
X037878Y026175D01*
X037837Y026204D01*
X037798Y026235D01*
X037761Y026270D01*
X037727Y026307D01*
X037696Y026347D01*
X037668Y026389D01*
X037644Y026433D01*
X037623Y026479D01*
X037606Y026527D01*
X037593Y026575D01*
X037583Y026625D01*
X037577Y026675D01*
X037575Y026725D01*
X037575Y001225D02*
X037577Y001275D01*
X037583Y001325D01*
X037593Y001375D01*
X037606Y001423D01*
X037623Y001471D01*
X037644Y001517D01*
X037668Y001561D01*
X037696Y001603D01*
X037727Y001643D01*
X037761Y001680D01*
X037798Y001715D01*
X037837Y001746D01*
X037878Y001775D01*
X037922Y001800D01*
X037968Y001822D01*
X038015Y001840D01*
X038063Y001854D01*
X038112Y001865D01*
X038162Y001872D01*
X038212Y001875D01*
X038263Y001874D01*
X038313Y001869D01*
X038363Y001860D01*
X038411Y001848D01*
X038459Y001831D01*
X038505Y001811D01*
X038550Y001788D01*
X038593Y001761D01*
X038633Y001731D01*
X038671Y001698D01*
X038706Y001662D01*
X038739Y001623D01*
X038768Y001582D01*
X038794Y001539D01*
X038817Y001494D01*
X038836Y001447D01*
X038851Y001399D01*
X038863Y001350D01*
X038871Y001300D01*
X038875Y001250D01*
X038875Y001200D01*
X038871Y001150D01*
X038863Y001100D01*
X038851Y001051D01*
X038836Y001003D01*
X038817Y000956D01*
X038794Y000911D01*
X038768Y000868D01*
X038739Y000827D01*
X038706Y000788D01*
X038671Y000752D01*
X038633Y000719D01*
X038593Y000689D01*
X038550Y000662D01*
X038505Y000639D01*
X038459Y000619D01*
X038411Y000602D01*
X038363Y000590D01*
X038313Y000581D01*
X038263Y000576D01*
X038212Y000575D01*
X038162Y000578D01*
X038112Y000585D01*
X038063Y000596D01*
X038015Y000610D01*
X037968Y000628D01*
X037922Y000650D01*
X037878Y000675D01*
X037837Y000704D01*
X037798Y000735D01*
X037761Y000770D01*
X037727Y000807D01*
X037696Y000847D01*
X037668Y000889D01*
X037644Y000933D01*
X037623Y000979D01*
X037606Y001027D01*
X037593Y001075D01*
X037583Y001125D01*
X037577Y001175D01*
X037575Y001225D01*
D13*
X036825Y022740D03*
X036825Y024710D03*
X032225Y024710D03*
X032225Y022740D03*
X004325Y020425D03*
X003325Y020425D03*
X003325Y018325D03*
X004325Y018325D03*
D14*
X006125Y020025D03*
X009125Y020025D03*
X004125Y015025D03*
X001125Y015025D03*
X001675Y023336D03*
D15*
X001675Y024714D03*
D16*
X005583Y017154D03*
X014075Y013475D03*
X019831Y016131D03*
X020816Y016131D03*
X021800Y016131D03*
X025134Y016131D03*
X026119Y016131D03*
X027103Y016131D03*
X030438Y016131D03*
X031422Y016131D03*
X032406Y016131D03*
X035741Y016081D03*
X036725Y016081D03*
X037709Y016081D03*
X033081Y018741D03*
X033081Y019725D03*
X033081Y020709D03*
X017725Y025825D03*
X005583Y001406D03*
D17*
X006583Y001406D03*
X007583Y001406D03*
X008583Y001406D03*
X009583Y001406D03*
X010583Y001406D03*
X011583Y001406D03*
X012583Y001406D03*
X019235Y001295D03*
X021015Y001295D03*
X022235Y001295D03*
X024015Y001295D03*
X025235Y001295D03*
X027015Y001295D03*
X028235Y001295D03*
X030015Y001295D03*
X031235Y001295D03*
X033015Y001295D03*
X034235Y001295D03*
X036015Y001295D03*
X036015Y003855D03*
X034235Y003855D03*
X033015Y003855D03*
X031235Y003855D03*
X030015Y003855D03*
X028235Y003855D03*
X027015Y003855D03*
X025235Y003855D03*
X024015Y003855D03*
X022235Y003855D03*
X021015Y003855D03*
X019235Y003855D03*
X015075Y011475D03*
X015075Y012475D03*
X014075Y012475D03*
X014075Y011475D03*
X015075Y013475D03*
X016625Y011925D03*
X016625Y015925D03*
X018225Y017075D03*
X018225Y021075D03*
X019225Y022325D03*
X018725Y024025D03*
X018725Y025825D03*
X019725Y025825D03*
X020725Y025825D03*
X021725Y025825D03*
X022725Y025825D03*
X022725Y024025D03*
X023225Y022325D03*
X025125Y022375D03*
X024635Y020455D03*
X026415Y020455D03*
X029125Y022375D03*
X026415Y017895D03*
X024635Y017895D03*
X012583Y017154D03*
X011583Y017154D03*
X010583Y017154D03*
X009583Y017154D03*
X008583Y017154D03*
X007583Y017154D03*
X006583Y017154D03*
X005575Y018525D03*
X009575Y018525D03*
X011275Y019075D03*
X012275Y020075D03*
X011275Y021075D03*
X001125Y021275D03*
X001125Y020275D03*
X001125Y019275D03*
X036825Y017325D03*
X036825Y021325D03*
D18*
X022925Y020805D02*
X022925Y020245D01*
X021925Y020245D02*
X021925Y020805D01*
X020925Y020805D02*
X020925Y020245D01*
X019925Y020245D02*
X019925Y020805D01*
X016625Y020805D02*
X016625Y020245D01*
X015625Y020245D02*
X015625Y020805D01*
X014625Y020805D02*
X014625Y020245D01*
X013625Y020245D02*
X013625Y020805D01*
X013625Y017805D02*
X013625Y017245D01*
X014625Y017245D02*
X014625Y017805D01*
X015625Y017805D02*
X015625Y017245D01*
X016625Y017245D02*
X016625Y017805D01*
X019925Y017805D02*
X019925Y017245D01*
X020925Y017245D02*
X020925Y017805D01*
X021925Y017805D02*
X021925Y017245D01*
X022925Y017245D02*
X022925Y017805D01*
X023025Y009405D02*
X023025Y008845D01*
X024025Y008845D02*
X024025Y009405D01*
X025025Y009405D02*
X025025Y008845D01*
X026025Y008845D02*
X026025Y009405D01*
X027025Y009405D02*
X027025Y008845D01*
X028025Y008845D02*
X028025Y009405D01*
X029025Y009405D02*
X029025Y008845D01*
X030025Y008845D02*
X030025Y009405D01*
X031025Y009405D02*
X031025Y008845D01*
X032025Y008845D02*
X032025Y009405D01*
X032025Y006405D02*
X032025Y005845D01*
X031025Y005845D02*
X031025Y006405D01*
X030025Y006405D02*
X030025Y005845D01*
X029025Y005845D02*
X029025Y006405D01*
X028025Y006405D02*
X028025Y005845D01*
X027025Y005845D02*
X027025Y006405D01*
X026025Y006405D02*
X026025Y005845D01*
X025025Y005845D02*
X025025Y006405D01*
X024025Y006405D02*
X024025Y005845D01*
X023025Y005845D02*
X023025Y006405D01*
X022025Y006405D02*
X022025Y005845D01*
X021025Y005845D02*
X021025Y006405D01*
X020025Y006405D02*
X020025Y005845D01*
X019025Y005845D02*
X019025Y006405D01*
X019025Y008845D02*
X019025Y009405D01*
X020025Y009405D02*
X020025Y008845D01*
X021025Y008845D02*
X021025Y009405D01*
X022025Y009405D02*
X022025Y008845D01*
D19*
X035125Y008575D03*
X037125Y008575D03*
X038125Y008575D03*
X038125Y006675D03*
X037125Y006675D03*
X035125Y006675D03*
X035425Y020325D03*
X035425Y021325D03*
X028725Y023675D03*
X027725Y023675D03*
X027725Y024725D03*
X028725Y024725D03*
D20*
X030325Y021457D03*
X030325Y017993D03*
X029690Y013375D03*
X027851Y013375D03*
X024386Y013375D03*
X022548Y013375D03*
X019083Y013375D03*
X033154Y013375D03*
X034993Y013325D03*
X038457Y013325D03*
D21*
X016344Y023657D03*
X015359Y024327D03*
X012721Y022555D03*
X012603Y025547D03*
X014375Y026925D03*
D22*
X007625Y023123D02*
X007625Y022343D01*
D23*
X005625Y021812D03*
X004625Y022772D03*
X005625Y026694D03*
X006625Y026694D03*
X008625Y026694D03*
X009625Y026694D03*
X010586Y022772D03*
X009625Y021812D03*
D24*
X010255Y021929D02*
X012405Y021929D01*
X012325Y021961D02*
X012582Y021855D01*
X012861Y021855D01*
X013118Y021961D01*
X013315Y022158D01*
X013421Y022416D01*
X013421Y022694D01*
X013315Y022951D01*
X013118Y023148D01*
X012861Y023255D01*
X012582Y023255D01*
X012325Y023148D01*
X012128Y022951D01*
X012021Y022694D01*
X012021Y022416D01*
X012128Y022158D01*
X012325Y021961D01*
X012124Y022167D02*
X010871Y022167D01*
X010847Y022142D02*
X010325Y022142D01*
X009956Y022511D01*
X009956Y023033D01*
X010325Y023402D01*
X010847Y023402D01*
X011216Y023033D01*
X011216Y022511D01*
X010847Y022142D01*
X011110Y022406D02*
X012026Y022406D01*
X012021Y022644D02*
X011216Y022644D01*
X011216Y022883D02*
X012099Y022883D01*
X012298Y023121D02*
X011128Y023121D01*
X010889Y023360D02*
X015709Y023360D01*
X015702Y023377D02*
X015750Y023261D01*
X015947Y023064D01*
X016044Y023024D01*
X016044Y021947D01*
X016089Y021837D01*
X016174Y021752D01*
X016621Y021305D01*
X016586Y021305D01*
X016508Y021293D01*
X016433Y021268D01*
X016363Y021233D01*
X016299Y021186D01*
X016244Y021131D01*
X016197Y021067D01*
X016162Y020997D01*
X016137Y020922D01*
X016125Y020844D01*
X016125Y020525D01*
X016625Y020525D01*
X017125Y020525D01*
X017125Y020801D01*
X017425Y020501D01*
X017425Y018221D01*
X015905Y019741D01*
X015905Y019846D01*
X016032Y019973D01*
X016105Y020150D01*
X016105Y020900D01*
X016032Y021077D01*
X015897Y021212D01*
X015720Y021285D01*
X015530Y021285D01*
X015353Y021212D01*
X015218Y021077D01*
X015145Y020900D01*
X015145Y020150D01*
X015218Y019973D01*
X015345Y019846D01*
X015345Y019569D01*
X015388Y019466D01*
X016569Y018285D01*
X016530Y018285D01*
X016353Y018212D01*
X016218Y018077D01*
X016145Y017900D01*
X016145Y017150D01*
X016218Y016973D01*
X016353Y016838D01*
X016530Y016765D01*
X016720Y016765D01*
X016897Y016838D01*
X017032Y016973D01*
X017045Y017005D01*
X017045Y016369D01*
X017086Y016270D01*
X016948Y016408D01*
X016738Y016495D01*
X016512Y016495D01*
X016302Y016408D01*
X016142Y016248D01*
X016124Y016205D01*
X013269Y016205D01*
X013166Y016162D01*
X013088Y016084D01*
X012863Y015859D01*
X012863Y016653D01*
X012895Y016666D01*
X012895Y016619D01*
X012938Y016516D01*
X013088Y016366D01*
X013166Y016288D01*
X013269Y016245D01*
X014481Y016245D01*
X014584Y016288D01*
X014784Y016488D01*
X014862Y016566D01*
X014905Y016669D01*
X014905Y016846D01*
X015032Y016973D01*
X015105Y017150D01*
X015105Y017900D01*
X015045Y018045D01*
X015205Y018045D01*
X015145Y017900D01*
X015145Y017150D01*
X015218Y016973D01*
X015353Y016838D01*
X015530Y016765D01*
X015720Y016765D01*
X015897Y016838D01*
X016032Y016973D01*
X016105Y017150D01*
X016105Y017900D01*
X016032Y018077D01*
X015897Y018212D01*
X015891Y018214D01*
X015862Y018284D01*
X015784Y018362D01*
X015584Y018562D01*
X015481Y018605D01*
X013069Y018605D01*
X012966Y018562D01*
X012888Y018484D01*
X012809Y018405D01*
X010605Y018405D01*
X010605Y019931D01*
X010562Y020034D01*
X010412Y020184D01*
X010334Y020262D01*
X010231Y020305D01*
X009658Y020305D01*
X009634Y020365D01*
X009465Y020534D01*
X009405Y020558D01*
X009405Y021182D01*
X009886Y021182D01*
X010255Y021551D01*
X010255Y022073D01*
X009886Y022442D01*
X009364Y022442D01*
X008995Y022073D01*
X008995Y021698D01*
X008888Y021591D01*
X008845Y021488D01*
X008845Y020558D01*
X008785Y020534D01*
X008616Y020365D01*
X008525Y020144D01*
X008525Y019906D01*
X008616Y019685D01*
X008785Y019516D01*
X009006Y019425D01*
X009244Y019425D01*
X009465Y019516D01*
X009634Y019685D01*
X009658Y019745D01*
X010045Y019745D01*
X010045Y018861D01*
X009898Y019008D01*
X009688Y019095D01*
X009462Y019095D01*
X009252Y019008D01*
X009092Y018848D01*
X009074Y018805D01*
X008241Y018805D01*
X007955Y019091D01*
X007955Y021581D01*
X007912Y021684D01*
X007834Y021762D01*
X007814Y021782D01*
X007959Y021843D01*
X008125Y022009D01*
X008215Y022226D01*
X008215Y023240D01*
X008125Y023457D01*
X007959Y023623D01*
X007742Y023713D01*
X007508Y023713D01*
X007291Y023623D01*
X007125Y023457D01*
X007035Y023240D01*
X007035Y022226D01*
X007090Y022092D01*
X006236Y022092D01*
X005886Y022442D01*
X005364Y022442D01*
X004995Y022073D01*
X004995Y021551D01*
X005364Y021182D01*
X005886Y021182D01*
X006236Y021532D01*
X007272Y021532D01*
X007395Y021409D01*
X007395Y018919D01*
X007438Y018816D01*
X007888Y018366D01*
X007966Y018288D01*
X008069Y018245D01*
X009074Y018245D01*
X009092Y018202D01*
X009252Y018042D01*
X009341Y018005D01*
X006230Y018005D01*
X006078Y018249D01*
X006145Y018412D01*
X006145Y018638D01*
X006058Y018848D01*
X005898Y019008D01*
X005855Y019026D01*
X005855Y019401D01*
X005920Y019460D01*
X006006Y019425D01*
X006244Y019425D01*
X006465Y019516D01*
X006634Y019685D01*
X006725Y019906D01*
X006725Y020144D01*
X006634Y020365D01*
X006465Y020534D01*
X006244Y020625D01*
X006006Y020625D01*
X005785Y020534D01*
X005616Y020365D01*
X005525Y020144D01*
X005525Y019906D01*
X005539Y019871D01*
X005423Y019765D01*
X005416Y019762D01*
X005382Y019728D01*
X005345Y019695D01*
X005343Y019688D01*
X005338Y019684D01*
X005319Y019638D01*
X005298Y019594D01*
X005298Y019587D01*
X005295Y019581D01*
X005295Y019532D01*
X005293Y019483D01*
X005295Y019476D01*
X005295Y019026D01*
X005252Y019008D01*
X005092Y018848D01*
X005005Y018638D01*
X005005Y018412D01*
X005092Y018202D01*
X005252Y018042D01*
X005462Y017955D01*
X005601Y017955D01*
X005745Y017724D01*
X005130Y017724D01*
X005013Y017607D01*
X005013Y016701D01*
X005130Y016584D01*
X006036Y016584D01*
X006153Y016701D01*
X006153Y016750D01*
X006199Y016704D01*
X006274Y016650D01*
X006357Y016607D01*
X006445Y016579D01*
X006537Y016564D01*
X006583Y016564D01*
X006583Y017154D01*
X006583Y017154D01*
X006583Y016564D01*
X006630Y016564D01*
X006721Y016579D01*
X006810Y016607D01*
X006892Y016650D01*
X006968Y016704D01*
X007033Y016770D01*
X007088Y016845D01*
X007091Y016852D01*
X007100Y016831D01*
X007260Y016671D01*
X007303Y016653D01*
X007303Y001907D01*
X007260Y001889D01*
X007100Y001729D01*
X007091Y001708D01*
X007088Y001715D01*
X007033Y001790D01*
X006968Y001856D01*
X006892Y001911D01*
X006810Y001953D01*
X006721Y001982D01*
X006630Y001996D01*
X006583Y001996D01*
X006537Y001996D01*
X006445Y001982D01*
X006357Y001953D01*
X006274Y001911D01*
X006199Y001856D01*
X006153Y001810D01*
X006153Y001859D01*
X006036Y001976D01*
X005130Y001976D01*
X005013Y001859D01*
X005013Y000953D01*
X005130Y000836D01*
X006036Y000836D01*
X006153Y000953D01*
X006153Y001002D01*
X006199Y000956D01*
X006274Y000901D01*
X006357Y000859D01*
X006445Y000831D01*
X006537Y000816D01*
X006583Y000816D01*
X006583Y001406D01*
X006583Y001406D01*
X006583Y001996D01*
X006583Y001406D01*
X006583Y001406D01*
X006583Y000816D01*
X006630Y000816D01*
X006721Y000831D01*
X006810Y000859D01*
X006892Y000901D01*
X006968Y000956D01*
X007033Y001022D01*
X007088Y001097D01*
X007091Y001104D01*
X007100Y001083D01*
X007260Y000923D01*
X007470Y000836D01*
X007697Y000836D01*
X007906Y000923D01*
X008066Y001083D01*
X008083Y001124D01*
X008100Y001083D01*
X008260Y000923D01*
X008470Y000836D01*
X008697Y000836D01*
X008906Y000923D01*
X009066Y001083D01*
X009083Y001124D01*
X009100Y001083D01*
X009260Y000923D01*
X009470Y000836D01*
X009697Y000836D01*
X009906Y000923D01*
X010066Y001083D01*
X010083Y001124D01*
X010100Y001083D01*
X010260Y000923D01*
X010470Y000836D01*
X010697Y000836D01*
X010906Y000923D01*
X011066Y001083D01*
X011083Y001124D01*
X011100Y001083D01*
X011260Y000923D01*
X011470Y000836D01*
X011697Y000836D01*
X011906Y000923D01*
X012066Y001083D01*
X012083Y001124D01*
X012100Y001083D01*
X012260Y000923D01*
X012470Y000836D01*
X012697Y000836D01*
X012906Y000923D01*
X013066Y001083D01*
X013153Y001293D01*
X013153Y001519D01*
X013066Y001729D01*
X012906Y001889D01*
X012863Y001907D01*
X012863Y011491D01*
X012916Y011438D01*
X013116Y011238D01*
X013219Y011195D01*
X013574Y011195D01*
X013592Y011152D01*
X013752Y010992D01*
X013962Y010905D01*
X014188Y010905D01*
X014398Y010992D01*
X014558Y011152D01*
X014567Y011173D01*
X014570Y011166D01*
X014625Y011091D01*
X014691Y011025D01*
X014766Y010970D01*
X014849Y010928D01*
X014937Y010900D01*
X015029Y010885D01*
X015075Y010885D01*
X015121Y010885D01*
X015213Y010900D01*
X015301Y010928D01*
X015384Y010970D01*
X015459Y011025D01*
X015525Y011091D01*
X015580Y011166D01*
X015622Y011249D01*
X015645Y011320D01*
X015645Y005169D01*
X015688Y005066D01*
X015766Y004988D01*
X018338Y002416D01*
X018416Y002338D01*
X018519Y002295D01*
X027011Y002295D01*
X027114Y002338D01*
X028079Y003303D01*
X028122Y003285D01*
X028348Y003285D01*
X028558Y003372D01*
X028718Y003532D01*
X028805Y003742D01*
X028805Y003968D01*
X028787Y004011D01*
X028921Y004145D01*
X029501Y004145D01*
X029468Y004081D01*
X029440Y003993D01*
X029425Y003901D01*
X029425Y003855D01*
X030015Y003855D01*
X030605Y003855D01*
X030605Y003901D01*
X030590Y003993D01*
X030562Y004081D01*
X030520Y004164D01*
X030465Y004239D01*
X030399Y004305D01*
X030324Y004360D01*
X030279Y004383D01*
X030341Y004445D01*
X031429Y004445D01*
X031391Y004407D01*
X031348Y004425D01*
X031122Y004425D01*
X030912Y004338D01*
X030752Y004178D01*
X030665Y003968D01*
X030665Y003742D01*
X030752Y003532D01*
X030912Y003372D01*
X031122Y003285D01*
X031348Y003285D01*
X031558Y003372D01*
X031718Y003532D01*
X031805Y003742D01*
X031805Y003968D01*
X031787Y004011D01*
X031935Y004159D01*
X032508Y004159D01*
X032468Y004081D01*
X032440Y003993D01*
X032425Y003901D01*
X032425Y003855D01*
X033015Y003855D01*
X033605Y003855D01*
X033605Y003901D01*
X033590Y003993D01*
X033562Y004081D01*
X033520Y004164D01*
X033465Y004239D01*
X033399Y004305D01*
X033324Y004360D01*
X033241Y004402D01*
X033153Y004430D01*
X033092Y004440D01*
X033645Y005035D01*
X033645Y004119D01*
X033686Y004020D01*
X033665Y003968D01*
X033665Y003742D01*
X033752Y003532D01*
X033912Y003372D01*
X034122Y003285D01*
X034348Y003285D01*
X034558Y003372D01*
X034718Y003532D01*
X034805Y003742D01*
X034805Y003968D01*
X034718Y004178D01*
X034558Y004338D01*
X034348Y004425D01*
X034205Y004425D01*
X034205Y007123D01*
X034206Y007176D01*
X034205Y007178D01*
X034205Y007181D01*
X034185Y007230D01*
X034165Y007279D01*
X034163Y007281D01*
X034162Y007284D01*
X034125Y007321D01*
X032763Y008731D01*
X032762Y008734D01*
X032725Y008771D01*
X032688Y008810D01*
X032685Y008811D01*
X034649Y008811D01*
X034676Y008875D02*
X034595Y008680D01*
X034595Y008470D01*
X034676Y008275D01*
X034825Y008126D01*
X035020Y008045D01*
X035230Y008045D01*
X035425Y008126D01*
X035574Y008275D01*
X035583Y008295D01*
X036667Y008295D01*
X036676Y008275D01*
X036825Y008126D01*
X037020Y008045D01*
X037230Y008045D01*
X037425Y008126D01*
X037574Y008275D01*
X037614Y008369D01*
X037615Y008364D01*
X037655Y008287D01*
X037705Y008217D01*
X037767Y008155D01*
X037837Y008105D01*
X037914Y008065D01*
X037996Y008039D01*
X038082Y008025D01*
X038125Y008025D01*
X038168Y008025D01*
X038254Y008039D01*
X038336Y008065D01*
X038413Y008105D01*
X038483Y008155D01*
X038545Y008217D01*
X038595Y008287D01*
X038635Y008364D01*
X038661Y008446D01*
X038675Y008532D01*
X038675Y008575D01*
X038675Y008618D01*
X038661Y008704D01*
X038635Y008786D01*
X038595Y008863D01*
X038545Y008933D01*
X038483Y008995D01*
X038413Y009045D01*
X038336Y009085D01*
X038254Y009111D01*
X038168Y009125D01*
X038125Y009125D01*
X038125Y008575D01*
X038125Y008575D01*
X038675Y008575D01*
X038125Y008575D01*
X038125Y008575D01*
X038125Y009125D01*
X038082Y009125D01*
X037996Y009111D01*
X037914Y009085D01*
X037837Y009045D01*
X037767Y008995D01*
X037705Y008933D01*
X037655Y008863D01*
X037615Y008786D01*
X037614Y008781D01*
X037574Y008875D01*
X037425Y009024D01*
X037230Y009105D01*
X037020Y009105D01*
X036825Y009024D01*
X036676Y008875D01*
X036667Y008855D01*
X035583Y008855D01*
X035574Y008875D01*
X035425Y009024D01*
X035230Y009105D01*
X035020Y009105D01*
X034825Y009024D01*
X034676Y008875D01*
X034886Y009050D02*
X032505Y009050D01*
X032505Y008855D02*
X032505Y009500D01*
X032432Y009677D01*
X032297Y009812D01*
X032120Y009885D01*
X031930Y009885D01*
X031753Y009812D01*
X031618Y009677D01*
X031545Y009500D01*
X031545Y008750D01*
X031605Y008605D01*
X031541Y008605D01*
X031473Y008673D01*
X031505Y008750D01*
X031505Y009500D01*
X031432Y009677D01*
X031297Y009812D01*
X031120Y009885D01*
X030930Y009885D01*
X030753Y009812D01*
X030618Y009677D01*
X030545Y009500D01*
X030545Y008750D01*
X030618Y008573D01*
X030753Y008438D01*
X030930Y008365D01*
X030989Y008365D01*
X031249Y008105D01*
X030041Y008105D01*
X029473Y008673D01*
X029505Y008750D01*
X029505Y009500D01*
X029432Y009677D01*
X029297Y009812D01*
X029120Y009885D01*
X028930Y009885D01*
X028753Y009812D01*
X028618Y009677D01*
X028545Y009500D01*
X028545Y008750D01*
X028618Y008573D01*
X028753Y008438D01*
X028930Y008365D01*
X028989Y008365D01*
X029688Y007666D01*
X029766Y007588D01*
X029869Y007545D01*
X031609Y007545D01*
X032345Y006809D01*
X032345Y006764D01*
X032297Y006812D01*
X032120Y006885D01*
X031930Y006885D01*
X031753Y006812D01*
X031618Y006677D01*
X031545Y006500D01*
X031545Y005750D01*
X031618Y005573D01*
X031648Y005544D01*
X031409Y005305D01*
X031201Y005305D01*
X031262Y005366D01*
X031291Y005436D01*
X031297Y005438D01*
X031432Y005573D01*
X031505Y005750D01*
X031505Y006500D01*
X031432Y006677D01*
X031297Y006812D01*
X031120Y006885D01*
X030930Y006885D01*
X030753Y006812D01*
X030618Y006677D01*
X030545Y006500D01*
X030545Y005750D01*
X030605Y005605D01*
X030445Y005605D01*
X030505Y005750D01*
X030505Y006500D01*
X030432Y006677D01*
X030297Y006812D01*
X030120Y006885D01*
X029930Y006885D01*
X029753Y006812D01*
X029618Y006677D01*
X029545Y006500D01*
X029545Y005750D01*
X029548Y005743D01*
X029471Y005667D01*
X029505Y005750D01*
X029505Y006500D01*
X029432Y006677D01*
X029297Y006812D01*
X029120Y006885D01*
X028930Y006885D01*
X028753Y006812D01*
X028618Y006677D01*
X028545Y006500D01*
X028545Y005750D01*
X028605Y005605D01*
X028445Y005605D01*
X028505Y005750D01*
X028505Y006500D01*
X028432Y006677D01*
X028297Y006812D01*
X028120Y006885D01*
X027930Y006885D01*
X027753Y006812D01*
X027618Y006677D01*
X027545Y006500D01*
X027545Y005750D01*
X027605Y005605D01*
X027445Y005605D01*
X027505Y005750D01*
X027505Y006500D01*
X027432Y006677D01*
X027297Y006812D01*
X027120Y006885D01*
X026930Y006885D01*
X026753Y006812D01*
X026618Y006677D01*
X026545Y006500D01*
X026545Y005750D01*
X026618Y005573D01*
X026748Y005444D01*
X026609Y005305D01*
X024958Y005305D01*
X025018Y005365D01*
X025120Y005365D01*
X025297Y005438D01*
X025432Y005573D01*
X025505Y005750D01*
X025505Y006500D01*
X025432Y006677D01*
X025297Y006812D01*
X025120Y006885D01*
X024930Y006885D01*
X024753Y006812D01*
X024618Y006677D01*
X024545Y006500D01*
X024545Y005798D01*
X024505Y005758D01*
X024505Y006500D01*
X024432Y006677D01*
X024297Y006812D01*
X024120Y006885D01*
X023930Y006885D01*
X023753Y006812D01*
X023618Y006677D01*
X023545Y006500D01*
X023545Y005750D01*
X023618Y005573D01*
X023694Y005497D01*
X023542Y005345D01*
X017208Y005345D01*
X016945Y005608D01*
X016945Y011441D01*
X016948Y011442D01*
X017108Y011602D01*
X017195Y011812D01*
X017195Y012038D01*
X017110Y012244D01*
X017116Y012238D01*
X017121Y012236D01*
X017745Y011653D01*
X017745Y006869D01*
X017788Y006766D01*
X018545Y006009D01*
X018545Y005750D01*
X018618Y005573D01*
X018753Y005438D01*
X018930Y005365D01*
X019120Y005365D01*
X019297Y005438D01*
X019432Y005573D01*
X019505Y005750D01*
X019505Y006500D01*
X019432Y006677D01*
X019297Y006812D01*
X019120Y006885D01*
X018930Y006885D01*
X018753Y006812D01*
X018644Y006702D01*
X018305Y007041D01*
X018305Y011649D01*
X020069Y009885D01*
X019930Y009885D01*
X019753Y009812D01*
X019618Y009677D01*
X019545Y009500D01*
X019545Y008750D01*
X019618Y008573D01*
X019753Y008438D01*
X019930Y008365D01*
X020120Y008365D01*
X020297Y008438D01*
X020432Y008573D01*
X020505Y008750D01*
X020505Y009425D01*
X020545Y009425D01*
X020545Y008750D01*
X020618Y008573D01*
X020753Y008438D01*
X020930Y008365D01*
X021120Y008365D01*
X021244Y008416D01*
X021245Y006833D01*
X021120Y006885D01*
X020930Y006885D01*
X020753Y006812D01*
X020618Y006677D01*
X020545Y006500D01*
X020545Y005750D01*
X020618Y005573D01*
X020753Y005438D01*
X020930Y005365D01*
X021120Y005365D01*
X021297Y005438D01*
X021432Y005573D01*
X021505Y005750D01*
X021505Y006209D01*
X021545Y006249D01*
X021545Y005750D01*
X021618Y005573D01*
X021753Y005438D01*
X021930Y005365D01*
X022120Y005365D01*
X022297Y005438D01*
X022432Y005573D01*
X022505Y005750D01*
X022505Y006500D01*
X022432Y006677D01*
X022297Y006812D01*
X022120Y006885D01*
X021930Y006885D01*
X021805Y006833D01*
X021804Y008417D01*
X021930Y008365D01*
X022120Y008365D01*
X022297Y008438D01*
X022432Y008573D01*
X022505Y008750D01*
X022505Y009500D01*
X022435Y009669D01*
X022753Y009956D01*
X022748Y009945D01*
X022748Y009938D01*
X022745Y009931D01*
X022745Y009882D01*
X022742Y009834D01*
X022745Y009827D01*
X022745Y009804D01*
X022618Y009677D01*
X022545Y009500D01*
X022545Y008750D01*
X022618Y008573D01*
X022753Y008438D01*
X022930Y008365D01*
X023120Y008365D01*
X023297Y008438D01*
X023432Y008573D01*
X023505Y008750D01*
X023505Y009500D01*
X023432Y009677D01*
X023333Y009776D01*
X026670Y012785D01*
X026677Y012788D01*
X026689Y012799D01*
X026689Y012750D01*
X023873Y010215D01*
X023866Y010212D01*
X023832Y010178D01*
X023796Y010146D01*
X023793Y010139D01*
X023788Y010134D01*
X023769Y010089D01*
X023748Y010045D01*
X023748Y010038D01*
X023745Y010031D01*
X023745Y009982D01*
X023742Y009934D01*
X023745Y009927D01*
X023745Y009804D01*
X023618Y009677D01*
X023545Y009500D01*
X023545Y008750D01*
X023618Y008573D01*
X023753Y008438D01*
X023930Y008365D01*
X024120Y008365D01*
X024297Y008438D01*
X024432Y008573D01*
X024505Y008750D01*
X024505Y009500D01*
X024432Y009677D01*
X024305Y009804D01*
X024305Y009850D01*
X027120Y012385D01*
X027127Y012388D01*
X027161Y012422D01*
X027197Y012454D01*
X027201Y012461D01*
X027206Y012466D01*
X027225Y012511D01*
X027245Y012555D01*
X027246Y012562D01*
X027249Y012569D01*
X027249Y012618D01*
X027251Y012666D01*
X027249Y012673D01*
X027249Y012846D01*
X027520Y012575D01*
X028182Y012575D01*
X028651Y013044D01*
X028651Y013706D01*
X028182Y014175D01*
X027520Y014175D01*
X027249Y013904D01*
X027249Y013909D01*
X027685Y014345D01*
X031178Y014345D01*
X031280Y014388D01*
X032138Y015245D01*
X036481Y015245D01*
X036584Y015288D01*
X036807Y015511D01*
X037178Y015511D01*
X037217Y015550D01*
X037256Y015511D01*
X038162Y015511D01*
X038279Y015628D01*
X038279Y016534D01*
X038162Y016651D01*
X037256Y016651D01*
X037217Y016612D01*
X037178Y016651D01*
X036272Y016651D01*
X036247Y016626D01*
X036246Y016627D01*
X036196Y016656D01*
X036140Y016671D01*
X035741Y016671D01*
X035741Y016081D01*
X035741Y016081D01*
X035741Y016671D01*
X035342Y016671D01*
X035286Y016656D01*
X035236Y016627D01*
X035195Y016586D01*
X035166Y016536D01*
X035151Y016480D01*
X035151Y016081D01*
X035741Y016081D01*
X035741Y016081D01*
X035151Y016081D01*
X035151Y015805D01*
X032976Y015805D01*
X032976Y016584D01*
X032859Y016701D01*
X032545Y016701D01*
X032545Y016889D01*
X032496Y017006D01*
X032406Y017096D01*
X032306Y017196D01*
X032189Y017245D01*
X030709Y017245D01*
X031125Y017661D01*
X031125Y018324D01*
X030656Y018793D01*
X029994Y018793D01*
X029525Y018324D01*
X029525Y017661D01*
X029941Y017245D01*
X024625Y017245D01*
X024625Y017245D01*
X024625Y017325D01*
X024748Y017325D01*
X024958Y017412D01*
X025118Y017572D01*
X025205Y017782D01*
X025205Y017881D01*
X026079Y018755D01*
X026125Y018865D01*
X026125Y019958D01*
X026302Y019885D01*
X026528Y019885D01*
X026738Y019972D01*
X026898Y020132D01*
X026985Y020342D01*
X026985Y020568D01*
X026898Y020778D01*
X026738Y020938D01*
X026528Y021025D01*
X026302Y021025D01*
X026125Y020952D01*
X026125Y025685D01*
X026079Y025795D01*
X025795Y026079D01*
X025685Y026125D01*
X023218Y026125D01*
X023208Y026148D01*
X023048Y026308D01*
X022838Y026395D01*
X022612Y026395D01*
X022402Y026308D01*
X022242Y026148D01*
X022225Y026107D01*
X022208Y026148D01*
X022048Y026308D01*
X021838Y026395D01*
X021612Y026395D01*
X021402Y026308D01*
X021242Y026148D01*
X021225Y026107D01*
X021208Y026148D01*
X021048Y026308D01*
X020838Y026395D01*
X020612Y026395D01*
X020402Y026308D01*
X020242Y026148D01*
X020225Y026107D01*
X020208Y026148D01*
X020048Y026308D01*
X019838Y026395D01*
X019612Y026395D01*
X019402Y026308D01*
X019242Y026148D01*
X019225Y026107D01*
X019208Y026148D01*
X019048Y026308D01*
X018838Y026395D01*
X018612Y026395D01*
X018402Y026308D01*
X018315Y026221D01*
X018315Y026224D01*
X018300Y026280D01*
X018271Y026330D01*
X018230Y026371D01*
X018180Y026400D01*
X018124Y026415D01*
X017725Y026415D01*
X017725Y025825D01*
X017725Y025825D01*
X017725Y025235D01*
X018124Y025235D01*
X018180Y025250D01*
X018230Y025279D01*
X018271Y025320D01*
X018300Y025370D01*
X018315Y025426D01*
X018315Y025429D01*
X018402Y025342D01*
X018612Y025255D01*
X018838Y025255D01*
X019048Y025342D01*
X019208Y025502D01*
X019225Y025543D01*
X019242Y025502D01*
X019402Y025342D01*
X019405Y025341D01*
X019405Y022958D01*
X019341Y022894D01*
X019338Y022895D01*
X019112Y022895D01*
X018902Y022808D01*
X018742Y022648D01*
X018655Y022438D01*
X018655Y022212D01*
X018742Y022002D01*
X018902Y021842D01*
X019112Y021755D01*
X019338Y021755D01*
X019341Y021756D01*
X019594Y021504D01*
X019711Y021455D01*
X022692Y021455D01*
X022862Y021285D01*
X022830Y021285D01*
X022653Y021212D01*
X022518Y021077D01*
X022445Y020900D01*
X022445Y020150D01*
X022518Y019973D01*
X022653Y019838D01*
X022830Y019765D01*
X023020Y019765D01*
X023155Y019821D01*
X023155Y018249D01*
X023117Y018268D01*
X023042Y018293D01*
X022964Y018305D01*
X022925Y018305D01*
X022925Y017525D01*
X022925Y017525D01*
X023155Y017525D01*
X023155Y017525D01*
X022925Y017525D01*
X022925Y017525D01*
X022925Y016745D01*
X022964Y016745D01*
X023042Y016757D01*
X023117Y016782D01*
X023187Y016817D01*
X023251Y016864D01*
X023306Y016919D01*
X023353Y016983D01*
X023388Y017053D01*
X023402Y017095D01*
X023621Y016877D01*
X023195Y016451D01*
X022370Y016451D01*
X022370Y016584D01*
X022253Y016701D01*
X021347Y016701D01*
X021308Y016662D01*
X021268Y016701D01*
X020363Y016701D01*
X020338Y016676D01*
X020336Y016677D01*
X020286Y016706D01*
X020230Y016721D01*
X019831Y016721D01*
X019432Y016721D01*
X019376Y016706D01*
X019326Y016677D01*
X019285Y016636D01*
X019256Y016586D01*
X019241Y016530D01*
X019241Y016131D01*
X019831Y016131D01*
X019831Y016131D01*
X019241Y016131D01*
X019241Y015732D01*
X019256Y015676D01*
X019285Y015626D01*
X019326Y015585D01*
X019376Y015556D01*
X019432Y015541D01*
X019831Y015541D01*
X019831Y016131D01*
X019831Y016721D01*
X019831Y016131D01*
X019831Y016131D01*
X019831Y016131D01*
X019831Y015541D01*
X020230Y015541D01*
X020286Y015556D01*
X020336Y015585D01*
X020338Y015586D01*
X020363Y015561D01*
X020536Y015561D01*
X020536Y010479D01*
X020578Y010376D01*
X020745Y010209D01*
X020745Y010167D01*
X020605Y010225D01*
X020521Y010225D01*
X017905Y012841D01*
X017905Y016181D01*
X017862Y016284D01*
X017784Y016362D01*
X017605Y016541D01*
X017605Y017271D01*
X017664Y017211D01*
X017655Y017188D01*
X017655Y016962D01*
X017742Y016752D01*
X017902Y016592D01*
X018112Y016505D01*
X018338Y016505D01*
X018548Y016592D01*
X018708Y016752D01*
X018795Y016962D01*
X018795Y017188D01*
X018708Y017398D01*
X018548Y017558D01*
X018338Y017645D01*
X018112Y017645D01*
X018089Y017636D01*
X018025Y017699D01*
X018025Y020001D01*
X018055Y019971D01*
X018955Y019071D01*
X019065Y019025D01*
X020501Y019025D01*
X020525Y019001D01*
X020525Y018084D01*
X020518Y018077D01*
X020445Y017900D01*
X020445Y017150D01*
X020518Y016973D01*
X020653Y016838D01*
X020830Y016765D01*
X021020Y016765D01*
X021197Y016838D01*
X021332Y016973D01*
X021405Y017150D01*
X021405Y017900D01*
X021332Y018077D01*
X021197Y018212D01*
X021125Y018242D01*
X021125Y019185D01*
X021079Y019295D01*
X020879Y019495D01*
X020795Y019579D01*
X020685Y019625D01*
X019249Y019625D01*
X018525Y020349D01*
X018525Y020582D01*
X018548Y020592D01*
X018708Y020752D01*
X018795Y020962D01*
X018795Y021188D01*
X018708Y021398D01*
X018548Y021558D01*
X018338Y021645D01*
X018112Y021645D01*
X017902Y021558D01*
X017742Y021398D01*
X017655Y021188D01*
X017655Y021119D01*
X016644Y022131D01*
X016644Y023024D01*
X016740Y023064D01*
X016937Y023261D01*
X017044Y023518D01*
X017044Y023797D01*
X016937Y024054D01*
X016740Y024251D01*
X016483Y024357D01*
X016204Y024357D01*
X016059Y024297D01*
X016059Y024466D01*
X015953Y024723D01*
X015756Y024920D01*
X015498Y025027D01*
X015220Y025027D01*
X014963Y024920D01*
X014766Y024723D01*
X014659Y024466D01*
X014659Y024187D01*
X014763Y023937D01*
X012209Y023937D01*
X012205Y023941D01*
X012205Y024955D01*
X012207Y024954D01*
X012464Y024847D01*
X012743Y024847D01*
X013000Y024954D01*
X013197Y025151D01*
X013303Y025408D01*
X013303Y025686D01*
X013197Y025944D01*
X013000Y026140D01*
X012743Y026247D01*
X012464Y026247D01*
X012207Y026140D01*
X012010Y025944D01*
X011949Y025797D01*
X011866Y025762D01*
X011788Y025684D01*
X011688Y025584D01*
X011645Y025481D01*
X011645Y023769D01*
X011688Y023666D01*
X011934Y023420D01*
X012037Y023377D01*
X015702Y023377D01*
X015890Y023121D02*
X013145Y023121D01*
X013343Y022883D02*
X016044Y022883D01*
X016044Y022644D02*
X013421Y022644D01*
X013417Y022406D02*
X016044Y022406D01*
X016044Y022167D02*
X013318Y022167D01*
X013038Y021929D02*
X016051Y021929D01*
X016236Y021690D02*
X010255Y021690D01*
X010156Y021452D02*
X010845Y021452D01*
X010792Y021398D02*
X010705Y021188D01*
X010705Y020962D01*
X010792Y020752D01*
X010952Y020592D01*
X011162Y020505D01*
X011388Y020505D01*
X011598Y020592D01*
X011758Y020752D01*
X011759Y020755D01*
X012983Y020755D01*
X013145Y020577D01*
X013145Y020150D01*
X013218Y019973D01*
X013353Y019838D01*
X013530Y019765D01*
X013720Y019765D01*
X013897Y019838D01*
X014032Y019973D01*
X014105Y020150D01*
X014105Y020900D01*
X014032Y021077D01*
X013897Y021212D01*
X013720Y021285D01*
X013530Y021285D01*
X013411Y021236D01*
X013399Y021249D01*
X013396Y021256D01*
X013357Y021296D01*
X013319Y021337D01*
X013312Y021341D01*
X013306Y021346D01*
X013254Y021368D01*
X013204Y021392D01*
X013196Y021392D01*
X013189Y021395D01*
X013133Y021395D01*
X013077Y021398D01*
X013069Y021395D01*
X011759Y021395D01*
X011758Y021398D01*
X011598Y021558D01*
X011388Y021645D01*
X011162Y021645D01*
X010952Y021558D01*
X010792Y021398D01*
X010715Y021213D02*
X009917Y021213D01*
X009405Y020975D02*
X010705Y020975D01*
X010808Y020736D02*
X009405Y020736D01*
X009501Y020498D02*
X011891Y020498D01*
X011952Y020558D02*
X011792Y020398D01*
X011705Y020188D01*
X011705Y019962D01*
X011792Y019752D01*
X011952Y019592D01*
X012162Y019505D01*
X012388Y019505D01*
X012598Y019592D01*
X012758Y019752D01*
X012845Y019962D01*
X012845Y020188D01*
X012758Y020398D01*
X012598Y020558D01*
X012388Y020645D01*
X012162Y020645D01*
X011952Y020558D01*
X011742Y020736D02*
X013001Y020736D01*
X013145Y020498D02*
X012659Y020498D01*
X012816Y020259D02*
X013145Y020259D01*
X013198Y020021D02*
X012845Y020021D01*
X012771Y019782D02*
X013488Y019782D01*
X013762Y019782D02*
X014488Y019782D01*
X014530Y019765D02*
X014720Y019765D01*
X014897Y019838D01*
X015032Y019973D01*
X015105Y020150D01*
X015105Y020900D01*
X015032Y021077D01*
X014897Y021212D01*
X014720Y021285D01*
X014530Y021285D01*
X014353Y021212D01*
X014218Y021077D01*
X014145Y020900D01*
X014145Y020150D01*
X014218Y019973D01*
X014353Y019838D01*
X014530Y019765D01*
X014762Y019782D02*
X015345Y019782D01*
X015356Y019544D02*
X012481Y019544D01*
X012069Y019544D02*
X011634Y019544D01*
X011659Y019525D02*
X011584Y019580D01*
X011501Y019622D01*
X011413Y019650D01*
X011321Y019665D01*
X011275Y019665D01*
X011275Y019075D01*
X011275Y019075D01*
X011865Y019075D01*
X011865Y019121D01*
X011850Y019213D01*
X011822Y019301D01*
X011780Y019384D01*
X011725Y019459D01*
X011659Y019525D01*
X011820Y019305D02*
X015549Y019305D01*
X015788Y019067D02*
X011865Y019067D01*
X011865Y019075D02*
X011275Y019075D01*
X011275Y019075D01*
X011275Y019075D01*
X010685Y019075D01*
X010685Y019121D01*
X010700Y019213D01*
X010728Y019301D01*
X010770Y019384D01*
X010825Y019459D01*
X010891Y019525D01*
X010966Y019580D01*
X011049Y019622D01*
X011137Y019650D01*
X011229Y019665D01*
X011275Y019665D01*
X011275Y019075D01*
X011275Y018485D01*
X011321Y018485D01*
X011413Y018500D01*
X011501Y018528D01*
X011584Y018570D01*
X011659Y018625D01*
X011725Y018691D01*
X011780Y018766D01*
X011822Y018849D01*
X011850Y018937D01*
X011865Y019029D01*
X011865Y019075D01*
X011811Y018828D02*
X016026Y018828D01*
X016265Y018590D02*
X015518Y018590D01*
X015795Y018351D02*
X016503Y018351D01*
X016254Y018113D02*
X015996Y018113D01*
X016105Y017874D02*
X016145Y017874D01*
X016145Y017636D02*
X016105Y017636D01*
X016105Y017397D02*
X016145Y017397D01*
X016145Y017159D02*
X016105Y017159D01*
X015979Y016920D02*
X016271Y016920D01*
X016979Y016920D02*
X017045Y016920D01*
X017045Y016682D02*
X014905Y016682D01*
X014979Y016920D02*
X015271Y016920D01*
X015145Y017159D02*
X015105Y017159D01*
X015105Y017397D02*
X015145Y017397D01*
X015145Y017636D02*
X015105Y017636D01*
X015105Y017874D02*
X015145Y017874D01*
X016579Y019067D02*
X017425Y019067D01*
X017425Y019305D02*
X016341Y019305D01*
X016102Y019544D02*
X017425Y019544D01*
X017425Y019782D02*
X016818Y019782D01*
X016817Y019782D02*
X016887Y019817D01*
X016951Y019864D01*
X017006Y019919D01*
X017053Y019983D01*
X017088Y020053D01*
X017113Y020128D01*
X017125Y020206D01*
X017125Y020525D01*
X016625Y020525D01*
X016625Y020525D01*
X016625Y019745D01*
X016664Y019745D01*
X016742Y019757D01*
X016817Y019782D01*
X016625Y019782D02*
X016625Y019782D01*
X016625Y019745D02*
X016625Y020525D01*
X016625Y020525D01*
X016625Y020525D01*
X016125Y020525D01*
X016125Y020206D01*
X016137Y020128D01*
X016162Y020053D01*
X016197Y019983D01*
X016244Y019919D01*
X016299Y019864D01*
X016363Y019817D01*
X016433Y019782D01*
X016508Y019757D01*
X016586Y019745D01*
X016625Y019745D01*
X016432Y019782D02*
X015905Y019782D01*
X016052Y020021D02*
X016178Y020021D01*
X016125Y020259D02*
X016105Y020259D01*
X016105Y020498D02*
X016125Y020498D01*
X016105Y020736D02*
X016125Y020736D01*
X016154Y020975D02*
X016074Y020975D01*
X015894Y021213D02*
X016336Y021213D01*
X016474Y021452D02*
X011705Y021452D01*
X011275Y021075D02*
X013125Y021075D01*
X013625Y020525D01*
X014105Y020498D02*
X014145Y020498D01*
X014145Y020736D02*
X014105Y020736D01*
X014074Y020975D02*
X014176Y020975D01*
X014356Y021213D02*
X013894Y021213D01*
X014894Y021213D02*
X015356Y021213D01*
X015176Y020975D02*
X015074Y020975D01*
X015105Y020736D02*
X015145Y020736D01*
X015145Y020498D02*
X015105Y020498D01*
X015105Y020259D02*
X015145Y020259D01*
X015198Y020021D02*
X015052Y020021D01*
X014198Y020021D02*
X014052Y020021D01*
X014105Y020259D02*
X014145Y020259D01*
X013032Y018590D02*
X011611Y018590D01*
X011275Y018590D02*
X011275Y018590D01*
X011275Y018485D02*
X011275Y019075D01*
X011275Y019075D01*
X010685Y019075D01*
X010685Y019029D01*
X010700Y018937D01*
X010728Y018849D01*
X010770Y018766D01*
X010825Y018691D01*
X010891Y018625D01*
X010966Y018570D01*
X011049Y018528D01*
X011137Y018500D01*
X011229Y018485D01*
X011275Y018485D01*
X011275Y018828D02*
X011275Y018828D01*
X011275Y019067D02*
X011275Y019067D01*
X011275Y019305D02*
X011275Y019305D01*
X011275Y019544D02*
X011275Y019544D01*
X010916Y019544D02*
X010605Y019544D01*
X010605Y019782D02*
X011779Y019782D01*
X011705Y020021D02*
X010568Y020021D01*
X010337Y020259D02*
X011734Y020259D01*
X010730Y019305D02*
X010605Y019305D01*
X010605Y019067D02*
X010685Y019067D01*
X010739Y018828D02*
X010605Y018828D01*
X010605Y018590D02*
X010939Y018590D01*
X010045Y019067D02*
X009757Y019067D01*
X009393Y019067D02*
X007979Y019067D01*
X007955Y019305D02*
X010045Y019305D01*
X010045Y019544D02*
X009492Y019544D01*
X008758Y019544D02*
X007955Y019544D01*
X007955Y019782D02*
X008576Y019782D01*
X008525Y020021D02*
X007955Y020021D01*
X007955Y020259D02*
X008573Y020259D01*
X008749Y020498D02*
X007955Y020498D01*
X007955Y020736D02*
X008845Y020736D01*
X008845Y020975D02*
X007955Y020975D01*
X007955Y021213D02*
X008845Y021213D01*
X008845Y021452D02*
X007955Y021452D01*
X007906Y021690D02*
X008987Y021690D01*
X008995Y021929D02*
X008045Y021929D01*
X008191Y022167D02*
X009089Y022167D01*
X009328Y022406D02*
X008215Y022406D01*
X008215Y022644D02*
X009956Y022644D01*
X009956Y022883D02*
X008215Y022883D01*
X008215Y023121D02*
X010043Y023121D01*
X010282Y023360D02*
X008166Y023360D01*
X007984Y023598D02*
X011756Y023598D01*
X011645Y023837D02*
X002041Y023837D01*
X002079Y023809D02*
X002000Y023866D01*
X001913Y023911D01*
X001820Y023941D01*
X001724Y023956D01*
X001675Y023956D01*
X001626Y023956D01*
X001530Y023941D01*
X001437Y023911D01*
X001350Y023866D01*
X001271Y023809D01*
X001202Y023740D01*
X001145Y023661D01*
X001100Y023574D01*
X001070Y023481D01*
X001055Y023385D01*
X001055Y023336D01*
X001055Y023287D01*
X001070Y023191D01*
X001100Y023098D01*
X001145Y023011D01*
X001202Y022932D01*
X001271Y022863D01*
X001350Y022806D01*
X001437Y022761D01*
X001530Y022731D01*
X001626Y022716D01*
X001675Y022716D01*
X001724Y022716D01*
X001820Y022731D01*
X001913Y022761D01*
X002000Y022806D01*
X002079Y022863D01*
X002148Y022932D01*
X002205Y023011D01*
X002250Y023098D01*
X002280Y023191D01*
X002295Y023287D01*
X002295Y023336D01*
X001675Y023336D01*
X001675Y022716D01*
X001675Y023336D01*
X001675Y023336D01*
X001675Y023336D01*
X001055Y023336D01*
X001675Y023336D01*
X001675Y023336D01*
X002295Y023336D01*
X002295Y023385D01*
X002280Y023481D01*
X002250Y023574D01*
X002205Y023661D01*
X002148Y023740D01*
X002079Y023809D01*
X002237Y023598D02*
X007266Y023598D01*
X007084Y023360D02*
X004929Y023360D01*
X004886Y023402D02*
X004364Y023402D01*
X003995Y023033D01*
X003995Y022511D01*
X004364Y022142D01*
X004886Y022142D01*
X005255Y022511D01*
X005255Y023033D01*
X004886Y023402D01*
X005167Y023121D02*
X007035Y023121D01*
X007035Y022883D02*
X005255Y022883D01*
X005255Y022644D02*
X007035Y022644D01*
X007035Y022406D02*
X005922Y022406D01*
X006161Y022167D02*
X007059Y022167D01*
X007352Y021452D02*
X006156Y021452D01*
X005917Y021213D02*
X007395Y021213D01*
X007395Y020975D02*
X001618Y020975D01*
X001608Y020952D02*
X001695Y021162D01*
X001695Y021388D01*
X001608Y021598D01*
X001448Y021758D01*
X001238Y021845D01*
X001012Y021845D01*
X000802Y021758D01*
X000642Y021598D01*
X000555Y021388D01*
X000555Y021162D01*
X000642Y020952D01*
X000802Y020792D01*
X000843Y020775D01*
X000802Y020758D01*
X000642Y020598D01*
X000555Y020388D01*
X000555Y020162D01*
X000642Y019952D01*
X000802Y019792D01*
X000843Y019775D01*
X000802Y019758D01*
X000642Y019598D01*
X000555Y019388D01*
X000555Y019162D01*
X000642Y018952D01*
X000802Y018792D01*
X000805Y018791D01*
X000805Y015542D01*
X000785Y015534D01*
X000616Y015365D01*
X000525Y015144D01*
X000525Y014906D01*
X000616Y014685D01*
X000785Y014516D01*
X001006Y014425D01*
X001244Y014425D01*
X001465Y014516D01*
X001634Y014685D01*
X001725Y014906D01*
X001725Y015144D01*
X001634Y015365D01*
X001465Y015534D01*
X001445Y015542D01*
X001445Y018755D01*
X002989Y018755D01*
X003106Y018804D01*
X003506Y019204D01*
X003596Y019294D01*
X003645Y019411D01*
X003645Y020003D01*
X003770Y020128D01*
X003814Y020234D01*
X003820Y020216D01*
X003859Y020139D01*
X003909Y020070D01*
X003970Y020009D01*
X004039Y019959D01*
X004116Y019920D01*
X004197Y019893D01*
X004282Y019880D01*
X004325Y019880D01*
X004368Y019880D01*
X004453Y019893D01*
X004534Y019920D01*
X004611Y019959D01*
X004680Y020009D01*
X004741Y020070D01*
X004791Y020139D01*
X004830Y020216D01*
X004857Y020297D01*
X004870Y020382D01*
X004870Y020425D01*
X004870Y020468D01*
X004857Y020553D01*
X004830Y020634D01*
X004791Y020711D01*
X004741Y020780D01*
X004680Y020841D01*
X004611Y020891D01*
X004534Y020930D01*
X004453Y020957D01*
X004368Y020970D01*
X004325Y020970D01*
X004325Y020425D01*
X004870Y020425D01*
X004325Y020425D01*
X004325Y020425D01*
X004325Y020425D01*
X004325Y019880D01*
X004325Y020425D01*
X004325Y020425D01*
X004325Y020970D01*
X004282Y020970D01*
X004197Y020957D01*
X004116Y020930D01*
X004039Y020891D01*
X003970Y020841D01*
X003909Y020780D01*
X003859Y020711D01*
X003820Y020634D01*
X003814Y020616D01*
X003770Y020722D01*
X003622Y020870D01*
X003429Y020950D01*
X003221Y020950D01*
X003028Y020870D01*
X002880Y020722D01*
X002800Y020529D01*
X002800Y020321D01*
X002880Y020128D01*
X003005Y020003D01*
X003005Y019608D01*
X002792Y019395D01*
X001692Y019395D01*
X001608Y019598D01*
X001448Y019758D01*
X001407Y019775D01*
X001448Y019792D01*
X001608Y019952D01*
X001695Y020162D01*
X001695Y020388D01*
X001608Y020598D01*
X001448Y020758D01*
X001407Y020775D01*
X001448Y020792D01*
X001608Y020952D01*
X001470Y020736D02*
X002894Y020736D01*
X002800Y020498D02*
X001650Y020498D01*
X001695Y020259D02*
X002825Y020259D01*
X002987Y020021D02*
X001637Y020021D01*
X001424Y019782D02*
X003005Y019782D01*
X002941Y019544D02*
X001631Y019544D01*
X001325Y019075D02*
X002925Y019075D01*
X003325Y019475D01*
X003325Y020425D01*
X003756Y020736D02*
X003877Y020736D01*
X004325Y020736D02*
X004325Y020736D01*
X004325Y020498D02*
X004325Y020498D01*
X004325Y020259D02*
X004325Y020259D01*
X004325Y020021D02*
X004325Y020021D01*
X004691Y020021D02*
X005525Y020021D01*
X005573Y020259D02*
X004844Y020259D01*
X004865Y020498D02*
X005749Y020498D01*
X006501Y020498D02*
X007395Y020498D01*
X007395Y020736D02*
X004773Y020736D01*
X005333Y021213D02*
X001695Y021213D01*
X001669Y021452D02*
X005094Y021452D01*
X004995Y021690D02*
X001516Y021690D01*
X000734Y021690D02*
X000430Y021690D01*
X000430Y021452D02*
X000581Y021452D01*
X000555Y021213D02*
X000430Y021213D01*
X000430Y020975D02*
X000632Y020975D01*
X000780Y020736D02*
X000430Y020736D01*
X000430Y020498D02*
X000600Y020498D01*
X000555Y020259D02*
X000430Y020259D01*
X000430Y020021D02*
X000613Y020021D01*
X000430Y019782D02*
X000826Y019782D01*
X000619Y019544D02*
X000430Y019544D01*
X000430Y019305D02*
X000555Y019305D01*
X000594Y019067D02*
X000430Y019067D01*
X000430Y018828D02*
X000766Y018828D01*
X000805Y018590D02*
X000430Y018590D01*
X000430Y018351D02*
X000805Y018351D01*
X000805Y018113D02*
X000430Y018113D01*
X000430Y017874D02*
X000805Y017874D01*
X000805Y017636D02*
X000430Y017636D01*
X000430Y017397D02*
X000805Y017397D01*
X000805Y017159D02*
X000430Y017159D01*
X000430Y016920D02*
X000805Y016920D01*
X000805Y016682D02*
X000430Y016682D01*
X000430Y016443D02*
X000805Y016443D01*
X000805Y016205D02*
X000430Y016205D01*
X000430Y015966D02*
X000805Y015966D01*
X000805Y015728D02*
X000430Y015728D01*
X000430Y015489D02*
X000740Y015489D01*
X000569Y015251D02*
X000430Y015251D01*
X000430Y015012D02*
X000525Y015012D01*
X000580Y014774D02*
X000430Y014774D01*
X000430Y014535D02*
X000766Y014535D01*
X000430Y014297D02*
X003805Y014297D01*
X003805Y014160D02*
X003805Y014508D01*
X003785Y014516D01*
X003616Y014685D01*
X003525Y014906D01*
X003525Y015144D01*
X003616Y015365D01*
X003785Y015534D01*
X004006Y015625D01*
X004244Y015625D01*
X004465Y015534D01*
X004634Y015365D01*
X004725Y015144D01*
X004725Y014906D01*
X004634Y014685D01*
X004465Y014516D01*
X004445Y014508D01*
X004445Y014160D01*
X004566Y014040D01*
X004645Y013848D01*
X004645Y013002D01*
X004566Y012810D01*
X004420Y012664D01*
X004228Y012585D01*
X004022Y012585D01*
X003830Y012664D01*
X003684Y012810D01*
X003635Y012928D01*
X003625Y012898D01*
X003587Y012822D01*
X003537Y012753D01*
X003477Y012693D01*
X003408Y012643D01*
X003332Y012605D01*
X003251Y012578D01*
X003167Y012565D01*
X003125Y012565D01*
X003125Y013425D01*
X003125Y013425D01*
X003125Y014285D01*
X003167Y014285D01*
X003251Y014272D01*
X003332Y014245D01*
X003408Y014207D01*
X003477Y014157D01*
X003537Y014097D01*
X003587Y014028D01*
X003625Y013952D01*
X003635Y013922D01*
X003684Y014040D01*
X003805Y014160D01*
X003703Y014058D02*
X003565Y014058D01*
X003766Y014535D02*
X001484Y014535D01*
X001670Y014774D02*
X003580Y014774D01*
X003525Y015012D02*
X001725Y015012D01*
X001681Y015251D02*
X003569Y015251D01*
X003740Y015489D02*
X001510Y015489D01*
X001445Y015728D02*
X007303Y015728D01*
X007303Y015966D02*
X001445Y015966D01*
X001445Y016205D02*
X007303Y016205D01*
X007303Y016443D02*
X001445Y016443D01*
X001445Y016682D02*
X005033Y016682D01*
X005013Y016920D02*
X001445Y016920D01*
X001445Y017159D02*
X005013Y017159D01*
X005013Y017397D02*
X001445Y017397D01*
X001445Y017636D02*
X005042Y017636D01*
X004741Y017970D02*
X004791Y018039D01*
X004830Y018116D01*
X004857Y018197D01*
X004870Y018282D01*
X004870Y018325D01*
X004870Y018368D01*
X004857Y018453D01*
X004830Y018534D01*
X004791Y018611D01*
X004741Y018680D01*
X004680Y018741D01*
X004611Y018791D01*
X004534Y018830D01*
X004453Y018857D01*
X004368Y018870D01*
X004325Y018870D01*
X004325Y018325D01*
X004870Y018325D01*
X004325Y018325D01*
X004325Y018325D01*
X004325Y018325D01*
X004325Y017780D01*
X004368Y017780D01*
X004453Y017793D01*
X004534Y017820D01*
X004611Y017859D01*
X004680Y017909D01*
X004741Y017970D01*
X004631Y017874D02*
X005652Y017874D01*
X005181Y018113D02*
X004828Y018113D01*
X004870Y018351D02*
X005030Y018351D01*
X005005Y018590D02*
X004802Y018590D01*
X004538Y018828D02*
X005084Y018828D01*
X005295Y019067D02*
X003369Y019067D01*
X003429Y018850D02*
X003221Y018850D01*
X003028Y018770D01*
X002880Y018622D01*
X002800Y018429D01*
X002800Y018221D01*
X002880Y018028D01*
X003028Y017880D01*
X003221Y017800D01*
X003429Y017800D01*
X003622Y017880D01*
X003770Y018028D01*
X003814Y018134D01*
X003820Y018116D01*
X003859Y018039D01*
X003909Y017970D01*
X003970Y017909D01*
X004039Y017859D01*
X004116Y017820D01*
X004197Y017793D01*
X004282Y017780D01*
X004325Y017780D01*
X004325Y018325D01*
X004325Y018325D01*
X004325Y018870D01*
X004282Y018870D01*
X004197Y018857D01*
X004116Y018830D01*
X004039Y018791D01*
X003970Y018741D01*
X003909Y018680D01*
X003859Y018611D01*
X003820Y018534D01*
X003814Y018516D01*
X003770Y018622D01*
X003622Y018770D01*
X003429Y018850D01*
X003482Y018828D02*
X004112Y018828D01*
X004325Y018828D02*
X004325Y018828D01*
X004325Y018590D02*
X004325Y018590D01*
X004325Y018351D02*
X004325Y018351D01*
X004325Y018113D02*
X004325Y018113D01*
X004325Y017874D02*
X004325Y017874D01*
X004019Y017874D02*
X003608Y017874D01*
X003805Y018113D02*
X003822Y018113D01*
X003848Y018590D02*
X003784Y018590D01*
X003168Y018828D02*
X003131Y018828D01*
X002866Y018590D02*
X001445Y018590D01*
X001445Y018351D02*
X002800Y018351D01*
X002845Y018113D02*
X001445Y018113D01*
X001445Y017874D02*
X003042Y017874D01*
X001325Y019075D02*
X001125Y019275D01*
X001125Y015025D01*
X001830Y014186D02*
X001684Y014040D01*
X001605Y013848D01*
X001605Y013002D01*
X001684Y012810D01*
X001830Y012664D01*
X002022Y012585D01*
X002228Y012585D01*
X002420Y012664D01*
X002566Y012810D01*
X002615Y012928D01*
X002625Y012898D01*
X002663Y012822D01*
X002713Y012753D01*
X002773Y012693D01*
X002842Y012643D01*
X002918Y012605D01*
X002999Y012578D01*
X003083Y012565D01*
X003125Y012565D01*
X003125Y013425D01*
X003125Y013425D01*
X003125Y014285D01*
X003083Y014285D01*
X002999Y014272D01*
X002918Y014245D01*
X002842Y014207D01*
X002773Y014157D01*
X002713Y014097D01*
X002663Y014028D01*
X002625Y013952D01*
X002615Y013922D01*
X002566Y014040D01*
X002420Y014186D01*
X002228Y014265D01*
X002022Y014265D01*
X001830Y014186D01*
X001703Y014058D02*
X000430Y014058D01*
X000430Y013820D02*
X001605Y013820D01*
X001605Y013581D02*
X000430Y013581D01*
X000430Y013343D02*
X001605Y013343D01*
X001605Y013104D02*
X000430Y013104D01*
X000430Y012866D02*
X001661Y012866D01*
X001920Y012627D02*
X000430Y012627D01*
X000430Y012389D02*
X007303Y012389D01*
X007303Y012627D02*
X004330Y012627D01*
X004589Y012866D02*
X007303Y012866D01*
X007303Y013104D02*
X004645Y013104D01*
X004645Y013343D02*
X007303Y013343D01*
X007303Y013581D02*
X004645Y013581D01*
X004645Y013820D02*
X007303Y013820D01*
X007303Y014058D02*
X004547Y014058D01*
X004445Y014297D02*
X007303Y014297D01*
X007303Y014535D02*
X004484Y014535D01*
X004670Y014774D02*
X007303Y014774D01*
X007303Y015012D02*
X004725Y015012D01*
X004681Y015251D02*
X007303Y015251D01*
X007303Y015489D02*
X004510Y015489D01*
X004125Y015025D02*
X004125Y013425D01*
X003661Y012866D02*
X003609Y012866D01*
X003376Y012627D02*
X003920Y012627D01*
X003125Y012627D02*
X003125Y012627D01*
X003125Y012866D02*
X003125Y012866D01*
X003125Y013104D02*
X003125Y013104D01*
X003125Y013343D02*
X003125Y013343D01*
X003125Y013581D02*
X003125Y013581D01*
X003125Y013820D02*
X003125Y013820D01*
X003125Y014058D02*
X003125Y014058D01*
X002685Y014058D02*
X002547Y014058D01*
X002589Y012866D02*
X002641Y012866D01*
X002874Y012627D02*
X002330Y012627D01*
X000430Y012150D02*
X007303Y012150D01*
X007303Y011912D02*
X000430Y011912D01*
X000430Y011673D02*
X007303Y011673D01*
X007303Y011435D02*
X000430Y011435D01*
X000430Y011196D02*
X007303Y011196D01*
X007303Y010958D02*
X000430Y010958D01*
X000430Y010719D02*
X007303Y010719D01*
X007303Y010481D02*
X000430Y010481D01*
X000430Y010242D02*
X007303Y010242D01*
X007303Y010004D02*
X000430Y010004D01*
X000430Y009765D02*
X007303Y009765D01*
X007303Y009527D02*
X000430Y009527D01*
X000430Y009288D02*
X007303Y009288D01*
X007303Y009050D02*
X000430Y009050D01*
X000430Y008811D02*
X007303Y008811D01*
X007303Y008573D02*
X000430Y008573D01*
X000430Y008334D02*
X002857Y008334D01*
X002956Y008375D02*
X002644Y008246D01*
X002404Y008006D01*
X002275Y007694D01*
X002275Y007356D01*
X002404Y007044D01*
X002644Y006804D01*
X002956Y006675D01*
X003294Y006675D01*
X003606Y006804D01*
X003846Y007044D01*
X003975Y007356D01*
X003975Y007694D01*
X003846Y008006D01*
X003606Y008246D01*
X003294Y008375D01*
X002956Y008375D01*
X003393Y008334D02*
X007303Y008334D01*
X007303Y008096D02*
X003757Y008096D01*
X003908Y007857D02*
X007303Y007857D01*
X007303Y007619D02*
X003975Y007619D01*
X003975Y007380D02*
X007303Y007380D01*
X007303Y007142D02*
X003886Y007142D01*
X003705Y006903D02*
X007303Y006903D01*
X007303Y006665D02*
X000430Y006665D01*
X000430Y006903D02*
X002545Y006903D01*
X002364Y007142D02*
X000430Y007142D01*
X000430Y007380D02*
X002275Y007380D01*
X002275Y007619D02*
X000430Y007619D01*
X000430Y007857D02*
X002342Y007857D01*
X002493Y008096D02*
X000430Y008096D01*
X000430Y006426D02*
X007303Y006426D01*
X007303Y006188D02*
X000430Y006188D01*
X000430Y005949D02*
X007303Y005949D01*
X007303Y005711D02*
X000430Y005711D01*
X000430Y005472D02*
X007303Y005472D01*
X007303Y005234D02*
X000430Y005234D01*
X000430Y004995D02*
X007303Y004995D01*
X007303Y004757D02*
X000430Y004757D01*
X000430Y004518D02*
X007303Y004518D01*
X007303Y004280D02*
X000430Y004280D01*
X000430Y004041D02*
X007303Y004041D01*
X007303Y003803D02*
X000430Y003803D01*
X000430Y003564D02*
X007303Y003564D01*
X007303Y003326D02*
X000430Y003326D01*
X000430Y003087D02*
X007303Y003087D01*
X007303Y002849D02*
X000430Y002849D01*
X000430Y002610D02*
X007303Y002610D01*
X007303Y002372D02*
X000430Y002372D01*
X000430Y002133D02*
X007303Y002133D01*
X007273Y001895D02*
X006915Y001895D01*
X006583Y001895D02*
X006583Y001895D01*
X006583Y001656D02*
X006583Y001656D01*
X006583Y001418D02*
X006583Y001418D01*
X006583Y001179D02*
X006583Y001179D01*
X006583Y000941D02*
X006583Y000941D01*
X006220Y000941D02*
X006141Y000941D01*
X006946Y000941D02*
X007243Y000941D01*
X007924Y000941D02*
X008243Y000941D01*
X008924Y000941D02*
X009243Y000941D01*
X009924Y000941D02*
X010243Y000941D01*
X010924Y000941D02*
X011243Y000941D01*
X011924Y000941D02*
X012243Y000941D01*
X012924Y000941D02*
X018783Y000941D01*
X018752Y000972D02*
X018912Y000812D01*
X019122Y000725D01*
X019348Y000725D01*
X019558Y000812D01*
X019718Y000972D01*
X019805Y001182D01*
X019805Y001408D01*
X019718Y001618D01*
X019558Y001778D01*
X019348Y001865D01*
X019122Y001865D01*
X018912Y001778D01*
X018752Y001618D01*
X018665Y001408D01*
X018665Y001182D01*
X018752Y000972D01*
X018666Y001179D02*
X013106Y001179D01*
X013153Y001418D02*
X018669Y001418D01*
X018790Y001656D02*
X013097Y001656D01*
X012894Y001895D02*
X037638Y001895D01*
X037533Y001806D02*
X037773Y002008D01*
X037773Y002008D01*
X038068Y002115D01*
X038382Y002115D01*
X038677Y002008D01*
X038677Y002008D01*
X038917Y001806D01*
X038917Y001806D01*
X039020Y001628D01*
X039020Y012756D01*
X038789Y012525D01*
X038126Y012525D01*
X037657Y012994D01*
X037657Y013656D01*
X038126Y014125D01*
X038789Y014125D01*
X039020Y013894D01*
X039020Y026322D01*
X038917Y026144D01*
X038917Y026144D01*
X038677Y025942D01*
X038677Y025942D01*
X038382Y025835D01*
X038068Y025835D01*
X037773Y025942D01*
X037773Y025942D01*
X037533Y026144D01*
X037533Y026144D01*
X037376Y026416D01*
X037376Y026416D01*
X037321Y026725D01*
X037321Y026725D01*
X037376Y027034D01*
X037376Y027034D01*
X037533Y027306D01*
X037533Y027306D01*
X037773Y027508D01*
X037773Y027508D01*
X037807Y027520D01*
X014782Y027520D01*
X014851Y027467D01*
X014917Y027401D01*
X014975Y027326D01*
X015022Y027244D01*
X015058Y027157D01*
X015083Y027066D01*
X015095Y026972D01*
X015095Y026953D01*
X014403Y026953D01*
X014403Y026897D01*
X015095Y026897D01*
X015095Y026878D01*
X015083Y026784D01*
X015058Y026693D01*
X015022Y026606D01*
X014975Y026524D01*
X014917Y026449D01*
X014851Y026383D01*
X014776Y026325D01*
X014694Y026278D01*
X014607Y026242D01*
X014516Y026217D01*
X014422Y026205D01*
X014403Y026205D01*
X014403Y026897D01*
X014347Y026897D01*
X013655Y026897D01*
X013655Y026878D01*
X013667Y026784D01*
X013692Y026693D01*
X013728Y026606D01*
X013775Y026524D01*
X013833Y026449D01*
X013899Y026383D01*
X013974Y026325D01*
X014056Y026278D01*
X014143Y026242D01*
X014234Y026217D01*
X014328Y026205D01*
X014347Y026205D01*
X014347Y026897D01*
X014347Y026953D01*
X013655Y026953D01*
X013655Y026972D01*
X013667Y027066D01*
X013692Y027157D01*
X013728Y027244D01*
X013775Y027326D01*
X013833Y027401D01*
X013899Y027467D01*
X013968Y027520D01*
X001643Y027520D01*
X001677Y027508D01*
X001677Y027508D01*
X001917Y027306D01*
X001917Y027306D01*
X002074Y027034D01*
X002074Y027034D01*
X002129Y026725D01*
X002129Y026725D01*
X002074Y026416D01*
X002074Y026416D01*
X001917Y026144D01*
X001917Y026144D01*
X001677Y025942D01*
X001677Y025942D01*
X001382Y025835D01*
X001068Y025835D01*
X000773Y025942D01*
X000773Y025942D01*
X000533Y026144D01*
X000533Y026144D01*
X000430Y026322D01*
X000430Y001628D01*
X000533Y001806D01*
X000533Y001806D01*
X000773Y002008D01*
X000773Y002008D01*
X001068Y002115D01*
X001382Y002115D01*
X001677Y002008D01*
X001677Y002008D01*
X001917Y001806D01*
X001917Y001806D01*
X002074Y001534D01*
X002074Y001534D01*
X002129Y001225D01*
X002129Y001225D01*
X002074Y000916D01*
X002074Y000916D01*
X001917Y000644D01*
X001917Y000644D01*
X001677Y000442D01*
X001677Y000442D01*
X001643Y000430D01*
X037807Y000430D01*
X037773Y000442D01*
X037773Y000442D01*
X037533Y000644D01*
X037533Y000644D01*
X037376Y000916D01*
X037376Y000916D01*
X037321Y001225D01*
X037321Y001225D01*
X037376Y001534D01*
X037376Y001534D01*
X037533Y001806D01*
X037533Y001806D01*
X037533Y001806D01*
X037446Y001656D02*
X036460Y001656D01*
X036498Y001618D02*
X036338Y001778D01*
X036128Y001865D01*
X035902Y001865D01*
X035692Y001778D01*
X035532Y001618D01*
X035445Y001408D01*
X035445Y001182D01*
X035532Y000972D01*
X035692Y000812D01*
X035902Y000725D01*
X036128Y000725D01*
X036338Y000812D01*
X036498Y000972D01*
X036585Y001182D01*
X036585Y001408D01*
X036498Y001618D01*
X036581Y001418D02*
X037355Y001418D01*
X037329Y001179D02*
X036584Y001179D01*
X036467Y000941D02*
X037371Y000941D01*
X037499Y000702D02*
X001951Y000702D01*
X001917Y000644D02*
X001917Y000644D01*
X001702Y000464D02*
X037748Y000464D01*
X039004Y001656D02*
X039020Y001656D01*
X039020Y001895D02*
X038812Y001895D01*
X039020Y002133D02*
X012863Y002133D01*
X012863Y002372D02*
X018383Y002372D01*
X018144Y002610D02*
X012863Y002610D01*
X012863Y002849D02*
X017906Y002849D01*
X017667Y003087D02*
X012863Y003087D01*
X012863Y003326D02*
X017429Y003326D01*
X017190Y003564D02*
X012863Y003564D01*
X012863Y003803D02*
X016952Y003803D01*
X016713Y004041D02*
X012863Y004041D01*
X012863Y004280D02*
X016475Y004280D01*
X016236Y004518D02*
X012863Y004518D01*
X012863Y004757D02*
X015998Y004757D01*
X015759Y004995D02*
X012863Y004995D01*
X012863Y005234D02*
X015645Y005234D01*
X015645Y005472D02*
X012863Y005472D01*
X012863Y005711D02*
X015645Y005711D01*
X015645Y005949D02*
X012863Y005949D01*
X012863Y006188D02*
X015645Y006188D01*
X015645Y006426D02*
X012863Y006426D01*
X012863Y006665D02*
X015645Y006665D01*
X015645Y006903D02*
X012863Y006903D01*
X012863Y007142D02*
X015645Y007142D01*
X015645Y007380D02*
X012863Y007380D01*
X012863Y007619D02*
X015645Y007619D01*
X015645Y007857D02*
X012863Y007857D01*
X012863Y008096D02*
X015645Y008096D01*
X015645Y008334D02*
X012863Y008334D01*
X012863Y008573D02*
X015645Y008573D01*
X015645Y008811D02*
X012863Y008811D01*
X012863Y009050D02*
X015645Y009050D01*
X015645Y009288D02*
X012863Y009288D01*
X012863Y009527D02*
X015645Y009527D01*
X015645Y009765D02*
X012863Y009765D01*
X012863Y010004D02*
X015645Y010004D01*
X015645Y010242D02*
X012863Y010242D01*
X012863Y010481D02*
X015645Y010481D01*
X015645Y010719D02*
X012863Y010719D01*
X012863Y010958D02*
X013835Y010958D01*
X014315Y010958D02*
X014791Y010958D01*
X015075Y010958D02*
X015075Y010958D01*
X015075Y010885D02*
X015075Y011475D01*
X015075Y011475D01*
X015075Y010885D01*
X015359Y010958D02*
X015645Y010958D01*
X015645Y011196D02*
X015595Y011196D01*
X015075Y011196D02*
X015075Y011196D01*
X015075Y011435D02*
X015075Y011435D01*
X016205Y011435D02*
X016305Y011435D01*
X016305Y011441D02*
X016305Y005411D01*
X016354Y005294D01*
X016894Y004754D01*
X017011Y004705D01*
X019639Y004705D01*
X019356Y004422D01*
X019348Y004425D01*
X019122Y004425D01*
X018912Y004338D01*
X018752Y004178D01*
X018665Y003968D01*
X018665Y003742D01*
X018752Y003532D01*
X018912Y003372D01*
X019122Y003285D01*
X019348Y003285D01*
X019558Y003372D01*
X019718Y003532D01*
X019805Y003742D01*
X019805Y003968D01*
X019773Y004047D01*
X020121Y004395D01*
X020775Y004395D01*
X020706Y004360D01*
X020631Y004305D01*
X020565Y004239D01*
X020510Y004164D01*
X020468Y004081D01*
X020440Y003993D01*
X020425Y003901D01*
X020425Y003855D01*
X021015Y003855D01*
X021605Y003855D01*
X021605Y003901D01*
X021590Y003993D01*
X021562Y004081D01*
X021520Y004164D01*
X021465Y004239D01*
X021399Y004305D01*
X021324Y004360D01*
X021255Y004395D01*
X022049Y004395D01*
X021912Y004338D01*
X021752Y004178D01*
X021665Y003968D01*
X021665Y003742D01*
X021752Y003532D01*
X021912Y003372D01*
X022122Y003285D01*
X022348Y003285D01*
X022558Y003372D01*
X022718Y003532D01*
X022805Y003742D01*
X022805Y003968D01*
X022758Y004082D01*
X022821Y004145D01*
X023501Y004145D01*
X023468Y004081D01*
X023440Y003993D01*
X023425Y003901D01*
X023425Y003855D01*
X024015Y003855D01*
X024605Y003855D01*
X024605Y003901D01*
X024590Y003993D01*
X024562Y004081D01*
X024520Y004164D01*
X024465Y004239D01*
X024399Y004305D01*
X024324Y004360D01*
X024279Y004383D01*
X024341Y004445D01*
X025429Y004445D01*
X025391Y004407D01*
X025348Y004425D01*
X025122Y004425D01*
X024912Y004338D01*
X024752Y004178D01*
X024665Y003968D01*
X024665Y003742D01*
X024752Y003532D01*
X024912Y003372D01*
X025122Y003285D01*
X025348Y003285D01*
X025558Y003372D01*
X025718Y003532D01*
X025805Y003742D01*
X025805Y003968D01*
X025787Y004011D01*
X025921Y004145D01*
X026501Y004145D01*
X026468Y004081D01*
X026440Y003993D01*
X026425Y003901D01*
X026425Y003855D01*
X027015Y003855D01*
X027605Y003855D01*
X027605Y003901D01*
X027590Y003993D01*
X027562Y004081D01*
X027520Y004164D01*
X027465Y004239D01*
X027399Y004305D01*
X027324Y004360D01*
X027279Y004383D01*
X027341Y004445D01*
X028429Y004445D01*
X028391Y004407D01*
X028348Y004425D01*
X028122Y004425D01*
X027912Y004338D01*
X027752Y004178D01*
X027665Y003968D01*
X027665Y003742D01*
X027683Y003699D01*
X027493Y003509D01*
X027520Y003546D01*
X027562Y003629D01*
X027590Y003717D01*
X027605Y003809D01*
X027605Y003855D01*
X027015Y003855D01*
X027015Y003855D01*
X027015Y003265D01*
X027061Y003265D01*
X027153Y003280D01*
X027241Y003308D01*
X027324Y003350D01*
X027361Y003377D01*
X026839Y002855D01*
X018691Y002855D01*
X016205Y005341D01*
X016205Y011539D01*
X016302Y011442D01*
X016305Y011441D01*
X016305Y011196D02*
X016205Y011196D01*
X016205Y010958D02*
X016305Y010958D01*
X016305Y010719D02*
X016205Y010719D01*
X016205Y010481D02*
X016305Y010481D01*
X016305Y010242D02*
X016205Y010242D01*
X016205Y010004D02*
X016305Y010004D01*
X016305Y009765D02*
X016205Y009765D01*
X016205Y009527D02*
X016305Y009527D01*
X016305Y009288D02*
X016205Y009288D01*
X016205Y009050D02*
X016305Y009050D01*
X016305Y008811D02*
X016205Y008811D01*
X016205Y008573D02*
X016305Y008573D01*
X016305Y008334D02*
X016205Y008334D01*
X016205Y008096D02*
X016305Y008096D01*
X016305Y007857D02*
X016205Y007857D01*
X016205Y007619D02*
X016305Y007619D01*
X016305Y007380D02*
X016205Y007380D01*
X016205Y007142D02*
X016305Y007142D01*
X016305Y006903D02*
X016205Y006903D01*
X016205Y006665D02*
X016305Y006665D01*
X016305Y006426D02*
X016205Y006426D01*
X016205Y006188D02*
X016305Y006188D01*
X016305Y005949D02*
X016205Y005949D01*
X016205Y005711D02*
X016305Y005711D01*
X016305Y005472D02*
X016205Y005472D01*
X016312Y005234D02*
X016414Y005234D01*
X016551Y004995D02*
X016652Y004995D01*
X016789Y004757D02*
X016891Y004757D01*
X017028Y004518D02*
X019452Y004518D01*
X020005Y004280D02*
X020605Y004280D01*
X020455Y004041D02*
X019775Y004041D01*
X019805Y003803D02*
X020426Y003803D01*
X020425Y003809D02*
X020440Y003717D01*
X020468Y003629D01*
X020510Y003546D01*
X020565Y003471D01*
X020631Y003405D01*
X020706Y003350D01*
X020789Y003308D01*
X020877Y003280D01*
X020969Y003265D01*
X021015Y003265D01*
X021061Y003265D01*
X021153Y003280D01*
X021241Y003308D01*
X021324Y003350D01*
X021399Y003405D01*
X021465Y003471D01*
X021520Y003546D01*
X021562Y003629D01*
X021590Y003717D01*
X021605Y003809D01*
X021605Y003855D01*
X021015Y003855D01*
X021015Y003855D01*
X021015Y003265D01*
X021015Y003855D01*
X021015Y003855D01*
X021015Y003855D01*
X020425Y003855D01*
X020425Y003809D01*
X020501Y003564D02*
X019731Y003564D01*
X019446Y003326D02*
X020755Y003326D01*
X021015Y003326D02*
X021015Y003326D01*
X021015Y003564D02*
X021015Y003564D01*
X021015Y003803D02*
X021015Y003803D01*
X021529Y003564D02*
X021739Y003564D01*
X021665Y003803D02*
X021604Y003803D01*
X021575Y004041D02*
X021695Y004041D01*
X021853Y004280D02*
X021425Y004280D01*
X021275Y003326D02*
X022024Y003326D01*
X022446Y003326D02*
X023755Y003326D01*
X023789Y003308D02*
X023877Y003280D01*
X023969Y003265D01*
X024015Y003265D01*
X024061Y003265D01*
X024153Y003280D01*
X024241Y003308D01*
X024324Y003350D01*
X024399Y003405D01*
X024465Y003471D01*
X024520Y003546D01*
X024562Y003629D01*
X024590Y003717D01*
X024605Y003809D01*
X024605Y003855D01*
X024015Y003855D01*
X024015Y003855D01*
X024015Y003265D01*
X024015Y003855D01*
X024015Y003855D01*
X024015Y003855D01*
X023425Y003855D01*
X023425Y003809D01*
X023440Y003717D01*
X023468Y003629D01*
X023510Y003546D01*
X023565Y003471D01*
X023631Y003405D01*
X023706Y003350D01*
X023789Y003308D01*
X024015Y003326D02*
X024015Y003326D01*
X024015Y003564D02*
X024015Y003564D01*
X024015Y003803D02*
X024015Y003803D01*
X023501Y003564D02*
X022731Y003564D01*
X022805Y003803D02*
X023426Y003803D01*
X023455Y004041D02*
X022775Y004041D01*
X023675Y005025D02*
X017075Y005025D01*
X016625Y005475D01*
X016625Y011925D01*
X016625Y013325D01*
X016475Y013475D01*
X015075Y013475D01*
X017149Y012150D02*
X017213Y012150D01*
X017195Y011912D02*
X017468Y011912D01*
X017724Y011673D02*
X017138Y011673D01*
X016945Y011435D02*
X017745Y011435D01*
X017745Y011196D02*
X016945Y011196D01*
X016945Y010958D02*
X017745Y010958D01*
X017745Y010719D02*
X016945Y010719D01*
X016945Y010481D02*
X017745Y010481D01*
X017745Y010242D02*
X016945Y010242D01*
X016945Y010004D02*
X017745Y010004D01*
X017745Y009765D02*
X016945Y009765D01*
X016945Y009527D02*
X017745Y009527D01*
X017745Y009288D02*
X016945Y009288D01*
X016945Y009050D02*
X017745Y009050D01*
X017745Y008811D02*
X016945Y008811D01*
X016945Y008573D02*
X017745Y008573D01*
X017745Y008334D02*
X016945Y008334D01*
X016945Y008096D02*
X017745Y008096D01*
X017745Y007857D02*
X016945Y007857D01*
X016945Y007619D02*
X017745Y007619D01*
X017745Y007380D02*
X016945Y007380D01*
X016945Y007142D02*
X017745Y007142D01*
X017745Y006903D02*
X016945Y006903D01*
X016945Y006665D02*
X017890Y006665D01*
X018128Y006426D02*
X016945Y006426D01*
X016945Y006188D02*
X018367Y006188D01*
X018545Y005949D02*
X016945Y005949D01*
X016945Y005711D02*
X018561Y005711D01*
X018719Y005472D02*
X017081Y005472D01*
X017266Y004280D02*
X018853Y004280D01*
X018695Y004041D02*
X017505Y004041D01*
X017743Y003803D02*
X018665Y003803D01*
X018739Y003564D02*
X017982Y003564D01*
X018220Y003326D02*
X019024Y003326D01*
X018459Y003087D02*
X027071Y003087D01*
X027015Y003265D02*
X027015Y003855D01*
X027015Y003855D01*
X027015Y003855D01*
X026425Y003855D01*
X026425Y003809D01*
X026440Y003717D01*
X026468Y003629D01*
X026510Y003546D01*
X026565Y003471D01*
X026631Y003405D01*
X026706Y003350D01*
X026789Y003308D01*
X026877Y003280D01*
X026969Y003265D01*
X027015Y003265D01*
X027015Y003326D02*
X027015Y003326D01*
X027015Y003564D02*
X027015Y003564D01*
X027015Y003803D02*
X027015Y003803D01*
X027529Y003564D02*
X027548Y003564D01*
X027604Y003803D02*
X027665Y003803D01*
X027695Y004041D02*
X027575Y004041D01*
X027425Y004280D02*
X027853Y004280D01*
X028817Y004041D02*
X029455Y004041D01*
X029425Y003855D02*
X029425Y003809D01*
X029440Y003717D01*
X029468Y003629D01*
X029510Y003546D01*
X029565Y003471D01*
X029631Y003405D01*
X029706Y003350D01*
X029789Y003308D01*
X029877Y003280D01*
X029969Y003265D01*
X030015Y003265D01*
X030061Y003265D01*
X030153Y003280D01*
X030241Y003308D01*
X030324Y003350D01*
X030399Y003405D01*
X030465Y003471D01*
X030520Y003546D01*
X030562Y003629D01*
X030590Y003717D01*
X030605Y003809D01*
X030605Y003855D01*
X030015Y003855D01*
X030015Y003855D01*
X030015Y003265D01*
X030015Y003855D01*
X030015Y003855D01*
X030015Y003855D01*
X029425Y003855D01*
X029426Y003803D02*
X028805Y003803D01*
X028731Y003564D02*
X029501Y003564D01*
X029755Y003326D02*
X028446Y003326D01*
X027863Y003087D02*
X039020Y003087D01*
X039020Y002849D02*
X027624Y002849D01*
X027386Y002610D02*
X039020Y002610D01*
X039020Y002372D02*
X027147Y002372D01*
X027128Y001865D02*
X026902Y001865D01*
X026692Y001778D01*
X026532Y001618D01*
X026445Y001408D01*
X026445Y001182D01*
X026532Y000972D01*
X026692Y000812D01*
X026902Y000725D01*
X027128Y000725D01*
X027338Y000812D01*
X027498Y000972D01*
X027585Y001182D01*
X027585Y001408D01*
X027498Y001618D01*
X027338Y001778D01*
X027128Y001865D01*
X027460Y001656D02*
X027790Y001656D01*
X027752Y001618D02*
X027665Y001408D01*
X027665Y001182D01*
X027752Y000972D01*
X027912Y000812D01*
X028122Y000725D01*
X028348Y000725D01*
X028558Y000812D01*
X028718Y000972D01*
X028805Y001182D01*
X028805Y001408D01*
X028718Y001618D01*
X028558Y001778D01*
X028348Y001865D01*
X028122Y001865D01*
X027912Y001778D01*
X027752Y001618D01*
X027669Y001418D02*
X027581Y001418D01*
X027584Y001179D02*
X027666Y001179D01*
X027783Y000941D02*
X027467Y000941D01*
X026563Y000941D02*
X025687Y000941D01*
X025718Y000972D02*
X025805Y001182D01*
X025805Y001408D01*
X025718Y001618D01*
X025558Y001778D01*
X025348Y001865D01*
X025122Y001865D01*
X024912Y001778D01*
X024752Y001618D01*
X024665Y001408D01*
X024665Y001182D01*
X024752Y000972D01*
X024912Y000812D01*
X025122Y000725D01*
X025348Y000725D01*
X025558Y000812D01*
X025718Y000972D01*
X025804Y001179D02*
X026446Y001179D01*
X026449Y001418D02*
X025801Y001418D01*
X025680Y001656D02*
X026570Y001656D01*
X024790Y001656D02*
X024460Y001656D01*
X024498Y001618D02*
X024338Y001778D01*
X024128Y001865D01*
X023902Y001865D01*
X023692Y001778D01*
X023532Y001618D01*
X023445Y001408D01*
X023445Y001182D01*
X023532Y000972D01*
X023692Y000812D01*
X023902Y000725D01*
X024128Y000725D01*
X024338Y000812D01*
X024498Y000972D01*
X024585Y001182D01*
X024585Y001408D01*
X024498Y001618D01*
X024581Y001418D02*
X024669Y001418D01*
X024666Y001179D02*
X024584Y001179D01*
X024467Y000941D02*
X024783Y000941D01*
X023563Y000941D02*
X022687Y000941D01*
X022718Y000972D02*
X022805Y001182D01*
X022805Y001408D01*
X022718Y001618D01*
X022558Y001778D01*
X022348Y001865D01*
X022122Y001865D01*
X021912Y001778D01*
X021752Y001618D01*
X021665Y001408D01*
X021665Y001182D01*
X021752Y000972D01*
X021912Y000812D01*
X022122Y000725D01*
X022348Y000725D01*
X022558Y000812D01*
X022718Y000972D01*
X022804Y001179D02*
X023446Y001179D01*
X023449Y001418D02*
X022801Y001418D01*
X022680Y001656D02*
X023570Y001656D01*
X021790Y001656D02*
X021460Y001656D01*
X021498Y001618D02*
X021338Y001778D01*
X021128Y001865D01*
X020902Y001865D01*
X020692Y001778D01*
X020532Y001618D01*
X020445Y001408D01*
X020445Y001182D01*
X020532Y000972D01*
X020692Y000812D01*
X020902Y000725D01*
X021128Y000725D01*
X021338Y000812D01*
X021498Y000972D01*
X021585Y001182D01*
X021585Y001408D01*
X021498Y001618D01*
X021581Y001418D02*
X021669Y001418D01*
X021666Y001179D02*
X021584Y001179D01*
X021467Y000941D02*
X021783Y000941D01*
X020563Y000941D02*
X019687Y000941D01*
X019804Y001179D02*
X020446Y001179D01*
X020449Y001418D02*
X019801Y001418D01*
X019680Y001656D02*
X020570Y001656D01*
X024275Y003326D02*
X025024Y003326D01*
X024739Y003564D02*
X024529Y003564D01*
X024604Y003803D02*
X024665Y003803D01*
X024695Y004041D02*
X024575Y004041D01*
X024425Y004280D02*
X024853Y004280D01*
X025817Y004041D02*
X026455Y004041D01*
X026426Y003803D02*
X025805Y003803D01*
X025731Y003564D02*
X026501Y003564D01*
X026755Y003326D02*
X025446Y003326D01*
X027275Y003326D02*
X027310Y003326D01*
X028680Y001656D02*
X029570Y001656D01*
X029532Y001618D02*
X029445Y001408D01*
X029445Y001182D01*
X029532Y000972D01*
X029692Y000812D01*
X029902Y000725D01*
X030128Y000725D01*
X030338Y000812D01*
X030498Y000972D01*
X030585Y001182D01*
X030585Y001408D01*
X030498Y001618D01*
X030338Y001778D01*
X030128Y001865D01*
X029902Y001865D01*
X029692Y001778D01*
X029532Y001618D01*
X029449Y001418D02*
X028801Y001418D01*
X028804Y001179D02*
X029446Y001179D01*
X029563Y000941D02*
X028687Y000941D01*
X030467Y000941D02*
X030783Y000941D01*
X030752Y000972D02*
X030912Y000812D01*
X031122Y000725D01*
X031348Y000725D01*
X031558Y000812D01*
X031718Y000972D01*
X031805Y001182D01*
X031805Y001408D01*
X031718Y001618D01*
X031558Y001778D01*
X031348Y001865D01*
X031122Y001865D01*
X030912Y001778D01*
X030752Y001618D01*
X030665Y001408D01*
X030665Y001182D01*
X030752Y000972D01*
X030666Y001179D02*
X030584Y001179D01*
X030581Y001418D02*
X030669Y001418D01*
X030790Y001656D02*
X030460Y001656D01*
X031680Y001656D02*
X032570Y001656D01*
X032532Y001618D02*
X032445Y001408D01*
X032445Y001182D01*
X032532Y000972D01*
X032692Y000812D01*
X032902Y000725D01*
X033128Y000725D01*
X033338Y000812D01*
X033498Y000972D01*
X033585Y001182D01*
X033585Y001408D01*
X033498Y001618D01*
X033338Y001778D01*
X033128Y001865D01*
X032902Y001865D01*
X032692Y001778D01*
X032532Y001618D01*
X032449Y001418D02*
X031801Y001418D01*
X031804Y001179D02*
X032446Y001179D01*
X032563Y000941D02*
X031687Y000941D01*
X033467Y000941D02*
X033783Y000941D01*
X033752Y000972D02*
X033912Y000812D01*
X034122Y000725D01*
X034348Y000725D01*
X034558Y000812D01*
X034718Y000972D01*
X034805Y001182D01*
X034805Y001408D01*
X034718Y001618D01*
X034558Y001778D01*
X034348Y001865D01*
X034122Y001865D01*
X033912Y001778D01*
X033752Y001618D01*
X033665Y001408D01*
X033665Y001182D01*
X033752Y000972D01*
X033666Y001179D02*
X033584Y001179D01*
X033581Y001418D02*
X033669Y001418D01*
X033790Y001656D02*
X033460Y001656D01*
X034680Y001656D02*
X035570Y001656D01*
X035449Y001418D02*
X034801Y001418D01*
X034804Y001179D02*
X035446Y001179D01*
X035563Y000941D02*
X034687Y000941D01*
X034446Y003326D02*
X035755Y003326D01*
X035789Y003308D02*
X035877Y003280D01*
X035969Y003265D01*
X036015Y003265D01*
X036061Y003265D01*
X036153Y003280D01*
X036241Y003308D01*
X036324Y003350D01*
X036399Y003405D01*
X036465Y003471D01*
X036520Y003546D01*
X036562Y003629D01*
X036590Y003717D01*
X036605Y003809D01*
X036605Y003855D01*
X036605Y003901D01*
X036590Y003993D01*
X036562Y004081D01*
X036520Y004164D01*
X036465Y004239D01*
X036399Y004305D01*
X036324Y004360D01*
X036241Y004402D01*
X036153Y004430D01*
X036061Y004445D01*
X036015Y004445D01*
X036015Y003855D01*
X036015Y003855D01*
X036605Y003855D01*
X036015Y003855D01*
X036015Y003855D01*
X036015Y003855D01*
X035425Y003855D01*
X035425Y003901D01*
X035440Y003993D01*
X035468Y004081D01*
X035510Y004164D01*
X035565Y004239D01*
X035631Y004305D01*
X035706Y004360D01*
X035789Y004402D01*
X035877Y004430D01*
X035969Y004445D01*
X036015Y004445D01*
X036015Y003855D01*
X036015Y003265D01*
X036015Y003855D01*
X036015Y003855D01*
X035425Y003855D01*
X035425Y003809D01*
X035440Y003717D01*
X035468Y003629D01*
X035510Y003546D01*
X035565Y003471D01*
X035631Y003405D01*
X035706Y003350D01*
X035789Y003308D01*
X036015Y003326D02*
X036015Y003326D01*
X036015Y003564D02*
X036015Y003564D01*
X036015Y003803D02*
X036015Y003803D01*
X036015Y004041D02*
X036015Y004041D01*
X036015Y004280D02*
X036015Y004280D01*
X036425Y004280D02*
X039020Y004280D01*
X039020Y004518D02*
X034205Y004518D01*
X034205Y004757D02*
X039020Y004757D01*
X039020Y004995D02*
X034205Y004995D01*
X034205Y005234D02*
X039020Y005234D01*
X039020Y005472D02*
X034205Y005472D01*
X034205Y005711D02*
X039020Y005711D01*
X039020Y005949D02*
X034205Y005949D01*
X034205Y006188D02*
X034917Y006188D01*
X034825Y006226D02*
X035020Y006145D01*
X035230Y006145D01*
X035425Y006226D01*
X035574Y006375D01*
X035583Y006395D01*
X036667Y006395D01*
X036676Y006375D01*
X036825Y006226D01*
X037020Y006145D01*
X037230Y006145D01*
X037425Y006226D01*
X037574Y006375D01*
X037614Y006469D01*
X037615Y006464D01*
X037655Y006387D01*
X037705Y006317D01*
X037767Y006255D01*
X037837Y006205D01*
X037914Y006165D01*
X037996Y006139D01*
X038082Y006125D01*
X038125Y006125D01*
X038168Y006125D01*
X038254Y006139D01*
X038336Y006165D01*
X038413Y006205D01*
X038483Y006255D01*
X038545Y006317D01*
X038595Y006387D01*
X038635Y006464D01*
X038661Y006546D01*
X038675Y006632D01*
X038675Y006675D01*
X038675Y006718D01*
X038661Y006804D01*
X038635Y006886D01*
X038595Y006963D01*
X038545Y007033D01*
X038483Y007095D01*
X038413Y007145D01*
X038336Y007185D01*
X038254Y007211D01*
X038168Y007225D01*
X038125Y007225D01*
X038125Y006675D01*
X038675Y006675D01*
X038125Y006675D01*
X038125Y006675D01*
X038125Y006675D01*
X038125Y006125D01*
X038125Y006675D01*
X038125Y006675D01*
X038125Y007225D01*
X038082Y007225D01*
X037996Y007211D01*
X037914Y007185D01*
X037837Y007145D01*
X037767Y007095D01*
X037705Y007033D01*
X037655Y006963D01*
X037615Y006886D01*
X037614Y006881D01*
X037574Y006975D01*
X037425Y007124D01*
X037230Y007205D01*
X037020Y007205D01*
X036825Y007124D01*
X036676Y006975D01*
X036667Y006955D01*
X035583Y006955D01*
X035574Y006975D01*
X035425Y007124D01*
X035230Y007205D01*
X035020Y007205D01*
X034825Y007124D01*
X034676Y006975D01*
X034595Y006780D01*
X034595Y006570D01*
X034676Y006375D01*
X034825Y006226D01*
X034654Y006426D02*
X034205Y006426D01*
X034205Y006665D02*
X034595Y006665D01*
X034646Y006903D02*
X034205Y006903D01*
X034205Y007142D02*
X034866Y007142D01*
X035384Y007142D02*
X036866Y007142D01*
X037384Y007142D02*
X037831Y007142D01*
X038125Y007142D02*
X038125Y007142D01*
X038125Y006903D02*
X038125Y006903D01*
X038125Y006665D02*
X038125Y006665D01*
X038125Y006426D02*
X038125Y006426D01*
X038125Y006188D02*
X038125Y006188D01*
X038380Y006188D02*
X039020Y006188D01*
X039020Y006426D02*
X038615Y006426D01*
X038675Y006665D02*
X039020Y006665D01*
X039020Y006903D02*
X038626Y006903D01*
X038419Y007142D02*
X039020Y007142D01*
X039020Y007380D02*
X034068Y007380D01*
X033838Y007619D02*
X039020Y007619D01*
X039020Y007857D02*
X033607Y007857D01*
X033377Y008096D02*
X034898Y008096D01*
X034651Y008334D02*
X033147Y008334D01*
X032917Y008573D02*
X034595Y008573D01*
X035352Y008096D02*
X036898Y008096D01*
X037352Y008096D02*
X037855Y008096D01*
X038125Y008096D02*
X038125Y008096D01*
X038125Y008025D02*
X038125Y008575D01*
X038125Y008575D01*
X038125Y008025D01*
X038395Y008096D02*
X039020Y008096D01*
X039020Y008334D02*
X038619Y008334D01*
X038675Y008573D02*
X039020Y008573D01*
X039020Y008811D02*
X038622Y008811D01*
X038405Y009050D02*
X039020Y009050D01*
X039020Y009288D02*
X032505Y009288D01*
X032494Y009527D02*
X039020Y009527D01*
X039020Y009765D02*
X032344Y009765D01*
X031706Y009765D02*
X031344Y009765D01*
X031494Y009527D02*
X031556Y009527D01*
X031545Y009288D02*
X031505Y009288D01*
X031505Y009050D02*
X031545Y009050D01*
X031545Y008811D02*
X031505Y008811D01*
X031020Y008334D02*
X029812Y008334D01*
X029753Y008438D02*
X029930Y008365D01*
X030120Y008365D01*
X030297Y008438D01*
X030432Y008573D01*
X030505Y008750D01*
X030505Y009500D01*
X030432Y009677D01*
X030305Y009804D01*
X030305Y010009D01*
X030741Y010445D01*
X035581Y010445D01*
X035684Y010488D01*
X035762Y010566D01*
X037062Y011866D01*
X037105Y011969D01*
X037105Y013609D01*
X038962Y015466D01*
X039005Y015569D01*
X039005Y016981D01*
X038962Y017084D01*
X038884Y017162D01*
X038484Y017562D01*
X038381Y017605D01*
X037326Y017605D01*
X037308Y017648D01*
X037148Y017808D01*
X036938Y017895D01*
X036712Y017895D01*
X036502Y017808D01*
X036342Y017648D01*
X036255Y017438D01*
X036255Y017212D01*
X036342Y017002D01*
X036502Y016842D01*
X036712Y016755D01*
X036938Y016755D01*
X037148Y016842D01*
X037308Y017002D01*
X037326Y017045D01*
X038209Y017045D01*
X038445Y016809D01*
X038445Y015741D01*
X036666Y013962D01*
X036588Y013884D01*
X036545Y013781D01*
X036545Y012141D01*
X035409Y011005D01*
X030569Y011005D01*
X030466Y010962D01*
X030388Y010884D01*
X030388Y010884D01*
X029866Y010362D01*
X029788Y010284D01*
X029745Y010181D01*
X029745Y009804D01*
X029618Y009677D01*
X029545Y009500D01*
X029545Y008750D01*
X029618Y008573D01*
X029753Y008438D01*
X029619Y008573D02*
X029573Y008573D01*
X029545Y008811D02*
X029505Y008811D01*
X029505Y009050D02*
X029545Y009050D01*
X029545Y009288D02*
X029505Y009288D01*
X029494Y009527D02*
X029556Y009527D01*
X029706Y009765D02*
X029344Y009765D01*
X029745Y010004D02*
X024475Y010004D01*
X024344Y009765D02*
X024678Y009765D01*
X024699Y009786D02*
X024644Y009731D01*
X024597Y009667D01*
X024562Y009597D01*
X024537Y009522D01*
X024525Y009444D01*
X024525Y009125D01*
X025025Y009125D01*
X025525Y009125D01*
X025525Y009444D01*
X025513Y009522D01*
X025488Y009597D01*
X025453Y009667D01*
X025406Y009731D01*
X025351Y009786D01*
X025287Y009833D01*
X025217Y009868D01*
X025142Y009893D01*
X025064Y009905D01*
X025025Y009905D01*
X025025Y009125D01*
X025025Y009125D01*
X025025Y009125D01*
X025525Y009125D01*
X025525Y008806D01*
X025513Y008728D01*
X025488Y008653D01*
X025453Y008583D01*
X025406Y008519D01*
X025351Y008464D01*
X025287Y008417D01*
X025217Y008382D01*
X025142Y008357D01*
X025064Y008345D01*
X025025Y008345D01*
X025025Y009125D01*
X025025Y009125D01*
X025025Y009125D01*
X025025Y009905D01*
X024986Y009905D01*
X024908Y009893D01*
X024833Y009868D01*
X024763Y009833D01*
X024699Y009786D01*
X024539Y009527D02*
X024494Y009527D01*
X024505Y009288D02*
X024525Y009288D01*
X024525Y009125D02*
X024525Y008806D01*
X024537Y008728D01*
X024562Y008653D01*
X024597Y008583D01*
X024644Y008519D01*
X024699Y008464D01*
X024763Y008417D01*
X024833Y008382D01*
X024908Y008357D01*
X024986Y008345D01*
X025025Y008345D01*
X025025Y009125D01*
X024525Y009125D01*
X024525Y009050D02*
X024505Y009050D01*
X024505Y008811D02*
X024525Y008811D01*
X024605Y008573D02*
X024431Y008573D01*
X025025Y008573D02*
X025025Y008573D01*
X025025Y008811D02*
X025025Y008811D01*
X025025Y009050D02*
X025025Y009050D01*
X025025Y009288D02*
X025025Y009288D01*
X025025Y009527D02*
X025025Y009527D01*
X025025Y009765D02*
X025025Y009765D01*
X025372Y009765D02*
X025706Y009765D01*
X025753Y009812D02*
X025618Y009677D01*
X025545Y009500D01*
X025545Y008750D01*
X025618Y008573D01*
X025753Y008438D01*
X025930Y008365D01*
X026120Y008365D01*
X026297Y008438D01*
X026432Y008573D01*
X026505Y008750D01*
X026505Y009500D01*
X026432Y009677D01*
X026297Y009812D01*
X026120Y009885D01*
X025930Y009885D01*
X025753Y009812D01*
X025556Y009527D02*
X025511Y009527D01*
X025525Y009288D02*
X025545Y009288D01*
X025525Y009050D02*
X025545Y009050D01*
X025525Y008811D02*
X025545Y008811D01*
X025619Y008573D02*
X025445Y008573D01*
X026431Y008573D02*
X026619Y008573D01*
X026618Y008573D02*
X026753Y008438D01*
X026930Y008365D01*
X027120Y008365D01*
X027297Y008438D01*
X027432Y008573D01*
X027505Y008750D01*
X027505Y009500D01*
X027432Y009677D01*
X027297Y009812D01*
X027120Y009885D01*
X026930Y009885D01*
X026753Y009812D01*
X026618Y009677D01*
X026545Y009500D01*
X026545Y008750D01*
X026618Y008573D01*
X026545Y008811D02*
X026505Y008811D01*
X026505Y009050D02*
X026545Y009050D01*
X026545Y009288D02*
X026505Y009288D01*
X026494Y009527D02*
X026556Y009527D01*
X026706Y009765D02*
X026344Y009765D01*
X027344Y009765D02*
X027706Y009765D01*
X027753Y009812D02*
X027618Y009677D01*
X027545Y009500D01*
X027545Y008750D01*
X027618Y008573D01*
X027753Y008438D01*
X027930Y008365D01*
X028120Y008365D01*
X028297Y008438D01*
X028432Y008573D01*
X028505Y008750D01*
X028505Y009500D01*
X028432Y009677D01*
X028297Y009812D01*
X028120Y009885D01*
X027930Y009885D01*
X027753Y009812D01*
X027556Y009527D02*
X027494Y009527D01*
X027505Y009288D02*
X027545Y009288D01*
X027545Y009050D02*
X027505Y009050D01*
X027505Y008811D02*
X027545Y008811D01*
X027619Y008573D02*
X027431Y008573D01*
X028431Y008573D02*
X028619Y008573D01*
X028545Y008811D02*
X028505Y008811D01*
X028505Y009050D02*
X028545Y009050D01*
X028545Y009288D02*
X028505Y009288D01*
X028494Y009527D02*
X028556Y009527D01*
X028706Y009765D02*
X028344Y009765D01*
X029770Y010242D02*
X024740Y010242D01*
X025005Y010481D02*
X029985Y010481D01*
X029866Y010362D02*
X029866Y010362D01*
X030223Y010719D02*
X025270Y010719D01*
X025535Y010958D02*
X030462Y010958D01*
X030538Y010242D02*
X039020Y010242D01*
X039020Y010004D02*
X030305Y010004D01*
X030344Y009765D02*
X030706Y009765D01*
X030556Y009527D02*
X030494Y009527D01*
X030505Y009288D02*
X030545Y009288D01*
X030545Y009050D02*
X030505Y009050D01*
X030505Y008811D02*
X030545Y008811D01*
X030619Y008573D02*
X030431Y008573D01*
X029497Y007857D02*
X021804Y007857D01*
X021804Y007619D02*
X029736Y007619D01*
X029259Y008096D02*
X021804Y008096D01*
X021804Y008334D02*
X029020Y008334D01*
X028613Y006665D02*
X028437Y006665D01*
X028505Y006426D02*
X028545Y006426D01*
X028545Y006188D02*
X028505Y006188D01*
X028505Y005949D02*
X028545Y005949D01*
X028561Y005711D02*
X028489Y005711D01*
X029489Y005711D02*
X029515Y005711D01*
X029505Y005949D02*
X029545Y005949D01*
X029545Y006188D02*
X029505Y006188D01*
X029505Y006426D02*
X029545Y006426D01*
X029613Y006665D02*
X029437Y006665D01*
X030437Y006665D02*
X030613Y006665D01*
X030545Y006426D02*
X030505Y006426D01*
X030505Y006188D02*
X030545Y006188D01*
X030545Y005949D02*
X030505Y005949D01*
X030489Y005711D02*
X030561Y005711D01*
X031331Y005472D02*
X031576Y005472D01*
X031561Y005711D02*
X031489Y005711D01*
X031505Y005949D02*
X031545Y005949D01*
X031545Y006188D02*
X031505Y006188D01*
X031505Y006426D02*
X031545Y006426D01*
X031613Y006665D02*
X031437Y006665D01*
X032013Y007142D02*
X021805Y007142D01*
X021805Y007380D02*
X031774Y007380D01*
X032251Y006903D02*
X026077Y006903D01*
X026064Y006905D02*
X026142Y006893D01*
X026217Y006868D01*
X026287Y006833D01*
X026351Y006786D01*
X026406Y006731D01*
X026453Y006667D01*
X026488Y006597D01*
X026513Y006522D01*
X026525Y006444D01*
X026525Y006125D01*
X026025Y006125D01*
X026025Y006125D01*
X026025Y006125D01*
X026025Y006905D01*
X026064Y006905D01*
X026025Y006905D02*
X025986Y006905D01*
X025908Y006893D01*
X025833Y006868D01*
X025763Y006833D01*
X025699Y006786D01*
X025644Y006731D01*
X025597Y006667D01*
X025562Y006597D01*
X025537Y006522D01*
X025525Y006444D01*
X025525Y006125D01*
X026025Y006125D01*
X026525Y006125D01*
X026525Y005806D01*
X026513Y005728D01*
X026488Y005653D01*
X026453Y005583D01*
X026406Y005519D01*
X026351Y005464D01*
X026287Y005417D01*
X026217Y005382D01*
X026142Y005357D01*
X026064Y005345D01*
X026025Y005345D01*
X026025Y006125D01*
X026025Y006125D01*
X026025Y006125D01*
X026025Y006905D01*
X026025Y006903D02*
X026025Y006903D01*
X025973Y006903D02*
X021805Y006903D01*
X022437Y006665D02*
X022613Y006665D01*
X022618Y006677D02*
X022545Y006500D01*
X022545Y005750D01*
X022618Y005573D01*
X022753Y005438D01*
X022930Y005365D01*
X023120Y005365D01*
X023297Y005438D01*
X023432Y005573D01*
X023505Y005750D01*
X023505Y006500D01*
X023432Y006677D01*
X023297Y006812D01*
X023120Y006885D01*
X022930Y006885D01*
X022753Y006812D01*
X022618Y006677D01*
X022545Y006426D02*
X022505Y006426D01*
X022505Y006188D02*
X022545Y006188D01*
X022545Y005949D02*
X022505Y005949D01*
X022489Y005711D02*
X022561Y005711D01*
X022719Y005472D02*
X022331Y005472D01*
X021719Y005472D02*
X021331Y005472D01*
X021489Y005711D02*
X021561Y005711D01*
X021545Y005949D02*
X021505Y005949D01*
X021505Y006188D02*
X021545Y006188D01*
X021245Y006903D02*
X018443Y006903D01*
X018305Y007142D02*
X021245Y007142D01*
X021245Y007380D02*
X018305Y007380D01*
X018305Y007619D02*
X021244Y007619D01*
X021244Y007857D02*
X018305Y007857D01*
X018305Y008096D02*
X021244Y008096D01*
X021244Y008334D02*
X018305Y008334D01*
X018305Y008573D02*
X018619Y008573D01*
X018618Y008573D02*
X018753Y008438D01*
X018930Y008365D01*
X019120Y008365D01*
X019297Y008438D01*
X019432Y008573D01*
X019505Y008750D01*
X019505Y009500D01*
X019432Y009677D01*
X019297Y009812D01*
X019120Y009885D01*
X018930Y009885D01*
X018753Y009812D01*
X018618Y009677D01*
X018545Y009500D01*
X018545Y008750D01*
X018618Y008573D01*
X018545Y008811D02*
X018305Y008811D01*
X018305Y009050D02*
X018545Y009050D01*
X018545Y009288D02*
X018305Y009288D01*
X018305Y009527D02*
X018556Y009527D01*
X018706Y009765D02*
X018305Y009765D01*
X018305Y010004D02*
X019951Y010004D01*
X019712Y010242D02*
X018305Y010242D01*
X018305Y010481D02*
X019474Y010481D01*
X019235Y010719D02*
X018305Y010719D01*
X018305Y010958D02*
X018997Y010958D01*
X018758Y011196D02*
X018305Y011196D01*
X018305Y011435D02*
X018520Y011435D01*
X018834Y011912D02*
X020536Y011912D01*
X020536Y012150D02*
X018596Y012150D01*
X018357Y012389D02*
X020536Y012389D01*
X020536Y012627D02*
X019467Y012627D01*
X019415Y012575D02*
X019883Y013044D01*
X019883Y013706D01*
X019415Y014175D01*
X018752Y014175D01*
X018283Y013706D01*
X018283Y013044D01*
X018752Y012575D01*
X019415Y012575D01*
X019705Y012866D02*
X020536Y012866D01*
X020536Y013104D02*
X019883Y013104D01*
X019883Y013343D02*
X020536Y013343D01*
X020536Y013581D02*
X019883Y013581D01*
X019770Y013820D02*
X020536Y013820D01*
X020536Y014058D02*
X019532Y014058D01*
X018635Y014058D02*
X017905Y014058D01*
X017905Y013820D02*
X018396Y013820D01*
X018283Y013581D02*
X017905Y013581D01*
X017905Y013343D02*
X018283Y013343D01*
X018283Y013104D02*
X017905Y013104D01*
X017905Y012866D02*
X018461Y012866D01*
X018700Y012627D02*
X018119Y012627D01*
X019073Y011673D02*
X020536Y011673D01*
X020536Y011435D02*
X019311Y011435D01*
X019550Y011196D02*
X020536Y011196D01*
X020536Y010958D02*
X019788Y010958D01*
X020027Y010719D02*
X020536Y010719D01*
X020536Y010481D02*
X020265Y010481D01*
X020504Y010242D02*
X020712Y010242D01*
X021096Y010650D02*
X021243Y010503D01*
X021242Y011514D01*
X021167Y011588D01*
X021104Y011742D01*
X021104Y011908D01*
X021167Y012062D01*
X021285Y012179D01*
X021439Y012243D01*
X021605Y012243D01*
X021759Y012179D01*
X021876Y012062D01*
X021940Y011908D01*
X021940Y011742D01*
X021876Y011588D01*
X021802Y011514D01*
X021803Y009852D01*
X021832Y009878D01*
X021866Y009912D01*
X021873Y009915D01*
X025839Y013499D01*
X025839Y015561D01*
X025666Y015561D01*
X025641Y015586D01*
X025640Y015585D01*
X025589Y015556D01*
X025533Y015541D01*
X025134Y015541D01*
X025134Y016131D01*
X025134Y016131D01*
X024544Y016131D01*
X024544Y016530D01*
X024559Y016586D01*
X024571Y016605D01*
X024254Y016605D01*
X023599Y015950D01*
X023599Y015950D01*
X023509Y015860D01*
X023391Y015811D01*
X022370Y015811D01*
X022370Y015678D01*
X022253Y015561D01*
X021347Y015561D01*
X021308Y015600D01*
X021268Y015561D01*
X021096Y015561D01*
X021096Y010650D01*
X021096Y010719D02*
X021243Y010719D01*
X021242Y010958D02*
X021096Y010958D01*
X021096Y011196D02*
X021242Y011196D01*
X021242Y011435D02*
X021096Y011435D01*
X021096Y011673D02*
X021132Y011673D01*
X021105Y011912D02*
X021096Y011912D01*
X021096Y012150D02*
X021256Y012150D01*
X021096Y012389D02*
X024610Y012389D01*
X024718Y012575D02*
X025186Y013044D01*
X025186Y013706D01*
X024718Y014175D01*
X024055Y014175D01*
X023586Y013706D01*
X023586Y013044D01*
X024055Y012575D01*
X024718Y012575D01*
X024770Y012627D02*
X024874Y012627D01*
X025008Y012866D02*
X025137Y012866D01*
X025186Y013104D02*
X025401Y013104D01*
X025186Y013343D02*
X025665Y013343D01*
X025839Y013581D02*
X025186Y013581D01*
X025073Y013820D02*
X025839Y013820D01*
X025839Y014058D02*
X024835Y014058D01*
X023938Y014058D02*
X022996Y014058D01*
X022879Y014175D02*
X023348Y013706D01*
X023348Y013044D01*
X022879Y012575D01*
X022216Y012575D01*
X021748Y013044D01*
X021748Y013706D01*
X022216Y014175D01*
X022879Y014175D01*
X023235Y013820D02*
X023700Y013820D01*
X023586Y013581D02*
X023348Y013581D01*
X023348Y013343D02*
X023586Y013343D01*
X023586Y013104D02*
X023348Y013104D01*
X023170Y012866D02*
X023765Y012866D01*
X024003Y012627D02*
X022931Y012627D01*
X022164Y012627D02*
X021096Y012627D01*
X021096Y012866D02*
X021926Y012866D01*
X021748Y013104D02*
X021096Y013104D01*
X021096Y013343D02*
X021748Y013343D01*
X021748Y013581D02*
X021096Y013581D01*
X021096Y013820D02*
X021861Y013820D01*
X022099Y014058D02*
X021096Y014058D01*
X021096Y014297D02*
X025839Y014297D01*
X025839Y014535D02*
X021096Y014535D01*
X021096Y014774D02*
X025839Y014774D01*
X025839Y015012D02*
X021096Y015012D01*
X021096Y015251D02*
X025839Y015251D01*
X025839Y015489D02*
X021096Y015489D01*
X020536Y015489D02*
X017905Y015489D01*
X017905Y015251D02*
X020536Y015251D01*
X020536Y015012D02*
X017905Y015012D01*
X017905Y014774D02*
X020536Y014774D01*
X020536Y014535D02*
X017905Y014535D01*
X017905Y014297D02*
X020536Y014297D01*
X019831Y015728D02*
X019831Y015728D01*
X019831Y015966D02*
X019831Y015966D01*
X019831Y016205D02*
X019831Y016205D01*
X019831Y016443D02*
X019831Y016443D01*
X019831Y016682D02*
X019831Y016682D01*
X019830Y016765D02*
X020020Y016765D01*
X020197Y016838D01*
X020332Y016973D01*
X020405Y017150D01*
X020405Y017900D01*
X020332Y018077D01*
X020197Y018212D01*
X020020Y018285D01*
X019830Y018285D01*
X019653Y018212D01*
X019518Y018077D01*
X019445Y017900D01*
X019445Y017150D01*
X019518Y016973D01*
X019653Y016838D01*
X019830Y016765D01*
X019571Y016920D02*
X018778Y016920D01*
X018795Y017159D02*
X019445Y017159D01*
X019445Y017397D02*
X018709Y017397D01*
X018361Y017636D02*
X019445Y017636D01*
X019445Y017874D02*
X018025Y017874D01*
X018025Y018113D02*
X019554Y018113D01*
X020296Y018113D02*
X020525Y018113D01*
X020525Y018351D02*
X018025Y018351D01*
X018025Y018590D02*
X020525Y018590D01*
X020525Y018828D02*
X018025Y018828D01*
X018025Y019067D02*
X018965Y019067D01*
X018721Y019305D02*
X018025Y019305D01*
X018025Y019544D02*
X018482Y019544D01*
X018244Y019782D02*
X018025Y019782D01*
X017425Y020021D02*
X017072Y020021D01*
X017125Y020259D02*
X017425Y020259D01*
X017425Y020498D02*
X017125Y020498D01*
X017125Y020736D02*
X017190Y020736D01*
X017561Y021213D02*
X017665Y021213D01*
X017795Y021452D02*
X017323Y021452D01*
X017084Y021690D02*
X019407Y021690D01*
X019775Y021775D02*
X019225Y022325D01*
X019725Y022825D01*
X019725Y025825D01*
X020135Y026222D02*
X020315Y026222D01*
X021135Y026222D02*
X021315Y026222D01*
X022135Y026222D02*
X022315Y026222D01*
X022225Y025543D02*
X022242Y025502D01*
X022402Y025342D01*
X022612Y025255D01*
X022838Y025255D01*
X023048Y025342D01*
X023208Y025502D01*
X023218Y025525D01*
X025501Y025525D01*
X025525Y025501D01*
X025525Y022809D01*
X025509Y022825D01*
X025434Y022880D01*
X025351Y022922D01*
X025263Y022950D01*
X025171Y022965D01*
X025125Y022965D01*
X025125Y022375D01*
X025125Y022375D01*
X025125Y021785D01*
X025171Y021785D01*
X025263Y021800D01*
X025351Y021828D01*
X025434Y021870D01*
X025509Y021925D01*
X025525Y021941D01*
X025525Y019049D01*
X024884Y018409D01*
X024748Y018465D01*
X024522Y018465D01*
X024312Y018378D01*
X024152Y018218D01*
X024105Y018105D01*
X024105Y020245D01*
X024152Y020132D01*
X024312Y019972D01*
X024522Y019885D01*
X024748Y019885D01*
X024958Y019972D01*
X025118Y020132D01*
X025205Y020342D01*
X025205Y020568D01*
X025118Y020778D01*
X024958Y020938D01*
X024748Y021025D01*
X024522Y021025D01*
X024312Y020938D01*
X024152Y020778D01*
X024105Y020665D01*
X024105Y022681D01*
X024062Y022784D01*
X023984Y022862D01*
X023484Y023362D01*
X023381Y023405D01*
X022141Y023405D01*
X022005Y023541D01*
X022005Y025324D01*
X022048Y025342D01*
X022208Y025502D01*
X022225Y025543D01*
X022210Y025506D02*
X022240Y025506D01*
X022005Y025268D02*
X022581Y025268D01*
X022869Y025268D02*
X025525Y025268D01*
X025520Y025506D02*
X023210Y025506D01*
X023135Y026222D02*
X037488Y026222D01*
X037368Y026460D02*
X014926Y026460D01*
X015060Y026699D02*
X037326Y026699D01*
X037359Y026937D02*
X014403Y026937D01*
X014347Y026937D02*
X010255Y026937D01*
X010255Y026954D02*
X009886Y027324D01*
X009364Y027324D01*
X009125Y027084D01*
X008886Y027324D01*
X008364Y027324D01*
X007995Y026954D01*
X007995Y026433D01*
X008364Y026064D01*
X008886Y026064D01*
X009125Y026303D01*
X009364Y026064D01*
X009886Y026064D01*
X010255Y026433D01*
X010255Y026954D01*
X010255Y026699D02*
X013690Y026699D01*
X013824Y026460D02*
X010255Y026460D01*
X010044Y026222D02*
X012402Y026222D01*
X012804Y026222D02*
X014219Y026222D01*
X014347Y026222D02*
X014403Y026222D01*
X014531Y026222D02*
X017135Y026222D01*
X017135Y026224D02*
X017135Y025825D01*
X017725Y025825D01*
X017725Y025825D01*
X017725Y025825D01*
X017725Y026415D01*
X017326Y026415D01*
X017270Y026400D01*
X017220Y026371D01*
X017179Y026330D01*
X017150Y026280D01*
X017135Y026224D01*
X017135Y025983D02*
X013157Y025983D01*
X013279Y025745D02*
X017135Y025745D01*
X017135Y025825D02*
X017135Y025426D01*
X017150Y025370D01*
X017179Y025320D01*
X017220Y025279D01*
X017270Y025250D01*
X017326Y025235D01*
X017725Y025235D01*
X017725Y025825D01*
X017135Y025825D01*
X017135Y025506D02*
X013303Y025506D01*
X013245Y025268D02*
X017240Y025268D01*
X017725Y025268D02*
X017725Y025268D01*
X017725Y025506D02*
X017725Y025506D01*
X017725Y025745D02*
X017725Y025745D01*
X017725Y025983D02*
X017725Y025983D01*
X017725Y026222D02*
X017725Y026222D01*
X018315Y026222D02*
X018315Y026222D01*
X019135Y026222D02*
X019315Y026222D01*
X019240Y025506D02*
X019210Y025506D01*
X019405Y025268D02*
X018869Y025268D01*
X018581Y025268D02*
X018210Y025268D01*
X018499Y024572D02*
X018416Y024530D01*
X018341Y024475D01*
X018275Y024409D01*
X018220Y024334D01*
X018178Y024251D01*
X018150Y024163D01*
X018135Y024071D01*
X018135Y024025D01*
X018725Y024025D01*
X019315Y024025D01*
X019315Y024071D01*
X019300Y024163D01*
X019272Y024251D01*
X019230Y024334D01*
X019175Y024409D01*
X019109Y024475D01*
X019034Y024530D01*
X018951Y024572D01*
X018863Y024600D01*
X018771Y024615D01*
X018725Y024615D01*
X018725Y024025D01*
X018725Y024025D01*
X018725Y024025D01*
X019315Y024025D01*
X019315Y023979D01*
X019300Y023887D01*
X019272Y023799D01*
X019230Y023716D01*
X019175Y023641D01*
X019109Y023575D01*
X019034Y023520D01*
X018951Y023478D01*
X018863Y023450D01*
X018771Y023435D01*
X018725Y023435D01*
X018725Y024025D01*
X018725Y024025D01*
X018725Y024025D01*
X018725Y024615D01*
X018679Y024615D01*
X018587Y024600D01*
X018499Y024572D01*
X018460Y024552D02*
X016024Y024552D01*
X016059Y024314D02*
X016099Y024314D01*
X016588Y024314D02*
X018210Y024314D01*
X018136Y024075D02*
X016916Y024075D01*
X017027Y023837D02*
X018166Y023837D01*
X018178Y023799D02*
X018150Y023887D01*
X018135Y023979D01*
X018135Y024025D01*
X018725Y024025D01*
X018725Y023435D01*
X018679Y023435D01*
X018587Y023450D01*
X018499Y023478D01*
X018416Y023520D01*
X018341Y023575D01*
X018275Y023641D01*
X018220Y023716D01*
X018178Y023799D01*
X018318Y023598D02*
X017044Y023598D01*
X016978Y023360D02*
X019405Y023360D01*
X019405Y023598D02*
X019132Y023598D01*
X019284Y023837D02*
X019405Y023837D01*
X019405Y024075D02*
X019314Y024075D01*
X019240Y024314D02*
X019405Y024314D01*
X019405Y024552D02*
X018990Y024552D01*
X018725Y024552D02*
X018725Y024552D01*
X018725Y024314D02*
X018725Y024314D01*
X018725Y024075D02*
X018725Y024075D01*
X018725Y023837D02*
X018725Y023837D01*
X018725Y023598D02*
X018725Y023598D01*
X019082Y022883D02*
X016644Y022883D01*
X016644Y022644D02*
X018740Y022644D01*
X018655Y022406D02*
X016644Y022406D01*
X016644Y022167D02*
X018673Y022167D01*
X018815Y021929D02*
X016846Y021929D01*
X016797Y023121D02*
X019405Y023121D01*
X019775Y021775D02*
X022825Y021775D01*
X023475Y021125D01*
X023475Y017475D01*
X024025Y016925D01*
X024122Y016925D01*
X026825Y016925D01*
X026709Y016809D01*
X027103Y016131D01*
X027652Y016605D02*
X029874Y016605D01*
X029863Y016586D01*
X029848Y016530D01*
X029848Y016131D01*
X030438Y016131D01*
X030438Y015541D01*
X030837Y015541D01*
X030893Y015556D01*
X030943Y015585D01*
X030944Y015586D01*
X030965Y015565D01*
X030806Y015405D01*
X027363Y015405D01*
X027260Y015362D01*
X027181Y015284D01*
X026399Y014501D01*
X026399Y015561D01*
X026572Y015561D01*
X026611Y015600D01*
X026650Y015561D01*
X027556Y015561D01*
X027673Y015678D01*
X027673Y016584D01*
X027652Y016605D01*
X027673Y016443D02*
X029848Y016443D01*
X029848Y016205D02*
X027673Y016205D01*
X027673Y015966D02*
X029848Y015966D01*
X029848Y016131D02*
X029848Y015732D01*
X029863Y015676D01*
X029892Y015626D01*
X029933Y015585D01*
X029983Y015556D01*
X030039Y015541D01*
X030438Y015541D01*
X030438Y016131D01*
X030438Y016131D01*
X030438Y016131D01*
X029848Y016131D01*
X029849Y015728D02*
X027673Y015728D01*
X027148Y015251D02*
X026399Y015251D01*
X026399Y015489D02*
X030890Y015489D01*
X030438Y015728D02*
X030438Y015728D01*
X030438Y015966D02*
X030438Y015966D01*
X031905Y015012D02*
X037716Y015012D01*
X037478Y014774D02*
X031666Y014774D01*
X031428Y014535D02*
X037239Y014535D01*
X037001Y014297D02*
X027636Y014297D01*
X027403Y014058D02*
X027398Y014058D01*
X028299Y014058D02*
X029241Y014058D01*
X029358Y014175D02*
X028890Y013706D01*
X028890Y013044D01*
X029358Y012575D01*
X030021Y012575D01*
X030490Y013044D01*
X030490Y013706D01*
X030021Y014175D01*
X029358Y014175D01*
X029003Y013820D02*
X028538Y013820D01*
X028651Y013581D02*
X028890Y013581D01*
X028890Y013343D02*
X028651Y013343D01*
X028651Y013104D02*
X028890Y013104D01*
X029068Y012866D02*
X028473Y012866D01*
X028234Y012627D02*
X029306Y012627D01*
X030073Y012627D02*
X032771Y012627D01*
X032823Y012575D02*
X032354Y013044D01*
X032354Y013706D01*
X032823Y014175D01*
X033486Y014175D01*
X033954Y013706D01*
X033954Y013044D01*
X033486Y012575D01*
X032823Y012575D01*
X032532Y012866D02*
X030311Y012866D01*
X030490Y013104D02*
X032354Y013104D01*
X032354Y013343D02*
X030490Y013343D01*
X030490Y013581D02*
X032354Y013581D01*
X032467Y013820D02*
X030376Y013820D01*
X030138Y014058D02*
X032706Y014058D01*
X033602Y014058D02*
X034594Y014058D01*
X034661Y014125D02*
X034193Y013656D01*
X034193Y012994D01*
X034661Y012525D01*
X035324Y012525D01*
X035793Y012994D01*
X035793Y013656D01*
X035324Y014125D01*
X034661Y014125D01*
X034356Y013820D02*
X033841Y013820D01*
X033954Y013581D02*
X034193Y013581D01*
X034193Y013343D02*
X033954Y013343D01*
X033954Y013104D02*
X034193Y013104D01*
X034321Y012866D02*
X033776Y012866D01*
X033538Y012627D02*
X034559Y012627D01*
X035426Y012627D02*
X036545Y012627D01*
X036545Y012389D02*
X027128Y012389D01*
X027249Y012627D02*
X027468Y012627D01*
X026860Y012150D02*
X036545Y012150D01*
X036316Y011912D02*
X026595Y011912D01*
X026330Y011673D02*
X036077Y011673D01*
X035839Y011435D02*
X026065Y011435D01*
X025800Y011196D02*
X035600Y011196D01*
X036153Y010958D02*
X039020Y010958D01*
X039020Y011196D02*
X036392Y011196D01*
X036630Y011435D02*
X039020Y011435D01*
X039020Y011673D02*
X036869Y011673D01*
X037081Y011912D02*
X039020Y011912D01*
X039020Y012150D02*
X037105Y012150D01*
X037105Y012389D02*
X039020Y012389D01*
X039020Y012627D02*
X038891Y012627D01*
X038024Y012627D02*
X037105Y012627D01*
X037105Y012866D02*
X037785Y012866D01*
X037657Y013104D02*
X037105Y013104D01*
X037105Y013343D02*
X037657Y013343D01*
X037657Y013581D02*
X037105Y013581D01*
X037315Y013820D02*
X037820Y013820D01*
X038059Y014058D02*
X037554Y014058D01*
X037792Y014297D02*
X039020Y014297D01*
X039020Y014535D02*
X038031Y014535D01*
X038269Y014774D02*
X039020Y014774D01*
X039020Y015012D02*
X038508Y015012D01*
X038746Y015251D02*
X039020Y015251D01*
X039020Y015489D02*
X038972Y015489D01*
X039005Y015728D02*
X039020Y015728D01*
X039005Y015966D02*
X039020Y015966D01*
X039005Y016205D02*
X039020Y016205D01*
X039005Y016443D02*
X039020Y016443D01*
X039005Y016682D02*
X039020Y016682D01*
X039005Y016920D02*
X039020Y016920D01*
X039020Y017159D02*
X038887Y017159D01*
X039020Y017397D02*
X038649Y017397D01*
X039020Y017636D02*
X037313Y017636D01*
X036989Y017874D02*
X039020Y017874D01*
X039020Y018113D02*
X031125Y018113D01*
X031125Y017874D02*
X036661Y017874D01*
X036337Y017636D02*
X031099Y017636D01*
X030861Y017397D02*
X036255Y017397D01*
X036277Y017159D02*
X032344Y017159D01*
X032532Y016920D02*
X036424Y016920D01*
X037226Y016920D02*
X038334Y016920D01*
X038445Y016682D02*
X032878Y016682D01*
X032976Y016443D02*
X035151Y016443D01*
X035151Y016205D02*
X032976Y016205D01*
X032976Y015966D02*
X035151Y015966D01*
X035741Y016205D02*
X035741Y016205D01*
X035741Y016443D02*
X035741Y016443D01*
X036785Y015489D02*
X038193Y015489D01*
X038279Y015728D02*
X038432Y015728D01*
X038445Y015966D02*
X038279Y015966D01*
X038279Y016205D02*
X038445Y016205D01*
X038445Y016443D02*
X038279Y016443D01*
X037955Y015251D02*
X036494Y015251D01*
X036762Y014058D02*
X035391Y014058D01*
X035630Y013820D02*
X036561Y013820D01*
X036545Y013581D02*
X035793Y013581D01*
X035793Y013343D02*
X036545Y013343D01*
X036545Y013104D02*
X035793Y013104D01*
X035665Y012866D02*
X036545Y012866D01*
X038856Y014058D02*
X039020Y014058D01*
X039020Y010719D02*
X035915Y010719D01*
X035666Y010481D02*
X039020Y010481D01*
X038125Y009050D02*
X038125Y009050D01*
X038125Y008811D02*
X038125Y008811D01*
X038125Y008573D02*
X038125Y008573D01*
X038125Y008334D02*
X038125Y008334D01*
X037631Y008334D02*
X037599Y008334D01*
X037601Y008811D02*
X037628Y008811D01*
X037845Y009050D02*
X037364Y009050D01*
X036886Y009050D02*
X035364Y009050D01*
X032685Y008811D02*
X032684Y008812D01*
X032634Y008833D01*
X032586Y008854D01*
X032583Y008854D01*
X032581Y008855D01*
X032527Y008855D01*
X032505Y008855D01*
X035333Y006188D02*
X036917Y006188D01*
X037333Y006188D02*
X037870Y006188D01*
X037635Y006426D02*
X037596Y006426D01*
X037604Y006903D02*
X037624Y006903D01*
X035605Y004280D02*
X034617Y004280D01*
X034775Y004041D02*
X035455Y004041D01*
X035426Y003803D02*
X034805Y003803D01*
X034731Y003564D02*
X035501Y003564D01*
X036275Y003326D02*
X039020Y003326D01*
X039020Y003564D02*
X036529Y003564D01*
X036604Y003803D02*
X039020Y003803D01*
X039020Y004041D02*
X036575Y004041D01*
X034024Y003326D02*
X033275Y003326D01*
X033241Y003308D02*
X033324Y003350D01*
X033399Y003405D01*
X033465Y003471D01*
X033520Y003546D01*
X033562Y003629D01*
X033590Y003717D01*
X033605Y003809D01*
X033605Y003855D01*
X033015Y003855D01*
X033015Y003855D01*
X033015Y003265D01*
X033061Y003265D01*
X033153Y003280D01*
X033241Y003308D01*
X033015Y003326D02*
X033015Y003326D01*
X033015Y003265D02*
X033015Y003855D01*
X033015Y003855D01*
X033015Y003855D01*
X032425Y003855D01*
X032425Y003809D01*
X032440Y003717D01*
X032468Y003629D01*
X032510Y003546D01*
X032565Y003471D01*
X032631Y003405D01*
X032706Y003350D01*
X032789Y003308D01*
X032877Y003280D01*
X032969Y003265D01*
X033015Y003265D01*
X032755Y003326D02*
X031446Y003326D01*
X031731Y003564D02*
X032501Y003564D01*
X032426Y003803D02*
X031805Y003803D01*
X031817Y004041D02*
X032455Y004041D01*
X033015Y003803D02*
X033015Y003803D01*
X033015Y003564D02*
X033015Y003564D01*
X033529Y003564D02*
X033739Y003564D01*
X033665Y003803D02*
X033604Y003803D01*
X033575Y004041D02*
X033677Y004041D01*
X033645Y004280D02*
X033425Y004280D01*
X033645Y004518D02*
X033165Y004518D01*
X033386Y004757D02*
X033645Y004757D01*
X033645Y004995D02*
X033608Y004995D01*
X030853Y004280D02*
X030425Y004280D01*
X030575Y004041D02*
X030695Y004041D01*
X030665Y003803D02*
X030604Y003803D01*
X030529Y003564D02*
X030739Y003564D01*
X031024Y003326D02*
X030275Y003326D01*
X030015Y003326D02*
X030015Y003326D01*
X030015Y003564D02*
X030015Y003564D01*
X030015Y003803D02*
X030015Y003803D01*
X027561Y005711D02*
X027489Y005711D01*
X027505Y005949D02*
X027545Y005949D01*
X027545Y006188D02*
X027505Y006188D01*
X027505Y006426D02*
X027545Y006426D01*
X027613Y006665D02*
X027437Y006665D01*
X026613Y006665D02*
X026454Y006665D01*
X026525Y006426D02*
X026545Y006426D01*
X026525Y006188D02*
X026545Y006188D01*
X026525Y005949D02*
X026545Y005949D01*
X026561Y005711D02*
X026507Y005711D01*
X026359Y005472D02*
X026719Y005472D01*
X026025Y005472D02*
X026025Y005472D01*
X026025Y005345D02*
X026025Y006125D01*
X025525Y006125D01*
X025525Y005806D01*
X025537Y005728D01*
X025562Y005653D01*
X025597Y005583D01*
X025644Y005519D01*
X025699Y005464D01*
X025763Y005417D01*
X025833Y005382D01*
X025908Y005357D01*
X025986Y005345D01*
X026025Y005345D01*
X025691Y005472D02*
X025331Y005472D01*
X025489Y005711D02*
X025543Y005711D01*
X025525Y005949D02*
X025505Y005949D01*
X025505Y006188D02*
X025525Y006188D01*
X025505Y006426D02*
X025525Y006426D01*
X025596Y006665D02*
X025437Y006665D01*
X026025Y006665D02*
X026025Y006665D01*
X026025Y006426D02*
X026025Y006426D01*
X026025Y006188D02*
X026025Y006188D01*
X026025Y005949D02*
X026025Y005949D01*
X026025Y005711D02*
X026025Y005711D01*
X025025Y005825D02*
X025025Y006125D01*
X024545Y006188D02*
X024505Y006188D01*
X024505Y006426D02*
X024545Y006426D01*
X024613Y006665D02*
X024437Y006665D01*
X024505Y005949D02*
X024545Y005949D01*
X025025Y005825D02*
X024525Y005325D01*
X023975Y005325D01*
X023675Y005025D01*
X023669Y005472D02*
X023331Y005472D01*
X023489Y005711D02*
X023561Y005711D01*
X023545Y005949D02*
X023505Y005949D01*
X023505Y006188D02*
X023545Y006188D01*
X023545Y006426D02*
X023505Y006426D01*
X023437Y006665D02*
X023613Y006665D01*
X023619Y008573D02*
X023431Y008573D01*
X023505Y008811D02*
X023545Y008811D01*
X023545Y009050D02*
X023505Y009050D01*
X023505Y009288D02*
X023545Y009288D01*
X023556Y009527D02*
X023494Y009527D01*
X023344Y009765D02*
X023706Y009765D01*
X023745Y010004D02*
X023586Y010004D01*
X023850Y010242D02*
X023903Y010242D01*
X024115Y010481D02*
X024168Y010481D01*
X024379Y010719D02*
X024433Y010719D01*
X024644Y010958D02*
X024698Y010958D01*
X024908Y011196D02*
X024963Y011196D01*
X025173Y011435D02*
X025228Y011435D01*
X025437Y011673D02*
X025493Y011673D01*
X025702Y011912D02*
X025758Y011912D01*
X025966Y012150D02*
X026023Y012150D01*
X026231Y012389D02*
X026288Y012389D01*
X026495Y012627D02*
X026552Y012627D01*
X026433Y014535D02*
X026399Y014535D01*
X026399Y014774D02*
X026671Y014774D01*
X026910Y015012D02*
X026399Y015012D01*
X025134Y015541D02*
X025134Y016131D01*
X024544Y016131D01*
X024544Y015732D01*
X024559Y015676D01*
X024588Y015626D01*
X024629Y015585D01*
X024680Y015556D01*
X024735Y015541D01*
X025134Y015541D01*
X025134Y015728D02*
X025134Y015728D01*
X025134Y015966D02*
X025134Y015966D01*
X025134Y016131D02*
X025134Y016131D01*
X024544Y016205D02*
X023854Y016205D01*
X024092Y016443D02*
X024544Y016443D01*
X024544Y015966D02*
X023615Y015966D01*
X023328Y016131D02*
X024122Y016925D01*
X023577Y016920D02*
X023307Y016920D01*
X023426Y016682D02*
X022272Y016682D01*
X022197Y016838D02*
X022332Y016973D01*
X022405Y017150D01*
X022405Y017900D01*
X022332Y018077D01*
X022197Y018212D01*
X022020Y018285D01*
X021830Y018285D01*
X021653Y018212D01*
X021518Y018077D01*
X021445Y017900D01*
X021445Y017150D01*
X021518Y016973D01*
X021653Y016838D01*
X021830Y016765D01*
X022020Y016765D01*
X022197Y016838D01*
X022279Y016920D02*
X022543Y016920D01*
X022544Y016919D02*
X022599Y016864D01*
X022663Y016817D01*
X022733Y016782D01*
X022808Y016757D01*
X022886Y016745D01*
X022925Y016745D01*
X022925Y017525D01*
X022925Y017525D01*
X022925Y017525D01*
X022425Y017525D01*
X022425Y017844D01*
X022437Y017922D01*
X022462Y017997D01*
X022497Y018067D01*
X022544Y018131D01*
X022599Y018186D01*
X022663Y018233D01*
X022733Y018268D01*
X022808Y018293D01*
X022886Y018305D01*
X022925Y018305D01*
X022925Y017525D01*
X022425Y017525D01*
X022425Y017206D01*
X022437Y017128D01*
X022462Y017053D01*
X022497Y016983D01*
X022544Y016919D01*
X022432Y017159D02*
X022405Y017159D01*
X022405Y017397D02*
X022425Y017397D01*
X022405Y017636D02*
X022425Y017636D01*
X022405Y017874D02*
X022430Y017874D01*
X022530Y018113D02*
X022296Y018113D01*
X022925Y018113D02*
X022925Y018113D01*
X022925Y017874D02*
X022925Y017874D01*
X022925Y017636D02*
X022925Y017636D01*
X022925Y017397D02*
X022925Y017397D01*
X022925Y017159D02*
X022925Y017159D01*
X022925Y016920D02*
X022925Y016920D01*
X023328Y016131D02*
X021800Y016131D01*
X022370Y015728D02*
X024546Y015728D01*
X026825Y016925D02*
X032125Y016925D01*
X032225Y016825D01*
X032225Y016247D01*
X032406Y016131D01*
X032628Y018171D02*
X033534Y018171D01*
X033651Y018288D01*
X033651Y019194D01*
X033612Y019233D01*
X033651Y019272D01*
X033651Y020178D01*
X033626Y020203D01*
X033627Y020204D01*
X033656Y020254D01*
X033671Y020310D01*
X033671Y020709D01*
X033081Y020709D01*
X033081Y020709D01*
X033671Y020709D01*
X033671Y021108D01*
X033656Y021164D01*
X033627Y021214D01*
X033586Y021255D01*
X033536Y021284D01*
X033480Y021299D01*
X033081Y021299D01*
X033081Y020709D01*
X033081Y020709D01*
X033081Y021299D01*
X032682Y021299D01*
X032626Y021284D01*
X032576Y021255D01*
X032535Y021214D01*
X032506Y021164D01*
X032505Y021161D01*
X032505Y022288D01*
X032522Y022295D01*
X032670Y022443D01*
X032750Y022636D01*
X032750Y022844D01*
X032670Y023037D01*
X032522Y023185D01*
X032329Y023265D01*
X032121Y023265D01*
X031928Y023185D01*
X031780Y023037D01*
X031700Y022844D01*
X031700Y022655D01*
X029626Y022655D01*
X029608Y022698D01*
X029448Y022858D01*
X029405Y022876D01*
X029405Y023331D01*
X029362Y023434D01*
X029247Y023549D01*
X029255Y023570D01*
X029255Y023780D01*
X029174Y023975D01*
X029025Y024124D01*
X028842Y024200D01*
X029025Y024276D01*
X029174Y024425D01*
X029183Y024445D01*
X031767Y024445D01*
X031780Y024413D01*
X031928Y024265D01*
X032121Y024185D01*
X032329Y024185D01*
X032522Y024265D01*
X032670Y024413D01*
X032677Y024430D01*
X036373Y024430D01*
X036380Y024413D01*
X036528Y024265D01*
X036721Y024185D01*
X036929Y024185D01*
X037122Y024265D01*
X037270Y024413D01*
X037350Y024606D01*
X037350Y024814D01*
X037270Y025007D01*
X037122Y025155D01*
X036929Y025235D01*
X036721Y025235D01*
X036528Y025155D01*
X036380Y025007D01*
X036373Y024990D01*
X032677Y024990D01*
X032670Y025007D01*
X032522Y025155D01*
X032329Y025235D01*
X032121Y025235D01*
X031928Y025155D01*
X031780Y025007D01*
X031779Y025005D01*
X029183Y025005D01*
X029174Y025025D01*
X029025Y025174D01*
X028830Y025255D01*
X028620Y025255D01*
X028425Y025174D01*
X028276Y025025D01*
X028236Y024931D01*
X028235Y024936D01*
X028195Y025013D01*
X028145Y025083D01*
X028083Y025145D01*
X028013Y025195D01*
X027936Y025235D01*
X027854Y025261D01*
X027768Y025275D01*
X027725Y025275D01*
X027725Y024725D01*
X027725Y024725D01*
X027725Y024725D01*
X027175Y024725D01*
X027175Y024768D01*
X027189Y024854D01*
X027215Y024936D01*
X027255Y025013D01*
X027305Y025083D01*
X027367Y025145D01*
X027437Y025195D01*
X027514Y025235D01*
X027596Y025261D01*
X027682Y025275D01*
X027725Y025275D01*
X027725Y024725D01*
X027725Y024175D01*
X027725Y023675D01*
X027725Y023675D01*
X027725Y023125D01*
X027768Y023125D01*
X027854Y023139D01*
X027936Y023165D01*
X028013Y023205D01*
X028083Y023255D01*
X028145Y023317D01*
X028195Y023387D01*
X028235Y023464D01*
X028236Y023469D01*
X028276Y023375D01*
X028425Y023226D01*
X028620Y023145D01*
X028830Y023145D01*
X028845Y023151D01*
X028845Y022876D01*
X028802Y022858D01*
X028642Y022698D01*
X028555Y022488D01*
X028555Y022262D01*
X028642Y022052D01*
X028802Y021892D01*
X029012Y021805D01*
X029238Y021805D01*
X029448Y021892D01*
X029608Y022052D01*
X029626Y022095D01*
X029831Y022095D01*
X029525Y021789D01*
X029525Y021126D01*
X029994Y020657D01*
X030656Y020657D01*
X031125Y021126D01*
X031125Y021789D01*
X030819Y022095D01*
X031916Y022095D01*
X031945Y022107D01*
X031945Y019541D01*
X031988Y019438D01*
X032066Y019359D01*
X032511Y018915D01*
X032511Y018288D01*
X032628Y018171D01*
X032511Y018351D02*
X031098Y018351D01*
X030860Y018590D02*
X032511Y018590D01*
X032511Y018828D02*
X026110Y018828D01*
X026125Y019067D02*
X032359Y019067D01*
X032121Y019305D02*
X026125Y019305D01*
X026125Y019544D02*
X031945Y019544D01*
X031945Y019782D02*
X026125Y019782D01*
X026787Y020021D02*
X031945Y020021D01*
X031945Y020259D02*
X026951Y020259D01*
X026985Y020498D02*
X031945Y020498D01*
X031945Y020736D02*
X030735Y020736D01*
X030974Y020975D02*
X031945Y020975D01*
X031945Y021213D02*
X031125Y021213D01*
X031125Y021452D02*
X031945Y021452D01*
X031945Y021690D02*
X031125Y021690D01*
X030985Y021929D02*
X031945Y021929D01*
X032505Y021929D02*
X036545Y021929D01*
X036545Y021826D02*
X036502Y021808D01*
X036342Y021648D01*
X036324Y021605D01*
X035883Y021605D01*
X035874Y021625D01*
X035725Y021774D01*
X035530Y021855D01*
X035320Y021855D01*
X035125Y021774D01*
X034976Y021625D01*
X034895Y021430D01*
X034895Y021220D01*
X034976Y021025D01*
X035125Y020876D01*
X035219Y020836D01*
X035214Y020835D01*
X035137Y020795D01*
X035067Y020745D01*
X035005Y020683D01*
X034955Y020613D01*
X034915Y020536D01*
X034889Y020454D01*
X034875Y020368D01*
X034875Y020325D01*
X035425Y020325D01*
X035975Y020325D01*
X035975Y020368D01*
X035961Y020454D01*
X035935Y020536D01*
X035895Y020613D01*
X035845Y020683D01*
X035783Y020745D01*
X035713Y020795D01*
X035636Y020835D01*
X035631Y020836D01*
X035725Y020876D01*
X035874Y021025D01*
X035883Y021045D01*
X036324Y021045D01*
X036342Y021002D01*
X036502Y020842D01*
X036712Y020755D01*
X036938Y020755D01*
X037148Y020842D01*
X037308Y021002D01*
X037395Y021212D01*
X037395Y021438D01*
X037308Y021648D01*
X037148Y021808D01*
X037105Y021826D01*
X037105Y022288D01*
X037122Y022295D01*
X037270Y022443D01*
X037350Y022636D01*
X037350Y022844D01*
X037270Y023037D01*
X037122Y023185D01*
X036929Y023265D01*
X036721Y023265D01*
X036528Y023185D01*
X036380Y023037D01*
X036300Y022844D01*
X036300Y022636D01*
X036380Y022443D01*
X036528Y022295D01*
X036545Y022288D01*
X036545Y021826D01*
X036384Y021690D02*
X035810Y021690D01*
X035040Y021690D02*
X032505Y021690D01*
X032505Y021452D02*
X034904Y021452D01*
X034898Y021213D02*
X033628Y021213D01*
X033671Y020975D02*
X035026Y020975D01*
X035058Y020736D02*
X033671Y020736D01*
X033671Y020498D02*
X034903Y020498D01*
X034875Y020325D02*
X034875Y020282D01*
X034889Y020196D01*
X034915Y020114D01*
X034955Y020037D01*
X035005Y019967D01*
X035067Y019905D01*
X035137Y019855D01*
X035214Y019815D01*
X035296Y019789D01*
X035382Y019775D01*
X035425Y019775D01*
X035468Y019775D01*
X035554Y019789D01*
X035636Y019815D01*
X035713Y019855D01*
X035783Y019905D01*
X035845Y019967D01*
X035895Y020037D01*
X035935Y020114D01*
X035961Y020196D01*
X035975Y020282D01*
X035975Y020325D01*
X035425Y020325D01*
X035425Y020325D01*
X035425Y020325D01*
X035425Y019775D01*
X035425Y020325D01*
X035425Y020325D01*
X034875Y020325D01*
X034879Y020259D02*
X033657Y020259D01*
X033651Y020021D02*
X034966Y020021D01*
X035337Y019782D02*
X033651Y019782D01*
X033651Y019544D02*
X039020Y019544D01*
X039020Y019782D02*
X035513Y019782D01*
X035425Y019782D02*
X035425Y019782D01*
X035425Y020021D02*
X035425Y020021D01*
X035425Y020259D02*
X035425Y020259D01*
X035884Y020021D02*
X039020Y020021D01*
X039020Y020259D02*
X035971Y020259D01*
X035947Y020498D02*
X039020Y020498D01*
X039020Y020736D02*
X035792Y020736D01*
X035824Y020975D02*
X036369Y020975D01*
X037281Y020975D02*
X039020Y020975D01*
X039020Y021213D02*
X037395Y021213D01*
X037390Y021452D02*
X039020Y021452D01*
X039020Y021690D02*
X037266Y021690D01*
X037105Y021929D02*
X039020Y021929D01*
X039020Y022167D02*
X037105Y022167D01*
X037233Y022406D02*
X039020Y022406D01*
X039020Y022644D02*
X037350Y022644D01*
X037334Y022883D02*
X039020Y022883D01*
X039020Y023121D02*
X037186Y023121D01*
X036464Y023121D02*
X032586Y023121D01*
X032734Y022883D02*
X036316Y022883D01*
X036300Y022644D02*
X032750Y022644D01*
X032633Y022406D02*
X036417Y022406D01*
X036545Y022167D02*
X032505Y022167D01*
X031716Y022883D02*
X029405Y022883D01*
X029405Y023121D02*
X031864Y023121D01*
X031879Y024314D02*
X029063Y024314D01*
X029075Y024075D02*
X039020Y024075D01*
X039020Y023837D02*
X029232Y023837D01*
X029255Y023598D02*
X039020Y023598D01*
X039020Y023360D02*
X029393Y023360D01*
X028845Y023121D02*
X026125Y023121D01*
X026125Y022883D02*
X028845Y022883D01*
X028619Y022644D02*
X026125Y022644D01*
X026125Y022406D02*
X028555Y022406D01*
X028594Y022167D02*
X026125Y022167D01*
X026125Y021929D02*
X028765Y021929D01*
X029485Y021929D02*
X029665Y021929D01*
X029525Y021690D02*
X026125Y021690D01*
X026125Y021452D02*
X029525Y021452D01*
X029525Y021213D02*
X026125Y021213D01*
X026125Y020975D02*
X026180Y020975D01*
X026650Y020975D02*
X029676Y020975D01*
X029915Y020736D02*
X026916Y020736D01*
X025525Y020736D02*
X025136Y020736D01*
X025205Y020498D02*
X025525Y020498D01*
X025525Y020259D02*
X025171Y020259D01*
X025007Y020021D02*
X025525Y020021D01*
X025525Y019782D02*
X024105Y019782D01*
X024105Y019544D02*
X025525Y019544D01*
X025525Y019305D02*
X024105Y019305D01*
X024105Y019067D02*
X025525Y019067D01*
X025304Y018828D02*
X024105Y018828D01*
X024105Y018590D02*
X025065Y018590D01*
X025437Y018113D02*
X025865Y018113D01*
X025868Y018121D02*
X025840Y018033D01*
X025825Y017941D01*
X025825Y017895D01*
X026415Y017895D01*
X026415Y017895D01*
X026415Y018485D01*
X026461Y018485D01*
X026553Y018470D01*
X026641Y018442D01*
X026724Y018400D01*
X026799Y018345D01*
X026865Y018279D01*
X026920Y018204D01*
X026962Y018121D01*
X026990Y018033D01*
X027005Y017941D01*
X027005Y017895D01*
X026415Y017895D01*
X026415Y017895D01*
X026415Y017895D01*
X026415Y018485D01*
X026369Y018485D01*
X026277Y018470D01*
X026189Y018442D01*
X026106Y018400D01*
X026031Y018345D01*
X025965Y018279D01*
X025910Y018204D01*
X025868Y018121D01*
X025825Y017895D02*
X025825Y017849D01*
X025840Y017757D01*
X025868Y017669D01*
X025910Y017586D01*
X025965Y017511D01*
X026031Y017445D01*
X026106Y017390D01*
X026189Y017348D01*
X026277Y017320D01*
X026369Y017305D01*
X026415Y017305D01*
X026461Y017305D01*
X026553Y017320D01*
X026641Y017348D01*
X026724Y017390D01*
X026799Y017445D01*
X026865Y017511D01*
X026920Y017586D01*
X026962Y017669D01*
X026990Y017757D01*
X027005Y017849D01*
X027005Y017895D01*
X026415Y017895D01*
X026415Y017305D01*
X026415Y017895D01*
X026415Y017895D01*
X025825Y017895D01*
X025825Y017874D02*
X025205Y017874D01*
X025144Y017636D02*
X025885Y017636D01*
X026097Y017397D02*
X024922Y017397D01*
X024108Y018113D02*
X024105Y018113D01*
X024105Y018351D02*
X024285Y018351D01*
X023155Y018351D02*
X021125Y018351D01*
X021125Y018590D02*
X023155Y018590D01*
X023155Y018828D02*
X021125Y018828D01*
X021125Y019067D02*
X023155Y019067D01*
X023155Y019305D02*
X021069Y019305D01*
X020831Y019544D02*
X023155Y019544D01*
X023155Y019782D02*
X023062Y019782D01*
X022788Y019782D02*
X022062Y019782D01*
X022020Y019765D02*
X022197Y019838D01*
X022332Y019973D01*
X022405Y020150D01*
X022405Y020900D01*
X022332Y021077D01*
X022197Y021212D01*
X022020Y021285D01*
X021830Y021285D01*
X021653Y021212D01*
X021518Y021077D01*
X021445Y020900D01*
X021445Y020150D01*
X021518Y019973D01*
X021653Y019838D01*
X021830Y019765D01*
X022020Y019765D01*
X021788Y019782D02*
X021062Y019782D01*
X021020Y019765D02*
X021197Y019838D01*
X021332Y019973D01*
X021405Y020150D01*
X021405Y020900D01*
X021332Y021077D01*
X021197Y021212D01*
X021020Y021285D01*
X020830Y021285D01*
X020653Y021212D01*
X020518Y021077D01*
X020445Y020900D01*
X020445Y020150D01*
X020518Y019973D01*
X020653Y019838D01*
X020830Y019765D01*
X021020Y019765D01*
X020788Y019782D02*
X020062Y019782D01*
X020020Y019765D02*
X020197Y019838D01*
X020332Y019973D01*
X020405Y020150D01*
X020405Y020900D01*
X020332Y021077D01*
X020197Y021212D01*
X020020Y021285D01*
X019830Y021285D01*
X019653Y021212D01*
X019518Y021077D01*
X019445Y020900D01*
X019445Y020150D01*
X019518Y019973D01*
X019653Y019838D01*
X019830Y019765D01*
X020020Y019765D01*
X019788Y019782D02*
X019092Y019782D01*
X018854Y020021D02*
X019498Y020021D01*
X019445Y020259D02*
X018615Y020259D01*
X018525Y020498D02*
X019445Y020498D01*
X019445Y020736D02*
X018692Y020736D01*
X018795Y020975D02*
X019476Y020975D01*
X019656Y021213D02*
X018785Y021213D01*
X018655Y021452D02*
X022696Y021452D01*
X022656Y021213D02*
X022194Y021213D01*
X022374Y020975D02*
X022476Y020975D01*
X022445Y020736D02*
X022405Y020736D01*
X022405Y020498D02*
X022445Y020498D01*
X022445Y020259D02*
X022405Y020259D01*
X022352Y020021D02*
X022498Y020021D01*
X021498Y020021D02*
X021352Y020021D01*
X021405Y020259D02*
X021445Y020259D01*
X021445Y020498D02*
X021405Y020498D01*
X021405Y020736D02*
X021445Y020736D01*
X021476Y020975D02*
X021374Y020975D01*
X021194Y021213D02*
X021656Y021213D01*
X020656Y021213D02*
X020194Y021213D01*
X020374Y020975D02*
X020476Y020975D01*
X020445Y020736D02*
X020405Y020736D01*
X020405Y020498D02*
X020445Y020498D01*
X020445Y020259D02*
X020405Y020259D01*
X020352Y020021D02*
X020498Y020021D01*
X021296Y018113D02*
X021554Y018113D01*
X021445Y017874D02*
X021405Y017874D01*
X021405Y017636D02*
X021445Y017636D01*
X021445Y017397D02*
X021405Y017397D01*
X021405Y017159D02*
X021445Y017159D01*
X021571Y016920D02*
X021279Y016920D01*
X021288Y016682D02*
X021328Y016682D01*
X020571Y016920D02*
X020279Y016920D01*
X020328Y016682D02*
X020343Y016682D01*
X020405Y017159D02*
X020445Y017159D01*
X020445Y017397D02*
X020405Y017397D01*
X020405Y017636D02*
X020445Y017636D01*
X020445Y017874D02*
X020405Y017874D01*
X019334Y016682D02*
X018638Y016682D01*
X019241Y016443D02*
X017703Y016443D01*
X017605Y016682D02*
X017812Y016682D01*
X017672Y016920D02*
X017605Y016920D01*
X017605Y017159D02*
X017655Y017159D01*
X017045Y016443D02*
X016864Y016443D01*
X016386Y016443D02*
X014739Y016443D01*
X013268Y016205D02*
X012863Y016205D01*
X012863Y016443D02*
X013011Y016443D01*
X012970Y015966D02*
X012863Y015966D01*
X009181Y018113D02*
X006163Y018113D01*
X006120Y018351D02*
X007903Y018351D01*
X007665Y018590D02*
X006145Y018590D01*
X006066Y018828D02*
X007433Y018828D01*
X007395Y019067D02*
X005855Y019067D01*
X005855Y019305D02*
X007395Y019305D01*
X007395Y019544D02*
X006492Y019544D01*
X006674Y019782D02*
X007395Y019782D01*
X007395Y020021D02*
X006725Y020021D01*
X006678Y020259D02*
X007395Y020259D01*
X008218Y018828D02*
X009084Y018828D01*
X006583Y016920D02*
X006583Y016920D01*
X006583Y016682D02*
X006583Y016682D01*
X006230Y016682D02*
X006133Y016682D01*
X006937Y016682D02*
X007250Y016682D01*
X005295Y019305D02*
X003601Y019305D01*
X003645Y019544D02*
X005295Y019544D01*
X005441Y019782D02*
X003645Y019782D01*
X003663Y020021D02*
X003959Y020021D01*
X004995Y021929D02*
X000430Y021929D01*
X000430Y022167D02*
X004339Y022167D01*
X004101Y022406D02*
X000430Y022406D01*
X000430Y022644D02*
X003995Y022644D01*
X003995Y022883D02*
X002098Y022883D01*
X002257Y023121D02*
X004083Y023121D01*
X004321Y023360D02*
X002295Y023360D01*
X001675Y023360D02*
X001675Y023360D01*
X001675Y023336D02*
X001675Y023956D01*
X001675Y023336D01*
X001675Y023336D01*
X001675Y023121D02*
X001675Y023121D01*
X001675Y022883D02*
X001675Y022883D01*
X001252Y022883D02*
X000430Y022883D01*
X000430Y023121D02*
X001093Y023121D01*
X001055Y023360D02*
X000430Y023360D01*
X000430Y023598D02*
X001113Y023598D01*
X001309Y023837D02*
X000430Y023837D01*
X000430Y024075D02*
X011645Y024075D01*
X011645Y024314D02*
X002275Y024314D01*
X002275Y024231D02*
X002275Y025197D01*
X002158Y025314D01*
X001192Y025314D01*
X001075Y025197D01*
X001075Y024231D01*
X001192Y024114D01*
X002158Y024114D01*
X002275Y024231D01*
X002275Y024552D02*
X011645Y024552D01*
X011645Y024791D02*
X002275Y024791D01*
X002275Y025029D02*
X011645Y025029D01*
X011645Y025268D02*
X002204Y025268D01*
X001725Y025983D02*
X012049Y025983D01*
X011849Y025745D02*
X000430Y025745D01*
X000430Y025983D02*
X000725Y025983D01*
X000488Y026222D02*
X000430Y026222D01*
X000430Y025506D02*
X011655Y025506D01*
X012205Y024791D02*
X014833Y024791D01*
X014695Y024552D02*
X012205Y024552D01*
X012205Y024314D02*
X014659Y024314D01*
X014706Y024075D02*
X012205Y024075D01*
X013075Y025029D02*
X019405Y025029D01*
X019405Y024791D02*
X015885Y024791D01*
X014403Y026460D02*
X014347Y026460D01*
X014347Y026699D02*
X014403Y026699D01*
X015051Y027176D02*
X037457Y027176D01*
X037533Y027306D02*
X037533Y027306D01*
X037662Y027414D02*
X014904Y027414D01*
X013846Y027414D02*
X001788Y027414D01*
X001993Y027176D02*
X005216Y027176D01*
X005364Y027324D02*
X004995Y026954D01*
X004995Y026433D01*
X005364Y026064D01*
X005886Y026064D01*
X006125Y026303D01*
X006364Y026064D01*
X006886Y026064D01*
X007255Y026433D01*
X007255Y026954D01*
X006886Y027324D01*
X006364Y027324D01*
X006125Y027084D01*
X005886Y027324D01*
X005364Y027324D01*
X004995Y026937D02*
X002091Y026937D01*
X002124Y026699D02*
X004995Y026699D01*
X004995Y026460D02*
X002082Y026460D01*
X001962Y026222D02*
X005206Y026222D01*
X006044Y026222D02*
X006206Y026222D01*
X007044Y026222D02*
X008206Y026222D01*
X007995Y026460D02*
X007255Y026460D01*
X007255Y026699D02*
X007995Y026699D01*
X007995Y026937D02*
X007255Y026937D01*
X007034Y027176D02*
X008216Y027176D01*
X009034Y027176D02*
X009216Y027176D01*
X010034Y027176D02*
X013699Y027176D01*
X009206Y026222D02*
X009044Y026222D01*
X006216Y027176D02*
X006034Y027176D01*
X001917Y026144D02*
X001917Y026144D01*
X001146Y025268D02*
X000430Y025268D01*
X000430Y025029D02*
X001075Y025029D01*
X001075Y024791D02*
X000430Y024791D01*
X000430Y024552D02*
X001075Y024552D01*
X001075Y024314D02*
X000430Y024314D01*
X001675Y023837D02*
X001675Y023837D01*
X001675Y023598D02*
X001675Y023598D01*
X004911Y022167D02*
X005089Y022167D01*
X005149Y022406D02*
X005328Y022406D01*
X009922Y022406D02*
X010061Y022406D01*
X010161Y022167D02*
X010300Y022167D01*
X016625Y020498D02*
X016625Y020498D01*
X016625Y020259D02*
X016625Y020259D01*
X016625Y020021D02*
X016625Y020021D01*
X016818Y018828D02*
X017425Y018828D01*
X017425Y018590D02*
X017056Y018590D01*
X017295Y018351D02*
X017425Y018351D01*
X017895Y016205D02*
X019241Y016205D01*
X019241Y015966D02*
X017905Y015966D01*
X017905Y015728D02*
X019242Y015728D01*
X021788Y012150D02*
X024346Y012150D01*
X024082Y011912D02*
X021939Y011912D01*
X021911Y011673D02*
X023818Y011673D01*
X023554Y011435D02*
X021802Y011435D01*
X021802Y011196D02*
X023290Y011196D01*
X023026Y010958D02*
X021802Y010958D01*
X021803Y010719D02*
X022763Y010719D01*
X022499Y010481D02*
X021803Y010481D01*
X021803Y010242D02*
X022235Y010242D01*
X021971Y010004D02*
X021803Y010004D01*
X022542Y009765D02*
X022706Y009765D01*
X022556Y009527D02*
X022494Y009527D01*
X022505Y009288D02*
X022545Y009288D01*
X022545Y009050D02*
X022505Y009050D01*
X022505Y008811D02*
X022545Y008811D01*
X022619Y008573D02*
X022431Y008573D01*
X020619Y008573D02*
X020431Y008573D01*
X020505Y008811D02*
X020545Y008811D01*
X020545Y009050D02*
X020505Y009050D01*
X020505Y009288D02*
X020545Y009288D01*
X019706Y009765D02*
X019344Y009765D01*
X019494Y009527D02*
X019556Y009527D01*
X019545Y009288D02*
X019505Y009288D01*
X019505Y009050D02*
X019545Y009050D01*
X019545Y008811D02*
X019505Y008811D01*
X019431Y008573D02*
X019619Y008573D01*
X019930Y006885D02*
X019753Y006812D01*
X019618Y006677D01*
X019545Y006500D01*
X019545Y005750D01*
X019618Y005573D01*
X019753Y005438D01*
X019930Y005365D01*
X020120Y005365D01*
X020297Y005438D01*
X020432Y005573D01*
X020505Y005750D01*
X020505Y006500D01*
X020432Y006677D01*
X020297Y006812D01*
X020120Y006885D01*
X019930Y006885D01*
X019613Y006665D02*
X019437Y006665D01*
X019505Y006426D02*
X019545Y006426D01*
X019545Y006188D02*
X019505Y006188D01*
X019505Y005949D02*
X019545Y005949D01*
X019561Y005711D02*
X019489Y005711D01*
X019331Y005472D02*
X019719Y005472D01*
X020331Y005472D02*
X020719Y005472D01*
X020561Y005711D02*
X020489Y005711D01*
X020505Y005949D02*
X020545Y005949D01*
X020545Y006188D02*
X020505Y006188D01*
X020505Y006426D02*
X020545Y006426D01*
X020613Y006665D02*
X020437Y006665D01*
X013217Y011196D02*
X012863Y011196D01*
X012863Y011435D02*
X012920Y011435D01*
X024105Y020021D02*
X024263Y020021D01*
X024134Y020736D02*
X024105Y020736D01*
X024105Y020975D02*
X024400Y020975D01*
X024105Y021213D02*
X025525Y021213D01*
X025525Y020975D02*
X024870Y020975D01*
X025525Y021452D02*
X024105Y021452D01*
X024105Y021690D02*
X025525Y021690D01*
X025513Y021929D02*
X025525Y021929D01*
X025125Y021929D02*
X025125Y021929D01*
X025125Y021785D02*
X025125Y022375D01*
X025125Y022375D01*
X025125Y022375D01*
X024535Y022375D01*
X024535Y022421D01*
X024550Y022513D01*
X024578Y022601D01*
X024620Y022684D01*
X024675Y022759D01*
X024741Y022825D01*
X024816Y022880D01*
X024899Y022922D01*
X024987Y022950D01*
X025079Y022965D01*
X025125Y022965D01*
X025125Y022375D01*
X024535Y022375D01*
X024535Y022329D01*
X024550Y022237D01*
X024578Y022149D01*
X024620Y022066D01*
X024675Y021991D01*
X024741Y021925D01*
X024816Y021870D01*
X024899Y021828D01*
X024987Y021800D01*
X025079Y021785D01*
X025125Y021785D01*
X024737Y021929D02*
X024105Y021929D01*
X024105Y022167D02*
X024572Y022167D01*
X024535Y022406D02*
X024105Y022406D01*
X024105Y022644D02*
X024600Y022644D01*
X024821Y022883D02*
X023963Y022883D01*
X023725Y023121D02*
X025525Y023121D01*
X025525Y022883D02*
X025429Y022883D01*
X025125Y022883D02*
X025125Y022883D01*
X025125Y022644D02*
X025125Y022644D01*
X025125Y022406D02*
X025125Y022406D01*
X025125Y022167D02*
X025125Y022167D01*
X025525Y023360D02*
X023486Y023360D01*
X023208Y023702D02*
X023295Y023912D01*
X023295Y024138D01*
X023208Y024348D01*
X023048Y024508D01*
X022838Y024595D01*
X022612Y024595D01*
X022402Y024508D01*
X022242Y024348D01*
X022155Y024138D01*
X022155Y023912D01*
X022242Y023702D01*
X022402Y023542D01*
X022612Y023455D01*
X022838Y023455D01*
X023048Y023542D01*
X023208Y023702D01*
X023264Y023837D02*
X025525Y023837D01*
X025525Y024075D02*
X023295Y024075D01*
X023222Y024314D02*
X025525Y024314D01*
X025525Y024552D02*
X022942Y024552D01*
X022508Y024552D02*
X022005Y024552D01*
X022005Y024314D02*
X022228Y024314D01*
X022155Y024075D02*
X022005Y024075D01*
X022005Y023837D02*
X022186Y023837D01*
X022346Y023598D02*
X022005Y023598D01*
X023104Y023598D02*
X025525Y023598D01*
X026125Y023598D02*
X027180Y023598D01*
X027175Y023632D02*
X027189Y023546D01*
X027215Y023464D01*
X027255Y023387D01*
X027305Y023317D01*
X027367Y023255D01*
X027437Y023205D01*
X027514Y023165D01*
X027596Y023139D01*
X027682Y023125D01*
X027725Y023125D01*
X027725Y023675D01*
X027725Y023675D01*
X027725Y023675D01*
X027175Y023675D01*
X027175Y023718D01*
X027189Y023804D01*
X027215Y023886D01*
X027255Y023963D01*
X027305Y024033D01*
X027367Y024095D01*
X027437Y024145D01*
X027514Y024185D01*
X027561Y024200D01*
X027514Y024215D01*
X027437Y024255D01*
X027367Y024305D01*
X027305Y024367D01*
X027255Y024437D01*
X027215Y024514D01*
X027189Y024596D01*
X027175Y024682D01*
X027175Y024725D01*
X027725Y024725D01*
X027725Y024725D01*
X027725Y023675D01*
X027175Y023675D01*
X027175Y023632D01*
X027199Y023837D02*
X026125Y023837D01*
X026125Y024075D02*
X027347Y024075D01*
X027359Y024314D02*
X026125Y024314D01*
X026125Y024552D02*
X027203Y024552D01*
X027179Y024791D02*
X026125Y024791D01*
X026125Y025029D02*
X027266Y025029D01*
X027635Y025268D02*
X026125Y025268D01*
X026125Y025506D02*
X039020Y025506D01*
X039020Y025268D02*
X027815Y025268D01*
X027725Y025268D02*
X027725Y025268D01*
X027725Y025029D02*
X027725Y025029D01*
X027725Y024791D02*
X027725Y024791D01*
X027725Y024552D02*
X027725Y024552D01*
X027725Y024314D02*
X027725Y024314D01*
X027725Y024075D02*
X027725Y024075D01*
X027725Y023837D02*
X027725Y023837D01*
X027725Y023598D02*
X027725Y023598D01*
X027725Y023360D02*
X027725Y023360D01*
X028176Y023360D02*
X028291Y023360D01*
X027274Y023360D02*
X026125Y023360D01*
X025525Y024791D02*
X022005Y024791D01*
X022005Y025029D02*
X025525Y025029D01*
X026100Y025745D02*
X039020Y025745D01*
X039020Y025983D02*
X038725Y025983D01*
X038917Y026144D02*
X038917Y026144D01*
X038962Y026222D02*
X039020Y026222D01*
X037725Y025983D02*
X025891Y025983D01*
X028184Y025029D02*
X028279Y025029D01*
X029171Y025029D02*
X031802Y025029D01*
X032648Y025029D02*
X036402Y025029D01*
X036479Y024314D02*
X032571Y024314D01*
X032505Y021213D02*
X032534Y021213D01*
X033081Y021213D02*
X033081Y021213D01*
X033081Y020975D02*
X033081Y020975D01*
X033081Y020736D02*
X033081Y020736D01*
X033651Y019305D02*
X039020Y019305D01*
X039020Y019067D02*
X033651Y019067D01*
X033651Y018828D02*
X039020Y018828D01*
X039020Y018590D02*
X033651Y018590D01*
X033651Y018351D02*
X039020Y018351D01*
X039020Y024314D02*
X037171Y024314D01*
X037328Y024552D02*
X039020Y024552D01*
X039020Y024791D02*
X037350Y024791D01*
X037248Y025029D02*
X039020Y025029D01*
X029790Y018590D02*
X025914Y018590D01*
X026039Y018351D02*
X025675Y018351D01*
X026415Y018351D02*
X026415Y018351D01*
X026415Y018113D02*
X026415Y018113D01*
X026415Y017874D02*
X026415Y017874D01*
X026415Y017636D02*
X026415Y017636D01*
X026415Y017397D02*
X026415Y017397D01*
X026733Y017397D02*
X029789Y017397D01*
X029551Y017636D02*
X026945Y017636D01*
X027005Y017874D02*
X029525Y017874D01*
X029525Y018113D02*
X026965Y018113D01*
X026791Y018351D02*
X029552Y018351D01*
X006252Y001895D02*
X006118Y001895D01*
X005049Y001895D02*
X001812Y001895D01*
X002004Y001656D02*
X005013Y001656D01*
X005013Y001418D02*
X002095Y001418D01*
X002121Y001179D02*
X005013Y001179D01*
X005026Y000941D02*
X002079Y000941D01*
X000638Y001895D02*
X000430Y001895D01*
X000533Y001806D02*
X000533Y001806D01*
X000446Y001656D02*
X000430Y001656D01*
D25*
X007583Y001406D02*
X007583Y017154D01*
X008583Y017154D02*
X008583Y001406D01*
X009583Y001406D02*
X009583Y017154D01*
X010583Y017154D02*
X010583Y001406D01*
X011583Y001406D02*
X011583Y017154D01*
X012583Y017154D02*
X012583Y001406D01*
X015925Y005225D02*
X015925Y012925D01*
X017275Y012475D02*
X018025Y011775D01*
X018025Y006925D01*
X018825Y006125D01*
X019025Y006125D01*
X020005Y004675D02*
X019235Y003905D01*
X019235Y003855D01*
X020005Y004675D02*
X023775Y004675D01*
X024125Y005025D01*
X026725Y005025D01*
X027025Y005325D01*
X029525Y005325D01*
X030025Y005825D01*
X030025Y006125D01*
X029925Y005325D02*
X030825Y005325D01*
X031025Y005525D01*
X031025Y006125D01*
X032025Y006125D02*
X032025Y005525D01*
X031525Y005025D01*
X030025Y005025D01*
X029725Y004725D01*
X027225Y004725D01*
X026925Y004425D01*
X025805Y004425D01*
X025235Y003855D01*
X024225Y004725D02*
X023925Y004425D01*
X022705Y004425D01*
X022235Y003955D01*
X022235Y003855D01*
X024225Y004725D02*
X026825Y004725D01*
X027125Y005025D01*
X029625Y005025D01*
X029925Y005325D01*
X030225Y004725D02*
X029925Y004425D01*
X028805Y004425D01*
X028235Y003855D01*
X026955Y002575D01*
X018575Y002575D01*
X015925Y005225D01*
X021025Y006125D02*
X021525Y006625D01*
X021522Y011825D01*
X020816Y010534D02*
X021025Y010325D01*
X021025Y009125D01*
X020525Y009825D02*
X017625Y012725D01*
X017625Y016125D01*
X017325Y016425D01*
X017325Y017925D01*
X015625Y019625D01*
X015625Y020525D01*
X015425Y018325D02*
X013125Y018325D01*
X012925Y018125D01*
X010475Y018125D01*
X010325Y018275D01*
X010325Y019875D01*
X010175Y020025D01*
X009125Y020025D01*
X009125Y021432D01*
X009505Y021812D01*
X009625Y021812D01*
X007675Y021525D02*
X007675Y018975D01*
X008125Y018525D01*
X009575Y018525D01*
X012975Y017725D02*
X013175Y017525D01*
X013175Y016675D01*
X013325Y016525D01*
X014425Y016525D01*
X014625Y016725D01*
X014625Y017525D01*
X015625Y017525D02*
X015625Y018125D01*
X015425Y018325D01*
X012975Y017725D02*
X006075Y017725D01*
X005575Y018525D01*
X005575Y019525D01*
X006125Y020025D01*
X007675Y021525D02*
X007388Y021812D01*
X005625Y021812D01*
X011925Y023825D02*
X012093Y023657D01*
X016344Y023657D01*
X012603Y025547D02*
X012581Y025525D01*
X012025Y025525D01*
X011925Y025425D01*
X011925Y023825D01*
X020725Y023425D02*
X021825Y022325D01*
X023225Y022325D01*
X023825Y022625D02*
X023825Y017625D01*
X024125Y017325D01*
X024225Y017325D01*
X026119Y016131D02*
X026119Y013375D01*
X022025Y009675D01*
X022025Y009125D01*
X023025Y009125D02*
X023025Y009875D01*
X026519Y013025D01*
X026519Y014225D01*
X027419Y015125D01*
X030922Y015125D01*
X031422Y015625D01*
X031422Y016131D01*
X032022Y015525D02*
X036425Y015525D01*
X036725Y015825D01*
X036725Y016081D01*
X036825Y017325D02*
X038325Y017325D01*
X038725Y016925D01*
X038725Y015625D01*
X036825Y013725D01*
X036825Y012025D01*
X035525Y010725D01*
X030625Y010725D01*
X030025Y010125D01*
X030025Y009125D01*
X029025Y009125D02*
X029025Y008725D01*
X029925Y007825D01*
X031725Y007825D01*
X032625Y006925D01*
X032625Y005525D01*
X031825Y004725D01*
X030225Y004725D01*
X031235Y003855D02*
X031819Y004439D01*
X032709Y004439D01*
X033625Y005425D01*
X033625Y006925D01*
X032225Y008325D01*
X031425Y008325D01*
X031025Y008725D01*
X031025Y009125D01*
X032025Y009125D02*
X032025Y008725D01*
X032175Y008575D01*
X032525Y008575D01*
X033925Y007125D01*
X033925Y004175D01*
X034235Y003865D01*
X034235Y003855D01*
X035125Y006675D02*
X037125Y006675D01*
X038125Y006675D02*
X038125Y005965D01*
X038125Y006675D02*
X038125Y008575D01*
X037125Y008575D02*
X035125Y008575D01*
X026969Y012625D02*
X026969Y014025D01*
X027569Y014625D01*
X031122Y014625D01*
X032022Y015525D01*
X033081Y018741D02*
X032225Y019597D01*
X032225Y022740D01*
X031860Y022375D01*
X029125Y022375D01*
X029125Y023275D01*
X028725Y023675D01*
X028725Y024725D02*
X032210Y024725D01*
X032225Y024710D01*
X036825Y024710D01*
X036825Y022740D02*
X036825Y021325D01*
X035425Y021325D01*
X023825Y022625D02*
X023325Y023125D01*
X022025Y023125D01*
X021725Y023425D01*
X021725Y025825D01*
X020725Y025825D02*
X020725Y023425D01*
X020816Y016131D02*
X020816Y010534D01*
X024025Y009975D02*
X024025Y009125D01*
X024025Y009975D02*
X026969Y012625D01*
X017275Y012475D02*
X017275Y015675D01*
X017025Y015925D01*
X016625Y015925D01*
X013325Y015925D01*
X013075Y015675D01*
X013075Y011675D01*
X013275Y011475D01*
X014075Y011475D01*
D26*
X018225Y017075D02*
X017725Y017575D01*
X017725Y020625D01*
X016344Y022006D01*
X016344Y023657D01*
X018225Y021075D02*
X018225Y020225D01*
X019125Y019325D01*
X020625Y019325D01*
X020825Y019125D01*
X020825Y017625D01*
X020925Y017525D01*
X024635Y017895D02*
X024795Y017895D01*
X025825Y018925D01*
X025825Y025625D01*
X025625Y025825D01*
X022725Y025825D01*
D27*
X024225Y017325D03*
X020525Y009825D03*
D28*
X021522Y011825D03*
X015925Y012925D03*
M02*
