G75*
%MOIN*%
%OFA0B0*%
%FSLAX24Y24*%
%IPPOS*%
%LPD*%
%AMOC8*
5,1,8,0,0,1.08239X$1,22.5*
%
%ADD10C,0.0720*%
%ADD11C,0.1380*%
%ADD12C,0.0730*%
%ADD13C,0.0880*%
%ADD14R,0.0880X0.0880*%
%ADD15R,0.0820X0.0820*%
%ADD16C,0.0820*%
%ADD17C,0.0640*%
%ADD18C,0.0640*%
%ADD19C,0.0740*%
%ADD20OC8,0.1261*%
%ADD21C,0.0860*%
%ADD22C,0.0980*%
%ADD23C,0.1080*%
%ADD24C,0.0966*%
%ADD25C,0.0671*%
%ADD26C,0.0516*%
D10*
X002025Y016405D02*
X002025Y017045D01*
X003025Y017045D02*
X003025Y016405D01*
X004025Y016405D02*
X004025Y017045D01*
D11*
X001225Y001225D03*
X003025Y010825D03*
X001225Y026725D03*
X038225Y026725D03*
X038225Y001225D03*
D12*
X036825Y022740D03*
X036825Y024710D03*
X032225Y024710D03*
X032225Y022740D03*
X004825Y019725D03*
X003825Y019725D03*
X002225Y019725D03*
X001225Y019725D03*
D13*
X001625Y023036D03*
D14*
X001625Y024414D03*
D15*
X005583Y016760D03*
X017725Y025825D03*
X028219Y020209D03*
X028219Y019225D03*
X028219Y018241D03*
X026709Y016231D03*
X025725Y016231D03*
X024741Y016231D03*
X021709Y016231D03*
X020725Y016231D03*
X019741Y016231D03*
X029741Y016231D03*
X030725Y016231D03*
X031709Y016231D03*
X034741Y016231D03*
X035725Y016231D03*
X036709Y016231D03*
X005583Y001012D03*
D16*
X006583Y001012D03*
X007583Y001012D03*
X008583Y001012D03*
X009583Y001012D03*
X010583Y001012D03*
X011583Y001012D03*
X012583Y001012D03*
X018535Y001295D03*
X020315Y001295D03*
X021535Y001295D03*
X023315Y001295D03*
X024535Y001295D03*
X026315Y001295D03*
X027535Y001295D03*
X029315Y001295D03*
X030535Y001295D03*
X032315Y001295D03*
X033535Y001295D03*
X035315Y001295D03*
X035315Y003855D03*
X033535Y003855D03*
X032315Y003855D03*
X030535Y003855D03*
X029315Y003855D03*
X027535Y003855D03*
X026315Y003855D03*
X024535Y003855D03*
X023315Y003855D03*
X021535Y003855D03*
X020315Y003855D03*
X018535Y003855D03*
X017125Y011925D03*
X017125Y015925D03*
X018225Y016975D03*
X018225Y020975D03*
X017225Y022225D03*
X019225Y022225D03*
X023225Y022225D03*
X025225Y022225D03*
X024635Y020455D03*
X026415Y020455D03*
X029225Y022225D03*
X026415Y017895D03*
X024635Y017895D03*
X022725Y025825D03*
X021725Y025825D03*
X020725Y025825D03*
X019725Y025825D03*
X018725Y025825D03*
X013225Y022225D03*
X010175Y018075D03*
X010583Y016760D03*
X009583Y016760D03*
X008583Y016760D03*
X007583Y016760D03*
X006583Y016760D03*
X006175Y018075D03*
X011583Y016760D03*
X012583Y016760D03*
X036825Y017325D03*
X036825Y021325D03*
D17*
X022925Y020805D02*
X022925Y020245D01*
X021925Y020245D02*
X021925Y020805D01*
X020925Y020805D02*
X020925Y020245D01*
X019925Y020245D02*
X019925Y020805D01*
X016625Y020805D02*
X016625Y020245D01*
X015625Y020245D02*
X015625Y020805D01*
X014625Y020805D02*
X014625Y020245D01*
X013625Y020245D02*
X013625Y020805D01*
X013625Y017805D02*
X013625Y017245D01*
X014625Y017245D02*
X014625Y017805D01*
X015625Y017805D02*
X015625Y017245D01*
X016625Y017245D02*
X016625Y017805D01*
X019925Y017805D02*
X019925Y017245D01*
X020925Y017245D02*
X020925Y017805D01*
X021925Y017805D02*
X021925Y017245D01*
X022925Y017245D02*
X022925Y017805D01*
X023025Y009405D02*
X023025Y008845D01*
X024025Y008845D02*
X024025Y009405D01*
X025025Y009405D02*
X025025Y008845D01*
X026025Y008845D02*
X026025Y009405D01*
X027025Y009405D02*
X027025Y008845D01*
X028025Y008845D02*
X028025Y009405D01*
X029025Y009405D02*
X029025Y008845D01*
X030025Y008845D02*
X030025Y009405D01*
X031025Y009405D02*
X031025Y008845D01*
X032025Y008845D02*
X032025Y009405D01*
X032025Y006405D02*
X032025Y005845D01*
X031025Y005845D02*
X031025Y006405D01*
X030025Y006405D02*
X030025Y005845D01*
X029025Y005845D02*
X029025Y006405D01*
X028025Y006405D02*
X028025Y005845D01*
X027025Y005845D02*
X027025Y006405D01*
X026025Y006405D02*
X026025Y005845D01*
X025025Y005845D02*
X025025Y006405D01*
X024025Y006405D02*
X024025Y005845D01*
X023025Y005845D02*
X023025Y006405D01*
X022025Y006405D02*
X022025Y005845D01*
X021025Y005845D02*
X021025Y006405D01*
X020025Y006405D02*
X020025Y005845D01*
X019025Y005845D02*
X019025Y006405D01*
X019025Y008845D02*
X019025Y009405D01*
X020025Y009405D02*
X020025Y008845D01*
X021025Y008845D02*
X021025Y009405D01*
X022025Y009405D02*
X022025Y008845D01*
D18*
X035125Y008575D03*
X037625Y008125D03*
X037625Y007125D03*
X035125Y006675D03*
X037625Y005125D03*
X037625Y010125D03*
D19*
X034725Y020325D03*
X034725Y021325D03*
X028725Y023675D03*
X027725Y023675D03*
X027725Y024725D03*
X028725Y024725D03*
D20*
X030975Y020957D03*
X030975Y017493D03*
X032457Y013475D03*
X033993Y013475D03*
X037457Y013475D03*
X028993Y013475D03*
X027457Y013475D03*
X023993Y013475D03*
X022457Y013475D03*
X018993Y013475D03*
D21*
X009125Y019725D03*
X006125Y019725D03*
D22*
X005571Y021812D03*
X004599Y022808D03*
X007544Y022804D03*
X009508Y021816D03*
X010508Y022808D03*
X009508Y026738D03*
X005568Y026738D03*
D23*
X014225Y026625D03*
D24*
X013225Y024625D03*
X012225Y024625D03*
X015225Y024625D03*
X016225Y024625D03*
D25*
X014225Y024625D03*
X012256Y026594D03*
X016194Y026594D03*
D26*
X021525Y014475D03*
M02*
