G75*
%MOIN*%
%OFA0B0*%
%FSLAX24Y24*%
%IPPOS*%
%LPD*%
%AMOC8*
5,1,8,0,0,1.08239X$1,22.5*
%
%ADD10C,0.0720*%
%ADD11C,0.1380*%
%ADD12C,0.0730*%
%ADD13C,0.0880*%
%ADD14R,0.0880X0.0880*%
%ADD15R,0.0820X0.0820*%
%ADD16C,0.0820*%
%ADD17C,0.0640*%
%ADD18C,0.0740*%
%ADD19OC8,0.1280*%
%ADD20C,0.1080*%
%ADD21C,0.0860*%
%ADD22OC8,0.0940*%
%ADD23C,0.0516*%
D10*
X002125Y013105D02*
X002125Y013745D01*
X003125Y013745D02*
X003125Y013105D01*
X004125Y013105D02*
X004125Y013745D01*
D11*
X001225Y001225D03*
X003125Y007525D03*
X001225Y026725D03*
X038225Y026725D03*
X038225Y001225D03*
D12*
X036825Y022740D03*
X036825Y024710D03*
X032225Y024710D03*
X032225Y022740D03*
X004325Y020425D03*
X003325Y020425D03*
X003325Y018325D03*
X004325Y018325D03*
D13*
X006125Y020025D03*
X009125Y020025D03*
X004125Y015025D03*
X001125Y015025D03*
X001675Y023336D03*
D14*
X001675Y024714D03*
D15*
X005583Y017154D03*
X014075Y013475D03*
X019831Y016131D03*
X020816Y016131D03*
X021800Y016131D03*
X025134Y016131D03*
X026119Y016131D03*
X027103Y016131D03*
X030438Y016131D03*
X031422Y016131D03*
X032406Y016131D03*
X035741Y016081D03*
X036725Y016081D03*
X037709Y016081D03*
X033081Y018741D03*
X033081Y019725D03*
X033081Y020709D03*
X017725Y025825D03*
X005583Y001406D03*
D16*
X006583Y001406D03*
X007583Y001406D03*
X008583Y001406D03*
X009583Y001406D03*
X010583Y001406D03*
X011583Y001406D03*
X012583Y001406D03*
X019235Y001295D03*
X021015Y001295D03*
X022235Y001295D03*
X024015Y001295D03*
X025235Y001295D03*
X027015Y001295D03*
X028235Y001295D03*
X030015Y001295D03*
X031235Y001295D03*
X033015Y001295D03*
X034235Y001295D03*
X036015Y001295D03*
X036015Y003855D03*
X034235Y003855D03*
X033015Y003855D03*
X031235Y003855D03*
X030015Y003855D03*
X028235Y003855D03*
X027015Y003855D03*
X025235Y003855D03*
X024015Y003855D03*
X022235Y003855D03*
X021015Y003855D03*
X019235Y003855D03*
X015075Y011475D03*
X015075Y012475D03*
X014075Y012475D03*
X014075Y011475D03*
X015075Y013475D03*
X016625Y011925D03*
X016625Y015925D03*
X018225Y017075D03*
X018225Y021075D03*
X019225Y022325D03*
X018725Y024025D03*
X018725Y025825D03*
X019725Y025825D03*
X020725Y025825D03*
X021725Y025825D03*
X022725Y025825D03*
X022725Y024025D03*
X023225Y022325D03*
X025125Y022375D03*
X024635Y020455D03*
X026415Y020455D03*
X029125Y022375D03*
X026415Y017895D03*
X024635Y017895D03*
X012583Y017154D03*
X011583Y017154D03*
X010583Y017154D03*
X009583Y017154D03*
X008583Y017154D03*
X007583Y017154D03*
X006583Y017154D03*
X005575Y018525D03*
X009575Y018525D03*
X011275Y019075D03*
X012275Y020075D03*
X011275Y021075D03*
X001125Y021275D03*
X001125Y020275D03*
X001125Y019275D03*
X036825Y017325D03*
X036825Y021325D03*
D17*
X022925Y020805D02*
X022925Y020245D01*
X021925Y020245D02*
X021925Y020805D01*
X020925Y020805D02*
X020925Y020245D01*
X019925Y020245D02*
X019925Y020805D01*
X016625Y020805D02*
X016625Y020245D01*
X015625Y020245D02*
X015625Y020805D01*
X014625Y020805D02*
X014625Y020245D01*
X013625Y020245D02*
X013625Y020805D01*
X013625Y017805D02*
X013625Y017245D01*
X014625Y017245D02*
X014625Y017805D01*
X015625Y017805D02*
X015625Y017245D01*
X016625Y017245D02*
X016625Y017805D01*
X019925Y017805D02*
X019925Y017245D01*
X020925Y017245D02*
X020925Y017805D01*
X021925Y017805D02*
X021925Y017245D01*
X022925Y017245D02*
X022925Y017805D01*
X023025Y009405D02*
X023025Y008845D01*
X024025Y008845D02*
X024025Y009405D01*
X025025Y009405D02*
X025025Y008845D01*
X026025Y008845D02*
X026025Y009405D01*
X027025Y009405D02*
X027025Y008845D01*
X028025Y008845D02*
X028025Y009405D01*
X029025Y009405D02*
X029025Y008845D01*
X030025Y008845D02*
X030025Y009405D01*
X031025Y009405D02*
X031025Y008845D01*
X032025Y008845D02*
X032025Y009405D01*
X032025Y006405D02*
X032025Y005845D01*
X031025Y005845D02*
X031025Y006405D01*
X030025Y006405D02*
X030025Y005845D01*
X029025Y005845D02*
X029025Y006405D01*
X028025Y006405D02*
X028025Y005845D01*
X027025Y005845D02*
X027025Y006405D01*
X026025Y006405D02*
X026025Y005845D01*
X025025Y005845D02*
X025025Y006405D01*
X024025Y006405D02*
X024025Y005845D01*
X023025Y005845D02*
X023025Y006405D01*
X022025Y006405D02*
X022025Y005845D01*
X021025Y005845D02*
X021025Y006405D01*
X020025Y006405D02*
X020025Y005845D01*
X019025Y005845D02*
X019025Y006405D01*
X019025Y008845D02*
X019025Y009405D01*
X020025Y009405D02*
X020025Y008845D01*
X021025Y008845D02*
X021025Y009405D01*
X022025Y009405D02*
X022025Y008845D01*
D18*
X035125Y008575D03*
X037125Y008575D03*
X038125Y008575D03*
X038125Y006675D03*
X037125Y006675D03*
X035125Y006675D03*
X035425Y020325D03*
X035425Y021325D03*
X028725Y023675D03*
X027725Y023675D03*
X027725Y024725D03*
X028725Y024725D03*
D19*
X030325Y021457D03*
X030325Y017993D03*
X029690Y013375D03*
X027851Y013375D03*
X024386Y013375D03*
X022548Y013375D03*
X019083Y013375D03*
X033154Y013375D03*
X034993Y013325D03*
X038457Y013325D03*
D20*
X016344Y023657D03*
X015359Y024327D03*
X012721Y022555D03*
X012603Y025547D03*
X014375Y026925D03*
D21*
X007625Y023123D02*
X007625Y022343D01*
D22*
X005625Y021812D03*
X004625Y022772D03*
X005625Y026694D03*
X006625Y026694D03*
X008625Y026694D03*
X009625Y026694D03*
X010586Y022772D03*
X009625Y021812D03*
D23*
X015925Y012925D03*
X021522Y011825D03*
M02*
