G75*
%MOIN*%
%OFA0B0*%
%FSLAX24Y24*%
%IPPOS*%
%LPD*%
%AMOC8*
5,1,8,0,0,1.08239X$1,22.5*
%
%ADD10C,0.0050*%
%ADD11C,0.0070*%
%ADD12C,0.0040*%
%ADD13C,0.0030*%
%ADD14C,0.0120*%
%ADD15C,0.0010*%
%ADD16C,0.0060*%
%ADD17C,0.0020*%
%ADD18R,0.0500X0.0350*%
%ADD19C,0.0080*%
%ADD20C,0.0160*%
%ADD21C,0.0100*%
D10*
X004096Y001556D02*
X004171Y001481D01*
X004246Y001481D01*
X004321Y001556D01*
X004321Y001931D01*
X004246Y001931D02*
X004396Y001931D01*
X004556Y001706D02*
X004856Y001706D01*
X004781Y001481D02*
X004781Y001931D01*
X004556Y001706D01*
X005075Y005400D02*
X005225Y005400D01*
X005300Y005475D01*
X005300Y005625D01*
X005150Y005625D01*
X005000Y005475D02*
X005075Y005400D01*
X005000Y005475D02*
X005000Y005775D01*
X005075Y005850D01*
X005225Y005850D01*
X005300Y005775D01*
X005460Y005850D02*
X005460Y005400D01*
X005460Y005550D02*
X005686Y005550D01*
X005761Y005625D01*
X005761Y005775D01*
X005686Y005850D01*
X005460Y005850D01*
X005611Y005550D02*
X005761Y005400D01*
X005921Y005400D02*
X005921Y005700D01*
X006071Y005850D01*
X006221Y005700D01*
X006221Y005400D01*
X006381Y005400D02*
X006381Y005850D01*
X006606Y005850D01*
X006681Y005775D01*
X006681Y005625D01*
X006606Y005550D01*
X006381Y005550D01*
X006221Y005625D02*
X005921Y005625D01*
X006842Y005625D02*
X007142Y005625D01*
X007142Y005850D02*
X007142Y005400D01*
X007302Y005400D02*
X007452Y005400D01*
X007377Y005400D02*
X007377Y005850D01*
X007302Y005850D02*
X007452Y005850D01*
X007609Y005775D02*
X007609Y005475D01*
X007684Y005400D01*
X007834Y005400D01*
X007909Y005475D01*
X007909Y005775D02*
X007834Y005850D01*
X007684Y005850D01*
X007609Y005775D01*
X006842Y005850D02*
X006842Y005400D01*
X008530Y005400D02*
X008830Y005400D01*
X008990Y005475D02*
X009065Y005400D01*
X009215Y005400D01*
X009290Y005475D01*
X009450Y005400D02*
X009676Y005400D01*
X009751Y005475D01*
X009751Y005775D01*
X009676Y005850D01*
X009450Y005850D01*
X009450Y005400D01*
X009290Y005775D02*
X009215Y005850D01*
X009065Y005850D01*
X008990Y005775D01*
X008990Y005475D01*
X008530Y005400D02*
X008530Y005850D01*
X010371Y005775D02*
X010371Y005700D01*
X010446Y005625D01*
X010596Y005625D01*
X010672Y005550D01*
X010672Y005475D01*
X010596Y005400D01*
X010446Y005400D01*
X010371Y005475D01*
X010371Y005550D01*
X010446Y005625D01*
X010596Y005625D02*
X010672Y005700D01*
X010672Y005775D01*
X010596Y005850D01*
X010446Y005850D01*
X010371Y005775D01*
X010832Y005625D02*
X011057Y005850D01*
X011057Y005400D01*
X011292Y005400D02*
X011592Y005700D01*
X011752Y005625D02*
X012053Y005625D01*
X012213Y005550D02*
X012288Y005625D01*
X012438Y005625D01*
X012513Y005550D01*
X012513Y005475D01*
X012438Y005400D01*
X012288Y005400D01*
X012213Y005475D01*
X012213Y005550D01*
X012288Y005625D02*
X012213Y005700D01*
X012213Y005775D01*
X012288Y005850D01*
X012438Y005850D01*
X012513Y005775D01*
X012513Y005700D01*
X012438Y005625D01*
X011978Y005400D02*
X011978Y005850D01*
X011752Y005625D01*
X011592Y005400D02*
X011292Y005700D01*
X011132Y005625D02*
X010832Y005625D01*
X017850Y007250D02*
X017850Y007400D01*
X017850Y007325D02*
X018300Y007325D01*
X018300Y007250D02*
X018300Y007400D01*
X018225Y007557D02*
X018300Y007632D01*
X018300Y007782D01*
X018225Y007857D01*
X018300Y008017D02*
X018300Y008318D01*
X018300Y008167D02*
X017850Y008167D01*
X018000Y008017D01*
X017925Y007857D02*
X017850Y007782D01*
X017850Y007632D01*
X017925Y007557D01*
X018225Y007557D01*
X019125Y010650D02*
X019275Y010650D01*
X019350Y010725D01*
X019510Y010650D02*
X019811Y010650D01*
X019971Y010650D02*
X019971Y011100D01*
X020271Y010650D01*
X020271Y011100D01*
X020431Y011100D02*
X020731Y011100D01*
X020581Y011100D02*
X020581Y010650D01*
X020892Y010725D02*
X020967Y010650D01*
X021117Y010650D01*
X021192Y010725D01*
X021192Y010800D01*
X021117Y010875D01*
X020967Y010875D01*
X020892Y010950D01*
X020892Y011025D01*
X020967Y011100D01*
X021117Y011100D01*
X021192Y011025D01*
X019811Y011100D02*
X019510Y011100D01*
X019510Y010650D01*
X019510Y010875D02*
X019661Y010875D01*
X019350Y011025D02*
X019275Y011100D01*
X019125Y011100D01*
X019050Y011025D01*
X019050Y010725D01*
X019125Y010650D01*
X018540Y011250D02*
X018691Y011400D01*
X018540Y011550D01*
X018240Y011550D01*
X018240Y011710D02*
X018240Y011936D01*
X018315Y012011D01*
X018465Y012011D01*
X018540Y011936D01*
X018540Y011710D01*
X018540Y011861D02*
X018691Y012011D01*
X018691Y012171D02*
X018691Y012471D01*
X018691Y012321D02*
X018240Y012321D01*
X018390Y012171D01*
X018240Y011710D02*
X018691Y011710D01*
X018540Y011250D02*
X018240Y011250D01*
X015090Y014325D02*
X015015Y014250D01*
X014790Y014250D01*
X014790Y014100D02*
X014790Y014550D01*
X015015Y014550D01*
X015090Y014475D01*
X015090Y014325D01*
X014629Y014250D02*
X014629Y014175D01*
X014554Y014100D01*
X014404Y014100D01*
X014329Y014175D01*
X014404Y014325D02*
X014554Y014325D01*
X014629Y014250D01*
X014629Y014475D02*
X014554Y014550D01*
X014404Y014550D01*
X014329Y014475D01*
X014329Y014400D01*
X014404Y014325D01*
X014172Y014100D02*
X014022Y014100D01*
X014097Y014100D02*
X014097Y014550D01*
X014022Y014550D02*
X014172Y014550D01*
X015550Y014529D02*
X015550Y014754D01*
X015625Y014829D01*
X015775Y014829D01*
X015850Y014754D01*
X015850Y014529D01*
X016000Y014529D02*
X015550Y014529D01*
X015850Y014679D02*
X016000Y014829D01*
X016000Y014990D02*
X016000Y015290D01*
X016000Y015140D02*
X015550Y015140D01*
X015700Y014990D01*
X013606Y016219D02*
X013531Y016144D01*
X013381Y016144D01*
X013306Y016219D01*
X013456Y016369D02*
X013531Y016369D01*
X013606Y016294D01*
X013606Y016219D01*
X013531Y016369D02*
X013606Y016444D01*
X013606Y016519D01*
X013531Y016594D01*
X013381Y016594D01*
X013306Y016519D01*
X013146Y016594D02*
X012996Y016594D01*
X013071Y016594D02*
X013071Y016219D01*
X012996Y016144D01*
X012921Y016144D01*
X012846Y016219D01*
X013025Y018629D02*
X013100Y018704D01*
X013100Y018854D01*
X013025Y018929D01*
X012650Y018929D01*
X012725Y019090D02*
X012650Y019165D01*
X012650Y019315D01*
X012725Y019390D01*
X012800Y019390D01*
X012875Y019315D01*
X012950Y019390D01*
X013025Y019390D01*
X013100Y019315D01*
X013100Y019165D01*
X013025Y019090D01*
X012875Y019240D02*
X012875Y019315D01*
X012275Y019075D02*
X010275Y019075D01*
X010275Y021075D01*
X012275Y021075D01*
X012275Y019075D01*
X012650Y018629D02*
X013025Y018629D01*
X011275Y019575D02*
X011275Y020075D01*
X010484Y020075D02*
X010486Y020131D01*
X010492Y020186D01*
X010502Y020241D01*
X010515Y020295D01*
X010533Y020348D01*
X010554Y020400D01*
X010579Y020450D01*
X010607Y020498D01*
X010638Y020544D01*
X010673Y020588D01*
X010711Y020629D01*
X010751Y020668D01*
X010794Y020703D01*
X010840Y020736D01*
X010888Y020765D01*
X010937Y020790D01*
X010988Y020812D01*
X011041Y020831D01*
X011095Y020845D01*
X011150Y020856D01*
X011205Y020863D01*
X011261Y020866D01*
X011317Y020865D01*
X011372Y020860D01*
X011428Y020851D01*
X011482Y020838D01*
X011535Y020822D01*
X011587Y020802D01*
X011638Y020778D01*
X011687Y020751D01*
X011733Y020720D01*
X011777Y020686D01*
X011819Y020649D01*
X011858Y020609D01*
X011895Y020567D01*
X011928Y020522D01*
X011958Y020475D01*
X011984Y020425D01*
X012007Y020374D01*
X012026Y020322D01*
X012042Y020268D01*
X012054Y020214D01*
X012062Y020159D01*
X012066Y020103D01*
X012066Y020047D01*
X012062Y019991D01*
X012054Y019936D01*
X012042Y019882D01*
X012026Y019828D01*
X012007Y019776D01*
X011984Y019725D01*
X011958Y019675D01*
X011928Y019628D01*
X011895Y019583D01*
X011858Y019541D01*
X011819Y019501D01*
X011777Y019464D01*
X011733Y019430D01*
X011687Y019399D01*
X011638Y019372D01*
X011587Y019348D01*
X011535Y019328D01*
X011482Y019312D01*
X011428Y019299D01*
X011372Y019290D01*
X011317Y019285D01*
X011261Y019284D01*
X011205Y019287D01*
X011150Y019294D01*
X011095Y019305D01*
X011041Y019319D01*
X010988Y019338D01*
X010937Y019360D01*
X010888Y019385D01*
X010840Y019414D01*
X010794Y019447D01*
X010751Y019482D01*
X010711Y019521D01*
X010673Y019562D01*
X010638Y019606D01*
X010607Y019652D01*
X010579Y019700D01*
X010554Y019750D01*
X010533Y019802D01*
X010515Y019855D01*
X010502Y019909D01*
X010492Y019964D01*
X010486Y020019D01*
X010484Y020075D01*
X010775Y020075D02*
X011275Y020075D01*
X011775Y020075D01*
X011275Y020075D02*
X011275Y020575D01*
X010050Y020461D02*
X009900Y020311D01*
X009900Y020386D02*
X009900Y020160D01*
X010050Y020160D02*
X009600Y020160D01*
X009600Y020386D01*
X009675Y020461D01*
X009825Y020461D01*
X009900Y020386D01*
X009825Y020621D02*
X009975Y020621D01*
X010050Y020696D01*
X010050Y020846D01*
X009975Y020921D01*
X009900Y020921D01*
X009825Y020846D01*
X009825Y020621D01*
X009675Y020771D01*
X009600Y020921D01*
X009600Y020000D02*
X009900Y020000D01*
X010050Y019850D01*
X009900Y019700D01*
X009600Y019700D01*
X009215Y019550D02*
X008990Y019325D01*
X009290Y019325D01*
X009215Y019100D02*
X009215Y019550D01*
X008829Y019475D02*
X008829Y019325D01*
X008754Y019250D01*
X008529Y019250D01*
X008529Y019100D02*
X008529Y019550D01*
X008754Y019550D01*
X008829Y019475D01*
X008679Y019250D02*
X008829Y019100D01*
X007990Y020750D02*
X007690Y020750D01*
X007840Y020750D02*
X007840Y021200D01*
X007690Y021050D01*
X007529Y021125D02*
X007454Y021200D01*
X007229Y021200D01*
X007229Y020750D01*
X007454Y020750D01*
X007529Y020825D01*
X007529Y021125D01*
X005811Y020650D02*
X005510Y020650D01*
X005661Y020650D02*
X005661Y021100D01*
X005510Y020950D01*
X005350Y021025D02*
X005275Y021100D01*
X005125Y021100D01*
X005050Y021025D01*
X005050Y020725D01*
X005125Y020650D01*
X005275Y020650D01*
X005350Y020725D01*
X003661Y022050D02*
X003360Y022050D01*
X003511Y022050D02*
X003511Y022500D01*
X003360Y022350D01*
X003200Y022500D02*
X003050Y022500D01*
X003125Y022500D02*
X003125Y022125D01*
X003050Y022050D01*
X002975Y022050D01*
X002900Y022125D01*
X002550Y021866D02*
X002100Y021866D01*
X002100Y022166D01*
X002325Y022016D02*
X002325Y021866D01*
X002100Y021706D02*
X002100Y021405D01*
X002550Y021405D01*
X002475Y021245D02*
X002175Y021245D01*
X002100Y021170D01*
X002100Y021020D01*
X002175Y020945D01*
X002475Y020945D01*
X002550Y021020D01*
X002550Y021170D01*
X002475Y021245D01*
X002325Y021405D02*
X002325Y021556D01*
X002100Y020331D02*
X002550Y020331D01*
X002550Y019711D02*
X002100Y019711D01*
X002100Y019410D02*
X002550Y019711D01*
X002550Y019410D02*
X002100Y019410D01*
X002175Y019250D02*
X002100Y019175D01*
X002100Y019025D01*
X002175Y018950D01*
X002475Y018950D01*
X002550Y019025D01*
X002550Y019175D01*
X002475Y019250D01*
X002175Y019250D01*
X004850Y019225D02*
X004850Y018925D01*
X004925Y018850D01*
X005075Y018850D01*
X005150Y018925D01*
X005310Y018850D02*
X005611Y019150D01*
X005611Y019225D01*
X005536Y019300D01*
X005385Y019300D01*
X005310Y019225D01*
X005150Y019225D02*
X005075Y019300D01*
X004925Y019300D01*
X004850Y019225D01*
X005310Y018850D02*
X005611Y018850D01*
X002161Y016175D02*
X002086Y016250D01*
X001935Y016250D01*
X001860Y016175D01*
X001700Y016175D02*
X001625Y016250D01*
X001400Y016250D01*
X001400Y015800D01*
X001625Y015800D01*
X001700Y015875D01*
X001700Y016175D01*
X001860Y015800D02*
X002161Y016100D01*
X002161Y016175D01*
X002161Y015800D02*
X001860Y015800D01*
X001361Y013050D02*
X001361Y012600D01*
X001511Y012600D02*
X001210Y012600D01*
X001050Y012675D02*
X001050Y013050D01*
X001210Y012900D02*
X001361Y013050D01*
X001050Y012675D02*
X000975Y012600D01*
X000825Y012600D01*
X000750Y012675D01*
X000750Y013050D01*
X013378Y021525D02*
X013453Y021450D01*
X013603Y021450D01*
X013678Y021525D01*
X013678Y021600D01*
X013603Y021675D01*
X013528Y021675D01*
X013603Y021675D02*
X013678Y021750D01*
X013678Y021825D01*
X013603Y021900D01*
X013453Y021900D01*
X013378Y021825D01*
X013839Y021525D02*
X013914Y021525D01*
X013914Y021450D01*
X013839Y021450D01*
X013839Y021525D01*
X014069Y021525D02*
X014144Y021450D01*
X014294Y021450D01*
X014369Y021525D01*
X014369Y021675D01*
X014294Y021750D01*
X014219Y021750D01*
X014069Y021675D01*
X014069Y021900D01*
X014369Y021900D01*
X014529Y021750D02*
X014604Y021750D01*
X014679Y021675D01*
X014754Y021750D01*
X014829Y021675D01*
X014829Y021450D01*
X014679Y021450D02*
X014679Y021675D01*
X014529Y021750D02*
X014529Y021450D01*
X014990Y021450D02*
X014990Y021750D01*
X015065Y021750D01*
X015140Y021675D01*
X015215Y021750D01*
X015290Y021675D01*
X015290Y021450D01*
X015140Y021450D02*
X015140Y021675D01*
X018850Y019411D02*
X018925Y019261D01*
X019075Y019110D01*
X019075Y019336D01*
X019150Y019411D01*
X019225Y019411D01*
X019300Y019336D01*
X019300Y019185D01*
X019225Y019110D01*
X019075Y019110D01*
X019075Y018950D02*
X019150Y018875D01*
X019150Y018650D01*
X019300Y018650D02*
X018850Y018650D01*
X018850Y018875D01*
X018925Y018950D01*
X019075Y018950D01*
X019150Y018800D02*
X019300Y018950D01*
X023600Y018879D02*
X023975Y018879D01*
X024050Y018804D01*
X024050Y018654D01*
X023975Y018579D01*
X023600Y018579D01*
X023675Y019040D02*
X023600Y019115D01*
X023600Y019265D01*
X023675Y019340D01*
X023750Y019340D01*
X024050Y019040D01*
X024050Y019340D01*
X025275Y020700D02*
X025200Y020775D01*
X025275Y020700D02*
X025425Y020700D01*
X025500Y020775D01*
X025500Y020850D01*
X025425Y020925D01*
X025275Y020925D01*
X025200Y021000D01*
X025200Y021075D01*
X025275Y021150D01*
X025425Y021150D01*
X025500Y021075D01*
X025660Y021000D02*
X025811Y021150D01*
X025811Y020700D01*
X025961Y020700D02*
X025660Y020700D01*
X026750Y021250D02*
X026750Y021700D01*
X026975Y021700D01*
X027050Y021625D01*
X027050Y021475D01*
X026975Y021400D01*
X026750Y021400D01*
X026900Y021400D02*
X027050Y021250D01*
X027210Y021325D02*
X027285Y021250D01*
X027436Y021250D01*
X027511Y021325D01*
X027511Y021400D01*
X027436Y021475D01*
X027361Y021475D01*
X027436Y021475D02*
X027511Y021550D01*
X027511Y021625D01*
X027436Y021700D01*
X027285Y021700D01*
X027210Y021625D01*
X027550Y021052D02*
X027550Y020752D01*
X028000Y020752D01*
X028000Y021052D01*
X027775Y020902D02*
X027775Y020752D01*
X027550Y020592D02*
X028000Y020592D01*
X028000Y020292D02*
X027550Y020292D01*
X027700Y020442D01*
X027550Y020592D01*
X027550Y020131D02*
X027925Y020131D01*
X028000Y020056D01*
X028000Y019906D01*
X027925Y019831D01*
X027550Y019831D01*
X028000Y019671D02*
X028000Y019371D01*
X027550Y019371D01*
X027625Y019211D02*
X027550Y019136D01*
X027550Y018985D01*
X027625Y018910D01*
X027925Y018910D01*
X028000Y018985D01*
X028000Y019136D01*
X027925Y019211D01*
X027625Y019211D01*
X027550Y018750D02*
X027850Y018750D01*
X028000Y018600D01*
X027850Y018450D01*
X027550Y018450D01*
X026742Y017350D02*
X026442Y017350D01*
X026592Y017350D02*
X026592Y016900D01*
X026281Y016900D02*
X025981Y016900D01*
X025981Y017350D01*
X026281Y017350D01*
X026131Y017125D02*
X025981Y017125D01*
X025821Y017050D02*
X025821Y016975D01*
X025746Y016900D01*
X025596Y016900D01*
X025521Y016975D01*
X025596Y017125D02*
X025746Y017125D01*
X025821Y017050D01*
X025821Y017275D02*
X025746Y017350D01*
X025596Y017350D01*
X025521Y017275D01*
X025521Y017200D01*
X025596Y017125D01*
X025361Y016900D02*
X025060Y016900D01*
X025060Y017350D01*
X025361Y017350D01*
X025211Y017125D02*
X025060Y017125D01*
X024900Y017125D02*
X024825Y017050D01*
X024600Y017050D01*
X024600Y016900D02*
X024600Y017350D01*
X024825Y017350D01*
X024900Y017275D01*
X024900Y017125D01*
X024750Y017050D02*
X024900Y016900D01*
X023994Y012471D02*
X023994Y012171D01*
X023693Y012471D01*
X023618Y012471D01*
X023543Y012396D01*
X023543Y012246D01*
X023618Y012171D01*
X023618Y012011D02*
X023769Y012011D01*
X023844Y011936D01*
X023844Y011710D01*
X023994Y011710D02*
X023543Y011710D01*
X023543Y011936D01*
X023618Y012011D01*
X023844Y011861D02*
X023994Y012011D01*
X023844Y011550D02*
X023543Y011550D01*
X023543Y011250D02*
X023844Y011250D01*
X023994Y011400D01*
X023844Y011550D01*
X024700Y011025D02*
X024700Y010950D01*
X024775Y010875D01*
X024925Y010875D01*
X025000Y010800D01*
X025000Y010725D01*
X024925Y010650D01*
X024775Y010650D01*
X024700Y010725D01*
X024700Y011025D02*
X024775Y011100D01*
X024925Y011100D01*
X025000Y011025D01*
X025160Y011100D02*
X025160Y010650D01*
X025461Y010650D01*
X025621Y010650D02*
X025621Y011100D01*
X025771Y010950D01*
X025921Y011100D01*
X025921Y010650D01*
X026081Y010650D02*
X026231Y010650D01*
X026156Y010650D02*
X026156Y011100D01*
X026081Y011100D02*
X026231Y011100D01*
X026388Y011025D02*
X026463Y011100D01*
X026613Y011100D01*
X026688Y011025D01*
X026613Y010875D02*
X026688Y010800D01*
X026688Y010725D01*
X026613Y010650D01*
X026463Y010650D01*
X026388Y010725D01*
X026463Y010875D02*
X026613Y010875D01*
X026463Y010875D02*
X026388Y010950D01*
X026388Y011025D01*
X025461Y011100D02*
X025160Y011100D01*
X025160Y010875D02*
X025311Y010875D01*
X028846Y011250D02*
X029147Y011250D01*
X029297Y011400D01*
X029147Y011550D01*
X028846Y011550D01*
X028846Y011710D02*
X028846Y011936D01*
X028922Y012011D01*
X029072Y012011D01*
X029147Y011936D01*
X029147Y011710D01*
X029297Y011710D02*
X028846Y011710D01*
X029147Y011861D02*
X029297Y012011D01*
X029222Y012171D02*
X029297Y012246D01*
X029297Y012396D01*
X029222Y012471D01*
X029147Y012471D01*
X029072Y012396D01*
X029072Y012321D01*
X029072Y012396D02*
X028997Y012471D01*
X028922Y012471D01*
X028846Y012396D01*
X028846Y012246D01*
X028922Y012171D01*
X029925Y011100D02*
X029850Y011025D01*
X029850Y010725D01*
X029925Y010650D01*
X030075Y010650D01*
X030150Y010725D01*
X030150Y011025D01*
X030075Y011100D01*
X029925Y011100D01*
X030310Y011025D02*
X030310Y010725D01*
X030385Y010650D01*
X030536Y010650D01*
X030611Y010725D01*
X030611Y011025D02*
X030536Y011100D01*
X030385Y011100D01*
X030310Y011025D01*
X030771Y011100D02*
X031071Y011100D01*
X030921Y011100D02*
X030921Y010650D01*
X031231Y010650D02*
X031231Y010950D01*
X031381Y011100D01*
X031531Y010950D01*
X031531Y010650D01*
X031692Y010800D02*
X031842Y010650D01*
X031992Y010800D01*
X031992Y011100D01*
X032152Y011100D02*
X032152Y010650D01*
X032452Y010650D01*
X032302Y010875D02*
X032152Y010875D01*
X032152Y011100D02*
X032452Y011100D01*
X031692Y011100D02*
X031692Y010800D01*
X031531Y010875D02*
X031231Y010875D01*
X034150Y011200D02*
X034450Y011200D01*
X034600Y011350D01*
X034450Y011500D01*
X034150Y011500D01*
X034150Y011660D02*
X034150Y011886D01*
X034225Y011961D01*
X034375Y011961D01*
X034450Y011886D01*
X034450Y011660D01*
X034600Y011660D02*
X034150Y011660D01*
X034450Y011811D02*
X034600Y011961D01*
X034375Y012121D02*
X034375Y012421D01*
X034600Y012346D02*
X034150Y012346D01*
X034375Y012121D01*
X035500Y011050D02*
X035500Y010600D01*
X035650Y010750D01*
X035800Y010600D01*
X035800Y011050D01*
X035960Y011050D02*
X035960Y010600D01*
X036261Y010600D01*
X036421Y010600D02*
X036571Y010600D01*
X036496Y010600D02*
X036496Y011050D01*
X036421Y011050D02*
X036571Y011050D01*
X036728Y010975D02*
X036728Y010675D01*
X036803Y010600D01*
X036953Y010600D01*
X037028Y010675D01*
X037028Y010825D01*
X036878Y010825D01*
X037028Y010975D02*
X036953Y011050D01*
X036803Y011050D01*
X036728Y010975D01*
X036261Y011050D02*
X035960Y011050D01*
X035960Y010825D02*
X036111Y010825D01*
X037188Y010825D02*
X037488Y010825D01*
X037488Y011050D02*
X037488Y010600D01*
X037188Y010600D02*
X037188Y011050D01*
X037648Y011050D02*
X037949Y011050D01*
X037799Y011050D02*
X037799Y010600D01*
X037815Y009650D02*
X037890Y009575D01*
X037890Y009500D01*
X037815Y009425D01*
X037890Y009350D01*
X037890Y009275D01*
X037815Y009200D01*
X037665Y009200D01*
X037590Y009275D01*
X037429Y009275D02*
X037354Y009200D01*
X037204Y009200D01*
X037129Y009275D01*
X037129Y009575D01*
X037204Y009650D01*
X037354Y009650D01*
X037429Y009575D01*
X037590Y009575D02*
X037665Y009650D01*
X037815Y009650D01*
X037815Y009425D02*
X037740Y009425D01*
X036600Y007871D02*
X036600Y007571D01*
X036600Y007721D02*
X036150Y007721D01*
X036300Y007571D01*
X036600Y007411D02*
X036600Y007110D01*
X036150Y007110D01*
X036150Y006950D02*
X036600Y006650D01*
X036600Y006950D02*
X036150Y006650D01*
X037229Y005925D02*
X037229Y005625D01*
X037304Y005550D01*
X037454Y005550D01*
X037529Y005625D01*
X037690Y005775D02*
X037915Y006000D01*
X037915Y005550D01*
X037990Y005775D02*
X037690Y005775D01*
X037529Y005925D02*
X037454Y006000D01*
X037304Y006000D01*
X037229Y005925D01*
X036142Y000850D02*
X036292Y000700D01*
X036292Y000400D01*
X036292Y000625D02*
X035992Y000625D01*
X035992Y000700D02*
X036142Y000850D01*
X035992Y000700D02*
X035992Y000400D01*
X035831Y000400D02*
X035681Y000550D01*
X035756Y000550D02*
X035531Y000550D01*
X035531Y000400D02*
X035531Y000850D01*
X035756Y000850D01*
X035831Y000775D01*
X035831Y000625D01*
X035756Y000550D01*
X035371Y000850D02*
X035071Y000850D01*
X035221Y000850D02*
X035221Y000400D01*
X034911Y000400D02*
X034610Y000850D01*
X034450Y000850D02*
X034150Y000850D01*
X034150Y000400D01*
X034450Y000400D01*
X034610Y000400D02*
X034911Y000850D01*
X034300Y000625D02*
X034150Y000625D01*
X033031Y000400D02*
X032806Y000625D01*
X032731Y000550D02*
X033031Y000850D01*
X032731Y000850D02*
X032731Y000400D01*
X032571Y000475D02*
X032496Y000400D01*
X032346Y000400D01*
X032271Y000475D01*
X032271Y000775D01*
X032346Y000850D01*
X032496Y000850D01*
X032571Y000775D01*
X032111Y000775D02*
X032111Y000475D01*
X032036Y000400D01*
X031885Y000400D01*
X031810Y000475D01*
X031810Y000775D01*
X031885Y000850D01*
X032036Y000850D01*
X032111Y000775D01*
X031650Y000400D02*
X031350Y000400D01*
X031350Y000850D01*
X029981Y000850D02*
X029681Y000550D01*
X029756Y000625D02*
X029981Y000400D01*
X029681Y000400D02*
X029681Y000850D01*
X029521Y000850D02*
X029521Y000400D01*
X029221Y000850D01*
X029221Y000400D01*
X029061Y000400D02*
X029061Y000700D01*
X028911Y000850D01*
X028760Y000700D01*
X028760Y000400D01*
X028600Y000475D02*
X028525Y000400D01*
X028300Y000400D01*
X028300Y000850D01*
X028525Y000850D01*
X028600Y000775D01*
X028600Y000700D01*
X028525Y000625D01*
X028300Y000625D01*
X028525Y000625D02*
X028600Y000550D01*
X028600Y000475D01*
X028760Y000625D02*
X029061Y000625D01*
X026931Y000400D02*
X026631Y000400D01*
X026631Y000850D01*
X026931Y000850D01*
X026781Y000625D02*
X026631Y000625D01*
X026471Y000550D02*
X026471Y000850D01*
X026471Y000550D02*
X026321Y000400D01*
X026171Y000550D01*
X026171Y000850D01*
X026011Y000700D02*
X026011Y000400D01*
X026011Y000625D02*
X025710Y000625D01*
X025710Y000700D02*
X025861Y000850D01*
X026011Y000700D01*
X025710Y000700D02*
X025710Y000400D01*
X025550Y000475D02*
X025475Y000400D01*
X025325Y000400D01*
X025250Y000475D01*
X025325Y000625D02*
X025250Y000700D01*
X025250Y000775D01*
X025325Y000850D01*
X025475Y000850D01*
X025550Y000775D01*
X025475Y000625D02*
X025550Y000550D01*
X025550Y000475D01*
X025475Y000625D02*
X025325Y000625D01*
X024031Y000700D02*
X023731Y000400D01*
X024031Y000400D01*
X024031Y000700D02*
X024031Y000775D01*
X023956Y000850D01*
X023806Y000850D01*
X023731Y000775D01*
X023571Y000775D02*
X023496Y000850D01*
X023346Y000850D01*
X023271Y000775D01*
X023271Y000475D01*
X023346Y000400D01*
X023496Y000400D01*
X023571Y000475D01*
X023111Y000475D02*
X023036Y000400D01*
X022885Y000400D01*
X022810Y000475D01*
X022650Y000475D02*
X022650Y000775D01*
X022575Y000850D01*
X022425Y000850D01*
X022350Y000775D01*
X022350Y000475D01*
X022425Y000400D01*
X022575Y000400D01*
X022650Y000475D01*
X022810Y000700D02*
X022885Y000625D01*
X023036Y000625D01*
X023111Y000550D01*
X023111Y000475D01*
X023111Y000775D02*
X023036Y000850D01*
X022885Y000850D01*
X022810Y000775D01*
X022810Y000700D01*
X021031Y000400D02*
X020731Y000400D01*
X020881Y000400D02*
X020881Y000850D01*
X020731Y000700D01*
X020571Y000775D02*
X020496Y000850D01*
X020346Y000850D01*
X020271Y000775D01*
X020271Y000475D01*
X020346Y000400D01*
X020496Y000400D01*
X020571Y000475D01*
X020111Y000475D02*
X020036Y000400D01*
X019885Y000400D01*
X019810Y000475D01*
X019650Y000475D02*
X019650Y000775D01*
X019575Y000850D01*
X019425Y000850D01*
X019350Y000775D01*
X019350Y000475D01*
X019425Y000400D01*
X019575Y000400D01*
X019650Y000475D01*
X019810Y000700D02*
X019885Y000625D01*
X020036Y000625D01*
X020111Y000550D01*
X020111Y000475D01*
X020111Y000775D02*
X020036Y000850D01*
X019885Y000850D01*
X019810Y000775D01*
X019810Y000700D01*
X031950Y017150D02*
X032100Y017300D01*
X032100Y017600D01*
X032260Y017600D02*
X032486Y017600D01*
X032561Y017525D01*
X032561Y017375D01*
X032486Y017300D01*
X032260Y017300D01*
X032260Y017150D02*
X032260Y017600D01*
X032411Y017300D02*
X032561Y017150D01*
X032721Y017225D02*
X032796Y017150D01*
X032946Y017150D01*
X033021Y017225D01*
X033021Y017375D01*
X032946Y017450D01*
X032871Y017450D01*
X032721Y017375D01*
X032721Y017600D01*
X033021Y017600D01*
X031950Y017150D02*
X031800Y017300D01*
X031800Y017600D01*
X034325Y020500D02*
X034625Y020500D01*
X034700Y020575D01*
X034700Y020725D01*
X034625Y020800D01*
X034625Y020960D02*
X034700Y021035D01*
X034700Y021186D01*
X034625Y021261D01*
X034475Y021261D01*
X034400Y021186D01*
X034400Y021111D01*
X034475Y020960D01*
X034250Y020960D01*
X034250Y021261D01*
X034325Y020800D02*
X034250Y020725D01*
X034250Y020575D01*
X034325Y020500D01*
X037350Y017615D02*
X037350Y017465D01*
X037425Y017390D01*
X037425Y017229D02*
X037575Y017229D01*
X037650Y017154D01*
X037650Y016929D01*
X037800Y016929D02*
X037350Y016929D01*
X037350Y017154D01*
X037425Y017229D01*
X037650Y017079D02*
X037800Y017229D01*
X037800Y017390D02*
X037500Y017690D01*
X037425Y017690D01*
X037350Y017615D01*
X037800Y017690D02*
X037800Y017390D01*
X030111Y023225D02*
X030111Y023300D01*
X030036Y023375D01*
X029810Y023375D01*
X029810Y023225D01*
X029885Y023150D01*
X030036Y023150D01*
X030111Y023225D01*
X029961Y023525D02*
X029810Y023375D01*
X029961Y023525D02*
X030111Y023600D01*
X029650Y023525D02*
X029575Y023600D01*
X029425Y023600D01*
X029350Y023525D01*
X029350Y023225D01*
X029425Y023150D01*
X029575Y023150D01*
X029650Y023225D01*
X029575Y024250D02*
X029650Y024325D01*
X029575Y024250D02*
X029425Y024250D01*
X029350Y024325D01*
X029350Y024625D01*
X029425Y024700D01*
X029575Y024700D01*
X029650Y024625D01*
X029810Y024700D02*
X030111Y024700D01*
X030111Y024625D01*
X029810Y024325D01*
X029810Y024250D01*
X033650Y024950D02*
X033950Y024950D01*
X034110Y024950D02*
X034411Y025250D01*
X034411Y025325D01*
X034336Y025400D01*
X034185Y025400D01*
X034110Y025325D01*
X034110Y024950D02*
X034411Y024950D01*
X033650Y024950D02*
X033650Y025400D01*
X038350Y025400D02*
X038350Y024950D01*
X038650Y024950D01*
X038810Y024950D02*
X039111Y024950D01*
X038961Y024950D02*
X038961Y025400D01*
X038810Y025250D01*
X024000Y025461D02*
X023550Y025461D01*
X023550Y025611D02*
X023550Y025310D01*
X023550Y025150D02*
X023550Y024850D01*
X024000Y024850D01*
X023775Y024850D02*
X023775Y025000D01*
X023550Y025771D02*
X024000Y025771D01*
X024000Y025996D01*
X023925Y026071D01*
X023625Y026071D01*
X023550Y025996D01*
X023550Y025771D01*
X023550Y026231D02*
X023550Y026381D01*
X023550Y026306D02*
X024000Y026306D01*
X024000Y026231D02*
X024000Y026381D01*
X022390Y023400D02*
X022090Y023400D01*
X022090Y023175D01*
X022240Y023250D01*
X022315Y023250D01*
X022390Y023175D01*
X022390Y023025D01*
X022315Y022950D01*
X022165Y022950D01*
X022090Y023025D01*
X021929Y022950D02*
X021779Y023100D01*
X021854Y023100D02*
X021629Y023100D01*
X021629Y022950D02*
X021629Y023400D01*
X021854Y023400D01*
X021929Y023325D01*
X021929Y023175D01*
X021854Y023100D01*
X020261Y023325D02*
X019960Y023025D01*
X019960Y022950D01*
X019800Y022950D02*
X019650Y023100D01*
X019725Y023100D02*
X019500Y023100D01*
X019500Y022950D02*
X019500Y023400D01*
X019725Y023400D01*
X019800Y023325D01*
X019800Y023175D01*
X019725Y023100D01*
X019960Y023400D02*
X020261Y023400D01*
X020261Y023325D01*
X003440Y027075D02*
X003365Y027000D01*
X003215Y027000D01*
X003140Y027075D01*
X003140Y027225D02*
X003290Y027300D01*
X003365Y027300D01*
X003440Y027225D01*
X003440Y027075D01*
X003140Y027225D02*
X003140Y027450D01*
X003440Y027450D01*
X002979Y027450D02*
X002829Y027450D01*
X002904Y027450D02*
X002904Y027075D01*
X002829Y027000D01*
X002754Y027000D01*
X002679Y027075D01*
D11*
X002870Y026035D02*
X002870Y025615D01*
X002660Y025825D02*
X003080Y025825D01*
X026060Y026860D02*
X026060Y027247D01*
X026253Y027440D01*
X026447Y027247D01*
X026447Y026860D01*
X026659Y026957D02*
X026659Y027344D01*
X026755Y027440D01*
X026949Y027440D01*
X027046Y027344D01*
X027257Y027440D02*
X027257Y026860D01*
X027257Y027053D02*
X027547Y027053D01*
X027644Y027150D01*
X027644Y027344D01*
X027547Y027440D01*
X027257Y027440D01*
X027451Y027053D02*
X027644Y026860D01*
X027856Y026957D02*
X027856Y027344D01*
X027952Y027440D01*
X028146Y027440D01*
X028243Y027344D01*
X028243Y026957D01*
X028146Y026860D01*
X027952Y026860D01*
X027856Y026957D01*
X028454Y026860D02*
X028454Y027440D01*
X028744Y027440D01*
X028841Y027344D01*
X028841Y027247D01*
X028744Y027150D01*
X028454Y027150D01*
X028454Y026860D02*
X028744Y026860D01*
X028841Y026957D01*
X028841Y027053D01*
X028744Y027150D01*
X029053Y026957D02*
X029149Y026860D01*
X029343Y026860D01*
X029440Y026957D01*
X029440Y027344D01*
X029343Y027440D01*
X029149Y027440D01*
X029053Y027344D01*
X029053Y026957D01*
X029651Y027440D02*
X030038Y027440D01*
X029845Y027440D02*
X029845Y026860D01*
X030250Y026860D02*
X030443Y026860D01*
X030346Y026860D02*
X030346Y027440D01*
X030250Y027440D02*
X030443Y027440D01*
X030649Y027344D02*
X030745Y027440D01*
X030939Y027440D01*
X031036Y027344D01*
X031036Y026957D02*
X030939Y026860D01*
X030745Y026860D01*
X030649Y026957D01*
X030649Y027344D01*
X031846Y027344D02*
X031846Y027247D01*
X031942Y027150D01*
X032136Y027150D01*
X032233Y027053D01*
X032233Y026957D01*
X032136Y026860D01*
X031942Y026860D01*
X031846Y026957D01*
X031846Y027344D02*
X031942Y027440D01*
X032136Y027440D01*
X032233Y027344D01*
X032444Y027247D02*
X032444Y026957D01*
X032541Y026860D01*
X032831Y026860D01*
X032831Y026763D02*
X032734Y026667D01*
X032638Y026667D01*
X032831Y026763D02*
X032831Y027247D01*
X033043Y027247D02*
X033333Y027247D01*
X033430Y027150D01*
X033430Y026860D01*
X033738Y026957D02*
X033738Y027344D01*
X033641Y027247D02*
X033835Y027247D01*
X034040Y027150D02*
X034137Y027247D01*
X034330Y027247D01*
X034427Y027150D01*
X034427Y026860D01*
X034040Y026860D02*
X034040Y027440D01*
X033738Y026957D02*
X033835Y026860D01*
X033043Y026860D02*
X033043Y027247D01*
X035237Y027053D02*
X035624Y027440D01*
X035836Y027247D02*
X035932Y027247D01*
X035932Y026860D01*
X035836Y026860D02*
X036029Y026860D01*
X036331Y026957D02*
X036428Y026860D01*
X036331Y026957D02*
X036331Y027344D01*
X036235Y027247D02*
X036428Y027247D01*
X035932Y027440D02*
X035932Y027537D01*
X035237Y027440D02*
X035237Y026860D01*
X035334Y027150D02*
X035624Y026860D01*
X027046Y026957D02*
X026949Y026860D01*
X026755Y026860D01*
X026659Y026957D01*
X026447Y027150D02*
X026060Y027150D01*
D12*
X026045Y026555D02*
X026045Y026245D01*
X026045Y026400D02*
X026097Y026452D01*
X026200Y026452D01*
X026252Y026400D01*
X026252Y026245D01*
X026419Y026297D02*
X026471Y026245D01*
X026419Y026297D02*
X026419Y026504D01*
X026367Y026452D02*
X026471Y026452D01*
X026582Y026452D02*
X026686Y026452D01*
X026634Y026504D02*
X026634Y026297D01*
X026686Y026245D01*
X026797Y026245D02*
X026952Y026245D01*
X027004Y026297D01*
X027004Y026400D01*
X026952Y026452D01*
X026797Y026452D01*
X026797Y026142D01*
X027119Y026245D02*
X027119Y026297D01*
X027171Y026297D01*
X027171Y026245D01*
X027119Y026245D01*
X027119Y026400D02*
X027119Y026452D01*
X027171Y026452D01*
X027171Y026400D01*
X027119Y026400D01*
X027280Y026245D02*
X027487Y026555D01*
X027810Y026555D02*
X027603Y026245D01*
X027925Y026297D02*
X027977Y026348D01*
X028132Y026348D01*
X028132Y026400D02*
X028132Y026245D01*
X027977Y026245D01*
X027925Y026297D01*
X027977Y026452D02*
X028080Y026452D01*
X028132Y026400D01*
X028247Y026400D02*
X028247Y026297D01*
X028299Y026245D01*
X028454Y026245D01*
X028569Y026245D02*
X028569Y026452D01*
X028569Y026348D02*
X028673Y026452D01*
X028725Y026452D01*
X028838Y026400D02*
X028838Y026297D01*
X028890Y026245D01*
X028993Y026245D01*
X029045Y026297D01*
X029045Y026400D01*
X028993Y026452D01*
X028890Y026452D01*
X028838Y026400D01*
X029160Y026452D02*
X029315Y026452D01*
X029367Y026400D01*
X029367Y026297D01*
X029315Y026245D01*
X029160Y026245D01*
X029160Y026555D01*
X029483Y026400D02*
X029483Y026297D01*
X029534Y026245D01*
X029638Y026245D01*
X029689Y026297D01*
X029689Y026400D01*
X029638Y026452D01*
X029534Y026452D01*
X029483Y026400D01*
X029805Y026452D02*
X029908Y026452D01*
X029857Y026504D02*
X029857Y026297D01*
X029908Y026245D01*
X030020Y026245D02*
X030123Y026245D01*
X030071Y026245D02*
X030071Y026452D01*
X030020Y026452D01*
X030071Y026555D02*
X030071Y026607D01*
X030235Y026400D02*
X030235Y026297D01*
X030286Y026245D01*
X030441Y026245D01*
X030557Y026245D02*
X030609Y026245D01*
X030609Y026297D01*
X030557Y026297D01*
X030557Y026245D01*
X030718Y026297D02*
X030770Y026245D01*
X030925Y026245D01*
X031040Y026297D02*
X031092Y026245D01*
X031195Y026245D01*
X031247Y026297D01*
X031247Y026400D01*
X031195Y026452D01*
X031092Y026452D01*
X031040Y026400D01*
X031040Y026297D01*
X030925Y026452D02*
X030770Y026452D01*
X030718Y026400D01*
X030718Y026297D01*
X030441Y026452D02*
X030286Y026452D01*
X030235Y026400D01*
X031363Y026452D02*
X031414Y026452D01*
X031466Y026400D01*
X031518Y026452D01*
X031569Y026400D01*
X031569Y026245D01*
X031466Y026245D02*
X031466Y026400D01*
X031363Y026452D02*
X031363Y026245D01*
X031685Y026245D02*
X031892Y026555D01*
X032007Y026400D02*
X032059Y026452D01*
X032214Y026452D01*
X032329Y026452D02*
X032329Y026297D01*
X032381Y026245D01*
X032536Y026245D01*
X032536Y026193D02*
X032536Y026452D01*
X032652Y026452D02*
X032807Y026452D01*
X032858Y026400D01*
X032858Y026245D01*
X033026Y026297D02*
X033077Y026245D01*
X033026Y026297D02*
X033026Y026504D01*
X033077Y026452D02*
X032974Y026452D01*
X033189Y026400D02*
X033240Y026452D01*
X033344Y026452D01*
X033396Y026400D01*
X033396Y026245D01*
X033511Y026400D02*
X033718Y026400D01*
X033833Y026348D02*
X033988Y026452D01*
X034102Y026452D02*
X034154Y026452D01*
X034154Y026245D01*
X034205Y026245D02*
X034102Y026245D01*
X033988Y026245D02*
X033833Y026348D01*
X033833Y026245D02*
X033833Y026555D01*
X034154Y026555D02*
X034154Y026607D01*
X034317Y026452D02*
X034420Y026452D01*
X034368Y026504D02*
X034368Y026297D01*
X034420Y026245D01*
X033189Y026245D02*
X033189Y026555D01*
X032652Y026452D02*
X032652Y026245D01*
X032536Y026193D02*
X032484Y026142D01*
X032433Y026142D01*
X032214Y026297D02*
X032162Y026348D01*
X032059Y026348D01*
X032007Y026400D01*
X032007Y026245D02*
X032162Y026245D01*
X032214Y026297D01*
X028454Y026452D02*
X028299Y026452D01*
X028247Y026400D01*
X026956Y024205D02*
X026852Y024205D01*
X026801Y024154D01*
X026904Y024050D02*
X026956Y024050D01*
X027008Y023998D01*
X027008Y023947D01*
X026956Y023895D01*
X026852Y023895D01*
X026801Y023947D01*
X026691Y023947D02*
X026691Y023895D01*
X026640Y023895D01*
X026640Y023947D01*
X026691Y023947D01*
X026524Y023895D02*
X026317Y023895D01*
X026421Y023895D02*
X026421Y024205D01*
X026317Y024102D01*
X026202Y024102D02*
X026098Y023895D01*
X025995Y024102D01*
X026956Y024050D02*
X027008Y024102D01*
X027008Y024154D01*
X026956Y024205D01*
X027625Y002817D02*
X027625Y002577D01*
X027445Y002757D01*
X027805Y002757D01*
X027745Y002449D02*
X027805Y002389D01*
X027805Y002268D01*
X027745Y002208D01*
X027625Y002268D02*
X027625Y002389D01*
X027685Y002449D01*
X027745Y002449D01*
X027625Y002268D02*
X027565Y002208D01*
X027505Y002208D01*
X027445Y002268D01*
X027445Y002389D01*
X027505Y002449D01*
X024805Y002389D02*
X024805Y002268D01*
X024745Y002208D01*
X024625Y002268D02*
X024625Y002389D01*
X024685Y002449D01*
X024745Y002449D01*
X024805Y002389D01*
X024745Y002577D02*
X024805Y002637D01*
X024805Y002757D01*
X024745Y002817D01*
X024685Y002817D01*
X024625Y002757D01*
X024625Y002697D01*
X024625Y002757D02*
X024565Y002817D01*
X024505Y002817D01*
X024445Y002757D01*
X024445Y002637D01*
X024505Y002577D01*
X024505Y002449D02*
X024445Y002389D01*
X024445Y002268D01*
X024505Y002208D01*
X024565Y002208D01*
X024625Y002268D01*
X021805Y002268D02*
X021745Y002208D01*
X021805Y002268D02*
X021805Y002389D01*
X021745Y002449D01*
X021685Y002449D01*
X021625Y002389D01*
X021625Y002268D01*
X021565Y002208D01*
X021505Y002208D01*
X021445Y002268D01*
X021445Y002389D01*
X021505Y002449D01*
X021505Y002577D02*
X021445Y002637D01*
X021445Y002757D01*
X021505Y002817D01*
X021565Y002817D01*
X021805Y002577D01*
X021805Y002817D01*
X030445Y002817D02*
X030445Y002577D01*
X030625Y002577D01*
X030565Y002697D01*
X030565Y002757D01*
X030625Y002817D01*
X030745Y002817D01*
X030805Y002757D01*
X030805Y002637D01*
X030745Y002577D01*
X030745Y002449D02*
X030805Y002389D01*
X030805Y002268D01*
X030745Y002208D01*
X030625Y002268D02*
X030625Y002389D01*
X030685Y002449D01*
X030745Y002449D01*
X030625Y002268D02*
X030565Y002208D01*
X030505Y002208D01*
X030445Y002268D01*
X030445Y002389D01*
X030505Y002449D01*
X033445Y002389D02*
X033445Y002268D01*
X033505Y002208D01*
X033565Y002208D01*
X033625Y002268D01*
X033625Y002389D01*
X033685Y002449D01*
X033745Y002449D01*
X033805Y002389D01*
X033805Y002268D01*
X033745Y002208D01*
X033505Y002449D02*
X033445Y002389D01*
X033625Y002577D02*
X033505Y002697D01*
X033445Y002817D01*
X033625Y002757D02*
X033625Y002577D01*
X033745Y002577D01*
X033805Y002637D01*
X033805Y002757D01*
X033745Y002817D01*
X033685Y002817D01*
X033625Y002757D01*
X036445Y002817D02*
X036445Y002577D01*
X036505Y002449D02*
X036445Y002389D01*
X036445Y002268D01*
X036505Y002208D01*
X036565Y002208D01*
X036625Y002268D01*
X036625Y002389D01*
X036685Y002449D01*
X036745Y002449D01*
X036805Y002389D01*
X036805Y002268D01*
X036745Y002208D01*
X036745Y002577D02*
X036805Y002577D01*
X036745Y002577D02*
X036505Y002817D01*
X036445Y002817D01*
D13*
X012710Y002623D02*
X012710Y002817D01*
X012710Y002918D02*
X012420Y002918D01*
X012420Y003111D01*
X012420Y003212D02*
X012420Y003357D01*
X012468Y003406D01*
X012662Y003406D01*
X012710Y003357D01*
X012710Y003212D01*
X012420Y003212D01*
X012565Y003014D02*
X012565Y002918D01*
X012710Y002918D02*
X012710Y003111D01*
X012710Y002623D02*
X012420Y002623D01*
X012565Y002522D02*
X012565Y002328D01*
X012613Y002227D02*
X012662Y002227D01*
X012710Y002179D01*
X012710Y002082D01*
X012662Y002034D01*
X012613Y002034D01*
X012565Y002082D01*
X012565Y002179D01*
X012613Y002227D01*
X012565Y002179D02*
X012517Y002227D01*
X012468Y002227D01*
X012420Y002179D01*
X012420Y002082D01*
X012468Y002034D01*
X012517Y002034D01*
X012565Y002082D01*
X011710Y002034D02*
X011662Y002034D01*
X011468Y002227D01*
X011420Y002227D01*
X011420Y002034D01*
X011565Y002328D02*
X011565Y002522D01*
X011517Y002623D02*
X011565Y002671D01*
X011565Y002768D01*
X011613Y002817D01*
X011662Y002817D01*
X011710Y002768D01*
X011710Y002671D01*
X011662Y002623D01*
X011517Y002623D02*
X011468Y002623D01*
X011420Y002671D01*
X011420Y002768D01*
X011468Y002817D01*
X011468Y002918D02*
X011420Y002966D01*
X011420Y003063D01*
X011468Y003111D01*
X011420Y003212D02*
X011710Y003212D01*
X011710Y003406D01*
X011710Y003507D02*
X011420Y003507D01*
X011565Y003555D02*
X011710Y003700D01*
X011613Y003507D02*
X011420Y003700D01*
X010710Y003752D02*
X010710Y003849D01*
X010662Y003897D01*
X010468Y003897D01*
X010420Y003849D01*
X010420Y003752D01*
X010468Y003703D01*
X010662Y003703D01*
X010710Y003752D01*
X010710Y003602D02*
X010420Y003602D01*
X010517Y003505D01*
X010420Y003409D01*
X010710Y003409D01*
X010710Y003309D02*
X010613Y003212D01*
X010517Y003212D01*
X010420Y003309D01*
X010420Y003111D02*
X010710Y003111D01*
X010420Y002918D01*
X010710Y002918D01*
X010662Y002817D02*
X010468Y002817D01*
X010420Y002768D01*
X010420Y002623D01*
X010710Y002623D01*
X010710Y002768D01*
X010662Y002817D01*
X010565Y002522D02*
X010565Y002328D01*
X010613Y002227D02*
X010565Y002179D01*
X010565Y002034D01*
X010662Y002034D01*
X010710Y002082D01*
X010710Y002179D01*
X010662Y002227D01*
X010613Y002227D01*
X010468Y002130D02*
X010565Y002034D01*
X010468Y002130D02*
X010420Y002227D01*
X009710Y002179D02*
X009710Y002082D01*
X009662Y002034D01*
X009565Y002034D02*
X009517Y002130D01*
X009517Y002179D01*
X009565Y002227D01*
X009662Y002227D01*
X009710Y002179D01*
X009565Y002034D02*
X009420Y002034D01*
X009420Y002227D01*
X009565Y002328D02*
X009565Y002522D01*
X009420Y002623D02*
X009710Y002623D01*
X009710Y002768D01*
X009662Y002817D01*
X009468Y002817D01*
X009420Y002768D01*
X009420Y002623D01*
X009710Y002918D02*
X009420Y003111D01*
X009468Y003212D02*
X009662Y003212D01*
X009710Y003261D01*
X009710Y003357D01*
X009662Y003406D01*
X009468Y003406D02*
X009420Y003357D01*
X009420Y003261D01*
X009468Y003212D01*
X008710Y003309D02*
X008420Y003309D01*
X008420Y003212D02*
X008420Y003406D01*
X008468Y003111D02*
X008420Y003063D01*
X008420Y002966D01*
X008468Y002918D01*
X008517Y002918D01*
X008565Y002966D01*
X008565Y003063D01*
X008613Y003111D01*
X008662Y003111D01*
X008710Y003063D01*
X008710Y002966D01*
X008662Y002918D01*
X008710Y002817D02*
X008613Y002720D01*
X008613Y002768D02*
X008613Y002623D01*
X008710Y002623D02*
X008420Y002623D01*
X008420Y002768D01*
X008468Y002817D01*
X008565Y002817D01*
X008613Y002768D01*
X008565Y002522D02*
X008565Y002328D01*
X008565Y002227D02*
X008565Y002034D01*
X008420Y002179D01*
X008710Y002179D01*
X007710Y002179D02*
X007710Y002082D01*
X007662Y002034D01*
X007565Y002130D02*
X007565Y002179D01*
X007613Y002227D01*
X007662Y002227D01*
X007710Y002179D01*
X007565Y002179D02*
X007517Y002227D01*
X007468Y002227D01*
X007420Y002179D01*
X007420Y002082D01*
X007468Y002034D01*
X007565Y002328D02*
X007565Y002522D01*
X007517Y002623D02*
X007468Y002623D01*
X007420Y002671D01*
X007420Y002768D01*
X007468Y002817D01*
X007468Y002918D02*
X007662Y002918D01*
X007710Y002966D01*
X007710Y003063D01*
X007662Y003111D01*
X007710Y003212D02*
X007420Y003212D01*
X007420Y003406D01*
X007565Y003309D02*
X007565Y003212D01*
X007468Y003111D02*
X007420Y003063D01*
X007420Y002966D01*
X007468Y002918D01*
X007613Y002817D02*
X007662Y002817D01*
X007710Y002768D01*
X007710Y002671D01*
X007662Y002623D01*
X007565Y002671D02*
X007565Y002768D01*
X007613Y002817D01*
X007565Y002671D02*
X007517Y002623D01*
X007710Y003212D02*
X007710Y003406D01*
X006710Y003357D02*
X006662Y003406D01*
X006468Y003406D01*
X006420Y003357D01*
X006420Y003212D01*
X006710Y003212D01*
X006710Y003357D01*
X006710Y003111D02*
X006420Y003111D01*
X006420Y002918D02*
X006710Y003111D01*
X006710Y002918D02*
X006420Y002918D01*
X006468Y002817D02*
X006420Y002768D01*
X006420Y002671D01*
X006468Y002623D01*
X006662Y002623D01*
X006710Y002671D01*
X006710Y002768D01*
X006662Y002817D01*
X006565Y002817D01*
X006565Y002720D01*
X006565Y002522D02*
X006565Y002328D01*
X006517Y002227D02*
X006468Y002227D01*
X006420Y002179D01*
X006420Y002082D01*
X006468Y002034D01*
X006517Y002227D02*
X006710Y002034D01*
X006710Y002227D01*
X005710Y002177D02*
X005710Y001984D01*
X005710Y002080D02*
X005420Y002080D01*
X005517Y001984D01*
X005565Y002278D02*
X005565Y002472D01*
X005613Y002573D02*
X005710Y002670D01*
X005613Y002767D01*
X005420Y002767D01*
X005468Y002868D02*
X005662Y002868D01*
X005710Y002916D01*
X005710Y003013D01*
X005662Y003061D01*
X005662Y003162D02*
X005710Y003211D01*
X005710Y003307D01*
X005662Y003356D01*
X005662Y003162D02*
X005468Y003162D01*
X005420Y003211D01*
X005420Y003307D01*
X005468Y003356D01*
X005468Y003061D02*
X005420Y003013D01*
X005420Y002916D01*
X005468Y002868D01*
X005420Y002573D02*
X005613Y002573D01*
X010420Y004046D02*
X010468Y003998D01*
X010517Y003998D01*
X010565Y004046D01*
X010565Y004143D01*
X010613Y004192D01*
X010662Y004192D01*
X010710Y004143D01*
X010710Y004046D01*
X010662Y003998D01*
X010420Y004046D02*
X010420Y004143D01*
X010468Y004192D01*
X010420Y004293D02*
X010420Y004389D01*
X010420Y004341D02*
X010710Y004341D01*
X010710Y004293D02*
X010710Y004389D01*
X010710Y004489D02*
X010613Y004586D01*
X010517Y004586D01*
X010420Y004489D01*
X011662Y003111D02*
X011710Y003063D01*
X011710Y002966D01*
X011662Y002918D01*
X011468Y002918D01*
X011390Y014527D02*
X011680Y014527D01*
X011680Y014721D01*
X011632Y014822D02*
X011680Y014870D01*
X011680Y014967D01*
X011632Y015016D01*
X011680Y015117D02*
X011680Y015262D01*
X011632Y015310D01*
X011438Y015310D01*
X011390Y015262D01*
X011390Y015117D01*
X011680Y015117D01*
X011438Y015016D02*
X011390Y014967D01*
X011390Y014870D01*
X011438Y014822D01*
X011632Y014822D01*
X011728Y015411D02*
X011728Y015605D01*
X011632Y015706D02*
X011680Y015754D01*
X011680Y015851D01*
X011632Y015900D01*
X011583Y015900D01*
X011535Y015851D01*
X011535Y015754D01*
X011487Y015706D01*
X011438Y015706D01*
X011390Y015754D01*
X011390Y015851D01*
X011438Y015900D01*
X011438Y016001D02*
X011632Y016001D01*
X011680Y016049D01*
X011680Y016146D01*
X011632Y016194D01*
X011680Y016295D02*
X011390Y016295D01*
X011438Y016194D02*
X011390Y016146D01*
X011390Y016049D01*
X011438Y016001D01*
X011583Y016295D02*
X011390Y016489D01*
X011535Y016344D02*
X011680Y016489D01*
X012390Y016489D02*
X012438Y016392D01*
X012535Y016295D01*
X012535Y016440D01*
X012583Y016489D01*
X012632Y016489D01*
X012680Y016440D01*
X012680Y016344D01*
X012632Y016295D01*
X012535Y016295D01*
X012535Y016194D02*
X012583Y016146D01*
X012583Y016001D01*
X012583Y016097D02*
X012680Y016194D01*
X012535Y016194D02*
X012438Y016194D01*
X012390Y016146D01*
X012390Y016001D01*
X012680Y016001D01*
X012583Y015900D02*
X012680Y015803D01*
X012583Y015706D01*
X012390Y015706D01*
X012390Y015900D02*
X012583Y015900D01*
X010728Y015703D02*
X010728Y015510D01*
X010632Y015408D02*
X010438Y015408D01*
X010390Y015360D01*
X010390Y015215D01*
X010680Y015215D01*
X010680Y015360D01*
X010632Y015408D01*
X010632Y015114D02*
X010680Y015065D01*
X010680Y014969D01*
X010632Y014920D01*
X010438Y014920D01*
X010390Y014969D01*
X010390Y015065D01*
X010438Y015114D01*
X010680Y014819D02*
X010680Y014626D01*
X010390Y014626D01*
X009680Y014822D02*
X009680Y015016D01*
X009632Y015117D02*
X009680Y015165D01*
X009680Y015262D01*
X009632Y015310D01*
X009680Y015411D02*
X009680Y015557D01*
X009632Y015605D01*
X009438Y015605D01*
X009390Y015557D01*
X009390Y015411D01*
X009680Y015411D01*
X009438Y015310D02*
X009390Y015262D01*
X009390Y015165D01*
X009438Y015117D01*
X009632Y015117D01*
X009680Y014822D02*
X009390Y014822D01*
X008680Y014870D02*
X008632Y014822D01*
X008438Y014822D01*
X008390Y014870D01*
X008390Y014967D01*
X008438Y015016D01*
X008390Y015117D02*
X008390Y015262D01*
X008438Y015310D01*
X008632Y015310D01*
X008680Y015262D01*
X008680Y015117D01*
X008390Y015117D01*
X008632Y015016D02*
X008680Y014967D01*
X008680Y014870D01*
X008680Y014721D02*
X008680Y014527D01*
X008390Y014527D01*
X007680Y014527D02*
X007680Y014721D01*
X007632Y014822D02*
X007680Y014870D01*
X007680Y014967D01*
X007632Y015016D01*
X007680Y015117D02*
X007680Y015262D01*
X007632Y015310D01*
X007438Y015310D01*
X007390Y015262D01*
X007390Y015117D01*
X007680Y015117D01*
X007438Y015016D02*
X007390Y014967D01*
X007390Y014870D01*
X007438Y014822D01*
X007632Y014822D01*
X007680Y014527D02*
X007390Y014527D01*
X007728Y015411D02*
X007728Y015605D01*
X007632Y015706D02*
X007680Y015754D01*
X007680Y015851D01*
X007632Y015900D01*
X007583Y015900D01*
X007535Y015851D01*
X007535Y015754D01*
X007487Y015706D01*
X007438Y015706D01*
X007390Y015754D01*
X007390Y015851D01*
X007438Y015900D01*
X007438Y016001D02*
X007632Y016001D01*
X007680Y016049D01*
X007680Y016146D01*
X007632Y016194D01*
X007680Y016295D02*
X007680Y016489D01*
X007535Y016392D02*
X007535Y016295D01*
X007438Y016194D02*
X007390Y016146D01*
X007390Y016049D01*
X007438Y016001D01*
X007390Y016295D02*
X007680Y016295D01*
X007390Y016295D02*
X007390Y016489D01*
X006730Y016440D02*
X006730Y016295D01*
X006440Y016295D01*
X006440Y016440D01*
X006488Y016489D01*
X006682Y016489D01*
X006730Y016440D01*
X006730Y016194D02*
X006440Y016194D01*
X006440Y016001D02*
X006730Y016194D01*
X006730Y016001D02*
X006440Y016001D01*
X006488Y015900D02*
X006440Y015851D01*
X006440Y015754D01*
X006488Y015706D01*
X006682Y015706D01*
X006730Y015754D01*
X006730Y015851D01*
X006682Y015900D01*
X006585Y015900D01*
X006585Y015803D01*
X005730Y016049D02*
X005682Y016001D01*
X005730Y016049D02*
X005730Y016146D01*
X005682Y016194D01*
X005585Y016194D01*
X005537Y016146D01*
X005537Y016097D01*
X005585Y016001D01*
X005440Y016001D01*
X005440Y016194D01*
X005440Y016295D02*
X005633Y016295D01*
X005730Y016392D01*
X005633Y016489D01*
X005440Y016489D01*
X008390Y016489D02*
X008390Y016295D01*
X008390Y016392D02*
X008680Y016392D01*
X008632Y016194D02*
X008680Y016146D01*
X008680Y016049D01*
X008632Y016001D01*
X008535Y016049D02*
X008487Y016001D01*
X008438Y016001D01*
X008390Y016049D01*
X008390Y016146D01*
X008438Y016194D01*
X008535Y016146D02*
X008583Y016194D01*
X008632Y016194D01*
X008535Y016146D02*
X008535Y016049D01*
X008535Y015900D02*
X008583Y015851D01*
X008583Y015706D01*
X008583Y015803D02*
X008680Y015900D01*
X008535Y015900D02*
X008438Y015900D01*
X008390Y015851D01*
X008390Y015706D01*
X008680Y015706D01*
X008728Y015605D02*
X008728Y015411D01*
X009390Y016001D02*
X009390Y016146D01*
X009438Y016194D01*
X009632Y016194D01*
X009680Y016146D01*
X009680Y016001D01*
X009390Y016001D01*
X009438Y016295D02*
X009632Y016295D01*
X009680Y016344D01*
X009680Y016440D01*
X009632Y016489D01*
X009438Y016489D02*
X009390Y016440D01*
X009390Y016344D01*
X009438Y016295D01*
X009728Y015900D02*
X009728Y015706D01*
X010390Y015853D02*
X010438Y015804D01*
X010487Y015804D01*
X010535Y015853D01*
X010535Y015949D01*
X010583Y015998D01*
X010632Y015998D01*
X010680Y015949D01*
X010680Y015853D01*
X010632Y015804D01*
X010390Y015853D02*
X010390Y015949D01*
X010438Y015998D01*
X010390Y016099D02*
X010390Y016196D01*
X010390Y016147D02*
X010680Y016147D01*
X010680Y016099D02*
X010680Y016196D01*
X010680Y016295D02*
X010390Y016295D01*
X010680Y016489D01*
X010390Y016489D01*
X017304Y024870D02*
X017401Y024870D01*
X017450Y024918D01*
X017450Y025015D01*
X017353Y025015D01*
X017450Y025112D02*
X017401Y025160D01*
X017304Y025160D01*
X017256Y025112D01*
X017256Y024918D01*
X017304Y024870D01*
X017551Y024870D02*
X017551Y025160D01*
X017744Y024870D01*
X017744Y025160D01*
X017845Y025160D02*
X017845Y024870D01*
X017990Y024870D01*
X018039Y024918D01*
X018039Y025112D01*
X017990Y025160D01*
X017845Y025160D01*
X018306Y025112D02*
X018306Y024918D01*
X018354Y024870D01*
X018451Y024870D01*
X018500Y024918D01*
X018500Y025112D02*
X018451Y025160D01*
X018354Y025160D01*
X018306Y025112D01*
X018601Y025160D02*
X018794Y025160D01*
X018697Y025160D02*
X018697Y024870D01*
X018895Y024918D02*
X018944Y024870D01*
X019040Y024870D01*
X019089Y024918D01*
X019089Y024967D01*
X019040Y025015D01*
X018944Y025015D01*
X018895Y025063D01*
X018895Y025112D01*
X018944Y025160D01*
X019040Y025160D01*
X019089Y025112D01*
X019356Y025160D02*
X019356Y024967D01*
X019453Y024870D01*
X019550Y024967D01*
X019550Y025160D01*
X019651Y025112D02*
X019651Y024918D01*
X019699Y024870D01*
X019796Y024870D01*
X019844Y024918D01*
X019945Y024918D02*
X019994Y024870D01*
X020090Y024870D01*
X020139Y024918D01*
X019945Y024918D02*
X019945Y025112D01*
X019994Y025160D01*
X020090Y025160D01*
X020139Y025112D01*
X020406Y025160D02*
X020406Y024870D01*
X020406Y024967D02*
X020551Y024967D01*
X020600Y025015D01*
X020600Y025112D01*
X020551Y025160D01*
X020406Y025160D01*
X020503Y024967D02*
X020600Y024870D01*
X020701Y024870D02*
X020894Y025160D01*
X020995Y025160D02*
X020995Y024870D01*
X021140Y024870D01*
X021189Y024918D01*
X021189Y025112D01*
X021140Y025160D01*
X020995Y025160D01*
X020701Y025160D02*
X020894Y024870D01*
X021406Y025160D02*
X021600Y025160D01*
X021503Y025160D02*
X021503Y024870D01*
X021701Y024870D02*
X021894Y025160D01*
X021995Y025160D02*
X022140Y025160D01*
X022189Y025112D01*
X022189Y024918D01*
X022140Y024870D01*
X021995Y024870D01*
X021995Y025160D01*
X021701Y025160D02*
X021894Y024870D01*
X022456Y024870D02*
X022456Y025160D01*
X022601Y025160D01*
X022650Y025112D01*
X022650Y024918D01*
X022601Y024870D01*
X022456Y024870D01*
X022847Y024870D02*
X022847Y025160D01*
X022751Y025160D02*
X022944Y025160D01*
X023045Y025160D02*
X023190Y025160D01*
X023239Y025112D01*
X023239Y025015D01*
X023190Y024967D01*
X023045Y024967D01*
X023045Y024870D02*
X023045Y025160D01*
X023142Y024967D02*
X023239Y024870D01*
X019844Y025112D02*
X019796Y025160D01*
X019699Y025160D01*
X019651Y025112D01*
D14*
X019925Y016825D02*
X020025Y016625D01*
X019825Y016625D01*
X019925Y016825D01*
X013675Y016625D02*
X013475Y016625D01*
X013575Y016825D01*
X013675Y016625D01*
X019025Y005425D02*
X019125Y005225D01*
X018925Y005225D01*
X019025Y005425D01*
X005695Y000495D02*
X005495Y000495D01*
X005595Y000695D01*
X005695Y000495D01*
D15*
X026025Y024375D02*
X026025Y025303D01*
X026801Y025303D01*
X026801Y024373D01*
X026527Y024373D01*
X026527Y024647D01*
X026577Y024671D01*
X026577Y024955D01*
X026529Y024995D01*
X026499Y024995D01*
X026499Y025113D01*
X026477Y025135D01*
X026351Y025135D01*
X026323Y025109D01*
X026323Y025017D01*
X026301Y025017D01*
X026301Y024995D01*
X026323Y024995D01*
X026497Y024995D01*
X026497Y025011D01*
X026297Y025011D01*
X026297Y024993D01*
X026249Y024953D01*
X026249Y024671D01*
X026299Y024645D01*
X026299Y024375D01*
X026025Y024375D01*
X026025Y024383D02*
X026299Y024383D01*
X026299Y024391D02*
X026025Y024391D01*
X026025Y024400D02*
X026299Y024400D01*
X026299Y024408D02*
X026025Y024408D01*
X026025Y024417D02*
X026299Y024417D01*
X026299Y024425D02*
X026025Y024425D01*
X026025Y024434D02*
X026299Y024434D01*
X026299Y024442D02*
X026025Y024442D01*
X026025Y024451D02*
X026299Y024451D01*
X026299Y024459D02*
X026025Y024459D01*
X026025Y024468D02*
X026299Y024468D01*
X026299Y024476D02*
X026025Y024476D01*
X026025Y024485D02*
X026299Y024485D01*
X026299Y024493D02*
X026025Y024493D01*
X026025Y024502D02*
X026299Y024502D01*
X026299Y024510D02*
X026025Y024510D01*
X026025Y024519D02*
X026299Y024519D01*
X026299Y024527D02*
X026025Y024527D01*
X026025Y024536D02*
X026299Y024536D01*
X026299Y024544D02*
X026025Y024544D01*
X026025Y024553D02*
X026299Y024553D01*
X026299Y024561D02*
X026025Y024561D01*
X026025Y024570D02*
X026299Y024570D01*
X026299Y024578D02*
X026025Y024578D01*
X026025Y024587D02*
X026299Y024587D01*
X026299Y024595D02*
X026025Y024595D01*
X026025Y024604D02*
X026299Y024604D01*
X026299Y024612D02*
X026025Y024612D01*
X026025Y024621D02*
X026299Y024621D01*
X026299Y024629D02*
X026025Y024629D01*
X026025Y024638D02*
X026299Y024638D01*
X026297Y024646D02*
X026025Y024646D01*
X026025Y024655D02*
X026280Y024655D01*
X026264Y024663D02*
X026025Y024663D01*
X026025Y024672D02*
X026249Y024672D01*
X026249Y024680D02*
X026025Y024680D01*
X026025Y024689D02*
X026249Y024689D01*
X026249Y024697D02*
X026025Y024697D01*
X026025Y024706D02*
X026249Y024706D01*
X026249Y024714D02*
X026025Y024714D01*
X026025Y024723D02*
X026249Y024723D01*
X026249Y024731D02*
X026025Y024731D01*
X026025Y024740D02*
X026249Y024740D01*
X026249Y024748D02*
X026025Y024748D01*
X026025Y024757D02*
X026249Y024757D01*
X026249Y024765D02*
X026025Y024765D01*
X026025Y024774D02*
X026249Y024774D01*
X026249Y024782D02*
X026025Y024782D01*
X026025Y024791D02*
X026249Y024791D01*
X026249Y024799D02*
X026025Y024799D01*
X026025Y024808D02*
X026249Y024808D01*
X026249Y024816D02*
X026025Y024816D01*
X026025Y024825D02*
X026249Y024825D01*
X026249Y024833D02*
X026025Y024833D01*
X026025Y024842D02*
X026249Y024842D01*
X026249Y024850D02*
X026025Y024850D01*
X026025Y024859D02*
X026249Y024859D01*
X026249Y024867D02*
X026025Y024867D01*
X026025Y024876D02*
X026249Y024876D01*
X026249Y024884D02*
X026025Y024884D01*
X026025Y024893D02*
X026249Y024893D01*
X026249Y024901D02*
X026025Y024901D01*
X026025Y024910D02*
X026249Y024910D01*
X026249Y024918D02*
X026025Y024918D01*
X026025Y024927D02*
X026249Y024927D01*
X026249Y024935D02*
X026025Y024935D01*
X026025Y024944D02*
X026249Y024944D01*
X026249Y024952D02*
X026025Y024952D01*
X026025Y024961D02*
X026258Y024961D01*
X026268Y024969D02*
X026025Y024969D01*
X026025Y024978D02*
X026279Y024978D01*
X026289Y024986D02*
X026025Y024986D01*
X026025Y024995D02*
X026297Y024995D01*
X026297Y025003D02*
X026025Y025003D01*
X026025Y025012D02*
X026301Y025012D01*
X026301Y025003D02*
X026497Y025003D01*
X026499Y025003D02*
X026801Y025003D01*
X026801Y024995D02*
X026529Y024995D01*
X026540Y024986D02*
X026801Y024986D01*
X026801Y024978D02*
X026550Y024978D01*
X026560Y024969D02*
X026801Y024969D01*
X026801Y024961D02*
X026570Y024961D01*
X026577Y024952D02*
X026801Y024952D01*
X026801Y024944D02*
X026577Y024944D01*
X026577Y024935D02*
X026801Y024935D01*
X026801Y024927D02*
X026577Y024927D01*
X026577Y024918D02*
X026801Y024918D01*
X026801Y024910D02*
X026577Y024910D01*
X026577Y024901D02*
X026801Y024901D01*
X026801Y024893D02*
X026577Y024893D01*
X026577Y024884D02*
X026801Y024884D01*
X026801Y024876D02*
X026577Y024876D01*
X026577Y024867D02*
X026801Y024867D01*
X026801Y024859D02*
X026577Y024859D01*
X026577Y024850D02*
X026801Y024850D01*
X026801Y024842D02*
X026577Y024842D01*
X026577Y024833D02*
X026801Y024833D01*
X026801Y024825D02*
X026577Y024825D01*
X026577Y024816D02*
X026801Y024816D01*
X026801Y024808D02*
X026577Y024808D01*
X026577Y024799D02*
X026801Y024799D01*
X026801Y024791D02*
X026577Y024791D01*
X026577Y024782D02*
X026801Y024782D01*
X026801Y024774D02*
X026577Y024774D01*
X026577Y024765D02*
X026801Y024765D01*
X026801Y024757D02*
X026577Y024757D01*
X026577Y024748D02*
X026801Y024748D01*
X026801Y024740D02*
X026577Y024740D01*
X026577Y024731D02*
X026801Y024731D01*
X026801Y024723D02*
X026577Y024723D01*
X026577Y024714D02*
X026801Y024714D01*
X026801Y024706D02*
X026577Y024706D01*
X026577Y024697D02*
X026801Y024697D01*
X026801Y024689D02*
X026577Y024689D01*
X026577Y024680D02*
X026801Y024680D01*
X026801Y024672D02*
X026577Y024672D01*
X026561Y024663D02*
X026801Y024663D01*
X026801Y024655D02*
X026543Y024655D01*
X026527Y024646D02*
X026801Y024646D01*
X026801Y024638D02*
X026527Y024638D01*
X026527Y024629D02*
X026801Y024629D01*
X026801Y024621D02*
X026527Y024621D01*
X026527Y024612D02*
X026801Y024612D01*
X026801Y024604D02*
X026527Y024604D01*
X026527Y024595D02*
X026801Y024595D01*
X026801Y024587D02*
X026527Y024587D01*
X026527Y024578D02*
X026801Y024578D01*
X026801Y024570D02*
X026527Y024570D01*
X026527Y024561D02*
X026801Y024561D01*
X026801Y024553D02*
X026527Y024553D01*
X026527Y024544D02*
X026801Y024544D01*
X026801Y024536D02*
X026527Y024536D01*
X026527Y024527D02*
X026801Y024527D01*
X026801Y024519D02*
X026527Y024519D01*
X026527Y024510D02*
X026801Y024510D01*
X026801Y024502D02*
X026527Y024502D01*
X026527Y024493D02*
X026801Y024493D01*
X026801Y024485D02*
X026527Y024485D01*
X026527Y024476D02*
X026801Y024476D01*
X026801Y024468D02*
X026527Y024468D01*
X026527Y024459D02*
X026801Y024459D01*
X026801Y024451D02*
X026527Y024451D01*
X026527Y024442D02*
X026801Y024442D01*
X026801Y024434D02*
X026527Y024434D01*
X026527Y024425D02*
X026801Y024425D01*
X026801Y024417D02*
X026527Y024417D01*
X026527Y024408D02*
X026801Y024408D01*
X026801Y024400D02*
X026527Y024400D01*
X026527Y024391D02*
X026801Y024391D01*
X026801Y024383D02*
X026527Y024383D01*
X026527Y024374D02*
X026801Y024374D01*
X026801Y025012D02*
X026499Y025012D01*
X026499Y025020D02*
X026801Y025020D01*
X026801Y025029D02*
X026499Y025029D01*
X026499Y025037D02*
X026801Y025037D01*
X026801Y025046D02*
X026499Y025046D01*
X026499Y025054D02*
X026801Y025054D01*
X026801Y025063D02*
X026499Y025063D01*
X026499Y025071D02*
X026801Y025071D01*
X026801Y025080D02*
X026499Y025080D01*
X026499Y025088D02*
X026801Y025088D01*
X026801Y025097D02*
X026499Y025097D01*
X026499Y025105D02*
X026801Y025105D01*
X026801Y025114D02*
X026498Y025114D01*
X026490Y025122D02*
X026801Y025122D01*
X026801Y025131D02*
X026481Y025131D01*
X026346Y025131D02*
X026025Y025131D01*
X026025Y025139D02*
X026801Y025139D01*
X026801Y025148D02*
X026025Y025148D01*
X026025Y025156D02*
X026801Y025156D01*
X026801Y025165D02*
X026025Y025165D01*
X026025Y025173D02*
X026801Y025173D01*
X026801Y025182D02*
X026025Y025182D01*
X026025Y025190D02*
X026801Y025190D01*
X026801Y025199D02*
X026025Y025199D01*
X026025Y025207D02*
X026801Y025207D01*
X026801Y025216D02*
X026025Y025216D01*
X026025Y025224D02*
X026801Y025224D01*
X026801Y025233D02*
X026025Y025233D01*
X026025Y025241D02*
X026801Y025241D01*
X026801Y025250D02*
X026025Y025250D01*
X026025Y025258D02*
X026801Y025258D01*
X026801Y025267D02*
X026025Y025267D01*
X026025Y025275D02*
X026801Y025275D01*
X026801Y025284D02*
X026025Y025284D01*
X026025Y025292D02*
X026801Y025292D01*
X026801Y025301D02*
X026025Y025301D01*
X026025Y025122D02*
X026337Y025122D01*
X026328Y025114D02*
X026025Y025114D01*
X026025Y025105D02*
X026323Y025105D01*
X026323Y025097D02*
X026025Y025097D01*
X026025Y025088D02*
X026323Y025088D01*
X026323Y025080D02*
X026025Y025080D01*
X026025Y025071D02*
X026323Y025071D01*
X026323Y025063D02*
X026025Y025063D01*
X026025Y025054D02*
X026323Y025054D01*
X026323Y025046D02*
X026025Y025046D01*
X026025Y025037D02*
X026323Y025037D01*
X026323Y025029D02*
X026025Y025029D01*
X026025Y025020D02*
X026323Y025020D01*
D16*
X028075Y024725D02*
X028125Y024725D01*
X028325Y024725D02*
X028375Y024725D01*
X028375Y023675D02*
X028325Y023675D01*
X028125Y023675D02*
X028075Y023675D01*
X023425Y020175D02*
X023425Y017875D01*
X019425Y017875D01*
X019425Y018625D01*
X019464Y018627D01*
X019503Y018633D01*
X019541Y018642D01*
X019578Y018655D01*
X019614Y018672D01*
X019647Y018692D01*
X019679Y018716D01*
X019708Y018742D01*
X019734Y018771D01*
X019758Y018803D01*
X019778Y018836D01*
X019795Y018872D01*
X019808Y018909D01*
X019817Y018947D01*
X019823Y018986D01*
X019825Y019025D01*
X019823Y019064D01*
X019817Y019103D01*
X019808Y019141D01*
X019795Y019178D01*
X019778Y019214D01*
X019758Y019247D01*
X019734Y019279D01*
X019708Y019308D01*
X019679Y019334D01*
X019647Y019358D01*
X019614Y019378D01*
X019578Y019395D01*
X019541Y019408D01*
X019503Y019417D01*
X019464Y019423D01*
X019425Y019425D01*
X019425Y020175D01*
X023425Y020175D01*
X017125Y020175D02*
X017125Y017875D01*
X013125Y017875D01*
X013125Y018625D01*
X013164Y018627D01*
X013203Y018633D01*
X013241Y018642D01*
X013278Y018655D01*
X013314Y018672D01*
X013347Y018692D01*
X013379Y018716D01*
X013408Y018742D01*
X013434Y018771D01*
X013458Y018803D01*
X013478Y018836D01*
X013495Y018872D01*
X013508Y018909D01*
X013517Y018947D01*
X013523Y018986D01*
X013525Y019025D01*
X013523Y019064D01*
X013517Y019103D01*
X013508Y019141D01*
X013495Y019178D01*
X013478Y019214D01*
X013458Y019247D01*
X013434Y019279D01*
X013408Y019308D01*
X013379Y019334D01*
X013347Y019358D01*
X013314Y019378D01*
X013278Y019395D01*
X013241Y019408D01*
X013203Y019417D01*
X013164Y019423D01*
X013125Y019425D01*
X013125Y020175D01*
X017125Y020175D01*
X016639Y022122D02*
X016639Y027634D01*
X012111Y027634D01*
X012111Y022122D01*
X016639Y022122D01*
X011562Y021505D02*
X010184Y021505D01*
X009003Y021505D02*
X006247Y021505D01*
X005066Y021505D02*
X003688Y021505D01*
X003688Y027725D01*
X011562Y027725D01*
X011562Y021505D01*
X005175Y012425D02*
X001075Y012425D01*
X001075Y007525D01*
X001425Y007525D01*
X001425Y006925D01*
X001075Y006925D01*
X001075Y006175D01*
X005175Y006175D01*
X005175Y006925D01*
X004825Y006925D01*
X004825Y007525D01*
X005175Y007525D01*
X005175Y012425D01*
X002415Y007525D02*
X002417Y007578D01*
X002423Y007631D01*
X002433Y007683D01*
X002447Y007734D01*
X002464Y007784D01*
X002485Y007833D01*
X002510Y007880D01*
X002538Y007925D01*
X002570Y007968D01*
X002605Y008008D01*
X002642Y008045D01*
X002682Y008080D01*
X002725Y008112D01*
X002770Y008140D01*
X002817Y008165D01*
X002866Y008186D01*
X002916Y008203D01*
X002967Y008217D01*
X003019Y008227D01*
X003072Y008233D01*
X003125Y008235D01*
X003178Y008233D01*
X003231Y008227D01*
X003283Y008217D01*
X003334Y008203D01*
X003384Y008186D01*
X003433Y008165D01*
X003480Y008140D01*
X003525Y008112D01*
X003568Y008080D01*
X003608Y008045D01*
X003645Y008008D01*
X003680Y007968D01*
X003712Y007925D01*
X003740Y007880D01*
X003765Y007833D01*
X003786Y007784D01*
X003803Y007734D01*
X003817Y007683D01*
X003827Y007631D01*
X003833Y007578D01*
X003835Y007525D01*
X003833Y007472D01*
X003827Y007419D01*
X003817Y007367D01*
X003803Y007316D01*
X003786Y007266D01*
X003765Y007217D01*
X003740Y007170D01*
X003712Y007125D01*
X003680Y007082D01*
X003645Y007042D01*
X003608Y007005D01*
X003568Y006970D01*
X003525Y006938D01*
X003480Y006910D01*
X003433Y006885D01*
X003384Y006864D01*
X003334Y006847D01*
X003283Y006833D01*
X003231Y006823D01*
X003178Y006817D01*
X003125Y006815D01*
X003072Y006817D01*
X003019Y006823D01*
X002967Y006833D01*
X002916Y006847D01*
X002866Y006864D01*
X002817Y006885D01*
X002770Y006910D01*
X002725Y006938D01*
X002682Y006970D01*
X002642Y007005D01*
X002605Y007042D01*
X002570Y007082D01*
X002538Y007125D01*
X002510Y007170D01*
X002485Y007217D01*
X002464Y007266D01*
X002447Y007316D01*
X002433Y007367D01*
X002423Y007419D01*
X002417Y007472D01*
X002415Y007525D01*
X034475Y006425D02*
X034475Y008825D01*
X034477Y008875D01*
X034483Y008924D01*
X034492Y008973D01*
X034505Y009021D01*
X034522Y009068D01*
X034542Y009113D01*
X034566Y009157D01*
X034593Y009199D01*
X034624Y009239D01*
X034657Y009276D01*
X034693Y009310D01*
X034731Y009342D01*
X034772Y009371D01*
X034814Y009396D01*
X034859Y009418D01*
X034905Y009437D01*
X034953Y009452D01*
X035001Y009463D01*
X035050Y009471D01*
X035100Y009475D01*
X035150Y009475D01*
X035200Y009471D01*
X035249Y009463D01*
X035297Y009452D01*
X035345Y009437D01*
X035391Y009418D01*
X035436Y009396D01*
X035478Y009371D01*
X035519Y009342D01*
X035557Y009310D01*
X035593Y009276D01*
X035626Y009239D01*
X035657Y009199D01*
X035684Y009157D01*
X035708Y009113D01*
X035728Y009068D01*
X035745Y009021D01*
X035758Y008973D01*
X035767Y008924D01*
X035773Y008875D01*
X035775Y008825D01*
X035775Y006425D01*
X035773Y006375D01*
X035767Y006326D01*
X035758Y006277D01*
X035745Y006229D01*
X035728Y006182D01*
X035708Y006137D01*
X035684Y006093D01*
X035657Y006051D01*
X035626Y006011D01*
X035593Y005974D01*
X035557Y005940D01*
X035519Y005908D01*
X035478Y005879D01*
X035436Y005854D01*
X035391Y005832D01*
X035345Y005813D01*
X035297Y005798D01*
X035249Y005787D01*
X035200Y005779D01*
X035150Y005775D01*
X035100Y005775D01*
X035050Y005779D01*
X035001Y005787D01*
X034953Y005798D01*
X034905Y005813D01*
X034859Y005832D01*
X034814Y005854D01*
X034772Y005879D01*
X034731Y005908D01*
X034693Y005940D01*
X034657Y005974D01*
X034624Y006011D01*
X034593Y006051D01*
X034566Y006093D01*
X034542Y006137D01*
X034522Y006182D01*
X034505Y006229D01*
X034492Y006277D01*
X034483Y006326D01*
X034477Y006375D01*
X034475Y006425D01*
X035125Y007125D02*
X035125Y007375D01*
X035425Y007375D01*
X035425Y007525D02*
X034825Y007525D01*
X034825Y007725D01*
X035425Y007725D01*
X035425Y007525D01*
X035125Y007375D02*
X034825Y007375D01*
X034825Y007875D02*
X035125Y007875D01*
X035125Y008125D01*
X035125Y007875D02*
X035425Y007875D01*
X037475Y008575D02*
X037525Y008575D01*
X037725Y008575D02*
X037775Y008575D01*
X037775Y006675D02*
X037725Y006675D01*
X037525Y006675D02*
X037475Y006675D01*
X035425Y020675D02*
X035425Y020725D01*
X035425Y020925D02*
X035425Y020975D01*
D17*
X004925Y012175D02*
X004925Y008925D01*
X001325Y008925D01*
X001325Y012175D01*
X004925Y012175D01*
D18*
X004125Y012600D03*
X003125Y012600D03*
X002125Y012600D03*
D19*
X005083Y016654D02*
X013083Y016654D01*
X013083Y017654D01*
X005083Y017654D01*
X005083Y016654D01*
X004525Y017775D02*
X004125Y017775D01*
X002841Y018325D02*
X002843Y018387D01*
X002849Y018450D01*
X002859Y018511D01*
X002873Y018572D01*
X002890Y018632D01*
X002911Y018691D01*
X002937Y018748D01*
X002965Y018803D01*
X002997Y018857D01*
X003033Y018908D01*
X003071Y018958D01*
X003113Y019004D01*
X003157Y019048D01*
X003205Y019089D01*
X003254Y019127D01*
X003306Y019161D01*
X003360Y019192D01*
X003416Y019220D01*
X003474Y019244D01*
X003533Y019265D01*
X003593Y019281D01*
X003654Y019294D01*
X003716Y019303D01*
X003778Y019308D01*
X003841Y019309D01*
X003903Y019306D01*
X003965Y019299D01*
X004027Y019288D01*
X004087Y019273D01*
X004147Y019255D01*
X004205Y019233D01*
X004262Y019207D01*
X004317Y019177D01*
X004370Y019144D01*
X004421Y019108D01*
X004469Y019069D01*
X004515Y019026D01*
X004558Y018981D01*
X004598Y018933D01*
X004635Y018883D01*
X004669Y018830D01*
X004700Y018776D01*
X004726Y018720D01*
X004750Y018662D01*
X004769Y018602D01*
X004785Y018542D01*
X004797Y018480D01*
X004805Y018419D01*
X004809Y018356D01*
X004809Y018294D01*
X004805Y018231D01*
X004797Y018170D01*
X004785Y018108D01*
X004769Y018048D01*
X004750Y017988D01*
X004726Y017930D01*
X004700Y017874D01*
X004669Y017820D01*
X004635Y017767D01*
X004598Y017717D01*
X004558Y017669D01*
X004515Y017624D01*
X004469Y017581D01*
X004421Y017542D01*
X004370Y017506D01*
X004317Y017473D01*
X004262Y017443D01*
X004205Y017417D01*
X004147Y017395D01*
X004087Y017377D01*
X004027Y017362D01*
X003965Y017351D01*
X003903Y017344D01*
X003841Y017341D01*
X003778Y017342D01*
X003716Y017347D01*
X003654Y017356D01*
X003593Y017369D01*
X003533Y017385D01*
X003474Y017406D01*
X003416Y017430D01*
X003360Y017458D01*
X003306Y017489D01*
X003254Y017523D01*
X003205Y017561D01*
X003157Y017602D01*
X003113Y017646D01*
X003071Y017692D01*
X003033Y017742D01*
X002997Y017793D01*
X002965Y017847D01*
X002937Y017902D01*
X002911Y017959D01*
X002890Y018018D01*
X002873Y018078D01*
X002859Y018139D01*
X002849Y018200D01*
X002843Y018263D01*
X002841Y018325D01*
X001981Y017986D02*
X001981Y022564D01*
X000269Y022564D01*
X000269Y017986D01*
X001981Y017986D01*
X004125Y019875D02*
X004525Y019875D01*
X002841Y020425D02*
X002843Y020487D01*
X002849Y020550D01*
X002859Y020611D01*
X002873Y020672D01*
X002890Y020732D01*
X002911Y020791D01*
X002937Y020848D01*
X002965Y020903D01*
X002997Y020957D01*
X003033Y021008D01*
X003071Y021058D01*
X003113Y021104D01*
X003157Y021148D01*
X003205Y021189D01*
X003254Y021227D01*
X003306Y021261D01*
X003360Y021292D01*
X003416Y021320D01*
X003474Y021344D01*
X003533Y021365D01*
X003593Y021381D01*
X003654Y021394D01*
X003716Y021403D01*
X003778Y021408D01*
X003841Y021409D01*
X003903Y021406D01*
X003965Y021399D01*
X004027Y021388D01*
X004087Y021373D01*
X004147Y021355D01*
X004205Y021333D01*
X004262Y021307D01*
X004317Y021277D01*
X004370Y021244D01*
X004421Y021208D01*
X004469Y021169D01*
X004515Y021126D01*
X004558Y021081D01*
X004598Y021033D01*
X004635Y020983D01*
X004669Y020930D01*
X004700Y020876D01*
X004726Y020820D01*
X004750Y020762D01*
X004769Y020702D01*
X004785Y020642D01*
X004797Y020580D01*
X004805Y020519D01*
X004809Y020456D01*
X004809Y020394D01*
X004805Y020331D01*
X004797Y020270D01*
X004785Y020208D01*
X004769Y020148D01*
X004750Y020088D01*
X004726Y020030D01*
X004700Y019974D01*
X004669Y019920D01*
X004635Y019867D01*
X004598Y019817D01*
X004558Y019769D01*
X004515Y019724D01*
X004469Y019681D01*
X004421Y019642D01*
X004370Y019606D01*
X004317Y019573D01*
X004262Y019543D01*
X004205Y019517D01*
X004147Y019495D01*
X004087Y019477D01*
X004027Y019462D01*
X003965Y019451D01*
X003903Y019444D01*
X003841Y019441D01*
X003778Y019442D01*
X003716Y019447D01*
X003654Y019456D01*
X003593Y019469D01*
X003533Y019485D01*
X003474Y019506D01*
X003416Y019530D01*
X003360Y019558D01*
X003306Y019589D01*
X003254Y019623D01*
X003205Y019661D01*
X003157Y019702D01*
X003113Y019746D01*
X003071Y019792D01*
X003033Y019842D01*
X002997Y019893D01*
X002965Y019947D01*
X002937Y020002D01*
X002911Y020059D01*
X002890Y020118D01*
X002873Y020178D01*
X002859Y020239D01*
X002849Y020300D01*
X002843Y020363D01*
X002841Y020425D01*
X003014Y022647D02*
X000793Y022647D01*
X000793Y025403D01*
X000258Y025403D01*
X000258Y022647D01*
X000793Y022647D01*
X003014Y022647D02*
X003014Y025403D01*
X000793Y025403D01*
X006335Y018997D02*
X008815Y018997D01*
X008815Y018053D01*
X006335Y018053D01*
X006335Y018997D01*
X013375Y013725D02*
X013375Y013225D01*
X013575Y013975D02*
X015575Y013975D01*
X015575Y010975D01*
X013575Y010975D01*
X013575Y013975D01*
X016153Y015165D02*
X016153Y012685D01*
X017097Y012685D01*
X017097Y015165D01*
X016153Y015165D01*
X018886Y016027D02*
X018886Y014019D01*
X018847Y012719D02*
X018847Y011263D01*
X022745Y011263D01*
X022745Y012719D01*
X024150Y012719D02*
X024150Y011263D01*
X028048Y011263D01*
X028048Y012719D01*
X029453Y012719D02*
X029453Y011263D01*
X033351Y011263D01*
X033351Y012719D01*
X034756Y012669D02*
X034756Y011213D01*
X038654Y011213D01*
X038654Y012669D01*
X038694Y013969D02*
X038694Y015977D01*
X038654Y015977D02*
X038142Y015977D01*
X037276Y015977D02*
X037158Y015977D01*
X036292Y015977D02*
X036174Y015977D01*
X035308Y015977D02*
X034835Y015977D01*
X034796Y015977D02*
X034796Y013969D01*
X033390Y014019D02*
X033390Y016027D01*
X033351Y016027D02*
X032839Y016027D01*
X031973Y016027D02*
X031855Y016027D01*
X030989Y016027D02*
X030871Y016027D01*
X030005Y016027D02*
X029532Y016027D01*
X029493Y016027D02*
X029493Y014019D01*
X028087Y014019D02*
X028087Y016027D01*
X028048Y016027D02*
X027536Y016027D01*
X026670Y016027D02*
X026552Y016027D01*
X025686Y016027D02*
X025568Y016027D01*
X024701Y016027D02*
X024229Y016027D01*
X024190Y016027D02*
X024190Y014019D01*
X022784Y014019D02*
X022784Y016027D01*
X022745Y016027D02*
X022233Y016027D01*
X021367Y016027D02*
X021249Y016027D01*
X020382Y016027D02*
X020264Y016027D01*
X019398Y016027D02*
X018926Y016027D01*
X018697Y017835D02*
X017753Y017835D01*
X017753Y020315D01*
X018697Y020315D01*
X018697Y017835D01*
X019985Y021853D02*
X022465Y021853D01*
X022465Y022797D01*
X019985Y022797D01*
X019985Y021853D01*
X019485Y023553D02*
X021965Y023553D01*
X021965Y024497D01*
X019485Y024497D01*
X019485Y023553D01*
X017225Y025325D02*
X023225Y025325D01*
X023225Y026325D01*
X017225Y026325D01*
X017225Y025325D01*
X024325Y020025D02*
X024325Y018325D01*
X025120Y017975D02*
X025925Y017975D01*
X026725Y018325D02*
X026725Y020025D01*
X025925Y020375D02*
X025132Y020375D01*
X024825Y019175D02*
X024827Y019227D01*
X024833Y019279D01*
X024843Y019331D01*
X024856Y019381D01*
X024873Y019431D01*
X024894Y019479D01*
X024919Y019525D01*
X024947Y019569D01*
X024978Y019611D01*
X025012Y019651D01*
X025049Y019688D01*
X025089Y019722D01*
X025131Y019753D01*
X025175Y019781D01*
X025221Y019806D01*
X025269Y019827D01*
X025319Y019844D01*
X025369Y019857D01*
X025421Y019867D01*
X025473Y019873D01*
X025525Y019875D01*
X025577Y019873D01*
X025629Y019867D01*
X025681Y019857D01*
X025731Y019844D01*
X025781Y019827D01*
X025829Y019806D01*
X025875Y019781D01*
X025919Y019753D01*
X025961Y019722D01*
X026001Y019688D01*
X026038Y019651D01*
X026072Y019611D01*
X026103Y019569D01*
X026131Y019525D01*
X026156Y019479D01*
X026177Y019431D01*
X026194Y019381D01*
X026207Y019331D01*
X026217Y019279D01*
X026223Y019227D01*
X026225Y019175D01*
X026223Y019123D01*
X026217Y019071D01*
X026207Y019019D01*
X026194Y018969D01*
X026177Y018919D01*
X026156Y018871D01*
X026131Y018825D01*
X026103Y018781D01*
X026072Y018739D01*
X026038Y018699D01*
X026001Y018662D01*
X025961Y018628D01*
X025919Y018597D01*
X025875Y018569D01*
X025829Y018544D01*
X025781Y018523D01*
X025731Y018506D01*
X025681Y018493D01*
X025629Y018483D01*
X025577Y018477D01*
X025525Y018475D01*
X025473Y018477D01*
X025421Y018483D01*
X025369Y018493D01*
X025319Y018506D01*
X025269Y018523D01*
X025221Y018544D01*
X025175Y018569D01*
X025131Y018597D01*
X025089Y018628D01*
X025049Y018662D01*
X025012Y018699D01*
X024978Y018739D01*
X024947Y018781D01*
X024919Y018825D01*
X024894Y018871D01*
X024873Y018919D01*
X024856Y018969D01*
X024843Y019019D01*
X024833Y019071D01*
X024827Y019123D01*
X024825Y019175D01*
X028213Y017796D02*
X028213Y021694D01*
X029669Y021694D01*
X030969Y021654D02*
X032977Y021654D01*
X032977Y021615D02*
X032977Y021142D01*
X032977Y020276D02*
X032977Y020158D01*
X032977Y019292D02*
X032977Y019174D01*
X032977Y018308D02*
X032977Y017796D01*
X032977Y017756D02*
X030969Y017756D01*
X029669Y017796D02*
X028213Y017796D01*
X028365Y021903D02*
X025885Y021903D01*
X025885Y022847D01*
X028365Y022847D01*
X028365Y021903D01*
X029075Y023175D02*
X027375Y023175D01*
X027358Y023177D01*
X027341Y023181D01*
X027325Y023188D01*
X027311Y023198D01*
X027298Y023211D01*
X027288Y023225D01*
X027281Y023241D01*
X027277Y023258D01*
X027275Y023275D01*
X027275Y024075D01*
X027277Y024092D01*
X027281Y024109D01*
X027288Y024125D01*
X027298Y024139D01*
X027311Y024152D01*
X027325Y024162D01*
X027341Y024169D01*
X027358Y024173D01*
X027375Y024175D01*
X029075Y024175D01*
X029075Y024225D02*
X027375Y024225D01*
X027358Y024227D01*
X027341Y024231D01*
X027325Y024238D01*
X027311Y024248D01*
X027298Y024261D01*
X027288Y024275D01*
X027281Y024291D01*
X027277Y024308D01*
X027275Y024325D01*
X027275Y025125D01*
X027277Y025142D01*
X027281Y025159D01*
X027288Y025175D01*
X027298Y025189D01*
X027311Y025202D01*
X027325Y025212D01*
X027341Y025219D01*
X027358Y025223D01*
X027375Y025225D01*
X029075Y025225D01*
X029092Y025223D01*
X029109Y025219D01*
X029125Y025212D01*
X029139Y025202D01*
X029152Y025189D01*
X029162Y025175D01*
X029169Y025159D01*
X029173Y025142D01*
X029175Y025125D01*
X029175Y024325D01*
X029173Y024308D01*
X029169Y024291D01*
X029162Y024275D01*
X029152Y024261D01*
X029139Y024248D01*
X029125Y024238D01*
X029109Y024231D01*
X029092Y024227D01*
X029075Y024225D01*
X029075Y024175D02*
X029092Y024173D01*
X029109Y024169D01*
X029125Y024162D01*
X029139Y024152D01*
X029152Y024139D01*
X029162Y024125D01*
X029169Y024109D01*
X029173Y024092D01*
X029175Y024075D01*
X029175Y023275D01*
X029173Y023258D01*
X029169Y023241D01*
X029162Y023225D01*
X029152Y023211D01*
X029139Y023198D01*
X029125Y023188D01*
X029109Y023181D01*
X029092Y023177D01*
X029075Y023175D01*
X030475Y023725D02*
X030477Y023808D01*
X030483Y023891D01*
X030493Y023974D01*
X030507Y024056D01*
X030524Y024138D01*
X030546Y024218D01*
X030571Y024297D01*
X030600Y024375D01*
X030633Y024452D01*
X030670Y024527D01*
X030709Y024600D01*
X030753Y024671D01*
X030799Y024740D01*
X030849Y024807D01*
X030902Y024871D01*
X030958Y024933D01*
X031017Y024992D01*
X031079Y025048D01*
X031143Y025101D01*
X031210Y025151D01*
X031279Y025197D01*
X031350Y025241D01*
X031423Y025280D01*
X031498Y025317D01*
X031575Y025350D01*
X031653Y025379D01*
X031732Y025404D01*
X031812Y025426D01*
X031894Y025443D01*
X031976Y025457D01*
X032059Y025467D01*
X032142Y025473D01*
X032225Y025475D01*
X032308Y025473D01*
X032391Y025467D01*
X032474Y025457D01*
X032556Y025443D01*
X032638Y025426D01*
X032718Y025404D01*
X032797Y025379D01*
X032875Y025350D01*
X032952Y025317D01*
X033027Y025280D01*
X033100Y025241D01*
X033171Y025197D01*
X033240Y025151D01*
X033307Y025101D01*
X033371Y025048D01*
X033433Y024992D01*
X033492Y024933D01*
X033548Y024871D01*
X033601Y024807D01*
X033651Y024740D01*
X033697Y024671D01*
X033741Y024600D01*
X033780Y024527D01*
X033817Y024452D01*
X033850Y024375D01*
X033879Y024297D01*
X033904Y024218D01*
X033926Y024138D01*
X033943Y024056D01*
X033957Y023974D01*
X033967Y023891D01*
X033973Y023808D01*
X033975Y023725D01*
X033973Y023642D01*
X033967Y023559D01*
X033957Y023476D01*
X033943Y023394D01*
X033926Y023312D01*
X033904Y023232D01*
X033879Y023153D01*
X033850Y023075D01*
X033817Y022998D01*
X033780Y022923D01*
X033741Y022850D01*
X033697Y022779D01*
X033651Y022710D01*
X033601Y022643D01*
X033548Y022579D01*
X033492Y022517D01*
X033433Y022458D01*
X033371Y022402D01*
X033307Y022349D01*
X033240Y022299D01*
X033171Y022253D01*
X033100Y022209D01*
X033027Y022170D01*
X032952Y022133D01*
X032875Y022100D01*
X032797Y022071D01*
X032718Y022046D01*
X032638Y022024D01*
X032556Y022007D01*
X032474Y021993D01*
X032391Y021983D01*
X032308Y021977D01*
X032225Y021975D01*
X032142Y021977D01*
X032059Y021983D01*
X031976Y021993D01*
X031894Y022007D01*
X031812Y022024D01*
X031732Y022046D01*
X031653Y022071D01*
X031575Y022100D01*
X031498Y022133D01*
X031423Y022170D01*
X031350Y022209D01*
X031279Y022253D01*
X031210Y022299D01*
X031143Y022349D01*
X031079Y022402D01*
X031017Y022458D01*
X030958Y022517D01*
X030902Y022579D01*
X030849Y022643D01*
X030799Y022710D01*
X030753Y022779D01*
X030709Y022850D01*
X030670Y022923D01*
X030633Y022998D01*
X030600Y023075D01*
X030571Y023153D01*
X030546Y023232D01*
X030524Y023312D01*
X030507Y023394D01*
X030493Y023476D01*
X030483Y023559D01*
X030477Y023642D01*
X030475Y023725D01*
X034925Y021675D02*
X034925Y019975D01*
X034927Y019958D01*
X034931Y019941D01*
X034938Y019925D01*
X034948Y019911D01*
X034961Y019898D01*
X034975Y019888D01*
X034991Y019881D01*
X035008Y019877D01*
X035025Y019875D01*
X035825Y019875D01*
X035842Y019877D01*
X035859Y019881D01*
X035875Y019888D01*
X035889Y019898D01*
X035902Y019911D01*
X035912Y019925D01*
X035919Y019941D01*
X035923Y019958D01*
X035925Y019975D01*
X035925Y021675D01*
X035923Y021692D01*
X035919Y021709D01*
X035912Y021725D01*
X035902Y021739D01*
X035889Y021752D01*
X035875Y021762D01*
X035859Y021769D01*
X035842Y021773D01*
X035825Y021775D01*
X035025Y021775D01*
X035008Y021773D01*
X034991Y021769D01*
X034975Y021762D01*
X034961Y021752D01*
X034948Y021739D01*
X034938Y021725D01*
X034931Y021709D01*
X034927Y021692D01*
X034925Y021675D01*
X036353Y020565D02*
X037297Y020565D01*
X037297Y018085D01*
X036353Y018085D01*
X036353Y020565D01*
X035075Y023725D02*
X035077Y023808D01*
X035083Y023891D01*
X035093Y023974D01*
X035107Y024056D01*
X035124Y024138D01*
X035146Y024218D01*
X035171Y024297D01*
X035200Y024375D01*
X035233Y024452D01*
X035270Y024527D01*
X035309Y024600D01*
X035353Y024671D01*
X035399Y024740D01*
X035449Y024807D01*
X035502Y024871D01*
X035558Y024933D01*
X035617Y024992D01*
X035679Y025048D01*
X035743Y025101D01*
X035810Y025151D01*
X035879Y025197D01*
X035950Y025241D01*
X036023Y025280D01*
X036098Y025317D01*
X036175Y025350D01*
X036253Y025379D01*
X036332Y025404D01*
X036412Y025426D01*
X036494Y025443D01*
X036576Y025457D01*
X036659Y025467D01*
X036742Y025473D01*
X036825Y025475D01*
X036908Y025473D01*
X036991Y025467D01*
X037074Y025457D01*
X037156Y025443D01*
X037238Y025426D01*
X037318Y025404D01*
X037397Y025379D01*
X037475Y025350D01*
X037552Y025317D01*
X037627Y025280D01*
X037700Y025241D01*
X037771Y025197D01*
X037840Y025151D01*
X037907Y025101D01*
X037971Y025048D01*
X038033Y024992D01*
X038092Y024933D01*
X038148Y024871D01*
X038201Y024807D01*
X038251Y024740D01*
X038297Y024671D01*
X038341Y024600D01*
X038380Y024527D01*
X038417Y024452D01*
X038450Y024375D01*
X038479Y024297D01*
X038504Y024218D01*
X038526Y024138D01*
X038543Y024056D01*
X038557Y023974D01*
X038567Y023891D01*
X038573Y023808D01*
X038575Y023725D01*
X038573Y023642D01*
X038567Y023559D01*
X038557Y023476D01*
X038543Y023394D01*
X038526Y023312D01*
X038504Y023232D01*
X038479Y023153D01*
X038450Y023075D01*
X038417Y022998D01*
X038380Y022923D01*
X038341Y022850D01*
X038297Y022779D01*
X038251Y022710D01*
X038201Y022643D01*
X038148Y022579D01*
X038092Y022517D01*
X038033Y022458D01*
X037971Y022402D01*
X037907Y022349D01*
X037840Y022299D01*
X037771Y022253D01*
X037700Y022209D01*
X037627Y022170D01*
X037552Y022133D01*
X037475Y022100D01*
X037397Y022071D01*
X037318Y022046D01*
X037238Y022024D01*
X037156Y022007D01*
X037074Y021993D01*
X036991Y021983D01*
X036908Y021977D01*
X036825Y021975D01*
X036742Y021977D01*
X036659Y021983D01*
X036576Y021993D01*
X036494Y022007D01*
X036412Y022024D01*
X036332Y022046D01*
X036253Y022071D01*
X036175Y022100D01*
X036098Y022133D01*
X036023Y022170D01*
X035950Y022209D01*
X035879Y022253D01*
X035810Y022299D01*
X035743Y022349D01*
X035679Y022402D01*
X035617Y022458D01*
X035558Y022517D01*
X035502Y022579D01*
X035449Y022643D01*
X035399Y022710D01*
X035353Y022779D01*
X035309Y022850D01*
X035270Y022923D01*
X035233Y022998D01*
X035200Y023075D01*
X035171Y023153D01*
X035146Y023232D01*
X035124Y023312D01*
X035107Y023394D01*
X035093Y023476D01*
X035083Y023559D01*
X035077Y023642D01*
X035075Y023725D01*
X036775Y009075D02*
X038475Y009075D01*
X038492Y009073D01*
X038509Y009069D01*
X038525Y009062D01*
X038539Y009052D01*
X038552Y009039D01*
X038562Y009025D01*
X038569Y009009D01*
X038573Y008992D01*
X038575Y008975D01*
X038575Y008175D01*
X038573Y008158D01*
X038569Y008141D01*
X038562Y008125D01*
X038552Y008111D01*
X038539Y008098D01*
X038525Y008088D01*
X038509Y008081D01*
X038492Y008077D01*
X038475Y008075D01*
X036775Y008075D01*
X036758Y008077D01*
X036741Y008081D01*
X036725Y008088D01*
X036711Y008098D01*
X036698Y008111D01*
X036688Y008125D01*
X036681Y008141D01*
X036677Y008158D01*
X036675Y008175D01*
X036675Y008975D01*
X036677Y008992D01*
X036681Y009009D01*
X036688Y009025D01*
X036698Y009039D01*
X036711Y009052D01*
X036725Y009062D01*
X036741Y009069D01*
X036758Y009073D01*
X036775Y009075D01*
X036775Y007175D02*
X038475Y007175D01*
X038492Y007173D01*
X038509Y007169D01*
X038525Y007162D01*
X038539Y007152D01*
X038552Y007139D01*
X038562Y007125D01*
X038569Y007109D01*
X038573Y007092D01*
X038575Y007075D01*
X038575Y006275D01*
X038573Y006258D01*
X038569Y006241D01*
X038562Y006225D01*
X038552Y006211D01*
X038539Y006198D01*
X038525Y006188D01*
X038509Y006181D01*
X038492Y006177D01*
X038475Y006175D01*
X036775Y006175D01*
X036758Y006177D01*
X036741Y006181D01*
X036725Y006188D01*
X036711Y006198D01*
X036698Y006211D01*
X036688Y006225D01*
X036681Y006241D01*
X036677Y006258D01*
X036675Y006275D01*
X036675Y007075D01*
X036677Y007092D01*
X036681Y007109D01*
X036688Y007125D01*
X036698Y007139D01*
X036711Y007152D01*
X036725Y007162D01*
X036741Y007169D01*
X036758Y007173D01*
X036775Y007175D01*
X035530Y003775D02*
X034725Y003775D01*
X033925Y003425D02*
X033925Y001725D01*
X033325Y001725D02*
X033325Y003425D01*
X032530Y003775D02*
X031725Y003775D01*
X030925Y003425D02*
X030925Y001725D01*
X030325Y001725D02*
X030325Y003425D01*
X029530Y003775D02*
X028725Y003775D01*
X027925Y003425D02*
X027925Y001725D01*
X027325Y001725D02*
X027325Y003425D01*
X026530Y003775D02*
X025725Y003775D01*
X024925Y003425D02*
X024925Y001725D01*
X024325Y001725D02*
X024325Y003425D01*
X023530Y003775D02*
X022725Y003775D01*
X021925Y003425D02*
X021925Y001725D01*
X021325Y001725D02*
X021325Y003425D01*
X020530Y003775D02*
X019725Y003775D01*
X018925Y003425D02*
X018925Y001725D01*
X019725Y001375D02*
X020518Y001375D01*
X019425Y002575D02*
X019427Y002627D01*
X019433Y002679D01*
X019443Y002731D01*
X019456Y002781D01*
X019473Y002831D01*
X019494Y002879D01*
X019519Y002925D01*
X019547Y002969D01*
X019578Y003011D01*
X019612Y003051D01*
X019649Y003088D01*
X019689Y003122D01*
X019731Y003153D01*
X019775Y003181D01*
X019821Y003206D01*
X019869Y003227D01*
X019919Y003244D01*
X019969Y003257D01*
X020021Y003267D01*
X020073Y003273D01*
X020125Y003275D01*
X020177Y003273D01*
X020229Y003267D01*
X020281Y003257D01*
X020331Y003244D01*
X020381Y003227D01*
X020429Y003206D01*
X020475Y003181D01*
X020519Y003153D01*
X020561Y003122D01*
X020601Y003088D01*
X020638Y003051D01*
X020672Y003011D01*
X020703Y002969D01*
X020731Y002925D01*
X020756Y002879D01*
X020777Y002831D01*
X020794Y002781D01*
X020807Y002731D01*
X020817Y002679D01*
X020823Y002627D01*
X020825Y002575D01*
X020823Y002523D01*
X020817Y002471D01*
X020807Y002419D01*
X020794Y002369D01*
X020777Y002319D01*
X020756Y002271D01*
X020731Y002225D01*
X020703Y002181D01*
X020672Y002139D01*
X020638Y002099D01*
X020601Y002062D01*
X020561Y002028D01*
X020519Y001997D01*
X020475Y001969D01*
X020429Y001944D01*
X020381Y001923D01*
X020331Y001906D01*
X020281Y001893D01*
X020229Y001883D01*
X020177Y001877D01*
X020125Y001875D01*
X020073Y001877D01*
X020021Y001883D01*
X019969Y001893D01*
X019919Y001906D01*
X019869Y001923D01*
X019821Y001944D01*
X019775Y001969D01*
X019731Y001997D01*
X019689Y002028D01*
X019649Y002062D01*
X019612Y002099D01*
X019578Y002139D01*
X019547Y002181D01*
X019519Y002225D01*
X019494Y002271D01*
X019473Y002319D01*
X019456Y002369D01*
X019443Y002419D01*
X019433Y002471D01*
X019427Y002523D01*
X019425Y002575D01*
X022725Y001375D02*
X023518Y001375D01*
X022425Y002575D02*
X022427Y002627D01*
X022433Y002679D01*
X022443Y002731D01*
X022456Y002781D01*
X022473Y002831D01*
X022494Y002879D01*
X022519Y002925D01*
X022547Y002969D01*
X022578Y003011D01*
X022612Y003051D01*
X022649Y003088D01*
X022689Y003122D01*
X022731Y003153D01*
X022775Y003181D01*
X022821Y003206D01*
X022869Y003227D01*
X022919Y003244D01*
X022969Y003257D01*
X023021Y003267D01*
X023073Y003273D01*
X023125Y003275D01*
X023177Y003273D01*
X023229Y003267D01*
X023281Y003257D01*
X023331Y003244D01*
X023381Y003227D01*
X023429Y003206D01*
X023475Y003181D01*
X023519Y003153D01*
X023561Y003122D01*
X023601Y003088D01*
X023638Y003051D01*
X023672Y003011D01*
X023703Y002969D01*
X023731Y002925D01*
X023756Y002879D01*
X023777Y002831D01*
X023794Y002781D01*
X023807Y002731D01*
X023817Y002679D01*
X023823Y002627D01*
X023825Y002575D01*
X023823Y002523D01*
X023817Y002471D01*
X023807Y002419D01*
X023794Y002369D01*
X023777Y002319D01*
X023756Y002271D01*
X023731Y002225D01*
X023703Y002181D01*
X023672Y002139D01*
X023638Y002099D01*
X023601Y002062D01*
X023561Y002028D01*
X023519Y001997D01*
X023475Y001969D01*
X023429Y001944D01*
X023381Y001923D01*
X023331Y001906D01*
X023281Y001893D01*
X023229Y001883D01*
X023177Y001877D01*
X023125Y001875D01*
X023073Y001877D01*
X023021Y001883D01*
X022969Y001893D01*
X022919Y001906D01*
X022869Y001923D01*
X022821Y001944D01*
X022775Y001969D01*
X022731Y001997D01*
X022689Y002028D01*
X022649Y002062D01*
X022612Y002099D01*
X022578Y002139D01*
X022547Y002181D01*
X022519Y002225D01*
X022494Y002271D01*
X022473Y002319D01*
X022456Y002369D01*
X022443Y002419D01*
X022433Y002471D01*
X022427Y002523D01*
X022425Y002575D01*
X025725Y001375D02*
X026518Y001375D01*
X025425Y002575D02*
X025427Y002627D01*
X025433Y002679D01*
X025443Y002731D01*
X025456Y002781D01*
X025473Y002831D01*
X025494Y002879D01*
X025519Y002925D01*
X025547Y002969D01*
X025578Y003011D01*
X025612Y003051D01*
X025649Y003088D01*
X025689Y003122D01*
X025731Y003153D01*
X025775Y003181D01*
X025821Y003206D01*
X025869Y003227D01*
X025919Y003244D01*
X025969Y003257D01*
X026021Y003267D01*
X026073Y003273D01*
X026125Y003275D01*
X026177Y003273D01*
X026229Y003267D01*
X026281Y003257D01*
X026331Y003244D01*
X026381Y003227D01*
X026429Y003206D01*
X026475Y003181D01*
X026519Y003153D01*
X026561Y003122D01*
X026601Y003088D01*
X026638Y003051D01*
X026672Y003011D01*
X026703Y002969D01*
X026731Y002925D01*
X026756Y002879D01*
X026777Y002831D01*
X026794Y002781D01*
X026807Y002731D01*
X026817Y002679D01*
X026823Y002627D01*
X026825Y002575D01*
X026823Y002523D01*
X026817Y002471D01*
X026807Y002419D01*
X026794Y002369D01*
X026777Y002319D01*
X026756Y002271D01*
X026731Y002225D01*
X026703Y002181D01*
X026672Y002139D01*
X026638Y002099D01*
X026601Y002062D01*
X026561Y002028D01*
X026519Y001997D01*
X026475Y001969D01*
X026429Y001944D01*
X026381Y001923D01*
X026331Y001906D01*
X026281Y001893D01*
X026229Y001883D01*
X026177Y001877D01*
X026125Y001875D01*
X026073Y001877D01*
X026021Y001883D01*
X025969Y001893D01*
X025919Y001906D01*
X025869Y001923D01*
X025821Y001944D01*
X025775Y001969D01*
X025731Y001997D01*
X025689Y002028D01*
X025649Y002062D01*
X025612Y002099D01*
X025578Y002139D01*
X025547Y002181D01*
X025519Y002225D01*
X025494Y002271D01*
X025473Y002319D01*
X025456Y002369D01*
X025443Y002419D01*
X025433Y002471D01*
X025427Y002523D01*
X025425Y002575D01*
X028725Y001375D02*
X029518Y001375D01*
X028425Y002575D02*
X028427Y002627D01*
X028433Y002679D01*
X028443Y002731D01*
X028456Y002781D01*
X028473Y002831D01*
X028494Y002879D01*
X028519Y002925D01*
X028547Y002969D01*
X028578Y003011D01*
X028612Y003051D01*
X028649Y003088D01*
X028689Y003122D01*
X028731Y003153D01*
X028775Y003181D01*
X028821Y003206D01*
X028869Y003227D01*
X028919Y003244D01*
X028969Y003257D01*
X029021Y003267D01*
X029073Y003273D01*
X029125Y003275D01*
X029177Y003273D01*
X029229Y003267D01*
X029281Y003257D01*
X029331Y003244D01*
X029381Y003227D01*
X029429Y003206D01*
X029475Y003181D01*
X029519Y003153D01*
X029561Y003122D01*
X029601Y003088D01*
X029638Y003051D01*
X029672Y003011D01*
X029703Y002969D01*
X029731Y002925D01*
X029756Y002879D01*
X029777Y002831D01*
X029794Y002781D01*
X029807Y002731D01*
X029817Y002679D01*
X029823Y002627D01*
X029825Y002575D01*
X029823Y002523D01*
X029817Y002471D01*
X029807Y002419D01*
X029794Y002369D01*
X029777Y002319D01*
X029756Y002271D01*
X029731Y002225D01*
X029703Y002181D01*
X029672Y002139D01*
X029638Y002099D01*
X029601Y002062D01*
X029561Y002028D01*
X029519Y001997D01*
X029475Y001969D01*
X029429Y001944D01*
X029381Y001923D01*
X029331Y001906D01*
X029281Y001893D01*
X029229Y001883D01*
X029177Y001877D01*
X029125Y001875D01*
X029073Y001877D01*
X029021Y001883D01*
X028969Y001893D01*
X028919Y001906D01*
X028869Y001923D01*
X028821Y001944D01*
X028775Y001969D01*
X028731Y001997D01*
X028689Y002028D01*
X028649Y002062D01*
X028612Y002099D01*
X028578Y002139D01*
X028547Y002181D01*
X028519Y002225D01*
X028494Y002271D01*
X028473Y002319D01*
X028456Y002369D01*
X028443Y002419D01*
X028433Y002471D01*
X028427Y002523D01*
X028425Y002575D01*
X031725Y001375D02*
X032518Y001375D01*
X031425Y002575D02*
X031427Y002627D01*
X031433Y002679D01*
X031443Y002731D01*
X031456Y002781D01*
X031473Y002831D01*
X031494Y002879D01*
X031519Y002925D01*
X031547Y002969D01*
X031578Y003011D01*
X031612Y003051D01*
X031649Y003088D01*
X031689Y003122D01*
X031731Y003153D01*
X031775Y003181D01*
X031821Y003206D01*
X031869Y003227D01*
X031919Y003244D01*
X031969Y003257D01*
X032021Y003267D01*
X032073Y003273D01*
X032125Y003275D01*
X032177Y003273D01*
X032229Y003267D01*
X032281Y003257D01*
X032331Y003244D01*
X032381Y003227D01*
X032429Y003206D01*
X032475Y003181D01*
X032519Y003153D01*
X032561Y003122D01*
X032601Y003088D01*
X032638Y003051D01*
X032672Y003011D01*
X032703Y002969D01*
X032731Y002925D01*
X032756Y002879D01*
X032777Y002831D01*
X032794Y002781D01*
X032807Y002731D01*
X032817Y002679D01*
X032823Y002627D01*
X032825Y002575D01*
X032823Y002523D01*
X032817Y002471D01*
X032807Y002419D01*
X032794Y002369D01*
X032777Y002319D01*
X032756Y002271D01*
X032731Y002225D01*
X032703Y002181D01*
X032672Y002139D01*
X032638Y002099D01*
X032601Y002062D01*
X032561Y002028D01*
X032519Y001997D01*
X032475Y001969D01*
X032429Y001944D01*
X032381Y001923D01*
X032331Y001906D01*
X032281Y001893D01*
X032229Y001883D01*
X032177Y001877D01*
X032125Y001875D01*
X032073Y001877D01*
X032021Y001883D01*
X031969Y001893D01*
X031919Y001906D01*
X031869Y001923D01*
X031821Y001944D01*
X031775Y001969D01*
X031731Y001997D01*
X031689Y002028D01*
X031649Y002062D01*
X031612Y002099D01*
X031578Y002139D01*
X031547Y002181D01*
X031519Y002225D01*
X031494Y002271D01*
X031473Y002319D01*
X031456Y002369D01*
X031443Y002419D01*
X031433Y002471D01*
X031427Y002523D01*
X031425Y002575D01*
X034725Y001375D02*
X035518Y001375D01*
X036325Y001725D02*
X036325Y003425D01*
X034425Y002575D02*
X034427Y002627D01*
X034433Y002679D01*
X034443Y002731D01*
X034456Y002781D01*
X034473Y002831D01*
X034494Y002879D01*
X034519Y002925D01*
X034547Y002969D01*
X034578Y003011D01*
X034612Y003051D01*
X034649Y003088D01*
X034689Y003122D01*
X034731Y003153D01*
X034775Y003181D01*
X034821Y003206D01*
X034869Y003227D01*
X034919Y003244D01*
X034969Y003257D01*
X035021Y003267D01*
X035073Y003273D01*
X035125Y003275D01*
X035177Y003273D01*
X035229Y003267D01*
X035281Y003257D01*
X035331Y003244D01*
X035381Y003227D01*
X035429Y003206D01*
X035475Y003181D01*
X035519Y003153D01*
X035561Y003122D01*
X035601Y003088D01*
X035638Y003051D01*
X035672Y003011D01*
X035703Y002969D01*
X035731Y002925D01*
X035756Y002879D01*
X035777Y002831D01*
X035794Y002781D01*
X035807Y002731D01*
X035817Y002679D01*
X035823Y002627D01*
X035825Y002575D01*
X035823Y002523D01*
X035817Y002471D01*
X035807Y002419D01*
X035794Y002369D01*
X035777Y002319D01*
X035756Y002271D01*
X035731Y002225D01*
X035703Y002181D01*
X035672Y002139D01*
X035638Y002099D01*
X035601Y002062D01*
X035561Y002028D01*
X035519Y001997D01*
X035475Y001969D01*
X035429Y001944D01*
X035381Y001923D01*
X035331Y001906D01*
X035281Y001893D01*
X035229Y001883D01*
X035177Y001877D01*
X035125Y001875D01*
X035073Y001877D01*
X035021Y001883D01*
X034969Y001893D01*
X034919Y001906D01*
X034869Y001923D01*
X034821Y001944D01*
X034775Y001969D01*
X034731Y001997D01*
X034689Y002028D01*
X034649Y002062D01*
X034612Y002099D01*
X034578Y002139D01*
X034547Y002181D01*
X034519Y002225D01*
X034494Y002271D01*
X034473Y002319D01*
X034456Y002369D01*
X034443Y002419D01*
X034433Y002471D01*
X034427Y002523D01*
X034425Y002575D01*
X032375Y006425D02*
X032336Y006425D01*
X032375Y006425D02*
X032375Y008825D01*
X032336Y008825D01*
X018714Y008825D02*
X018675Y008825D01*
X018675Y008125D01*
X018719Y008123D01*
X018762Y008117D01*
X018804Y008108D01*
X018846Y008095D01*
X018886Y008078D01*
X018925Y008058D01*
X018962Y008035D01*
X018996Y008008D01*
X019029Y007979D01*
X019058Y007946D01*
X019085Y007912D01*
X019108Y007875D01*
X019128Y007836D01*
X019145Y007796D01*
X019158Y007754D01*
X019167Y007712D01*
X019173Y007669D01*
X019175Y007625D01*
X019173Y007581D01*
X019167Y007538D01*
X019158Y007496D01*
X019145Y007454D01*
X019128Y007414D01*
X019108Y007375D01*
X019085Y007338D01*
X019058Y007304D01*
X019029Y007271D01*
X018996Y007242D01*
X018962Y007215D01*
X018925Y007192D01*
X018886Y007172D01*
X018846Y007155D01*
X018804Y007142D01*
X018762Y007133D01*
X018719Y007127D01*
X018675Y007125D01*
X018675Y006425D01*
X018714Y006425D01*
X013083Y001906D02*
X013083Y000906D01*
X005083Y000906D01*
X005083Y001906D01*
X013083Y001906D01*
D20*
X034275Y006425D02*
X034275Y008825D01*
X034277Y008882D01*
X034283Y008938D01*
X034292Y008994D01*
X034305Y009050D01*
X034322Y009104D01*
X034342Y009157D01*
X034366Y009208D01*
X034394Y009258D01*
X034424Y009306D01*
X034458Y009352D01*
X034495Y009395D01*
X034534Y009436D01*
X034576Y009474D01*
X034621Y009509D01*
X034668Y009541D01*
X034717Y009570D01*
X034767Y009596D01*
X034820Y009618D01*
X034873Y009637D01*
X034928Y009652D01*
X034984Y009663D01*
X035040Y009671D01*
X035097Y009675D01*
X035153Y009675D01*
X035210Y009671D01*
X035266Y009663D01*
X035322Y009652D01*
X035377Y009637D01*
X035430Y009618D01*
X035483Y009596D01*
X035533Y009570D01*
X035582Y009541D01*
X035629Y009509D01*
X035674Y009474D01*
X035716Y009436D01*
X035755Y009395D01*
X035792Y009352D01*
X035826Y009306D01*
X035856Y009258D01*
X035884Y009208D01*
X035908Y009157D01*
X035928Y009104D01*
X035945Y009050D01*
X035958Y008994D01*
X035967Y008938D01*
X035973Y008882D01*
X035975Y008825D01*
X035975Y006425D01*
X035973Y006368D01*
X035967Y006312D01*
X035958Y006256D01*
X035945Y006200D01*
X035928Y006146D01*
X035908Y006093D01*
X035884Y006042D01*
X035856Y005992D01*
X035826Y005944D01*
X035792Y005898D01*
X035755Y005855D01*
X035716Y005814D01*
X035674Y005776D01*
X035629Y005741D01*
X035582Y005709D01*
X035533Y005680D01*
X035483Y005654D01*
X035430Y005632D01*
X035377Y005613D01*
X035322Y005598D01*
X035266Y005587D01*
X035210Y005579D01*
X035153Y005575D01*
X035097Y005575D01*
X035040Y005579D01*
X034984Y005587D01*
X034928Y005598D01*
X034873Y005613D01*
X034820Y005632D01*
X034767Y005654D01*
X034717Y005680D01*
X034668Y005709D01*
X034621Y005741D01*
X034576Y005776D01*
X034534Y005814D01*
X034495Y005855D01*
X034458Y005898D01*
X034424Y005944D01*
X034394Y005992D01*
X034366Y006042D01*
X034342Y006093D01*
X034322Y006146D01*
X034305Y006200D01*
X034292Y006256D01*
X034283Y006312D01*
X034277Y006368D01*
X034275Y006425D01*
D21*
X037525Y006375D02*
X037525Y006675D01*
X037525Y006975D01*
X037725Y006975D02*
X037725Y006675D01*
X037725Y006375D01*
X037725Y008275D02*
X037725Y008575D01*
X037725Y008875D01*
X037525Y008875D02*
X037525Y008575D01*
X037525Y008275D01*
X035725Y020725D02*
X035425Y020725D01*
X035125Y020725D01*
X035125Y020925D02*
X035425Y020925D01*
X035725Y020925D01*
X028325Y023375D02*
X028325Y023675D01*
X028325Y023975D01*
X028125Y023975D02*
X028125Y023675D01*
X028125Y023375D01*
X028125Y024425D02*
X028125Y024725D01*
X028125Y025025D01*
X028325Y025025D02*
X028325Y024725D01*
X028325Y024425D01*
X008625Y020025D02*
X008375Y020025D01*
X008375Y020525D01*
X007275Y020525D01*
X007275Y019525D01*
X008375Y019525D01*
X008375Y020025D01*
X007275Y019525D02*
X006875Y019525D01*
X006875Y019975D01*
X006625Y019975D01*
X006875Y019975D02*
X006875Y020525D01*
X007275Y020525D01*
X003375Y015525D02*
X002975Y015525D01*
X002975Y014525D01*
X003375Y014525D01*
X003375Y015075D01*
X003625Y015075D01*
X003375Y015075D02*
X003375Y015525D01*
X002975Y015525D02*
X001875Y015525D01*
X001875Y015025D01*
X001625Y015025D01*
X001875Y015025D02*
X001875Y014525D01*
X002975Y014525D01*
M02*
