%
M48
M72
T01C0.0200
T02C0.0236
T03C0.0276
T04C0.0320
T05C0.0354
T06C0.0394
T07C0.0400
T08C0.0551
T09C0.0591
T10C0.0787
T11C0.1300
%
T01
X20675Y9975
X24375Y17475
X12225Y19525
T02
X16075Y13075
X21675Y12125
T03
X4575Y18175
X3575Y18175
X3575Y20275
X4575Y20275
T04
X13775Y20675
X14775Y20675
X15775Y20675
X16775Y20675
X20075Y20675
X21075Y20675
X22075Y20675
X23075Y20675
X23075Y17675
X22075Y17675
X21075Y17675
X20075Y17675
X16775Y17675
X15775Y17675
X14775Y17675
X13775Y17675
X19175Y9275
X20175Y9275
X21175Y9275
X22175Y9275
X23175Y9275
X24175Y9275
X25175Y9275
X26175Y9275
X27175Y9275
X28175Y9275
X29175Y9275
X30175Y9275
X31175Y9275
X32175Y9275
X35275Y8725
X37275Y8725
X38275Y8725
X38275Y6825
X37275Y6825
X35275Y6825
X32175Y6275
X31175Y6275
X30175Y6275
X29175Y6275
X28175Y6275
X27175Y6275
X26175Y6275
X25175Y6275
X24175Y6275
X23175Y6275
X22175Y6275
X21175Y6275
X20175Y6275
X19175Y6275
X17975Y2425
X17975Y1425
X35575Y20475
X35575Y21475
X36975Y22890
X36975Y24860
X32375Y24860
X32375Y22890
X28875Y23825
X27875Y23825
X27875Y24875
X28875Y24875
T05
X29275Y22525
X25275Y22525
X23375Y22475
X22875Y24175
X19375Y22475
X18375Y21225
X18875Y24175
X9725Y18225
X5725Y18225
X16775Y16075
X18375Y17225
X16775Y12075
X36975Y17475
X36975Y21475
T06
X33231Y20859
X33231Y19875
X33231Y18891
X32359Y16281
X31375Y16281
X30391Y16281
X26859Y16281
X25875Y16281
X24891Y16281
X21359Y16281
X20375Y16281
X19391Y16281
X12675Y18275
X10675Y18275
X9275Y19875
X11675Y20275
X6275Y19875
X4275Y15175
X1275Y15175
X35891Y16231
X36875Y16231
X37859Y16231
T07
X26565Y18045
X24785Y18045
X24785Y20605
X26565Y20605
X22875Y25975
X21875Y25975
X20875Y25975
X19875Y25975
X18875Y25975
X17875Y25975
X12733Y16910
X11733Y16910
X10733Y16910
X9733Y16910
X8733Y16910
X7733Y16910
X6733Y16910
X5733Y16910
X4275Y13575
X3275Y13575
X2275Y13575
X1275Y19025
X1275Y20025
X1275Y21025
X1825Y23336
X1825Y24714
X14225Y13625
X14225Y12625
X15225Y12625
X15225Y13625
X15225Y11625
X14225Y11625
X19385Y4005
X21165Y4005
X22385Y4005
X24165Y4005
X25385Y4005
X27165Y4005
X28385Y4005
X30165Y4005
X31385Y4005
X33165Y4005
X34385Y4005
X36165Y4005
X36165Y1445
X34385Y1445
X33165Y1445
X31385Y1445
X30165Y1445
X28385Y1445
X27165Y1445
X25385Y1445
X24165Y1445
X22385Y1445
X21165Y1445
X19385Y1445
X12733Y1162
X11733Y1162
X10733Y1162
X9733Y1162
X8733Y1162
X7733Y1162
X6733Y1162
X5733Y1162
T08
X5721Y21962
X4749Y22958
X7694Y22954
X9658Y21966
X10658Y22958
X9658Y26888
X5718Y26888
T09
X12753Y25697
X14525Y27075
X15509Y24477
X16494Y23807
X12871Y22705
T10
X18643Y13525
X22107Y13525
X24143Y13525
X27607Y13525
X29643Y13525
X33107Y13525
X35143Y13475
X38607Y13475
X30475Y18143
X30475Y21607
T11
X1375Y1375
X3275Y7675
X1375Y26875
X38375Y26875
X38375Y1375
M30
