%
M48
M72
T01C0.0200
T02C0.0236
T03C0.0276
T04C0.0320
T05C0.0354
T06C0.0394
T07C0.0400
T08C0.0551
T09C0.0591
T10C0.0787
T11C0.1300
%
T01
X20675Y9975
X24375Y17475
X16925Y19775
X13175Y19775
X12225Y19525
T02
X21675Y14625
T03
X4975Y19875
X3975Y19875
X2375Y19875
X1375Y19875
T04
X13775Y20675
X14775Y20675
X15775Y20675
X16775Y20675
X20075Y20675
X21075Y20675
X22075Y20675
X23075Y20675
X23075Y17675
X22075Y17675
X21075Y17675
X20075Y17675
X16775Y17675
X15775Y17675
X14775Y17675
X13775Y17675
X19175Y9275
X20175Y9275
X21175Y9275
X22175Y9275
X23175Y9275
X24175Y9275
X25175Y9275
X26175Y9275
X27175Y9275
X28175Y9275
X29175Y9275
X30175Y9275
X31175Y9275
X32175Y9275
X35275Y8725
X35275Y6825
X37775Y7275
X37775Y8275
X37775Y10275
X32175Y6275
X31175Y6275
X30175Y6275
X29175Y6275
X28175Y6275
X27175Y6275
X26175Y6275
X25175Y6275
X24175Y6275
X23175Y6275
X22175Y6275
X21175Y6275
X20175Y6275
X19175Y6275
X37775Y5275
X34875Y20475
X34875Y21475
X36975Y22890
X36975Y24860
X32375Y24860
X32375Y22890
X28875Y23825
X27875Y23825
X27875Y24875
X28875Y24875
T05
X29375Y22375
X25375Y22375
X23375Y22375
X19375Y22375
X18375Y21125
X17375Y22375
X13375Y22375
X10325Y18225
X6325Y18225
X17275Y16075
X18375Y17125
X17275Y12075
X36975Y17475
X36975Y21475
T06
X36859Y16381
X35875Y16381
X34891Y16381
X31859Y16381
X30875Y16381
X29891Y16381
X28369Y18391
X28369Y19375
X28369Y20359
X26859Y16381
X25875Y16381
X24891Y16381
X21859Y16381
X20875Y16381
X19891Y16381
X9275Y19875
X6275Y19875
T07
X6733Y16910
X5733Y16910
X4175Y16875
X3175Y16875
X2175Y16875
X7733Y16910
X8733Y16910
X9733Y16910
X10733Y16910
X11733Y16910
X12733Y16910
X1775Y23186
X1775Y24564
X17875Y25975
X18875Y25975
X19875Y25975
X20875Y25975
X21875Y25975
X22875Y25975
X24785Y20605
X26565Y20605
X26565Y18045
X24785Y18045
X24685Y4005
X23465Y4005
X21685Y4005
X20465Y4005
X18685Y4005
X18685Y1445
X20465Y1445
X21685Y1445
X23465Y1445
X24685Y1445
X26465Y1445
X27685Y1445
X29465Y1445
X30685Y1445
X32465Y1445
X33685Y1445
X35465Y1445
X35465Y4005
X33685Y4005
X32465Y4005
X30685Y4005
X29465Y4005
X27685Y4005
X26465Y4005
X12733Y1162
X11733Y1162
X10733Y1162
X9733Y1162
X8733Y1162
X7733Y1162
X6733Y1162
X5733Y1162
T08
X5721Y21962
X4749Y22958
X7694Y22954
X9658Y21966
X10658Y22958
X9658Y26888
X5718Y26888
T09
X12406Y26744
X14375Y26775
X16344Y26744
X16375Y24775
X15375Y24775
X14375Y24775
X13375Y24775
X12375Y24775
T10
X19143Y13625
X22607Y13625
X24143Y13625
X27607Y13625
X29143Y13625
X32607Y13625
X34143Y13625
X37607Y13625
X31125Y17643
X31125Y21107
T11
X1375Y1375
X3175Y10975
X1375Y26875
X38375Y26875
X38375Y1375
M30
