G75*
%MOIN*%
%OFA0B0*%
%FSLAX24Y24*%
%IPPOS*%
%LPD*%
%AMOC8*
5,1,8,0,0,1.08239X$1,22.5*
%
%ADD10C,0.0050*%
%ADD11C,0.0640*%
%ADD12C,0.0000*%
%ADD13C,0.0650*%
%ADD14C,0.0800*%
%ADD15R,0.0800X0.0800*%
%ADD16R,0.0740X0.0740*%
%ADD17C,0.0740*%
%ADD18C,0.0560*%
%ADD19C,0.0560*%
%ADD20C,0.0660*%
%ADD21OC8,0.1181*%
%ADD22C,0.0780*%
%ADD23C,0.0900*%
%ADD24C,0.1000*%
%ADD25C,0.0886*%
%ADD26C,0.0240*%
%ADD27C,0.0160*%
%ADD28C,0.0400*%
%ADD29C,0.0436*%
D10*
X000225Y000225D02*
X000225Y027725D01*
X039225Y027725D01*
X039225Y000225D01*
X000225Y000225D01*
D11*
X002025Y016405D02*
X002025Y017045D01*
X003025Y017045D02*
X003025Y016405D01*
X004025Y016405D02*
X004025Y017045D01*
D12*
X002375Y010825D02*
X002377Y010875D01*
X002383Y010925D01*
X002393Y010975D01*
X002406Y011023D01*
X002423Y011071D01*
X002444Y011117D01*
X002468Y011161D01*
X002496Y011203D01*
X002527Y011243D01*
X002561Y011280D01*
X002598Y011315D01*
X002637Y011346D01*
X002678Y011375D01*
X002722Y011400D01*
X002768Y011422D01*
X002815Y011440D01*
X002863Y011454D01*
X002912Y011465D01*
X002962Y011472D01*
X003012Y011475D01*
X003063Y011474D01*
X003113Y011469D01*
X003163Y011460D01*
X003211Y011448D01*
X003259Y011431D01*
X003305Y011411D01*
X003350Y011388D01*
X003393Y011361D01*
X003433Y011331D01*
X003471Y011298D01*
X003506Y011262D01*
X003539Y011223D01*
X003568Y011182D01*
X003594Y011139D01*
X003617Y011094D01*
X003636Y011047D01*
X003651Y010999D01*
X003663Y010950D01*
X003671Y010900D01*
X003675Y010850D01*
X003675Y010800D01*
X003671Y010750D01*
X003663Y010700D01*
X003651Y010651D01*
X003636Y010603D01*
X003617Y010556D01*
X003594Y010511D01*
X003568Y010468D01*
X003539Y010427D01*
X003506Y010388D01*
X003471Y010352D01*
X003433Y010319D01*
X003393Y010289D01*
X003350Y010262D01*
X003305Y010239D01*
X003259Y010219D01*
X003211Y010202D01*
X003163Y010190D01*
X003113Y010181D01*
X003063Y010176D01*
X003012Y010175D01*
X002962Y010178D01*
X002912Y010185D01*
X002863Y010196D01*
X002815Y010210D01*
X002768Y010228D01*
X002722Y010250D01*
X002678Y010275D01*
X002637Y010304D01*
X002598Y010335D01*
X002561Y010370D01*
X002527Y010407D01*
X002496Y010447D01*
X002468Y010489D01*
X002444Y010533D01*
X002423Y010579D01*
X002406Y010627D01*
X002393Y010675D01*
X002383Y010725D01*
X002377Y010775D01*
X002375Y010825D01*
X000575Y001225D02*
X000577Y001275D01*
X000583Y001325D01*
X000593Y001375D01*
X000606Y001423D01*
X000623Y001471D01*
X000644Y001517D01*
X000668Y001561D01*
X000696Y001603D01*
X000727Y001643D01*
X000761Y001680D01*
X000798Y001715D01*
X000837Y001746D01*
X000878Y001775D01*
X000922Y001800D01*
X000968Y001822D01*
X001015Y001840D01*
X001063Y001854D01*
X001112Y001865D01*
X001162Y001872D01*
X001212Y001875D01*
X001263Y001874D01*
X001313Y001869D01*
X001363Y001860D01*
X001411Y001848D01*
X001459Y001831D01*
X001505Y001811D01*
X001550Y001788D01*
X001593Y001761D01*
X001633Y001731D01*
X001671Y001698D01*
X001706Y001662D01*
X001739Y001623D01*
X001768Y001582D01*
X001794Y001539D01*
X001817Y001494D01*
X001836Y001447D01*
X001851Y001399D01*
X001863Y001350D01*
X001871Y001300D01*
X001875Y001250D01*
X001875Y001200D01*
X001871Y001150D01*
X001863Y001100D01*
X001851Y001051D01*
X001836Y001003D01*
X001817Y000956D01*
X001794Y000911D01*
X001768Y000868D01*
X001739Y000827D01*
X001706Y000788D01*
X001671Y000752D01*
X001633Y000719D01*
X001593Y000689D01*
X001550Y000662D01*
X001505Y000639D01*
X001459Y000619D01*
X001411Y000602D01*
X001363Y000590D01*
X001313Y000581D01*
X001263Y000576D01*
X001212Y000575D01*
X001162Y000578D01*
X001112Y000585D01*
X001063Y000596D01*
X001015Y000610D01*
X000968Y000628D01*
X000922Y000650D01*
X000878Y000675D01*
X000837Y000704D01*
X000798Y000735D01*
X000761Y000770D01*
X000727Y000807D01*
X000696Y000847D01*
X000668Y000889D01*
X000644Y000933D01*
X000623Y000979D01*
X000606Y001027D01*
X000593Y001075D01*
X000583Y001125D01*
X000577Y001175D01*
X000575Y001225D01*
X013930Y024625D02*
X013932Y024659D01*
X013938Y024693D01*
X013948Y024726D01*
X013961Y024757D01*
X013979Y024787D01*
X013999Y024815D01*
X014023Y024840D01*
X014049Y024862D01*
X014077Y024880D01*
X014108Y024896D01*
X014140Y024908D01*
X014174Y024916D01*
X014208Y024920D01*
X014242Y024920D01*
X014276Y024916D01*
X014310Y024908D01*
X014342Y024896D01*
X014372Y024880D01*
X014401Y024862D01*
X014427Y024840D01*
X014451Y024815D01*
X014471Y024787D01*
X014489Y024757D01*
X014502Y024726D01*
X014512Y024693D01*
X014518Y024659D01*
X014520Y024625D01*
X014518Y024591D01*
X014512Y024557D01*
X014502Y024524D01*
X014489Y024493D01*
X014471Y024463D01*
X014451Y024435D01*
X014427Y024410D01*
X014401Y024388D01*
X014373Y024370D01*
X014342Y024354D01*
X014310Y024342D01*
X014276Y024334D01*
X014242Y024330D01*
X014208Y024330D01*
X014174Y024334D01*
X014140Y024342D01*
X014108Y024354D01*
X014077Y024370D01*
X014049Y024388D01*
X014023Y024410D01*
X013999Y024435D01*
X013979Y024463D01*
X013961Y024493D01*
X013948Y024524D01*
X013938Y024557D01*
X013932Y024591D01*
X013930Y024625D01*
X011961Y026594D02*
X011963Y026628D01*
X011969Y026662D01*
X011979Y026695D01*
X011992Y026726D01*
X012010Y026756D01*
X012030Y026784D01*
X012054Y026809D01*
X012080Y026831D01*
X012108Y026849D01*
X012139Y026865D01*
X012171Y026877D01*
X012205Y026885D01*
X012239Y026889D01*
X012273Y026889D01*
X012307Y026885D01*
X012341Y026877D01*
X012373Y026865D01*
X012403Y026849D01*
X012432Y026831D01*
X012458Y026809D01*
X012482Y026784D01*
X012502Y026756D01*
X012520Y026726D01*
X012533Y026695D01*
X012543Y026662D01*
X012549Y026628D01*
X012551Y026594D01*
X012549Y026560D01*
X012543Y026526D01*
X012533Y026493D01*
X012520Y026462D01*
X012502Y026432D01*
X012482Y026404D01*
X012458Y026379D01*
X012432Y026357D01*
X012404Y026339D01*
X012373Y026323D01*
X012341Y026311D01*
X012307Y026303D01*
X012273Y026299D01*
X012239Y026299D01*
X012205Y026303D01*
X012171Y026311D01*
X012139Y026323D01*
X012108Y026339D01*
X012080Y026357D01*
X012054Y026379D01*
X012030Y026404D01*
X012010Y026432D01*
X011992Y026462D01*
X011979Y026493D01*
X011969Y026526D01*
X011963Y026560D01*
X011961Y026594D01*
X015899Y026594D02*
X015901Y026628D01*
X015907Y026662D01*
X015917Y026695D01*
X015930Y026726D01*
X015948Y026756D01*
X015968Y026784D01*
X015992Y026809D01*
X016018Y026831D01*
X016046Y026849D01*
X016077Y026865D01*
X016109Y026877D01*
X016143Y026885D01*
X016177Y026889D01*
X016211Y026889D01*
X016245Y026885D01*
X016279Y026877D01*
X016311Y026865D01*
X016341Y026849D01*
X016370Y026831D01*
X016396Y026809D01*
X016420Y026784D01*
X016440Y026756D01*
X016458Y026726D01*
X016471Y026695D01*
X016481Y026662D01*
X016487Y026628D01*
X016489Y026594D01*
X016487Y026560D01*
X016481Y026526D01*
X016471Y026493D01*
X016458Y026462D01*
X016440Y026432D01*
X016420Y026404D01*
X016396Y026379D01*
X016370Y026357D01*
X016342Y026339D01*
X016311Y026323D01*
X016279Y026311D01*
X016245Y026303D01*
X016211Y026299D01*
X016177Y026299D01*
X016143Y026303D01*
X016109Y026311D01*
X016077Y026323D01*
X016046Y026339D01*
X016018Y026357D01*
X015992Y026379D01*
X015968Y026404D01*
X015948Y026432D01*
X015930Y026462D01*
X015917Y026493D01*
X015907Y026526D01*
X015901Y026560D01*
X015899Y026594D01*
X000575Y026725D02*
X000577Y026775D01*
X000583Y026825D01*
X000593Y026875D01*
X000606Y026923D01*
X000623Y026971D01*
X000644Y027017D01*
X000668Y027061D01*
X000696Y027103D01*
X000727Y027143D01*
X000761Y027180D01*
X000798Y027215D01*
X000837Y027246D01*
X000878Y027275D01*
X000922Y027300D01*
X000968Y027322D01*
X001015Y027340D01*
X001063Y027354D01*
X001112Y027365D01*
X001162Y027372D01*
X001212Y027375D01*
X001263Y027374D01*
X001313Y027369D01*
X001363Y027360D01*
X001411Y027348D01*
X001459Y027331D01*
X001505Y027311D01*
X001550Y027288D01*
X001593Y027261D01*
X001633Y027231D01*
X001671Y027198D01*
X001706Y027162D01*
X001739Y027123D01*
X001768Y027082D01*
X001794Y027039D01*
X001817Y026994D01*
X001836Y026947D01*
X001851Y026899D01*
X001863Y026850D01*
X001871Y026800D01*
X001875Y026750D01*
X001875Y026700D01*
X001871Y026650D01*
X001863Y026600D01*
X001851Y026551D01*
X001836Y026503D01*
X001817Y026456D01*
X001794Y026411D01*
X001768Y026368D01*
X001739Y026327D01*
X001706Y026288D01*
X001671Y026252D01*
X001633Y026219D01*
X001593Y026189D01*
X001550Y026162D01*
X001505Y026139D01*
X001459Y026119D01*
X001411Y026102D01*
X001363Y026090D01*
X001313Y026081D01*
X001263Y026076D01*
X001212Y026075D01*
X001162Y026078D01*
X001112Y026085D01*
X001063Y026096D01*
X001015Y026110D01*
X000968Y026128D01*
X000922Y026150D01*
X000878Y026175D01*
X000837Y026204D01*
X000798Y026235D01*
X000761Y026270D01*
X000727Y026307D01*
X000696Y026347D01*
X000668Y026389D01*
X000644Y026433D01*
X000623Y026479D01*
X000606Y026527D01*
X000593Y026575D01*
X000583Y026625D01*
X000577Y026675D01*
X000575Y026725D01*
X037575Y026725D02*
X037577Y026775D01*
X037583Y026825D01*
X037593Y026875D01*
X037606Y026923D01*
X037623Y026971D01*
X037644Y027017D01*
X037668Y027061D01*
X037696Y027103D01*
X037727Y027143D01*
X037761Y027180D01*
X037798Y027215D01*
X037837Y027246D01*
X037878Y027275D01*
X037922Y027300D01*
X037968Y027322D01*
X038015Y027340D01*
X038063Y027354D01*
X038112Y027365D01*
X038162Y027372D01*
X038212Y027375D01*
X038263Y027374D01*
X038313Y027369D01*
X038363Y027360D01*
X038411Y027348D01*
X038459Y027331D01*
X038505Y027311D01*
X038550Y027288D01*
X038593Y027261D01*
X038633Y027231D01*
X038671Y027198D01*
X038706Y027162D01*
X038739Y027123D01*
X038768Y027082D01*
X038794Y027039D01*
X038817Y026994D01*
X038836Y026947D01*
X038851Y026899D01*
X038863Y026850D01*
X038871Y026800D01*
X038875Y026750D01*
X038875Y026700D01*
X038871Y026650D01*
X038863Y026600D01*
X038851Y026551D01*
X038836Y026503D01*
X038817Y026456D01*
X038794Y026411D01*
X038768Y026368D01*
X038739Y026327D01*
X038706Y026288D01*
X038671Y026252D01*
X038633Y026219D01*
X038593Y026189D01*
X038550Y026162D01*
X038505Y026139D01*
X038459Y026119D01*
X038411Y026102D01*
X038363Y026090D01*
X038313Y026081D01*
X038263Y026076D01*
X038212Y026075D01*
X038162Y026078D01*
X038112Y026085D01*
X038063Y026096D01*
X038015Y026110D01*
X037968Y026128D01*
X037922Y026150D01*
X037878Y026175D01*
X037837Y026204D01*
X037798Y026235D01*
X037761Y026270D01*
X037727Y026307D01*
X037696Y026347D01*
X037668Y026389D01*
X037644Y026433D01*
X037623Y026479D01*
X037606Y026527D01*
X037593Y026575D01*
X037583Y026625D01*
X037577Y026675D01*
X037575Y026725D01*
X037575Y001225D02*
X037577Y001275D01*
X037583Y001325D01*
X037593Y001375D01*
X037606Y001423D01*
X037623Y001471D01*
X037644Y001517D01*
X037668Y001561D01*
X037696Y001603D01*
X037727Y001643D01*
X037761Y001680D01*
X037798Y001715D01*
X037837Y001746D01*
X037878Y001775D01*
X037922Y001800D01*
X037968Y001822D01*
X038015Y001840D01*
X038063Y001854D01*
X038112Y001865D01*
X038162Y001872D01*
X038212Y001875D01*
X038263Y001874D01*
X038313Y001869D01*
X038363Y001860D01*
X038411Y001848D01*
X038459Y001831D01*
X038505Y001811D01*
X038550Y001788D01*
X038593Y001761D01*
X038633Y001731D01*
X038671Y001698D01*
X038706Y001662D01*
X038739Y001623D01*
X038768Y001582D01*
X038794Y001539D01*
X038817Y001494D01*
X038836Y001447D01*
X038851Y001399D01*
X038863Y001350D01*
X038871Y001300D01*
X038875Y001250D01*
X038875Y001200D01*
X038871Y001150D01*
X038863Y001100D01*
X038851Y001051D01*
X038836Y001003D01*
X038817Y000956D01*
X038794Y000911D01*
X038768Y000868D01*
X038739Y000827D01*
X038706Y000788D01*
X038671Y000752D01*
X038633Y000719D01*
X038593Y000689D01*
X038550Y000662D01*
X038505Y000639D01*
X038459Y000619D01*
X038411Y000602D01*
X038363Y000590D01*
X038313Y000581D01*
X038263Y000576D01*
X038212Y000575D01*
X038162Y000578D01*
X038112Y000585D01*
X038063Y000596D01*
X038015Y000610D01*
X037968Y000628D01*
X037922Y000650D01*
X037878Y000675D01*
X037837Y000704D01*
X037798Y000735D01*
X037761Y000770D01*
X037727Y000807D01*
X037696Y000847D01*
X037668Y000889D01*
X037644Y000933D01*
X037623Y000979D01*
X037606Y001027D01*
X037593Y001075D01*
X037583Y001125D01*
X037577Y001175D01*
X037575Y001225D01*
D13*
X036825Y022740D03*
X036825Y024710D03*
X032225Y024710D03*
X032225Y022740D03*
X004825Y019725D03*
X003825Y019725D03*
X002225Y019725D03*
X001225Y019725D03*
D14*
X001625Y023036D03*
D15*
X001625Y024414D03*
D16*
X005583Y016760D03*
X017725Y024225D03*
X028219Y020209D03*
X028219Y019225D03*
X028219Y018241D03*
X026709Y016231D03*
X025725Y016231D03*
X024741Y016231D03*
X021709Y016231D03*
X020725Y016231D03*
X019741Y016231D03*
X029741Y016231D03*
X030725Y016231D03*
X031709Y016231D03*
X034741Y016231D03*
X035725Y016231D03*
X036709Y016231D03*
X005583Y001012D03*
D17*
X006583Y001012D03*
X007583Y001012D03*
X008583Y001012D03*
X009583Y001012D03*
X010583Y001012D03*
X011583Y001012D03*
X012583Y001012D03*
X018535Y001295D03*
X020315Y001295D03*
X021535Y001295D03*
X023315Y001295D03*
X024535Y001295D03*
X026315Y001295D03*
X027535Y001295D03*
X029315Y001295D03*
X030535Y001295D03*
X032315Y001295D03*
X033535Y001295D03*
X035315Y001295D03*
X035315Y003855D03*
X033535Y003855D03*
X032315Y003855D03*
X030535Y003855D03*
X029315Y003855D03*
X027535Y003855D03*
X026315Y003855D03*
X024535Y003855D03*
X023315Y003855D03*
X021535Y003855D03*
X020315Y003855D03*
X018535Y003855D03*
X017125Y011925D03*
X017125Y015925D03*
X018225Y016975D03*
X018225Y020975D03*
X017225Y022225D03*
X019225Y022225D03*
X018725Y024225D03*
X019725Y024225D03*
X020725Y024225D03*
X021725Y024225D03*
X022725Y024225D03*
X023225Y022225D03*
X025225Y022225D03*
X024635Y020455D03*
X026415Y020455D03*
X029225Y022225D03*
X026415Y017895D03*
X024635Y017895D03*
X013225Y022225D03*
X010175Y018075D03*
X010583Y016760D03*
X009583Y016760D03*
X008583Y016760D03*
X007583Y016760D03*
X006583Y016760D03*
X006175Y018075D03*
X011583Y016760D03*
X012583Y016760D03*
X036825Y017325D03*
X036825Y021325D03*
D18*
X022925Y020805D02*
X022925Y020245D01*
X021925Y020245D02*
X021925Y020805D01*
X020925Y020805D02*
X020925Y020245D01*
X019925Y020245D02*
X019925Y020805D01*
X016625Y020805D02*
X016625Y020245D01*
X015625Y020245D02*
X015625Y020805D01*
X014625Y020805D02*
X014625Y020245D01*
X013625Y020245D02*
X013625Y020805D01*
X013625Y017805D02*
X013625Y017245D01*
X014625Y017245D02*
X014625Y017805D01*
X015625Y017805D02*
X015625Y017245D01*
X016625Y017245D02*
X016625Y017805D01*
X019925Y017805D02*
X019925Y017245D01*
X020925Y017245D02*
X020925Y017805D01*
X021925Y017805D02*
X021925Y017245D01*
X022925Y017245D02*
X022925Y017805D01*
X023025Y009405D02*
X023025Y008845D01*
X024025Y008845D02*
X024025Y009405D01*
X025025Y009405D02*
X025025Y008845D01*
X026025Y008845D02*
X026025Y009405D01*
X027025Y009405D02*
X027025Y008845D01*
X028025Y008845D02*
X028025Y009405D01*
X029025Y009405D02*
X029025Y008845D01*
X030025Y008845D02*
X030025Y009405D01*
X031025Y009405D02*
X031025Y008845D01*
X032025Y008845D02*
X032025Y009405D01*
X032025Y006405D02*
X032025Y005845D01*
X031025Y005845D02*
X031025Y006405D01*
X030025Y006405D02*
X030025Y005845D01*
X029025Y005845D02*
X029025Y006405D01*
X028025Y006405D02*
X028025Y005845D01*
X027025Y005845D02*
X027025Y006405D01*
X026025Y006405D02*
X026025Y005845D01*
X025025Y005845D02*
X025025Y006405D01*
X024025Y006405D02*
X024025Y005845D01*
X023025Y005845D02*
X023025Y006405D01*
X022025Y006405D02*
X022025Y005845D01*
X021025Y005845D02*
X021025Y006405D01*
X020025Y006405D02*
X020025Y005845D01*
X019025Y005845D02*
X019025Y006405D01*
X019025Y008845D02*
X019025Y009405D01*
X020025Y009405D02*
X020025Y008845D01*
X021025Y008845D02*
X021025Y009405D01*
X022025Y009405D02*
X022025Y008845D01*
D19*
X035125Y008575D03*
X037625Y008125D03*
X037625Y007125D03*
X035125Y006675D03*
X037625Y005125D03*
X037625Y010125D03*
D20*
X034725Y020325D03*
X034725Y021325D03*
X028725Y023675D03*
X027725Y023675D03*
X027725Y024725D03*
X028725Y024725D03*
D21*
X030975Y020957D03*
X030975Y017493D03*
X032457Y013475D03*
X033993Y013475D03*
X037457Y013475D03*
X028993Y013475D03*
X027457Y013475D03*
X023993Y013475D03*
X022457Y013475D03*
X018993Y013475D03*
D22*
X009125Y019725D03*
X006125Y019725D03*
D23*
X005571Y021812D03*
X004599Y022808D03*
X007544Y022804D03*
X009508Y021816D03*
X010508Y022808D03*
X009508Y026738D03*
X005568Y026738D03*
D24*
X014225Y026625D03*
D25*
X013225Y024625D03*
X012225Y024625D03*
X015225Y024625D03*
X016225Y024625D03*
D26*
X016792Y024314D02*
X017135Y024314D01*
X017135Y024225D02*
X017725Y024225D01*
X017725Y024225D01*
X017725Y024815D01*
X018124Y024815D01*
X018180Y024800D01*
X018230Y024771D01*
X018271Y024730D01*
X018300Y024680D01*
X018315Y024624D01*
X018315Y024621D01*
X018402Y024708D01*
X018612Y024795D01*
X018838Y024795D01*
X019048Y024708D01*
X019208Y024548D01*
X019225Y024507D01*
X019242Y024548D01*
X019402Y024708D01*
X019612Y024795D01*
X019838Y024795D01*
X020048Y024708D01*
X020208Y024548D01*
X020225Y024507D01*
X020242Y024548D01*
X020402Y024708D01*
X020612Y024795D01*
X020838Y024795D01*
X021048Y024708D01*
X021208Y024548D01*
X021225Y024507D01*
X021242Y024548D01*
X021402Y024708D01*
X021612Y024795D01*
X021838Y024795D01*
X022048Y024708D01*
X022208Y024548D01*
X022225Y024507D01*
X022242Y024548D01*
X022402Y024708D01*
X022612Y024795D01*
X022838Y024795D01*
X023048Y024708D01*
X023208Y024548D01*
X023295Y024338D01*
X023295Y024112D01*
X023208Y023902D01*
X023048Y023742D01*
X022838Y023655D01*
X022612Y023655D01*
X022402Y023742D01*
X022242Y023902D01*
X022225Y023943D01*
X022208Y023902D01*
X022048Y023742D01*
X022005Y023724D01*
X022005Y023541D01*
X022141Y023405D01*
X023381Y023405D01*
X023484Y023362D01*
X023984Y022862D01*
X024062Y022784D01*
X024105Y022681D01*
X024105Y020665D01*
X024152Y020778D01*
X024312Y020938D01*
X024522Y021025D01*
X024748Y021025D01*
X024958Y020938D01*
X025118Y020778D01*
X025205Y020568D01*
X025205Y020342D01*
X025118Y020132D01*
X024958Y019972D01*
X024748Y019885D01*
X024522Y019885D01*
X024312Y019972D01*
X024152Y020132D01*
X024105Y020245D01*
X024105Y018154D01*
X024130Y018204D01*
X024185Y018279D01*
X024251Y018345D01*
X024326Y018400D01*
X024409Y018442D01*
X024497Y018470D01*
X024589Y018485D01*
X024635Y018485D01*
X024635Y017895D01*
X024635Y017895D01*
X025225Y017895D01*
X025225Y017941D01*
X025210Y018033D01*
X025182Y018121D01*
X025140Y018204D01*
X025085Y018279D01*
X025019Y018345D01*
X024944Y018400D01*
X024861Y018442D01*
X024773Y018470D01*
X024681Y018485D01*
X024635Y018485D01*
X024635Y017895D01*
X024635Y017895D01*
X025225Y017895D01*
X025225Y017849D01*
X025210Y017757D01*
X025182Y017669D01*
X025140Y017586D01*
X025085Y017511D01*
X025019Y017445D01*
X024944Y017390D01*
X024861Y017348D01*
X024773Y017320D01*
X024681Y017305D01*
X024635Y017305D01*
X024635Y017895D01*
X024635Y017895D01*
X024635Y017305D01*
X024625Y017305D01*
X024625Y017245D01*
X024625Y017245D01*
X026289Y017245D01*
X026406Y017196D01*
X026496Y017106D01*
X026496Y017106D01*
X026802Y016801D01*
X027162Y016801D01*
X027279Y016684D01*
X027279Y016567D01*
X027714Y016567D01*
X029854Y018706D01*
X029944Y018796D01*
X030061Y018845D01*
X034929Y018845D01*
X035046Y018796D01*
X036299Y017544D01*
X036342Y017648D01*
X036502Y017808D01*
X036712Y017895D01*
X036938Y017895D01*
X037148Y017808D01*
X037308Y017648D01*
X037326Y017605D01*
X037881Y017605D01*
X037984Y017562D01*
X038862Y016684D01*
X038905Y016581D01*
X038905Y011669D01*
X038862Y011566D01*
X037984Y010688D01*
X037881Y010645D01*
X031341Y010645D01*
X030402Y009706D01*
X030432Y009677D01*
X030505Y009500D01*
X030505Y008750D01*
X030432Y008573D01*
X030297Y008438D01*
X030120Y008365D01*
X029930Y008365D01*
X029753Y008438D01*
X029618Y008573D01*
X029545Y008750D01*
X029545Y009500D01*
X029618Y009677D01*
X029753Y009812D01*
X029759Y009814D01*
X029788Y009884D01*
X030988Y011084D01*
X031066Y011162D01*
X031169Y011205D01*
X037709Y011205D01*
X038345Y011841D01*
X038345Y016409D01*
X037709Y017045D01*
X037326Y017045D01*
X037308Y017002D01*
X037148Y016842D01*
X037049Y016801D01*
X037162Y016801D01*
X037279Y016684D01*
X037279Y015778D01*
X037162Y015661D01*
X036256Y015661D01*
X036217Y015700D01*
X036178Y015661D01*
X035957Y015661D01*
X035884Y015588D01*
X035584Y015288D01*
X035481Y015245D01*
X031641Y015245D01*
X030784Y014388D01*
X030681Y014345D01*
X027291Y014345D01*
X027212Y014266D01*
X027785Y014266D01*
X028225Y013825D01*
X028665Y014266D01*
X029320Y014266D01*
X029783Y013802D01*
X029783Y013148D01*
X029320Y012684D01*
X028665Y012684D01*
X028225Y013125D01*
X027785Y012684D01*
X027130Y012684D01*
X026855Y012959D01*
X026855Y012628D01*
X026856Y012575D01*
X026855Y012572D01*
X026855Y012569D01*
X026835Y012520D01*
X026815Y012471D01*
X026813Y012469D01*
X026812Y012466D01*
X026775Y012429D01*
X024305Y009862D01*
X024305Y009804D01*
X024432Y009677D01*
X024505Y009500D01*
X024505Y008750D01*
X024432Y008573D01*
X024297Y008438D01*
X024120Y008365D01*
X023930Y008365D01*
X023753Y008438D01*
X023618Y008573D01*
X023545Y008750D01*
X023545Y009500D01*
X023618Y009677D01*
X023745Y009804D01*
X023745Y009972D01*
X023744Y010025D01*
X023745Y010028D01*
X023745Y010031D01*
X023765Y010080D01*
X023785Y010129D01*
X023787Y010131D01*
X023788Y010134D01*
X023825Y010171D01*
X026295Y012738D01*
X026295Y012799D01*
X023327Y009782D01*
X023432Y009677D01*
X023505Y009500D01*
X023505Y008750D01*
X023432Y008573D01*
X023297Y008438D01*
X023120Y008365D01*
X022930Y008365D01*
X022753Y008438D01*
X022618Y008573D01*
X022545Y008750D01*
X022545Y009500D01*
X022618Y009677D01*
X022745Y009804D01*
X022745Y009874D01*
X022745Y009928D01*
X022745Y009930D01*
X022745Y009931D01*
X022766Y009981D01*
X022786Y010032D01*
X022787Y010033D01*
X022788Y010034D01*
X022826Y010072D01*
X023325Y010579D01*
X022427Y009681D01*
X022432Y009677D01*
X022505Y009500D01*
X022505Y008750D01*
X022432Y008573D01*
X022297Y008438D01*
X022120Y008365D01*
X021930Y008365D01*
X021805Y008417D01*
X021805Y006833D01*
X021930Y006885D01*
X022120Y006885D01*
X022297Y006812D01*
X022432Y006677D01*
X022505Y006500D01*
X022505Y005750D01*
X022432Y005573D01*
X022297Y005438D01*
X022120Y005365D01*
X021930Y005365D01*
X021753Y005438D01*
X021618Y005573D01*
X021545Y005750D01*
X021545Y006249D01*
X021505Y006209D01*
X021505Y005750D01*
X021432Y005573D01*
X021297Y005438D01*
X021120Y005365D01*
X020930Y005365D01*
X020753Y005438D01*
X020618Y005573D01*
X020545Y005750D01*
X020545Y006500D01*
X020618Y006677D01*
X020753Y006812D01*
X020930Y006885D01*
X021120Y006885D01*
X021245Y006833D01*
X021245Y008417D01*
X021120Y008365D01*
X020930Y008365D01*
X020753Y008438D01*
X020618Y008573D01*
X020545Y008750D01*
X020545Y009425D01*
X020505Y009425D01*
X020505Y008750D01*
X020432Y008573D01*
X020297Y008438D01*
X020120Y008365D01*
X019930Y008365D01*
X019753Y008438D01*
X019618Y008573D01*
X019545Y008750D01*
X019545Y009500D01*
X019618Y009677D01*
X019753Y009812D01*
X019930Y009885D01*
X020058Y009885D01*
X018305Y011568D01*
X018305Y007041D01*
X018644Y006702D01*
X018753Y006812D01*
X018930Y006885D01*
X019120Y006885D01*
X019297Y006812D01*
X019432Y006677D01*
X019505Y006500D01*
X019505Y005750D01*
X019432Y005573D01*
X019297Y005438D01*
X019120Y005365D01*
X018930Y005365D01*
X018753Y005438D01*
X018618Y005573D01*
X018545Y005750D01*
X018545Y006009D01*
X017788Y006766D01*
X017745Y006869D01*
X017745Y011646D01*
X017658Y011721D01*
X017608Y011602D01*
X017448Y011442D01*
X017445Y011441D01*
X017445Y005608D01*
X017708Y005345D01*
X023542Y005345D01*
X023694Y005497D01*
X023618Y005573D01*
X023545Y005750D01*
X023545Y006500D01*
X023618Y006677D01*
X023753Y006812D01*
X023930Y006885D01*
X024120Y006885D01*
X024297Y006812D01*
X024432Y006677D01*
X024505Y006500D01*
X024505Y005758D01*
X024545Y005798D01*
X024545Y006500D01*
X024618Y006677D01*
X024753Y006812D01*
X024930Y006885D01*
X025120Y006885D01*
X025297Y006812D01*
X025432Y006677D01*
X025505Y006500D01*
X025505Y005750D01*
X025432Y005573D01*
X025297Y005438D01*
X025120Y005365D01*
X025018Y005365D01*
X024958Y005305D01*
X026609Y005305D01*
X026748Y005444D01*
X026618Y005573D01*
X026545Y005750D01*
X026545Y006500D01*
X026618Y006677D01*
X026753Y006812D01*
X026930Y006885D01*
X027120Y006885D01*
X027297Y006812D01*
X027432Y006677D01*
X027505Y006500D01*
X027505Y005750D01*
X027445Y005605D01*
X027605Y005605D01*
X027545Y005750D01*
X027545Y006500D01*
X027618Y006677D01*
X027753Y006812D01*
X027930Y006885D01*
X028120Y006885D01*
X028297Y006812D01*
X028432Y006677D01*
X028505Y006500D01*
X028505Y005750D01*
X028445Y005605D01*
X028605Y005605D01*
X028545Y005750D01*
X028545Y006500D01*
X028618Y006677D01*
X028753Y006812D01*
X028930Y006885D01*
X029120Y006885D01*
X029297Y006812D01*
X029432Y006677D01*
X029505Y006500D01*
X029505Y005750D01*
X029471Y005667D01*
X029548Y005743D01*
X029545Y005750D01*
X029545Y006500D01*
X029618Y006677D01*
X029753Y006812D01*
X029930Y006885D01*
X030120Y006885D01*
X030297Y006812D01*
X030432Y006677D01*
X030505Y006500D01*
X030505Y005750D01*
X030445Y005605D01*
X030605Y005605D01*
X030545Y005750D01*
X030545Y006500D01*
X030618Y006677D01*
X030753Y006812D01*
X030930Y006885D01*
X031120Y006885D01*
X031297Y006812D01*
X031432Y006677D01*
X031505Y006500D01*
X031505Y005750D01*
X031432Y005573D01*
X031297Y005438D01*
X031291Y005436D01*
X031262Y005366D01*
X031201Y005305D01*
X031409Y005305D01*
X031648Y005544D01*
X031618Y005573D01*
X031545Y005750D01*
X031545Y006500D01*
X031618Y006677D01*
X031753Y006812D01*
X031930Y006885D01*
X032120Y006885D01*
X032297Y006812D01*
X032432Y006677D01*
X032445Y006645D01*
X032445Y006709D01*
X031609Y007545D01*
X029869Y007545D01*
X029766Y007588D01*
X029688Y007666D01*
X028989Y008365D01*
X028930Y008365D01*
X028753Y008438D01*
X028618Y008573D01*
X028545Y008750D01*
X028545Y009500D01*
X028618Y009677D01*
X028753Y009812D01*
X028930Y009885D01*
X029120Y009885D01*
X029297Y009812D01*
X029432Y009677D01*
X029505Y009500D01*
X029505Y008750D01*
X029473Y008673D01*
X030041Y008105D01*
X031249Y008105D01*
X030989Y008365D01*
X030930Y008365D01*
X030753Y008438D01*
X030618Y008573D01*
X030545Y008750D01*
X030545Y009500D01*
X030618Y009677D01*
X030753Y009812D01*
X030930Y009885D01*
X031120Y009885D01*
X031297Y009812D01*
X031432Y009677D01*
X031505Y009500D01*
X031505Y008750D01*
X031473Y008673D01*
X031541Y008605D01*
X031605Y008605D01*
X031545Y008750D01*
X031545Y009500D01*
X031618Y009677D01*
X031753Y009812D01*
X031930Y009885D01*
X032120Y009885D01*
X032297Y009812D01*
X032432Y009677D01*
X032505Y009500D01*
X032505Y008855D01*
X032581Y008855D01*
X032684Y008812D01*
X034034Y007462D01*
X034112Y007384D01*
X034155Y007281D01*
X034155Y005541D01*
X035271Y004425D01*
X035428Y004425D01*
X035638Y004338D01*
X035798Y004178D01*
X035885Y003968D01*
X035885Y003742D01*
X035798Y003532D01*
X035638Y003372D01*
X035428Y003285D01*
X035202Y003285D01*
X034992Y003372D01*
X034832Y003532D01*
X034745Y003742D01*
X034745Y003968D01*
X034801Y004103D01*
X033753Y005151D01*
X032814Y004140D01*
X032885Y003968D01*
X032885Y003742D01*
X032798Y003532D01*
X032638Y003372D01*
X032428Y003285D01*
X032202Y003285D01*
X031992Y003372D01*
X031832Y003532D01*
X031745Y003742D01*
X031745Y003968D01*
X031832Y004178D01*
X031992Y004338D01*
X032202Y004425D01*
X032314Y004425D01*
X033345Y005535D01*
X033345Y006809D01*
X032109Y008045D01*
X031901Y008045D01*
X032884Y007062D01*
X032962Y006984D01*
X033005Y006881D01*
X033005Y005469D01*
X032962Y005366D01*
X032062Y004466D01*
X031984Y004388D01*
X031881Y004345D01*
X030864Y004345D01*
X030919Y004305D01*
X030985Y004239D01*
X031040Y004164D01*
X031082Y004081D01*
X031110Y003993D01*
X031125Y003901D01*
X031125Y003855D01*
X030535Y003855D01*
X030535Y003855D01*
X031125Y003855D01*
X031125Y003809D01*
X031110Y003717D01*
X031082Y003629D01*
X031040Y003546D01*
X030985Y003471D01*
X030919Y003405D01*
X030844Y003350D01*
X030761Y003308D01*
X030673Y003280D01*
X030581Y003265D01*
X030535Y003265D01*
X030535Y003855D01*
X030535Y003855D01*
X030535Y003855D01*
X029945Y003855D01*
X029945Y003901D01*
X029960Y003993D01*
X029988Y004081D01*
X029999Y004103D01*
X029879Y003983D01*
X029885Y003968D01*
X029885Y003742D01*
X029798Y003532D01*
X029638Y003372D01*
X029428Y003285D01*
X029202Y003285D01*
X028992Y003372D01*
X028832Y003532D01*
X028745Y003742D01*
X028745Y003968D01*
X028832Y004178D01*
X028992Y004338D01*
X029008Y004345D01*
X027864Y004345D01*
X027919Y004305D01*
X027985Y004239D01*
X028040Y004164D01*
X028082Y004081D01*
X028110Y003993D01*
X028125Y003901D01*
X028125Y003855D01*
X027535Y003855D01*
X027535Y003855D01*
X028125Y003855D01*
X028125Y003809D01*
X028110Y003717D01*
X028082Y003629D01*
X028040Y003546D01*
X027985Y003471D01*
X027919Y003405D01*
X027844Y003350D01*
X027761Y003308D01*
X027673Y003280D01*
X027581Y003265D01*
X027535Y003265D01*
X027535Y003855D01*
X027535Y003855D01*
X027535Y003855D01*
X026945Y003855D01*
X026945Y003901D01*
X026960Y003993D01*
X026988Y004081D01*
X026999Y004103D01*
X026879Y003983D01*
X026885Y003968D01*
X026885Y003742D01*
X026798Y003532D01*
X026638Y003372D01*
X026428Y003285D01*
X026202Y003285D01*
X025992Y003372D01*
X025832Y003532D01*
X025745Y003742D01*
X025745Y003968D01*
X025832Y004178D01*
X025992Y004338D01*
X026008Y004345D01*
X024864Y004345D01*
X024919Y004305D01*
X024985Y004239D01*
X025040Y004164D01*
X025082Y004081D01*
X025110Y003993D01*
X025125Y003901D01*
X025125Y003855D01*
X024535Y003855D01*
X024535Y003855D01*
X025125Y003855D01*
X025125Y003809D01*
X025110Y003717D01*
X025082Y003629D01*
X025040Y003546D01*
X024985Y003471D01*
X024919Y003405D01*
X024844Y003350D01*
X024761Y003308D01*
X024673Y003280D01*
X024581Y003265D01*
X024535Y003265D01*
X024535Y003855D01*
X024535Y003855D01*
X024535Y003855D01*
X023945Y003855D01*
X023945Y003901D01*
X023960Y003993D01*
X023988Y004081D01*
X023999Y004103D01*
X023879Y003983D01*
X023885Y003968D01*
X023885Y003742D01*
X023798Y003532D01*
X023638Y003372D01*
X023428Y003285D01*
X023202Y003285D01*
X022992Y003372D01*
X022832Y003532D01*
X022745Y003742D01*
X022745Y003968D01*
X022832Y004178D01*
X022992Y004338D01*
X023008Y004345D01*
X021864Y004345D01*
X021919Y004305D01*
X021985Y004239D01*
X022040Y004164D01*
X022082Y004081D01*
X022110Y003993D01*
X022125Y003901D01*
X022125Y003855D01*
X021535Y003855D01*
X021535Y003855D01*
X022125Y003855D01*
X022125Y003809D01*
X022110Y003717D01*
X022082Y003629D01*
X022040Y003546D01*
X021985Y003471D01*
X021919Y003405D01*
X021844Y003350D01*
X021761Y003308D01*
X021673Y003280D01*
X021581Y003265D01*
X021535Y003265D01*
X021535Y003855D01*
X021535Y003855D01*
X021535Y003855D01*
X020945Y003855D01*
X020945Y003901D01*
X020954Y003958D01*
X020885Y003889D01*
X020885Y003742D01*
X020798Y003532D01*
X020638Y003372D01*
X020428Y003285D01*
X020202Y003285D01*
X019992Y003372D01*
X019832Y003532D01*
X019745Y003742D01*
X019745Y003968D01*
X019832Y004178D01*
X019992Y004338D01*
X020202Y004425D01*
X020428Y004425D01*
X020570Y004366D01*
X020909Y004705D01*
X017511Y004705D01*
X017394Y004754D01*
X016944Y005204D01*
X016854Y005294D01*
X016805Y005411D01*
X016805Y011441D01*
X016802Y011442D01*
X016642Y011602D01*
X016555Y011812D01*
X016555Y012038D01*
X016642Y012248D01*
X016802Y012408D01*
X017012Y012495D01*
X017238Y012495D01*
X017395Y012430D01*
X017395Y015259D01*
X017281Y015373D01*
X017238Y015355D01*
X017012Y015355D01*
X016802Y015442D01*
X016642Y015602D01*
X016555Y015812D01*
X016555Y016038D01*
X016642Y016248D01*
X016802Y016408D01*
X017012Y016495D01*
X017154Y016495D01*
X017120Y016534D01*
X017088Y016566D01*
X017084Y016575D01*
X017078Y016583D01*
X017063Y016626D01*
X017045Y016669D01*
X017045Y016679D01*
X017042Y016688D01*
X017045Y016734D01*
X017045Y017005D01*
X017032Y016973D01*
X016897Y016838D01*
X016720Y016765D01*
X016530Y016765D01*
X016353Y016838D01*
X016218Y016973D01*
X016145Y017150D01*
X016145Y017900D01*
X016218Y018077D01*
X016353Y018212D01*
X016530Y018285D01*
X016569Y018285D01*
X015388Y019466D01*
X015345Y019569D01*
X015345Y019846D01*
X015218Y019973D01*
X015145Y020150D01*
X015145Y020900D01*
X015218Y021077D01*
X015353Y021212D01*
X015530Y021285D01*
X015720Y021285D01*
X015897Y021212D01*
X016032Y021077D01*
X016105Y020900D01*
X016105Y020150D01*
X016032Y019973D01*
X015905Y019846D01*
X015905Y019741D01*
X017484Y018162D01*
X017562Y018084D01*
X017605Y017981D01*
X017605Y016830D01*
X017725Y016693D01*
X017655Y016862D01*
X017655Y017088D01*
X017742Y017298D01*
X017902Y017458D01*
X017945Y017476D01*
X017945Y018059D01*
X016779Y019225D01*
X016695Y019225D01*
X016548Y019286D01*
X016436Y019398D01*
X016375Y019545D01*
X016375Y019705D01*
X016411Y019793D01*
X016363Y019817D01*
X016299Y019864D01*
X016244Y019919D01*
X016197Y019983D01*
X016162Y020053D01*
X016137Y020128D01*
X016125Y020206D01*
X016125Y020525D01*
X016625Y020525D01*
X016625Y020525D01*
X016625Y021305D01*
X016664Y021305D01*
X016742Y021293D01*
X016817Y021268D01*
X016887Y021233D01*
X016951Y021186D01*
X017006Y021131D01*
X017053Y021067D01*
X017088Y020997D01*
X017113Y020922D01*
X017125Y020844D01*
X017125Y020525D01*
X016625Y020525D01*
X016625Y020525D01*
X016625Y020525D01*
X016625Y021305D01*
X016586Y021305D01*
X016508Y021293D01*
X016433Y021268D01*
X016363Y021233D01*
X016299Y021186D01*
X016244Y021131D01*
X016197Y021067D01*
X016162Y020997D01*
X016137Y020922D01*
X016125Y020844D01*
X016125Y020525D01*
X016625Y020525D01*
X017125Y020525D01*
X017125Y020206D01*
X017113Y020128D01*
X017088Y020053D01*
X017053Y019983D01*
X017023Y019942D01*
X017114Y019852D01*
X017175Y019705D01*
X017175Y019621D01*
X018258Y018538D01*
X018780Y019026D01*
X018816Y019062D01*
X018821Y019064D01*
X018825Y019068D01*
X018872Y019086D01*
X018919Y019105D01*
X018924Y019105D01*
X018929Y019107D01*
X018980Y019105D01*
X021659Y019105D01*
X022523Y019969D01*
X022518Y019973D01*
X022445Y020150D01*
X022445Y020900D01*
X022518Y021077D01*
X022653Y021212D01*
X022830Y021285D01*
X022862Y021285D01*
X022692Y021455D01*
X021970Y021455D01*
X022073Y021367D01*
X022084Y021362D01*
X022115Y021331D01*
X022150Y021301D01*
X022155Y021291D01*
X022162Y021284D01*
X022180Y021242D01*
X022194Y021213D01*
X022656Y021213D01*
X022696Y021452D02*
X021974Y021452D01*
X022194Y021213D02*
X022197Y021212D01*
X022332Y021077D01*
X022405Y020900D01*
X022405Y020150D01*
X022332Y019973D01*
X022197Y019838D01*
X022020Y019765D01*
X021830Y019765D01*
X021653Y019838D01*
X021518Y019973D01*
X021445Y020150D01*
X021445Y020900D01*
X021518Y021077D01*
X021533Y021092D01*
X021471Y021145D01*
X021264Y021145D01*
X021332Y021077D01*
X021405Y020900D01*
X021405Y020150D01*
X021332Y019973D01*
X021197Y019838D01*
X021020Y019765D01*
X020830Y019765D01*
X020653Y019838D01*
X020518Y019973D01*
X020445Y020150D01*
X020445Y020900D01*
X020518Y021077D01*
X020586Y021145D01*
X020292Y021145D01*
X020306Y021131D01*
X020353Y021067D01*
X020388Y020997D01*
X020413Y020922D01*
X020425Y020844D01*
X020425Y020525D01*
X019925Y020525D01*
X019925Y020525D01*
X019925Y021145D01*
X019925Y021145D01*
X019925Y020525D01*
X019925Y020525D01*
X020425Y020525D01*
X020425Y020206D01*
X020413Y020128D01*
X020388Y020053D01*
X020353Y019983D01*
X020306Y019919D01*
X020251Y019864D01*
X020187Y019817D01*
X020117Y019782D01*
X020042Y019757D01*
X019964Y019745D01*
X019925Y019745D01*
X019925Y020525D01*
X019925Y020525D01*
X019925Y020525D01*
X019425Y020525D01*
X019425Y020829D01*
X019334Y020738D01*
X019231Y020695D01*
X018726Y020695D01*
X018708Y020652D01*
X018548Y020492D01*
X018338Y020405D01*
X018112Y020405D01*
X017902Y020492D01*
X017749Y020645D01*
X017569Y020645D01*
X017466Y020688D01*
X017388Y020766D01*
X016988Y021166D01*
X016945Y021269D01*
X016945Y021724D01*
X016902Y021742D01*
X016742Y021902D01*
X016655Y022112D01*
X016655Y022338D01*
X016742Y022548D01*
X016902Y022708D01*
X017112Y022795D01*
X017338Y022795D01*
X017548Y022708D01*
X017708Y022548D01*
X017795Y022338D01*
X017795Y022112D01*
X017708Y021902D01*
X017548Y021742D01*
X017505Y021724D01*
X017505Y021441D01*
X017714Y021232D01*
X017742Y021298D01*
X017902Y021458D01*
X018112Y021545D01*
X018338Y021545D01*
X018548Y021458D01*
X018708Y021298D01*
X018726Y021255D01*
X019059Y021255D01*
X019388Y021584D01*
X019401Y021597D01*
X019341Y021656D01*
X019338Y021655D01*
X019112Y021655D01*
X018902Y021742D01*
X018742Y021902D01*
X018655Y022112D01*
X018655Y022338D01*
X018742Y022548D01*
X018846Y022652D01*
X018592Y022905D01*
X016458Y022905D01*
X014803Y021251D01*
X014897Y021212D01*
X015032Y021077D01*
X015105Y020900D01*
X015105Y020150D01*
X015032Y019973D01*
X014897Y019838D01*
X014720Y019765D01*
X014530Y019765D01*
X014353Y019838D01*
X014218Y019973D01*
X014145Y020150D01*
X014145Y020592D01*
X014105Y020552D01*
X014105Y020150D01*
X014032Y019973D01*
X013897Y019838D01*
X013720Y019765D01*
X013530Y019765D01*
X013373Y019830D01*
X013425Y019705D01*
X013425Y019545D01*
X013364Y019398D01*
X013252Y019286D01*
X013105Y019225D01*
X012945Y019225D01*
X012798Y019286D01*
X012686Y019398D01*
X012625Y019545D01*
X012625Y019629D01*
X012066Y020188D01*
X011988Y020266D01*
X011945Y020369D01*
X011945Y024045D01*
X011861Y024080D01*
X011680Y024261D01*
X011582Y024497D01*
X011582Y024753D01*
X011680Y024989D01*
X011861Y025170D01*
X012097Y025268D01*
X012353Y025268D01*
X012589Y025170D01*
X012725Y025034D01*
X012861Y025170D01*
X013097Y025268D01*
X013353Y025268D01*
X013589Y025170D01*
X013770Y024989D01*
X013805Y024905D01*
X013805Y024906D01*
X013944Y025045D01*
X014126Y025120D01*
X014324Y025120D01*
X014506Y025045D01*
X014645Y024906D01*
X014645Y024905D01*
X014680Y024989D01*
X014861Y025170D01*
X015097Y025268D01*
X015353Y025268D01*
X015589Y025170D01*
X015725Y025034D01*
X015861Y025170D01*
X016097Y025268D01*
X016353Y025268D01*
X016589Y025170D01*
X016770Y024989D01*
X016868Y024753D01*
X016868Y024497D01*
X016770Y024261D01*
X016589Y024080D01*
X016353Y023982D01*
X016097Y023982D01*
X015861Y024080D01*
X015725Y024216D01*
X015589Y024080D01*
X015353Y023982D01*
X015097Y023982D01*
X014861Y024080D01*
X014680Y024261D01*
X014645Y024345D01*
X014645Y024344D01*
X014506Y024205D01*
X014324Y024130D01*
X014126Y024130D01*
X013944Y024205D01*
X013805Y024344D01*
X013805Y024345D01*
X013770Y024261D01*
X013589Y024080D01*
X013353Y023982D01*
X013097Y023982D01*
X012861Y024080D01*
X012725Y024216D01*
X012589Y024080D01*
X012505Y024045D01*
X012505Y020541D01*
X013021Y020025D01*
X013105Y020025D01*
X013216Y019979D01*
X013145Y020150D01*
X013145Y020900D01*
X013218Y021077D01*
X013353Y021212D01*
X013530Y021285D01*
X013720Y021285D01*
X013870Y021223D01*
X016054Y023406D01*
X016144Y023496D01*
X016261Y023545D01*
X018789Y023545D01*
X018906Y023496D01*
X019225Y023178D01*
X019405Y023358D01*
X019405Y023741D01*
X019402Y023742D01*
X019242Y023902D01*
X019225Y023943D01*
X019208Y023902D01*
X019048Y023742D01*
X018838Y023655D01*
X018612Y023655D01*
X018402Y023742D01*
X018315Y023829D01*
X018315Y023826D01*
X018300Y023770D01*
X018271Y023720D01*
X018230Y023679D01*
X018180Y023650D01*
X018124Y023635D01*
X017725Y023635D01*
X017725Y024225D01*
X017725Y024225D01*
X017725Y024225D01*
X017725Y024815D01*
X017326Y024815D01*
X017270Y024800D01*
X017220Y024771D01*
X017179Y024730D01*
X017150Y024680D01*
X017135Y024624D01*
X017135Y024225D01*
X017135Y023826D01*
X017150Y023770D01*
X017179Y023720D01*
X017220Y023679D01*
X017270Y023650D01*
X017326Y023635D01*
X017725Y023635D01*
X017725Y024225D01*
X017135Y024225D01*
X017135Y024075D02*
X016577Y024075D01*
X017135Y023837D02*
X012505Y023837D01*
X012505Y023598D02*
X019405Y023598D01*
X019405Y023360D02*
X019043Y023360D01*
X018725Y023225D02*
X019225Y022725D01*
X019225Y022225D01*
X019675Y021775D01*
X022825Y021775D01*
X023475Y021125D01*
X023475Y017475D01*
X024025Y016925D01*
X023925Y016925D01*
X023231Y016231D01*
X021709Y016231D01*
X022279Y016551D02*
X022279Y016684D01*
X022162Y016801D01*
X022107Y016801D01*
X022197Y016838D01*
X022332Y016973D01*
X022405Y017150D01*
X022405Y017900D01*
X022332Y018077D01*
X022197Y018212D01*
X022020Y018285D01*
X021830Y018285D01*
X021653Y018212D01*
X021518Y018077D01*
X021445Y017900D01*
X021445Y017150D01*
X021518Y016973D01*
X021653Y016838D01*
X021743Y016801D01*
X021256Y016801D01*
X021217Y016762D01*
X021178Y016801D01*
X021107Y016801D01*
X021197Y016838D01*
X021332Y016973D01*
X021405Y017150D01*
X021405Y017900D01*
X021332Y018077D01*
X021197Y018212D01*
X021020Y018285D01*
X020830Y018285D01*
X020653Y018212D01*
X020518Y018077D01*
X020445Y017900D01*
X020445Y017150D01*
X020518Y016973D01*
X020653Y016838D01*
X020743Y016801D01*
X020272Y016801D01*
X020247Y016776D01*
X020246Y016777D01*
X020196Y016806D01*
X020149Y016818D01*
X020197Y016838D01*
X020332Y016973D01*
X020405Y017150D01*
X020405Y017900D01*
X020332Y018077D01*
X020197Y018212D01*
X020020Y018285D01*
X019830Y018285D01*
X019653Y018212D01*
X019518Y018077D01*
X019445Y017900D01*
X019445Y017150D01*
X019518Y016973D01*
X019653Y016838D01*
X019695Y016821D01*
X019342Y016821D01*
X019286Y016806D01*
X019236Y016777D01*
X019195Y016736D01*
X019166Y016686D01*
X019151Y016630D01*
X019151Y016231D01*
X019741Y016231D01*
X019741Y015641D01*
X020140Y015641D01*
X020196Y015656D01*
X020246Y015685D01*
X020247Y015686D01*
X020272Y015661D01*
X020745Y015661D01*
X020745Y010167D01*
X020605Y010225D01*
X020513Y010225D01*
X018305Y012344D01*
X018305Y013045D01*
X018665Y012684D01*
X019320Y012684D01*
X019783Y013148D01*
X019783Y013802D01*
X019320Y014266D01*
X018665Y014266D01*
X018305Y013905D01*
X018305Y015916D01*
X018308Y015962D01*
X018305Y015971D01*
X018305Y015981D01*
X018287Y016024D01*
X018272Y016067D01*
X018266Y016075D01*
X018262Y016084D01*
X018230Y016116D01*
X017894Y016500D01*
X017902Y016492D01*
X018112Y016405D01*
X018338Y016405D01*
X018548Y016492D01*
X018708Y016652D01*
X018795Y016862D01*
X018795Y017088D01*
X018708Y017298D01*
X018548Y017458D01*
X018505Y017476D01*
X018505Y018003D01*
X019085Y018545D01*
X021719Y018545D01*
X021831Y018545D01*
X021934Y018588D01*
X023084Y019738D01*
X023155Y019809D01*
X023155Y018229D01*
X023020Y018285D01*
X022830Y018285D01*
X022653Y018212D01*
X022518Y018077D01*
X022445Y017900D01*
X022445Y017150D01*
X022518Y016973D01*
X022653Y016838D01*
X022830Y016765D01*
X023020Y016765D01*
X023197Y016838D01*
X023332Y016973D01*
X023388Y017109D01*
X023522Y016975D01*
X023098Y016551D01*
X022279Y016551D01*
X022279Y016682D02*
X023229Y016682D01*
X023279Y016920D02*
X023467Y016920D01*
X024025Y016925D02*
X026225Y016925D01*
X026709Y016441D01*
X026709Y016231D01*
X026725Y016247D01*
X027847Y016247D01*
X030125Y018525D01*
X033625Y018525D01*
X033425Y018325D01*
X033425Y017425D01*
X032231Y016231D01*
X031709Y016231D01*
X032279Y015911D02*
X032279Y015805D01*
X034158Y015805D01*
X034151Y015832D01*
X034151Y016231D01*
X034741Y016231D01*
X034741Y016231D01*
X034741Y016821D01*
X035140Y016821D01*
X035196Y016806D01*
X035246Y016777D01*
X035247Y016776D01*
X035272Y016801D01*
X035909Y016801D01*
X035905Y016811D01*
X035905Y017033D01*
X034733Y018205D01*
X033758Y018205D01*
X033745Y018192D01*
X033745Y017361D01*
X033696Y017244D01*
X033606Y017154D01*
X032412Y015960D01*
X032295Y015911D01*
X032279Y015911D01*
X032419Y015966D02*
X034151Y015966D01*
X034151Y016205D02*
X032657Y016205D01*
X032896Y016443D02*
X034151Y016443D01*
X034151Y016630D02*
X034151Y016231D01*
X034741Y016231D01*
X034741Y016821D01*
X034342Y016821D01*
X034286Y016806D01*
X034236Y016777D01*
X034195Y016736D01*
X034166Y016686D01*
X034151Y016630D01*
X034165Y016682D02*
X033134Y016682D01*
X033373Y016920D02*
X035905Y016920D01*
X035779Y017159D02*
X033611Y017159D01*
X033745Y017397D02*
X035541Y017397D01*
X035302Y017636D02*
X033745Y017636D01*
X033745Y017874D02*
X035064Y017874D01*
X034825Y018113D02*
X033745Y018113D01*
X033625Y018525D02*
X034865Y018525D01*
X036225Y017165D01*
X036225Y016875D01*
X036709Y016391D01*
X036709Y016231D01*
X037279Y016205D02*
X038345Y016205D01*
X038345Y015966D02*
X037279Y015966D01*
X037229Y015728D02*
X038345Y015728D01*
X038345Y015489D02*
X035785Y015489D01*
X035494Y015251D02*
X038345Y015251D01*
X038345Y015012D02*
X031408Y015012D01*
X031169Y014774D02*
X038345Y014774D01*
X038345Y014535D02*
X030931Y014535D01*
X031667Y013802D02*
X031667Y013148D01*
X032130Y012684D01*
X032785Y012684D01*
X033225Y013125D01*
X033665Y012684D01*
X034320Y012684D01*
X034783Y013148D01*
X034783Y013802D01*
X034320Y014266D01*
X033665Y014266D01*
X033225Y013825D01*
X032785Y014266D01*
X032130Y014266D01*
X031667Y013802D01*
X031684Y013820D02*
X029766Y013820D01*
X029783Y013581D02*
X031667Y013581D01*
X031667Y013343D02*
X029783Y013343D01*
X029740Y013104D02*
X031710Y013104D01*
X031949Y012866D02*
X029501Y012866D01*
X028484Y012866D02*
X027966Y012866D01*
X028204Y013104D02*
X028246Y013104D01*
X026949Y012866D02*
X026855Y012866D01*
X026855Y012627D02*
X038345Y012627D01*
X038345Y012389D02*
X026736Y012389D01*
X026507Y012150D02*
X038345Y012150D01*
X038345Y011912D02*
X026277Y011912D01*
X026048Y011673D02*
X038177Y011673D01*
X037939Y011435D02*
X025818Y011435D01*
X025589Y011196D02*
X031148Y011196D01*
X030862Y010958D02*
X025359Y010958D01*
X025130Y010719D02*
X030623Y010719D01*
X030385Y010481D02*
X024900Y010481D01*
X024671Y010242D02*
X030146Y010242D01*
X029908Y010004D02*
X024441Y010004D01*
X024344Y009765D02*
X024678Y009765D01*
X024699Y009786D02*
X024644Y009731D01*
X024597Y009667D01*
X024562Y009597D01*
X024537Y009522D01*
X024525Y009444D01*
X024525Y009125D01*
X025025Y009125D01*
X025525Y009125D01*
X025525Y009444D01*
X025513Y009522D01*
X025488Y009597D01*
X025453Y009667D01*
X025406Y009731D01*
X025351Y009786D01*
X025287Y009833D01*
X025217Y009868D01*
X025142Y009893D01*
X025064Y009905D01*
X025025Y009905D01*
X025025Y009125D01*
X025025Y009125D01*
X025025Y009125D01*
X025525Y009125D01*
X025525Y008806D01*
X025513Y008728D01*
X025488Y008653D01*
X025453Y008583D01*
X025406Y008519D01*
X025351Y008464D01*
X025287Y008417D01*
X025217Y008382D01*
X025142Y008357D01*
X025064Y008345D01*
X025025Y008345D01*
X025025Y009125D01*
X025025Y009125D01*
X025025Y009125D01*
X025025Y009905D01*
X024986Y009905D01*
X024908Y009893D01*
X024833Y009868D01*
X024763Y009833D01*
X024699Y009786D01*
X024539Y009527D02*
X024494Y009527D01*
X024505Y009288D02*
X024525Y009288D01*
X024525Y009125D02*
X024525Y008806D01*
X024537Y008728D01*
X024562Y008653D01*
X024597Y008583D01*
X024644Y008519D01*
X024699Y008464D01*
X024763Y008417D01*
X024833Y008382D01*
X024908Y008357D01*
X024986Y008345D01*
X025025Y008345D01*
X025025Y009125D01*
X024525Y009125D01*
X024525Y009050D02*
X024505Y009050D01*
X024505Y008811D02*
X024525Y008811D01*
X024605Y008573D02*
X024431Y008573D01*
X025025Y008573D02*
X025025Y008573D01*
X025025Y008811D02*
X025025Y008811D01*
X025025Y009050D02*
X025025Y009050D01*
X025025Y009288D02*
X025025Y009288D01*
X025025Y009527D02*
X025025Y009527D01*
X025025Y009765D02*
X025025Y009765D01*
X025372Y009765D02*
X025706Y009765D01*
X025753Y009812D02*
X025618Y009677D01*
X025545Y009500D01*
X025545Y008750D01*
X025618Y008573D01*
X025753Y008438D01*
X025930Y008365D01*
X026120Y008365D01*
X026297Y008438D01*
X026432Y008573D01*
X026505Y008750D01*
X026505Y009500D01*
X026432Y009677D01*
X026297Y009812D01*
X026120Y009885D01*
X025930Y009885D01*
X025753Y009812D01*
X025556Y009527D02*
X025511Y009527D01*
X025525Y009288D02*
X025545Y009288D01*
X025525Y009050D02*
X025545Y009050D01*
X025525Y008811D02*
X025545Y008811D01*
X025619Y008573D02*
X025445Y008573D01*
X026431Y008573D02*
X026619Y008573D01*
X026618Y008573D02*
X026753Y008438D01*
X026930Y008365D01*
X027120Y008365D01*
X027297Y008438D01*
X027432Y008573D01*
X027505Y008750D01*
X027505Y009500D01*
X027432Y009677D01*
X027297Y009812D01*
X027120Y009885D01*
X026930Y009885D01*
X026753Y009812D01*
X026618Y009677D01*
X026545Y009500D01*
X026545Y008750D01*
X026618Y008573D01*
X026545Y008811D02*
X026505Y008811D01*
X026505Y009050D02*
X026545Y009050D01*
X026545Y009288D02*
X026505Y009288D01*
X026494Y009527D02*
X026556Y009527D01*
X026706Y009765D02*
X026344Y009765D01*
X027344Y009765D02*
X027706Y009765D01*
X027753Y009812D02*
X027618Y009677D01*
X027545Y009500D01*
X027545Y008750D01*
X027618Y008573D01*
X027753Y008438D01*
X027930Y008365D01*
X028120Y008365D01*
X028297Y008438D01*
X028432Y008573D01*
X028505Y008750D01*
X028505Y009500D01*
X028432Y009677D01*
X028297Y009812D01*
X028120Y009885D01*
X027930Y009885D01*
X027753Y009812D01*
X027556Y009527D02*
X027494Y009527D01*
X027505Y009288D02*
X027545Y009288D01*
X027545Y009050D02*
X027505Y009050D01*
X027505Y008811D02*
X027545Y008811D01*
X027619Y008573D02*
X027431Y008573D01*
X028431Y008573D02*
X028619Y008573D01*
X028545Y008811D02*
X028505Y008811D01*
X028505Y009050D02*
X028545Y009050D01*
X028545Y009288D02*
X028505Y009288D01*
X028494Y009527D02*
X028556Y009527D01*
X028706Y009765D02*
X028344Y009765D01*
X029344Y009765D02*
X029706Y009765D01*
X029556Y009527D02*
X029494Y009527D01*
X029505Y009288D02*
X029545Y009288D01*
X029545Y009050D02*
X029505Y009050D01*
X029505Y008811D02*
X029545Y008811D01*
X029573Y008573D02*
X029619Y008573D01*
X029812Y008334D02*
X031020Y008334D01*
X030619Y008573D02*
X030431Y008573D01*
X030505Y008811D02*
X030545Y008811D01*
X030545Y009050D02*
X030505Y009050D01*
X030505Y009288D02*
X030545Y009288D01*
X030556Y009527D02*
X030494Y009527D01*
X030461Y009765D02*
X030706Y009765D01*
X030699Y010004D02*
X037108Y010004D01*
X037145Y010041D02*
X035959Y008855D01*
X035524Y008855D01*
X035397Y008982D01*
X035220Y009055D01*
X035030Y009055D01*
X034853Y008982D01*
X034718Y008847D01*
X034645Y008670D01*
X034645Y008480D01*
X034718Y008303D01*
X034853Y008168D01*
X035030Y008095D01*
X035220Y008095D01*
X035397Y008168D01*
X035524Y008295D01*
X036131Y008295D01*
X036234Y008338D01*
X037541Y009645D01*
X037720Y009645D01*
X037897Y009718D01*
X038032Y009853D01*
X038105Y010030D01*
X038105Y010220D01*
X038032Y010397D01*
X037897Y010532D01*
X037720Y010605D01*
X037530Y010605D01*
X037353Y010532D01*
X037218Y010397D01*
X037145Y010220D01*
X037145Y010041D01*
X037154Y010242D02*
X030938Y010242D01*
X031176Y010481D02*
X037302Y010481D01*
X037948Y010481D02*
X039000Y010481D01*
X039000Y010719D02*
X038015Y010719D01*
X038253Y010958D02*
X039000Y010958D01*
X039000Y011196D02*
X038492Y011196D01*
X038730Y011435D02*
X039000Y011435D01*
X039000Y011673D02*
X038905Y011673D01*
X038905Y011912D02*
X039000Y011912D01*
X039000Y012150D02*
X038905Y012150D01*
X038905Y012389D02*
X039000Y012389D01*
X039000Y012627D02*
X038905Y012627D01*
X038905Y012866D02*
X039000Y012866D01*
X039000Y013104D02*
X038905Y013104D01*
X038905Y013343D02*
X039000Y013343D01*
X039000Y013581D02*
X038905Y013581D01*
X038905Y013820D02*
X039000Y013820D01*
X039000Y014058D02*
X038905Y014058D01*
X038905Y014297D02*
X039000Y014297D01*
X039000Y014535D02*
X038905Y014535D01*
X038905Y014774D02*
X039000Y014774D01*
X039000Y015012D02*
X038905Y015012D01*
X038905Y015251D02*
X039000Y015251D01*
X039000Y015489D02*
X038905Y015489D01*
X038905Y015728D02*
X039000Y015728D01*
X039000Y015966D02*
X038905Y015966D01*
X038905Y016205D02*
X039000Y016205D01*
X039000Y016443D02*
X038905Y016443D01*
X038863Y016682D02*
X039000Y016682D01*
X039000Y016920D02*
X038626Y016920D01*
X038387Y017159D02*
X039000Y017159D01*
X039000Y017397D02*
X038149Y017397D01*
X037834Y016920D02*
X037226Y016920D01*
X037279Y016682D02*
X038073Y016682D01*
X038311Y016443D02*
X037279Y016443D01*
X037313Y017636D02*
X039000Y017636D01*
X039000Y017874D02*
X036989Y017874D01*
X036661Y017874D02*
X035969Y017874D01*
X036207Y017636D02*
X036337Y017636D01*
X035730Y018113D02*
X039000Y018113D01*
X039000Y018351D02*
X035492Y018351D01*
X035253Y018590D02*
X039000Y018590D01*
X039000Y018828D02*
X034970Y018828D01*
X034813Y019782D02*
X039000Y019782D01*
X039000Y019544D02*
X028789Y019544D01*
X028789Y019678D02*
X028750Y019717D01*
X028789Y019756D01*
X028789Y020662D01*
X028672Y020779D01*
X028499Y020779D01*
X028499Y021103D01*
X029069Y021673D01*
X029112Y021655D01*
X029338Y021655D01*
X029548Y021742D01*
X029708Y021902D01*
X029726Y021945D01*
X031766Y021945D01*
X031869Y021988D01*
X032103Y022222D01*
X032121Y022215D01*
X032329Y022215D01*
X032522Y022295D01*
X032670Y022443D01*
X032750Y022636D01*
X032750Y022844D01*
X032670Y023037D01*
X032522Y023185D01*
X032329Y023265D01*
X032121Y023265D01*
X031928Y023185D01*
X031780Y023037D01*
X031700Y022844D01*
X031700Y022636D01*
X031707Y022618D01*
X031594Y022505D01*
X029726Y022505D01*
X029708Y022548D01*
X029548Y022708D01*
X029505Y022726D01*
X029505Y023231D01*
X029462Y023334D01*
X029247Y023549D01*
X029255Y023570D01*
X029255Y023780D01*
X029174Y023975D01*
X029025Y024124D01*
X028842Y024200D01*
X029025Y024276D01*
X029174Y024425D01*
X029183Y024445D01*
X031767Y024445D01*
X031780Y024413D01*
X031928Y024265D01*
X032121Y024185D01*
X032329Y024185D01*
X032522Y024265D01*
X032670Y024413D01*
X032677Y024430D01*
X036373Y024430D01*
X036380Y024413D01*
X036528Y024265D01*
X036721Y024185D01*
X036929Y024185D01*
X037122Y024265D01*
X037270Y024413D01*
X037350Y024606D01*
X037350Y024814D01*
X037270Y025007D01*
X037122Y025155D01*
X036929Y025235D01*
X036721Y025235D01*
X036528Y025155D01*
X036380Y025007D01*
X036373Y024990D01*
X032677Y024990D01*
X032670Y025007D01*
X032522Y025155D01*
X032329Y025235D01*
X032121Y025235D01*
X031928Y025155D01*
X031780Y025007D01*
X031779Y025005D01*
X029183Y025005D01*
X029174Y025025D01*
X029025Y025174D01*
X028830Y025255D01*
X028620Y025255D01*
X028425Y025174D01*
X028276Y025025D01*
X028236Y024931D01*
X028235Y024936D01*
X028195Y025013D01*
X028145Y025083D01*
X028083Y025145D01*
X028013Y025195D01*
X027936Y025235D01*
X027854Y025261D01*
X027768Y025275D01*
X027725Y025275D01*
X027725Y024725D01*
X027725Y024725D01*
X027725Y024725D01*
X027175Y024725D01*
X027175Y024768D01*
X027189Y024854D01*
X027215Y024936D01*
X027255Y025013D01*
X027305Y025083D01*
X027367Y025145D01*
X027437Y025195D01*
X027514Y025235D01*
X027596Y025261D01*
X027682Y025275D01*
X027725Y025275D01*
X027725Y024725D01*
X027725Y024225D01*
X027725Y023675D01*
X027725Y023675D01*
X027725Y023125D01*
X027768Y023125D01*
X027854Y023139D01*
X027936Y023165D01*
X028013Y023205D01*
X028083Y023255D01*
X028145Y023317D01*
X028195Y023387D01*
X028235Y023464D01*
X028236Y023469D01*
X028276Y023375D01*
X028425Y023226D01*
X028620Y023145D01*
X028830Y023145D01*
X028851Y023153D01*
X028945Y023059D01*
X028945Y022726D01*
X028902Y022708D01*
X028742Y022548D01*
X028655Y022338D01*
X028655Y022112D01*
X028673Y022069D01*
X027982Y021378D01*
X027939Y021275D01*
X027939Y020779D01*
X027766Y020779D01*
X027649Y020662D01*
X027649Y019756D01*
X027688Y019717D01*
X027649Y019678D01*
X027649Y018772D01*
X027674Y018747D01*
X027673Y018746D01*
X027644Y018696D01*
X027629Y018640D01*
X027629Y018241D01*
X028219Y018241D01*
X028219Y018241D01*
X028809Y018241D01*
X028809Y018640D01*
X028794Y018696D01*
X028765Y018746D01*
X028764Y018747D01*
X028789Y018772D01*
X028789Y019678D01*
X028789Y019782D02*
X034637Y019782D01*
X034596Y019789D02*
X034682Y019775D01*
X034725Y019775D01*
X034768Y019775D01*
X034854Y019789D01*
X034936Y019815D01*
X035013Y019855D01*
X035083Y019905D01*
X035145Y019967D01*
X035195Y020037D01*
X035235Y020114D01*
X035261Y020196D01*
X035275Y020282D01*
X035275Y020325D01*
X035275Y020368D01*
X035261Y020454D01*
X035235Y020536D01*
X035195Y020613D01*
X035145Y020683D01*
X035083Y020745D01*
X035013Y020795D01*
X034936Y020835D01*
X034931Y020836D01*
X035025Y020876D01*
X035174Y021025D01*
X035183Y021045D01*
X036324Y021045D01*
X036342Y021002D01*
X036502Y020842D01*
X036712Y020755D01*
X036938Y020755D01*
X037148Y020842D01*
X037308Y021002D01*
X037395Y021212D01*
X037395Y021438D01*
X037308Y021648D01*
X037148Y021808D01*
X037105Y021826D01*
X037105Y022288D01*
X037122Y022295D01*
X037270Y022443D01*
X037350Y022636D01*
X037350Y022844D01*
X037270Y023037D01*
X037122Y023185D01*
X036929Y023265D01*
X036721Y023265D01*
X036528Y023185D01*
X036380Y023037D01*
X036300Y022844D01*
X036300Y022636D01*
X036380Y022443D01*
X036528Y022295D01*
X036545Y022288D01*
X036545Y021826D01*
X036502Y021808D01*
X036342Y021648D01*
X036324Y021605D01*
X035183Y021605D01*
X035174Y021625D01*
X035025Y021774D01*
X034830Y021855D01*
X034620Y021855D01*
X034425Y021774D01*
X034276Y021625D01*
X034195Y021430D01*
X034195Y021220D01*
X034276Y021025D01*
X034425Y020876D01*
X034519Y020836D01*
X034514Y020835D01*
X034437Y020795D01*
X034367Y020745D01*
X034305Y020683D01*
X034255Y020613D01*
X034215Y020536D01*
X034189Y020454D01*
X034175Y020368D01*
X034175Y020325D01*
X034725Y020325D01*
X035275Y020325D01*
X034725Y020325D01*
X034725Y020325D01*
X034725Y020325D01*
X034725Y019775D01*
X034725Y020325D01*
X034725Y020325D01*
X034175Y020325D01*
X034175Y020282D01*
X034189Y020196D01*
X034215Y020114D01*
X034255Y020037D01*
X034305Y019967D01*
X034367Y019905D01*
X034437Y019855D01*
X034514Y019815D01*
X034596Y019789D01*
X034725Y019782D02*
X034725Y019782D01*
X034725Y020021D02*
X034725Y020021D01*
X034725Y020259D02*
X034725Y020259D01*
X035184Y020021D02*
X039000Y020021D01*
X039000Y020259D02*
X035271Y020259D01*
X035247Y020498D02*
X039000Y020498D01*
X039000Y020736D02*
X035092Y020736D01*
X035124Y020975D02*
X036369Y020975D01*
X037281Y020975D02*
X039000Y020975D01*
X039000Y021213D02*
X037395Y021213D01*
X037390Y021452D02*
X039000Y021452D01*
X039000Y021690D02*
X037266Y021690D01*
X037105Y021929D02*
X039000Y021929D01*
X039000Y022167D02*
X037105Y022167D01*
X037233Y022406D02*
X039000Y022406D01*
X039000Y022644D02*
X037350Y022644D01*
X037334Y022883D02*
X039000Y022883D01*
X039000Y023121D02*
X037186Y023121D01*
X036464Y023121D02*
X032586Y023121D01*
X032734Y022883D02*
X036316Y022883D01*
X036300Y022644D02*
X032750Y022644D01*
X032633Y022406D02*
X036417Y022406D01*
X036545Y022167D02*
X032048Y022167D01*
X031700Y022644D02*
X029612Y022644D01*
X029505Y022883D02*
X031716Y022883D01*
X031864Y023121D02*
X029505Y023121D01*
X029436Y023360D02*
X039000Y023360D01*
X039000Y023598D02*
X029255Y023598D01*
X029232Y023837D02*
X039000Y023837D01*
X039000Y024075D02*
X029075Y024075D01*
X029063Y024314D02*
X031879Y024314D01*
X032571Y024314D02*
X036479Y024314D01*
X037171Y024314D02*
X039000Y024314D01*
X039000Y024552D02*
X037328Y024552D01*
X037350Y024791D02*
X039000Y024791D01*
X039000Y025029D02*
X037248Y025029D01*
X036402Y025029D02*
X032648Y025029D01*
X031802Y025029D02*
X029171Y025029D01*
X028279Y025029D02*
X028184Y025029D01*
X027815Y025268D02*
X039000Y025268D01*
X039000Y025506D02*
X000450Y025506D01*
X000450Y025268D02*
X012096Y025268D01*
X012354Y025268D02*
X013096Y025268D01*
X013354Y025268D02*
X015096Y025268D01*
X015354Y025268D02*
X016096Y025268D01*
X016354Y025268D02*
X027635Y025268D01*
X027725Y025268D02*
X027725Y025268D01*
X027725Y025029D02*
X027725Y025029D01*
X027725Y024791D02*
X027725Y024791D01*
X027725Y024725D02*
X027175Y024725D01*
X027175Y024682D01*
X027189Y024596D01*
X027215Y024514D01*
X027255Y024437D01*
X027305Y024367D01*
X027367Y024305D01*
X027437Y024255D01*
X027514Y024215D01*
X027561Y024200D01*
X027514Y024185D01*
X027437Y024145D01*
X027367Y024095D01*
X027305Y024033D01*
X027255Y023963D01*
X027215Y023886D01*
X027189Y023804D01*
X027175Y023718D01*
X027175Y023675D01*
X027725Y023675D01*
X027725Y023675D01*
X027725Y023675D01*
X027725Y024725D01*
X027725Y024725D01*
X027725Y024552D02*
X027725Y024552D01*
X027725Y024314D02*
X027725Y024314D01*
X027725Y024075D02*
X027725Y024075D01*
X027725Y023837D02*
X027725Y023837D01*
X027725Y023675D02*
X027175Y023675D01*
X027175Y023632D01*
X027189Y023546D01*
X027215Y023464D01*
X027255Y023387D01*
X027305Y023317D01*
X027367Y023255D01*
X027437Y023205D01*
X027514Y023165D01*
X027596Y023139D01*
X027682Y023125D01*
X027725Y023125D01*
X027725Y023675D01*
X027725Y023598D02*
X027725Y023598D01*
X027725Y023360D02*
X027725Y023360D01*
X028176Y023360D02*
X028291Y023360D01*
X028883Y023121D02*
X023725Y023121D01*
X023963Y022883D02*
X028945Y022883D01*
X028838Y022644D02*
X025640Y022644D01*
X025609Y022675D02*
X025534Y022730D01*
X025451Y022772D01*
X025363Y022800D01*
X025271Y022815D01*
X025225Y022815D01*
X025225Y022225D01*
X025815Y022225D01*
X025815Y022271D01*
X025800Y022363D01*
X025772Y022451D01*
X025730Y022534D01*
X025675Y022609D01*
X025609Y022675D01*
X025787Y022406D02*
X028683Y022406D01*
X028655Y022167D02*
X025813Y022167D01*
X025815Y022179D02*
X025815Y022225D01*
X025225Y022225D01*
X025225Y022225D01*
X025225Y022225D01*
X025225Y021635D01*
X025271Y021635D01*
X025363Y021650D01*
X025451Y021678D01*
X025534Y021720D01*
X025609Y021775D01*
X025675Y021841D01*
X025730Y021916D01*
X025772Y021999D01*
X025800Y022087D01*
X025815Y022179D01*
X025736Y021929D02*
X028533Y021929D01*
X028294Y021690D02*
X025475Y021690D01*
X025225Y021690D02*
X025225Y021690D01*
X025225Y021635D02*
X025225Y022225D01*
X025225Y022225D01*
X025225Y022225D01*
X024635Y022225D01*
X024635Y022271D01*
X024650Y022363D01*
X024678Y022451D01*
X024720Y022534D01*
X024775Y022609D01*
X024841Y022675D01*
X024916Y022730D01*
X024999Y022772D01*
X025087Y022800D01*
X025179Y022815D01*
X025225Y022815D01*
X025225Y022225D01*
X024635Y022225D01*
X024635Y022179D01*
X024650Y022087D01*
X024678Y021999D01*
X024720Y021916D01*
X024775Y021841D01*
X024841Y021775D01*
X024916Y021720D01*
X024999Y021678D01*
X025087Y021650D01*
X025179Y021635D01*
X025225Y021635D01*
X024975Y021690D02*
X024105Y021690D01*
X024105Y021452D02*
X028056Y021452D01*
X027939Y021213D02*
X024105Y021213D01*
X024105Y020975D02*
X024400Y020975D01*
X024134Y020736D02*
X024105Y020736D01*
X024870Y020975D02*
X026180Y020975D01*
X026092Y020938D02*
X025932Y020778D01*
X025845Y020568D01*
X025845Y020342D01*
X025932Y020132D01*
X026092Y019972D01*
X026302Y019885D01*
X026528Y019885D01*
X026738Y019972D01*
X026898Y020132D01*
X026985Y020342D01*
X026985Y020568D01*
X026898Y020778D01*
X026738Y020938D01*
X026528Y021025D01*
X026302Y021025D01*
X026092Y020938D01*
X025914Y020736D02*
X025136Y020736D01*
X025205Y020498D02*
X025845Y020498D01*
X025879Y020259D02*
X025171Y020259D01*
X025007Y020021D02*
X026043Y020021D01*
X026787Y020021D02*
X027649Y020021D01*
X027649Y020259D02*
X026951Y020259D01*
X026985Y020498D02*
X027649Y020498D01*
X027723Y020736D02*
X026916Y020736D01*
X026650Y020975D02*
X027939Y020975D01*
X028499Y020975D02*
X030184Y020975D01*
X030184Y021213D02*
X028609Y021213D01*
X028848Y021452D02*
X030351Y021452D01*
X030184Y021285D02*
X030184Y020630D01*
X030648Y020167D01*
X031302Y020167D01*
X031766Y020630D01*
X031766Y021285D01*
X031302Y021748D01*
X030648Y021748D01*
X030184Y021285D01*
X030590Y021690D02*
X029423Y021690D01*
X029719Y021929D02*
X036545Y021929D01*
X036384Y021690D02*
X035110Y021690D01*
X034340Y021690D02*
X031360Y021690D01*
X031599Y021452D02*
X034204Y021452D01*
X034198Y021213D02*
X031766Y021213D01*
X031766Y020975D02*
X034326Y020975D01*
X034358Y020736D02*
X031766Y020736D01*
X031633Y020498D02*
X034203Y020498D01*
X034179Y020259D02*
X031395Y020259D01*
X030555Y020259D02*
X028789Y020259D01*
X028789Y020021D02*
X034266Y020021D01*
X030569Y018205D02*
X030184Y017820D01*
X030184Y017165D01*
X030549Y016801D01*
X030272Y016801D01*
X030247Y016776D01*
X030246Y016777D01*
X030196Y016806D01*
X030140Y016821D01*
X029741Y016821D01*
X029741Y016231D01*
X029741Y016231D01*
X029741Y015641D01*
X030140Y015641D01*
X030147Y015643D01*
X030009Y015505D01*
X027069Y015505D01*
X026966Y015462D01*
X026888Y015384D01*
X026005Y014501D01*
X026005Y015661D01*
X026178Y015661D01*
X026217Y015700D01*
X026256Y015661D01*
X027162Y015661D01*
X027279Y015778D01*
X027279Y015927D01*
X027910Y015927D01*
X028028Y015975D01*
X030258Y018205D01*
X030569Y018205D01*
X030477Y018113D02*
X030165Y018113D01*
X030238Y017874D02*
X029927Y017874D01*
X029688Y017636D02*
X030184Y017636D01*
X030184Y017397D02*
X029450Y017397D01*
X029211Y017159D02*
X030191Y017159D01*
X030430Y016920D02*
X028973Y016920D01*
X029195Y016736D02*
X029166Y016686D01*
X029151Y016630D01*
X029151Y016231D01*
X029741Y016231D01*
X029741Y016231D01*
X029741Y016821D01*
X029342Y016821D01*
X029286Y016806D01*
X029236Y016777D01*
X029195Y016736D01*
X029165Y016682D02*
X028734Y016682D01*
X028496Y016443D02*
X029151Y016443D01*
X029151Y016231D02*
X029151Y015832D01*
X029166Y015776D01*
X029195Y015726D01*
X029236Y015685D01*
X029286Y015656D01*
X029342Y015641D01*
X029741Y015641D01*
X029741Y016231D01*
X029741Y016231D01*
X029151Y016231D01*
X029151Y016205D02*
X028257Y016205D01*
X028005Y015966D02*
X029151Y015966D01*
X029194Y015728D02*
X027229Y015728D01*
X027031Y015489D02*
X026005Y015489D01*
X026005Y015251D02*
X026755Y015251D01*
X026516Y015012D02*
X026005Y015012D01*
X026005Y014774D02*
X026278Y014774D01*
X026039Y014535D02*
X026005Y014535D01*
X025445Y014535D02*
X021943Y014535D01*
X021943Y014558D02*
X021879Y014712D01*
X021762Y014829D01*
X021608Y014893D01*
X021442Y014893D01*
X021305Y014836D01*
X021305Y015661D01*
X022162Y015661D01*
X022279Y015778D01*
X022279Y015911D01*
X023295Y015911D01*
X023412Y015960D01*
X023502Y016050D01*
X024058Y016605D01*
X024151Y016605D01*
X024151Y016231D01*
X024741Y016231D01*
X024741Y015641D01*
X025140Y015641D01*
X025196Y015656D01*
X025246Y015685D01*
X025247Y015686D01*
X025272Y015661D01*
X025445Y015661D01*
X025445Y013491D01*
X021805Y009851D01*
X021805Y013009D01*
X022130Y012684D01*
X022785Y012684D01*
X023225Y013125D01*
X023665Y012684D01*
X024320Y012684D01*
X024783Y013148D01*
X024783Y013802D01*
X024320Y014266D01*
X023665Y014266D01*
X023225Y013825D01*
X022785Y014266D01*
X022130Y014266D01*
X021805Y013941D01*
X021805Y014164D01*
X021879Y014238D01*
X021943Y014392D01*
X021943Y014558D01*
X021818Y014774D02*
X025445Y014774D01*
X025445Y015012D02*
X021305Y015012D01*
X021305Y015251D02*
X025445Y015251D01*
X025445Y015489D02*
X021305Y015489D01*
X020745Y015489D02*
X018305Y015489D01*
X018305Y015251D02*
X020745Y015251D01*
X020745Y015012D02*
X018305Y015012D01*
X018305Y014774D02*
X020745Y014774D01*
X020745Y014535D02*
X018305Y014535D01*
X018305Y014297D02*
X020745Y014297D01*
X020745Y014058D02*
X019528Y014058D01*
X019766Y013820D02*
X020745Y013820D01*
X020745Y013581D02*
X019783Y013581D01*
X019783Y013343D02*
X020745Y013343D01*
X020745Y013104D02*
X019740Y013104D01*
X019501Y012866D02*
X020745Y012866D01*
X020745Y012627D02*
X018305Y012627D01*
X018305Y012389D02*
X020745Y012389D01*
X020745Y012150D02*
X018507Y012150D01*
X018756Y011912D02*
X020745Y011912D01*
X020745Y011673D02*
X019004Y011673D01*
X019253Y011435D02*
X020745Y011435D01*
X020745Y011196D02*
X019501Y011196D01*
X019750Y010958D02*
X020745Y010958D01*
X020745Y010719D02*
X019998Y010719D01*
X020246Y010481D02*
X020745Y010481D01*
X020745Y010242D02*
X020495Y010242D01*
X019935Y010004D02*
X018305Y010004D01*
X018305Y010242D02*
X019686Y010242D01*
X019438Y010481D02*
X018305Y010481D01*
X018305Y010719D02*
X019189Y010719D01*
X018941Y010958D02*
X018305Y010958D01*
X018305Y011196D02*
X018693Y011196D01*
X018444Y011435D02*
X018305Y011435D01*
X017745Y011435D02*
X017445Y011435D01*
X017445Y011196D02*
X017745Y011196D01*
X017745Y010958D02*
X017445Y010958D01*
X017445Y010719D02*
X017745Y010719D01*
X017745Y010481D02*
X017445Y010481D01*
X017445Y010242D02*
X017745Y010242D01*
X017745Y010004D02*
X017445Y010004D01*
X017445Y009765D02*
X017745Y009765D01*
X017745Y009527D02*
X017445Y009527D01*
X017445Y009288D02*
X017745Y009288D01*
X017745Y009050D02*
X017445Y009050D01*
X017445Y008811D02*
X017745Y008811D01*
X017745Y008573D02*
X017445Y008573D01*
X017445Y008334D02*
X017745Y008334D01*
X017745Y008096D02*
X017445Y008096D01*
X017445Y007857D02*
X017745Y007857D01*
X017745Y007619D02*
X017445Y007619D01*
X017445Y007380D02*
X017745Y007380D01*
X017745Y007142D02*
X017445Y007142D01*
X017445Y006903D02*
X017745Y006903D01*
X017890Y006665D02*
X017445Y006665D01*
X017445Y006426D02*
X018128Y006426D01*
X018367Y006188D02*
X017445Y006188D01*
X017445Y005949D02*
X018545Y005949D01*
X018561Y005711D02*
X017445Y005711D01*
X017581Y005472D02*
X018719Y005472D01*
X019331Y005472D02*
X019719Y005472D01*
X019753Y005438D02*
X019618Y005573D01*
X019545Y005750D01*
X019545Y006500D01*
X019618Y006677D01*
X019753Y006812D01*
X019930Y006885D01*
X020120Y006885D01*
X020297Y006812D01*
X020432Y006677D01*
X020505Y006500D01*
X020505Y005750D01*
X020432Y005573D01*
X020297Y005438D01*
X020120Y005365D01*
X019930Y005365D01*
X019753Y005438D01*
X019561Y005711D02*
X019489Y005711D01*
X019505Y005949D02*
X019545Y005949D01*
X019545Y006188D02*
X019505Y006188D01*
X019505Y006426D02*
X019545Y006426D01*
X019613Y006665D02*
X019437Y006665D01*
X020437Y006665D02*
X020613Y006665D01*
X020545Y006426D02*
X020505Y006426D01*
X020505Y006188D02*
X020545Y006188D01*
X020545Y005949D02*
X020505Y005949D01*
X020489Y005711D02*
X020561Y005711D01*
X020719Y005472D02*
X020331Y005472D01*
X021331Y005472D02*
X021719Y005472D01*
X021561Y005711D02*
X021489Y005711D01*
X021505Y005949D02*
X021545Y005949D01*
X021545Y006188D02*
X021505Y006188D01*
X021245Y006903D02*
X018443Y006903D01*
X018305Y007142D02*
X021245Y007142D01*
X021245Y007380D02*
X018305Y007380D01*
X018305Y007619D02*
X021245Y007619D01*
X021245Y007857D02*
X018305Y007857D01*
X018305Y008096D02*
X021245Y008096D01*
X021245Y008334D02*
X018305Y008334D01*
X018305Y008573D02*
X018619Y008573D01*
X018618Y008573D02*
X018753Y008438D01*
X018930Y008365D01*
X019120Y008365D01*
X019297Y008438D01*
X019432Y008573D01*
X019505Y008750D01*
X019505Y009500D01*
X019432Y009677D01*
X019297Y009812D01*
X019120Y009885D01*
X018930Y009885D01*
X018753Y009812D01*
X018618Y009677D01*
X018545Y009500D01*
X018545Y008750D01*
X018618Y008573D01*
X018545Y008811D02*
X018305Y008811D01*
X018305Y009050D02*
X018545Y009050D01*
X018545Y009288D02*
X018305Y009288D01*
X018305Y009527D02*
X018556Y009527D01*
X018706Y009765D02*
X018305Y009765D01*
X019344Y009765D02*
X019706Y009765D01*
X019556Y009527D02*
X019494Y009527D01*
X019505Y009288D02*
X019545Y009288D01*
X019545Y009050D02*
X019505Y009050D01*
X019505Y008811D02*
X019545Y008811D01*
X019619Y008573D02*
X019431Y008573D01*
X020431Y008573D02*
X020619Y008573D01*
X020545Y008811D02*
X020505Y008811D01*
X020505Y009050D02*
X020545Y009050D01*
X020545Y009288D02*
X020505Y009288D01*
X021805Y010004D02*
X021958Y010004D01*
X021805Y010242D02*
X022196Y010242D01*
X022435Y010481D02*
X021805Y010481D01*
X021805Y010719D02*
X022673Y010719D01*
X022912Y010958D02*
X021805Y010958D01*
X021805Y011196D02*
X023150Y011196D01*
X023389Y011435D02*
X021805Y011435D01*
X021805Y011673D02*
X023627Y011673D01*
X023866Y011912D02*
X021805Y011912D01*
X021805Y012150D02*
X024104Y012150D01*
X024343Y012389D02*
X021805Y012389D01*
X021805Y012627D02*
X024581Y012627D01*
X024501Y012866D02*
X024820Y012866D01*
X024740Y013104D02*
X025058Y013104D01*
X025297Y013343D02*
X024783Y013343D01*
X024783Y013581D02*
X025445Y013581D01*
X025445Y013820D02*
X024766Y013820D01*
X024528Y014058D02*
X025445Y014058D01*
X025445Y014297D02*
X021904Y014297D01*
X021922Y014058D02*
X021805Y014058D01*
X022992Y014058D02*
X023458Y014058D01*
X023246Y013104D02*
X023204Y013104D01*
X022966Y012866D02*
X023484Y012866D01*
X021949Y012866D02*
X021805Y012866D01*
X024483Y010958D02*
X024582Y010958D01*
X024718Y011196D02*
X024811Y011196D01*
X024953Y011435D02*
X025041Y011435D01*
X025187Y011673D02*
X025270Y011673D01*
X025422Y011912D02*
X025500Y011912D01*
X025657Y012150D02*
X025729Y012150D01*
X025891Y012389D02*
X025959Y012389D01*
X026126Y012627D02*
X026188Y012627D01*
X027992Y014058D02*
X028458Y014058D01*
X029528Y014058D02*
X031922Y014058D01*
X032992Y014058D02*
X033458Y014058D01*
X034528Y014058D02*
X036922Y014058D01*
X037130Y014266D02*
X036667Y013802D01*
X036667Y013148D01*
X037130Y012684D01*
X037785Y012684D01*
X038248Y013148D01*
X038248Y013802D01*
X037785Y014266D01*
X037130Y014266D01*
X036684Y013820D02*
X034766Y013820D01*
X034783Y013581D02*
X036667Y013581D01*
X036667Y013343D02*
X034783Y013343D01*
X034740Y013104D02*
X036710Y013104D01*
X036949Y012866D02*
X034501Y012866D01*
X033484Y012866D02*
X032966Y012866D01*
X033204Y013104D02*
X033246Y013104D01*
X029741Y015728D02*
X029741Y015728D01*
X029741Y015966D02*
X029741Y015966D01*
X029741Y016205D02*
X029741Y016205D01*
X029741Y016443D02*
X029741Y016443D01*
X029741Y016682D02*
X029741Y016682D01*
X028783Y017636D02*
X026924Y017636D01*
X026898Y017572D02*
X026985Y017782D01*
X026985Y018008D01*
X026898Y018218D01*
X026738Y018378D01*
X026528Y018465D01*
X026302Y018465D01*
X026092Y018378D01*
X025932Y018218D01*
X025845Y018008D01*
X025845Y017782D01*
X025932Y017572D01*
X026092Y017412D01*
X026302Y017325D01*
X026528Y017325D01*
X026738Y017412D01*
X026898Y017572D01*
X026702Y017397D02*
X028544Y017397D01*
X028618Y017651D02*
X028219Y017651D01*
X028219Y018241D01*
X028219Y018241D01*
X027629Y018241D01*
X027629Y017842D01*
X027644Y017786D01*
X027673Y017736D01*
X027714Y017695D01*
X027764Y017666D01*
X027820Y017651D01*
X028219Y017651D01*
X028219Y018241D01*
X028219Y018241D01*
X028809Y018241D01*
X028809Y017842D01*
X028794Y017786D01*
X028765Y017736D01*
X028724Y017695D01*
X028674Y017666D01*
X028618Y017651D01*
X028809Y017874D02*
X029021Y017874D01*
X028809Y018113D02*
X029260Y018113D01*
X029498Y018351D02*
X028809Y018351D01*
X028809Y018590D02*
X029737Y018590D01*
X030020Y018828D02*
X028789Y018828D01*
X028789Y019067D02*
X039000Y019067D01*
X039000Y019305D02*
X028789Y019305D01*
X027649Y019305D02*
X024105Y019305D01*
X024105Y019067D02*
X027649Y019067D01*
X027649Y018828D02*
X024105Y018828D01*
X024105Y018590D02*
X027629Y018590D01*
X027629Y018351D02*
X026765Y018351D01*
X026942Y018113D02*
X027629Y018113D01*
X027629Y017874D02*
X026985Y017874D01*
X026128Y017397D02*
X024953Y017397D01*
X024635Y017397D02*
X024635Y017397D01*
X024635Y017636D02*
X024635Y017636D01*
X024635Y017874D02*
X024635Y017874D01*
X024635Y018113D02*
X024635Y018113D01*
X024635Y018351D02*
X024635Y018351D01*
X024259Y018351D02*
X024105Y018351D01*
X025011Y018351D02*
X026065Y018351D01*
X025888Y018113D02*
X025185Y018113D01*
X025225Y017874D02*
X025845Y017874D01*
X025906Y017636D02*
X025165Y017636D01*
X026444Y017159D02*
X028306Y017159D01*
X028067Y016920D02*
X026683Y016920D01*
X027279Y016682D02*
X027829Y016682D01*
X028219Y017874D02*
X028219Y017874D01*
X028219Y018113D02*
X028219Y018113D01*
X027649Y019544D02*
X024105Y019544D01*
X024105Y019782D02*
X027649Y019782D01*
X028789Y020498D02*
X030317Y020498D01*
X030184Y020736D02*
X028715Y020736D01*
X027274Y023360D02*
X023486Y023360D01*
X023143Y023837D02*
X027199Y023837D01*
X027180Y023598D02*
X022005Y023598D01*
X022143Y023837D02*
X022307Y023837D01*
X022246Y024552D02*
X022204Y024552D01*
X021849Y024791D02*
X022601Y024791D01*
X022849Y024791D02*
X027179Y024791D01*
X027203Y024552D02*
X023204Y024552D01*
X023295Y024314D02*
X027359Y024314D01*
X027347Y024075D02*
X023280Y024075D01*
X024105Y022644D02*
X024810Y022644D01*
X024663Y022406D02*
X024105Y022406D01*
X024105Y022167D02*
X024637Y022167D01*
X024714Y021929D02*
X024105Y021929D01*
X025225Y021929D02*
X025225Y021929D01*
X025225Y022167D02*
X025225Y022167D01*
X025225Y022406D02*
X025225Y022406D01*
X025225Y022644D02*
X025225Y022644D01*
X022476Y020975D02*
X022374Y020975D01*
X022405Y020736D02*
X022445Y020736D01*
X022445Y020498D02*
X022405Y020498D01*
X022405Y020259D02*
X022445Y020259D01*
X022498Y020021D02*
X022352Y020021D01*
X022336Y019782D02*
X022062Y019782D01*
X022098Y019544D02*
X017252Y019544D01*
X017143Y019782D02*
X019732Y019782D01*
X019733Y019782D02*
X019808Y019757D01*
X019886Y019745D01*
X019925Y019745D01*
X019925Y020525D01*
X019425Y020525D01*
X019425Y020206D01*
X019437Y020128D01*
X019462Y020053D01*
X019497Y019983D01*
X019544Y019919D01*
X019599Y019864D01*
X019663Y019817D01*
X019733Y019782D01*
X019925Y019782D02*
X019925Y019782D01*
X020118Y019782D02*
X020788Y019782D01*
X021062Y019782D02*
X021788Y019782D01*
X021498Y020021D02*
X021352Y020021D01*
X021405Y020259D02*
X021445Y020259D01*
X021445Y020498D02*
X021405Y020498D01*
X021405Y020736D02*
X021445Y020736D01*
X021476Y020975D02*
X021374Y020975D01*
X020476Y020975D02*
X020396Y020975D01*
X020425Y020736D02*
X020445Y020736D01*
X020425Y020498D02*
X020445Y020498D01*
X020425Y020259D02*
X020445Y020259D01*
X020498Y020021D02*
X020372Y020021D01*
X019925Y020021D02*
X019925Y020021D01*
X019925Y020259D02*
X019925Y020259D01*
X019925Y020498D02*
X019925Y020498D01*
X019925Y020736D02*
X019925Y020736D01*
X019925Y020975D02*
X019925Y020975D01*
X019425Y020736D02*
X019330Y020736D01*
X019425Y020498D02*
X018554Y020498D01*
X017896Y020498D02*
X017125Y020498D01*
X017125Y020736D02*
X017418Y020736D01*
X017179Y020975D02*
X017096Y020975D01*
X016968Y021213D02*
X016914Y021213D01*
X016945Y021452D02*
X015004Y021452D01*
X014894Y021213D02*
X015356Y021213D01*
X015176Y020975D02*
X015074Y020975D01*
X015105Y020736D02*
X015145Y020736D01*
X015145Y020498D02*
X015105Y020498D01*
X015105Y020259D02*
X015145Y020259D01*
X015198Y020021D02*
X015052Y020021D01*
X014762Y019782D02*
X015345Y019782D01*
X015356Y019544D02*
X013424Y019544D01*
X013393Y019782D02*
X013488Y019782D01*
X013762Y019782D02*
X014488Y019782D01*
X014198Y020021D02*
X014052Y020021D01*
X014105Y020259D02*
X014145Y020259D01*
X014145Y020498D02*
X014105Y020498D01*
X013625Y020525D02*
X016325Y023225D01*
X018725Y023225D01*
X018615Y022883D02*
X016435Y022883D01*
X016197Y022644D02*
X016838Y022644D01*
X016683Y022406D02*
X015958Y022406D01*
X015720Y022167D02*
X016655Y022167D01*
X016731Y021929D02*
X015481Y021929D01*
X015243Y021690D02*
X016945Y021690D01*
X017505Y021690D02*
X019027Y021690D01*
X019256Y021452D02*
X018555Y021452D01*
X018731Y021929D02*
X017719Y021929D01*
X017795Y022167D02*
X018655Y022167D01*
X018683Y022406D02*
X017767Y022406D01*
X017612Y022644D02*
X018838Y022644D01*
X019225Y022725D02*
X019725Y023225D01*
X019725Y024225D01*
X020204Y024552D02*
X020246Y024552D01*
X020601Y024791D02*
X019849Y024791D01*
X019601Y024791D02*
X018849Y024791D01*
X018601Y024791D02*
X018196Y024791D01*
X017725Y024791D02*
X017725Y024791D01*
X017725Y024552D02*
X017725Y024552D01*
X017725Y024314D02*
X017725Y024314D01*
X017725Y024075D02*
X017725Y024075D01*
X017725Y023837D02*
X017725Y023837D01*
X017135Y024552D02*
X016868Y024552D01*
X016852Y024791D02*
X017254Y024791D01*
X016730Y025029D02*
X027266Y025029D01*
X021601Y024791D02*
X020849Y024791D01*
X021204Y024552D02*
X021246Y024552D01*
X019246Y024552D02*
X019204Y024552D01*
X019143Y023837D02*
X019307Y023837D01*
X017895Y021452D02*
X017505Y021452D01*
X016625Y021213D02*
X016625Y021213D01*
X016625Y020975D02*
X016625Y020975D01*
X016625Y020736D02*
X016625Y020736D01*
X016336Y021213D02*
X015894Y021213D01*
X016074Y020975D02*
X016154Y020975D01*
X016125Y020736D02*
X016105Y020736D01*
X016105Y020498D02*
X016125Y020498D01*
X016105Y020259D02*
X016125Y020259D01*
X016178Y020021D02*
X016052Y020021D01*
X015905Y019782D02*
X016407Y019782D01*
X016376Y019544D02*
X016102Y019544D01*
X016341Y019305D02*
X016529Y019305D01*
X016579Y019067D02*
X016938Y019067D01*
X016818Y018828D02*
X017176Y018828D01*
X017056Y018590D02*
X017415Y018590D01*
X017295Y018351D02*
X017653Y018351D01*
X017533Y018113D02*
X017892Y018113D01*
X017945Y017874D02*
X017605Y017874D01*
X017605Y017636D02*
X017945Y017636D01*
X017841Y017397D02*
X017605Y017397D01*
X017605Y017159D02*
X017684Y017159D01*
X017655Y016920D02*
X017605Y016920D01*
X017045Y016920D02*
X016979Y016920D01*
X017044Y016682D02*
X014905Y016682D01*
X014905Y016669D02*
X014905Y016846D01*
X015032Y016973D01*
X015105Y017150D01*
X015105Y017900D01*
X015032Y018077D01*
X015014Y018095D01*
X015159Y018095D01*
X015206Y018048D01*
X015145Y017900D01*
X015145Y017150D01*
X015218Y016973D01*
X015353Y016838D01*
X015530Y016765D01*
X015720Y016765D01*
X015897Y016838D01*
X016032Y016973D01*
X016105Y017150D01*
X016105Y017900D01*
X016032Y018077D01*
X015897Y018212D01*
X015790Y018256D01*
X015784Y018262D01*
X015434Y018612D01*
X015331Y018655D01*
X013191Y018655D01*
X012475Y019371D01*
X012475Y019455D01*
X012414Y019602D01*
X012302Y019714D01*
X012155Y019775D01*
X011995Y019775D01*
X011848Y019714D01*
X011736Y019602D01*
X011675Y019455D01*
X011675Y019295D01*
X011736Y019148D01*
X011848Y019036D01*
X011995Y018975D01*
X012079Y018975D01*
X012838Y018216D01*
X012916Y018138D01*
X013019Y018095D01*
X013236Y018095D01*
X013218Y018077D01*
X013145Y017900D01*
X013145Y017501D01*
X012934Y017712D01*
X012831Y017755D01*
X010659Y017755D01*
X010745Y017962D01*
X010745Y018188D01*
X010658Y018398D01*
X010498Y018558D01*
X010455Y018576D01*
X010455Y021205D01*
X010412Y021308D01*
X010334Y021386D01*
X010122Y021598D01*
X010158Y021686D01*
X010158Y021945D01*
X010060Y022184D01*
X009877Y022367D01*
X009638Y022466D01*
X009379Y022466D01*
X009140Y022367D01*
X008957Y022184D01*
X008858Y021945D01*
X008858Y021888D01*
X008684Y022062D01*
X008581Y022105D01*
X006153Y022105D01*
X006122Y022180D01*
X005940Y022363D01*
X005701Y022462D01*
X005442Y022462D01*
X005203Y022363D01*
X005020Y022180D01*
X004921Y021941D01*
X004921Y021682D01*
X005020Y021443D01*
X005203Y021261D01*
X005442Y021162D01*
X005701Y021162D01*
X005940Y021261D01*
X006122Y021443D01*
X006165Y021545D01*
X008409Y021545D01*
X008845Y021109D01*
X008845Y020248D01*
X008791Y020225D01*
X008625Y020059D01*
X008535Y019842D01*
X008535Y019608D01*
X008625Y019391D01*
X008791Y019225D01*
X009008Y019135D01*
X009242Y019135D01*
X009459Y019225D01*
X009625Y019391D01*
X009715Y019608D01*
X009715Y019842D01*
X009625Y020059D01*
X009459Y020225D01*
X009405Y020248D01*
X009405Y021166D01*
X009638Y021166D01*
X009726Y021202D01*
X009895Y021033D01*
X009895Y018576D01*
X009852Y018558D01*
X009692Y018398D01*
X009605Y018188D01*
X009605Y017962D01*
X009691Y017755D01*
X006891Y017755D01*
X006727Y017919D01*
X006745Y017962D01*
X006745Y018188D01*
X006658Y018398D01*
X006498Y018558D01*
X006455Y018576D01*
X006455Y019223D01*
X006459Y019225D01*
X006625Y019391D01*
X006715Y019608D01*
X006715Y019842D01*
X006625Y020059D01*
X006459Y020225D01*
X006242Y020315D01*
X006008Y020315D01*
X005791Y020225D01*
X005625Y020059D01*
X005535Y019842D01*
X005535Y019608D01*
X005625Y019391D01*
X005791Y019225D01*
X005895Y019182D01*
X005895Y018576D01*
X005852Y018558D01*
X005692Y018398D01*
X005605Y018188D01*
X005605Y017962D01*
X005692Y017752D01*
X005852Y017592D01*
X006062Y017505D01*
X006288Y017505D01*
X006331Y017523D01*
X006508Y017346D01*
X006445Y017336D01*
X006357Y017307D01*
X006274Y017265D01*
X006199Y017210D01*
X006153Y017165D01*
X006153Y017213D01*
X006036Y017330D01*
X005130Y017330D01*
X005013Y017213D01*
X005013Y016308D01*
X005130Y016190D01*
X006036Y016190D01*
X006153Y016308D01*
X006153Y016356D01*
X006199Y016310D01*
X006274Y016256D01*
X006357Y016214D01*
X006445Y016185D01*
X006537Y016170D01*
X006583Y016170D01*
X006583Y016760D01*
X006583Y016760D01*
X006583Y016170D01*
X006630Y016170D01*
X006721Y016185D01*
X006810Y016214D01*
X006892Y016256D01*
X006968Y016310D01*
X007033Y016376D01*
X007088Y016451D01*
X007091Y016458D01*
X007100Y016438D01*
X007260Y016277D01*
X007303Y016259D01*
X007303Y001513D01*
X007260Y001496D01*
X007100Y001335D01*
X007091Y001315D01*
X007088Y001322D01*
X007033Y001397D01*
X006968Y001462D01*
X006892Y001517D01*
X006810Y001559D01*
X006721Y001588D01*
X006630Y001602D01*
X006583Y001602D01*
X006537Y001602D01*
X006445Y001588D01*
X006357Y001559D01*
X006274Y001517D01*
X006199Y001462D01*
X006153Y001417D01*
X006153Y001465D01*
X006036Y001582D01*
X005130Y001582D01*
X005013Y001465D01*
X005013Y000560D01*
X005123Y000450D01*
X001686Y000450D01*
X001917Y000644D01*
X001917Y000644D01*
X001917Y000644D01*
X002074Y000916D01*
X002129Y001225D01*
X002074Y001534D01*
X002074Y001534D01*
X001917Y001806D01*
X001677Y002008D01*
X001677Y002008D01*
X001382Y002115D01*
X001068Y002115D01*
X000773Y002008D01*
X000533Y001806D01*
X000533Y001806D01*
X000450Y001663D01*
X000450Y026287D01*
X000533Y026144D01*
X000773Y025942D01*
X001068Y025835D01*
X001382Y025835D01*
X001677Y025942D01*
X001917Y026144D01*
X001917Y026144D01*
X001917Y026144D01*
X002074Y026416D01*
X002129Y026725D01*
X002074Y027034D01*
X002074Y027034D01*
X001917Y027306D01*
X001686Y027500D01*
X037764Y027500D01*
X037533Y027306D01*
X037533Y027306D01*
X037376Y027034D01*
X037321Y026725D01*
X037321Y026725D01*
X037376Y026416D01*
X037533Y026144D01*
X037773Y025942D01*
X037773Y025942D01*
X038068Y025835D01*
X038382Y025835D01*
X038677Y025942D01*
X038917Y026144D01*
X038917Y026144D01*
X038917Y026144D01*
X039000Y026287D01*
X039000Y001663D01*
X038917Y001806D01*
X038677Y002008D01*
X038382Y002115D01*
X038068Y002115D01*
X037773Y002008D01*
X037533Y001806D01*
X037533Y001806D01*
X037376Y001534D01*
X037321Y001225D01*
X037376Y000916D01*
X037376Y000916D01*
X037533Y000644D01*
X037764Y000450D01*
X012715Y000450D01*
X012906Y000529D01*
X013066Y000690D01*
X013153Y000899D01*
X013153Y001126D01*
X013066Y001335D01*
X012906Y001496D01*
X012863Y001513D01*
X012863Y016259D01*
X012906Y016277D01*
X013041Y016413D01*
X013088Y016366D01*
X013166Y016288D01*
X013269Y016245D01*
X014481Y016245D01*
X014584Y016288D01*
X014784Y016488D01*
X014862Y016566D01*
X014905Y016669D01*
X014979Y016920D02*
X015271Y016920D01*
X015145Y017159D02*
X015105Y017159D01*
X015105Y017397D02*
X015145Y017397D01*
X015145Y017636D02*
X015105Y017636D01*
X015105Y017874D02*
X015145Y017874D01*
X015695Y018351D02*
X016503Y018351D01*
X016265Y018590D02*
X015456Y018590D01*
X016026Y018828D02*
X013018Y018828D01*
X012779Y019067D02*
X015788Y019067D01*
X015549Y019305D02*
X013271Y019305D01*
X012779Y019305D02*
X012541Y019305D01*
X012626Y019544D02*
X012438Y019544D01*
X012472Y019782D02*
X010455Y019782D01*
X010455Y019544D02*
X011712Y019544D01*
X011675Y019305D02*
X010455Y019305D01*
X010455Y019067D02*
X011818Y019067D01*
X012226Y018828D02*
X010455Y018828D01*
X010455Y018590D02*
X012465Y018590D01*
X012703Y018351D02*
X010678Y018351D01*
X010745Y018113D02*
X012977Y018113D01*
X013145Y017874D02*
X010709Y017874D01*
X009895Y018590D02*
X006455Y018590D01*
X006455Y018828D02*
X009895Y018828D01*
X009895Y019067D02*
X006455Y019067D01*
X006539Y019305D02*
X008711Y019305D01*
X008562Y019544D02*
X006688Y019544D01*
X006715Y019782D02*
X008535Y019782D01*
X008609Y020021D02*
X006641Y020021D01*
X006378Y020259D02*
X008845Y020259D01*
X008845Y020498D02*
X004145Y020498D01*
X004145Y020736D02*
X008845Y020736D01*
X008845Y020975D02*
X004145Y020975D01*
X004145Y021213D02*
X005318Y021213D01*
X005017Y021452D02*
X004145Y021452D01*
X004145Y021690D02*
X004921Y021690D01*
X004921Y021929D02*
X004145Y021929D01*
X004145Y022167D02*
X004447Y022167D01*
X004470Y022158D02*
X004728Y022158D01*
X004967Y022257D01*
X005150Y022439D01*
X005249Y022678D01*
X005249Y022937D01*
X005150Y023176D01*
X004967Y023359D01*
X004728Y023458D01*
X004470Y023458D01*
X004231Y023359D01*
X004048Y023176D01*
X003949Y022937D01*
X003949Y022678D01*
X004045Y022446D01*
X004006Y022485D01*
X002225Y024267D01*
X002225Y024897D01*
X002108Y025014D01*
X001142Y025014D01*
X001025Y024897D01*
X001025Y023931D01*
X001142Y023814D01*
X001772Y023814D01*
X003505Y022081D01*
X003505Y020147D01*
X003380Y020022D01*
X003300Y019829D01*
X003300Y019621D01*
X003380Y019428D01*
X003528Y019280D01*
X003721Y019200D01*
X003929Y019200D01*
X004122Y019280D01*
X004270Y019428D01*
X004314Y019534D01*
X004320Y019516D01*
X004359Y019439D01*
X004409Y019370D01*
X004470Y019309D01*
X004539Y019259D01*
X004616Y019220D01*
X004697Y019193D01*
X004782Y019180D01*
X004825Y019180D01*
X004868Y019180D01*
X004953Y019193D01*
X005034Y019220D01*
X005111Y019259D01*
X005180Y019309D01*
X005241Y019370D01*
X005291Y019439D01*
X005330Y019516D01*
X005357Y019597D01*
X005370Y019682D01*
X005370Y019725D01*
X005370Y019768D01*
X005357Y019853D01*
X005330Y019934D01*
X005291Y020011D01*
X005241Y020080D01*
X005180Y020141D01*
X005111Y020191D01*
X005034Y020230D01*
X004953Y020257D01*
X004868Y020270D01*
X004825Y020270D01*
X004825Y019725D01*
X004825Y019725D01*
X005370Y019725D01*
X004825Y019725D01*
X004825Y019725D01*
X004825Y020270D01*
X004782Y020270D01*
X004697Y020257D01*
X004616Y020230D01*
X004539Y020191D01*
X004470Y020141D01*
X004409Y020080D01*
X004359Y020011D01*
X004320Y019934D01*
X004314Y019916D01*
X004270Y020022D01*
X004145Y020147D01*
X004145Y022278D01*
X004099Y022388D01*
X004231Y022257D01*
X004470Y022158D01*
X004751Y022167D02*
X005015Y022167D01*
X005116Y022406D02*
X005307Y022406D01*
X005235Y022644D02*
X006906Y022644D01*
X006894Y022674D02*
X006993Y022436D01*
X007176Y022253D01*
X007415Y022154D01*
X007673Y022154D01*
X007912Y022253D01*
X008095Y022436D01*
X008194Y022674D01*
X008194Y022933D01*
X008095Y023172D01*
X007912Y023355D01*
X007673Y023454D01*
X007415Y023454D01*
X007176Y023355D01*
X006993Y023172D01*
X006894Y022933D01*
X006894Y022674D01*
X006894Y022883D02*
X005249Y022883D01*
X005173Y023121D02*
X006972Y023121D01*
X007187Y023360D02*
X004965Y023360D01*
X004233Y023360D02*
X003132Y023360D01*
X002893Y023598D02*
X011945Y023598D01*
X011945Y023360D02*
X010875Y023360D01*
X010877Y023359D02*
X010638Y023458D01*
X010379Y023458D01*
X010140Y023359D01*
X009957Y023176D01*
X009858Y022937D01*
X009858Y022678D01*
X009957Y022439D01*
X010140Y022257D01*
X010379Y022158D01*
X010638Y022158D01*
X010877Y022257D01*
X011060Y022439D01*
X011158Y022678D01*
X011158Y022937D01*
X011060Y023176D01*
X010877Y023359D01*
X011082Y023121D02*
X011945Y023121D01*
X011945Y022883D02*
X011158Y022883D01*
X011144Y022644D02*
X011945Y022644D01*
X011945Y022406D02*
X011026Y022406D01*
X010660Y022167D02*
X011945Y022167D01*
X011945Y021929D02*
X010158Y021929D01*
X010158Y021690D02*
X011945Y021690D01*
X011945Y021452D02*
X010268Y021452D01*
X010452Y021213D02*
X011945Y021213D01*
X011945Y020975D02*
X010455Y020975D01*
X010455Y020736D02*
X011945Y020736D01*
X011945Y020498D02*
X010455Y020498D01*
X010455Y020259D02*
X011995Y020259D01*
X012233Y020021D02*
X010455Y020021D01*
X009895Y020021D02*
X009641Y020021D01*
X009715Y019782D02*
X009895Y019782D01*
X009895Y019544D02*
X009688Y019544D01*
X009539Y019305D02*
X009895Y019305D01*
X009895Y020259D02*
X009405Y020259D01*
X009405Y020498D02*
X009895Y020498D01*
X009895Y020736D02*
X009405Y020736D01*
X009405Y020975D02*
X009895Y020975D01*
X008741Y021213D02*
X005825Y021213D01*
X006126Y021452D02*
X008502Y021452D01*
X008817Y021929D02*
X008858Y021929D01*
X008950Y022167D02*
X007705Y022167D01*
X007383Y022167D02*
X006128Y022167D01*
X005836Y022406D02*
X007023Y022406D01*
X008065Y022406D02*
X009234Y022406D01*
X009783Y022406D02*
X009991Y022406D01*
X010066Y022167D02*
X010357Y022167D01*
X009873Y022644D02*
X008181Y022644D01*
X008194Y022883D02*
X009858Y022883D01*
X009935Y023121D02*
X008116Y023121D01*
X007901Y023360D02*
X010142Y023360D01*
X011658Y024314D02*
X002225Y024314D01*
X002225Y024552D02*
X011582Y024552D01*
X011598Y024791D02*
X002225Y024791D01*
X001625Y024414D02*
X003825Y022214D01*
X003825Y019725D01*
X003332Y019544D02*
X002739Y019544D01*
X002730Y019516D02*
X002757Y019597D01*
X002770Y019682D01*
X002770Y019725D01*
X002770Y019768D01*
X002757Y019853D01*
X002730Y019934D01*
X002691Y020011D01*
X002641Y020080D01*
X002580Y020141D01*
X002511Y020191D01*
X002434Y020230D01*
X002353Y020257D01*
X002268Y020270D01*
X002225Y020270D01*
X002225Y019725D01*
X002770Y019725D01*
X002225Y019725D01*
X002225Y019725D01*
X002225Y019725D01*
X002225Y019180D01*
X002268Y019180D01*
X002353Y019193D01*
X002434Y019220D01*
X002511Y019259D01*
X002580Y019309D01*
X002641Y019370D01*
X002691Y019439D01*
X002730Y019516D01*
X002574Y019305D02*
X003503Y019305D01*
X003300Y019782D02*
X002768Y019782D01*
X002684Y020021D02*
X003379Y020021D01*
X003505Y020259D02*
X002337Y020259D01*
X002225Y020259D02*
X002225Y020259D01*
X002225Y020270D02*
X002182Y020270D01*
X002097Y020257D01*
X002016Y020230D01*
X001939Y020191D01*
X001870Y020141D01*
X001809Y020080D01*
X001759Y020011D01*
X001720Y019934D01*
X001714Y019916D01*
X001670Y020022D01*
X001522Y020170D01*
X001329Y020250D01*
X001121Y020250D01*
X000928Y020170D01*
X000780Y020022D01*
X000700Y019829D01*
X000700Y019621D01*
X000780Y019428D01*
X000928Y019280D01*
X001121Y019200D01*
X001329Y019200D01*
X001522Y019280D01*
X001670Y019428D01*
X001714Y019534D01*
X001720Y019516D01*
X001759Y019439D01*
X001809Y019370D01*
X001870Y019309D01*
X001939Y019259D01*
X002016Y019220D01*
X002097Y019193D01*
X002182Y019180D01*
X002225Y019180D01*
X002225Y019725D01*
X002225Y019725D01*
X002225Y020270D01*
X002113Y020259D02*
X000450Y020259D01*
X000450Y020021D02*
X000779Y020021D01*
X000700Y019782D02*
X000450Y019782D01*
X000450Y019544D02*
X000732Y019544D01*
X000903Y019305D02*
X000450Y019305D01*
X000450Y019067D02*
X005895Y019067D01*
X005895Y018828D02*
X000450Y018828D01*
X000450Y018590D02*
X005895Y018590D01*
X005672Y018351D02*
X000450Y018351D01*
X000450Y018113D02*
X005605Y018113D01*
X005641Y017874D02*
X000450Y017874D01*
X000450Y017636D02*
X005808Y017636D01*
X006457Y017397D02*
X004408Y017397D01*
X004466Y017340D02*
X004320Y017486D01*
X004128Y017565D01*
X003922Y017565D01*
X003730Y017486D01*
X003584Y017340D01*
X003535Y017222D01*
X003525Y017252D01*
X003487Y017328D01*
X003437Y017397D01*
X003377Y017457D01*
X003308Y017507D01*
X003232Y017545D01*
X003151Y017572D01*
X003067Y017585D01*
X003025Y017585D01*
X003025Y016725D01*
X003025Y016725D01*
X003025Y017585D01*
X002983Y017585D01*
X002899Y017572D01*
X002818Y017545D01*
X002742Y017507D01*
X002673Y017457D01*
X002613Y017397D01*
X002563Y017328D01*
X002525Y017252D01*
X002515Y017222D01*
X002466Y017340D01*
X002320Y017486D01*
X002128Y017565D01*
X001922Y017565D01*
X001730Y017486D01*
X001584Y017340D01*
X001505Y017148D01*
X001505Y016302D01*
X001584Y016110D01*
X001730Y015964D01*
X001922Y015885D01*
X002128Y015885D01*
X002320Y015964D01*
X002466Y016110D01*
X002515Y016228D01*
X002525Y016198D01*
X002563Y016122D01*
X002613Y016053D01*
X002673Y015993D01*
X002742Y015943D01*
X002818Y015905D01*
X002899Y015878D01*
X002983Y015865D01*
X003025Y015865D01*
X003067Y015865D01*
X003151Y015878D01*
X003232Y015905D01*
X003308Y015943D01*
X003377Y015993D01*
X003437Y016053D01*
X003487Y016122D01*
X003525Y016198D01*
X003535Y016228D01*
X003584Y016110D01*
X003730Y015964D01*
X003922Y015885D01*
X004128Y015885D01*
X004320Y015964D01*
X004466Y016110D01*
X004545Y016302D01*
X004545Y017148D01*
X004466Y017340D01*
X004541Y017159D02*
X005013Y017159D01*
X005013Y016920D02*
X004545Y016920D01*
X004545Y016682D02*
X005013Y016682D01*
X005013Y016443D02*
X004545Y016443D01*
X004505Y016205D02*
X005116Y016205D01*
X004321Y015966D02*
X007303Y015966D01*
X007303Y015728D02*
X000450Y015728D01*
X000450Y015966D02*
X001729Y015966D01*
X001545Y016205D02*
X000450Y016205D01*
X000450Y016443D02*
X001505Y016443D01*
X001505Y016682D02*
X000450Y016682D01*
X000450Y016920D02*
X001505Y016920D01*
X001509Y017159D02*
X000450Y017159D01*
X000450Y017397D02*
X001642Y017397D01*
X002408Y017397D02*
X002613Y017397D01*
X003025Y017397D02*
X003025Y017397D01*
X003025Y017159D02*
X003025Y017159D01*
X003025Y016920D02*
X003025Y016920D01*
X003025Y016725D02*
X003025Y015865D01*
X003025Y016725D01*
X003025Y016725D01*
X003025Y016682D02*
X003025Y016682D01*
X003025Y016443D02*
X003025Y016443D01*
X003025Y016205D02*
X003025Y016205D01*
X003025Y015966D02*
X003025Y015966D01*
X003339Y015966D02*
X003729Y015966D01*
X003545Y016205D02*
X003528Y016205D01*
X002711Y015966D02*
X002321Y015966D01*
X002505Y016205D02*
X002522Y016205D01*
X003437Y017397D02*
X003642Y017397D01*
X004825Y019180D02*
X004825Y019725D01*
X004825Y019180D01*
X004825Y019305D02*
X004825Y019305D01*
X004825Y019544D02*
X004825Y019544D01*
X004825Y019725D02*
X004825Y019725D01*
X004825Y019782D02*
X004825Y019782D01*
X004825Y020021D02*
X004825Y020021D01*
X004825Y020259D02*
X004825Y020259D01*
X004937Y020259D02*
X005872Y020259D01*
X005609Y020021D02*
X005284Y020021D01*
X005368Y019782D02*
X005535Y019782D01*
X005562Y019544D02*
X005339Y019544D01*
X005174Y019305D02*
X005711Y019305D01*
X004476Y019305D02*
X004147Y019305D01*
X004271Y020021D02*
X004366Y020021D01*
X004145Y020259D02*
X004713Y020259D01*
X003505Y020498D02*
X000450Y020498D01*
X000450Y020736D02*
X003505Y020736D01*
X003505Y020975D02*
X000450Y020975D01*
X000450Y021213D02*
X003505Y021213D01*
X003505Y021452D02*
X000450Y021452D01*
X000450Y021690D02*
X003505Y021690D01*
X003505Y021929D02*
X000450Y021929D01*
X000450Y022167D02*
X003419Y022167D01*
X003181Y022406D02*
X000450Y022406D01*
X000450Y022644D02*
X001143Y022644D01*
X001152Y022632D02*
X001221Y022563D01*
X001300Y022506D01*
X001387Y022461D01*
X001480Y022431D01*
X001576Y022416D01*
X001625Y022416D01*
X001674Y022416D01*
X001770Y022431D01*
X001863Y022461D01*
X001950Y022506D01*
X002029Y022563D01*
X002098Y022632D01*
X002155Y022711D01*
X002200Y022798D01*
X002230Y022891D01*
X002245Y022987D01*
X002245Y023036D01*
X001625Y023036D01*
X001625Y022416D01*
X001625Y023036D01*
X001625Y023036D01*
X001625Y023036D01*
X001005Y023036D01*
X001005Y022987D01*
X001020Y022891D01*
X001050Y022798D01*
X001095Y022711D01*
X001152Y022632D01*
X001023Y022883D02*
X000450Y022883D01*
X000450Y023121D02*
X001011Y023121D01*
X001005Y023085D02*
X001005Y023036D01*
X001625Y023036D01*
X001625Y023036D01*
X002245Y023036D01*
X002245Y023085D01*
X002230Y023181D01*
X002200Y023274D01*
X002155Y023361D01*
X002098Y023440D01*
X002029Y023509D01*
X001950Y023566D01*
X001863Y023611D01*
X001770Y023641D01*
X001674Y023656D01*
X001625Y023656D01*
X001625Y023036D01*
X001625Y023656D01*
X001576Y023656D01*
X001480Y023641D01*
X001387Y023611D01*
X001300Y023566D01*
X001221Y023509D01*
X001152Y023440D01*
X001095Y023361D01*
X001050Y023274D01*
X001020Y023181D01*
X001005Y023085D01*
X001094Y023360D02*
X000450Y023360D01*
X000450Y023598D02*
X001362Y023598D01*
X001625Y023598D02*
X001625Y023598D01*
X001625Y023360D02*
X001625Y023360D01*
X001625Y023121D02*
X001625Y023121D01*
X001625Y023036D02*
X001625Y023036D01*
X001625Y022883D02*
X001625Y022883D01*
X001625Y022644D02*
X001625Y022644D01*
X002107Y022644D02*
X002942Y022644D01*
X002704Y022883D02*
X002227Y022883D01*
X002239Y023121D02*
X002465Y023121D01*
X002227Y023360D02*
X002156Y023360D01*
X001988Y023598D02*
X001888Y023598D01*
X002416Y024075D02*
X011873Y024075D01*
X011945Y023837D02*
X002655Y023837D01*
X003370Y023121D02*
X004025Y023121D01*
X003949Y022883D02*
X003609Y022883D01*
X003848Y022644D02*
X003963Y022644D01*
X001120Y023837D02*
X000450Y023837D01*
X000450Y024075D02*
X001025Y024075D01*
X001025Y024314D02*
X000450Y024314D01*
X000450Y024552D02*
X001025Y024552D01*
X001025Y024791D02*
X000450Y024791D01*
X000450Y025029D02*
X011720Y025029D01*
X012577Y024075D02*
X012873Y024075D01*
X013577Y024075D02*
X014873Y024075D01*
X014658Y024314D02*
X014614Y024314D01*
X014521Y025029D02*
X014720Y025029D01*
X013929Y025029D02*
X013730Y025029D01*
X013792Y024314D02*
X013836Y024314D01*
X012505Y023360D02*
X016007Y023360D01*
X015768Y023121D02*
X012505Y023121D01*
X012505Y022883D02*
X015530Y022883D01*
X015291Y022644D02*
X013640Y022644D01*
X013609Y022675D02*
X013534Y022730D01*
X013451Y022772D01*
X013363Y022800D01*
X013271Y022815D01*
X013225Y022815D01*
X013225Y022225D01*
X013815Y022225D01*
X013815Y022271D01*
X013800Y022363D01*
X013772Y022451D01*
X013730Y022534D01*
X013675Y022609D01*
X013609Y022675D01*
X013787Y022406D02*
X015053Y022406D01*
X014814Y022167D02*
X013813Y022167D01*
X013815Y022179D02*
X013815Y022225D01*
X013225Y022225D01*
X013225Y022225D01*
X013225Y022225D01*
X013225Y021635D01*
X013271Y021635D01*
X013363Y021650D01*
X013451Y021678D01*
X013534Y021720D01*
X013609Y021775D01*
X013675Y021841D01*
X013730Y021916D01*
X013772Y021999D01*
X013800Y022087D01*
X013815Y022179D01*
X013736Y021929D02*
X014576Y021929D01*
X014337Y021690D02*
X013475Y021690D01*
X013225Y021690D02*
X013225Y021690D01*
X013225Y021635D02*
X013225Y022225D01*
X013225Y022225D01*
X013225Y022225D01*
X012635Y022225D01*
X012635Y022271D01*
X012650Y022363D01*
X012678Y022451D01*
X012720Y022534D01*
X012775Y022609D01*
X012841Y022675D01*
X012916Y022730D01*
X012999Y022772D01*
X013087Y022800D01*
X013179Y022815D01*
X013225Y022815D01*
X013225Y022225D01*
X012635Y022225D01*
X012635Y022179D01*
X012650Y022087D01*
X012678Y021999D01*
X012720Y021916D01*
X012775Y021841D01*
X012841Y021775D01*
X012916Y021720D01*
X012999Y021678D01*
X013087Y021650D01*
X013179Y021635D01*
X013225Y021635D01*
X012975Y021690D02*
X012505Y021690D01*
X012505Y021452D02*
X014099Y021452D01*
X013356Y021213D02*
X012505Y021213D01*
X012505Y020975D02*
X013176Y020975D01*
X013145Y020736D02*
X012505Y020736D01*
X012548Y020498D02*
X013145Y020498D01*
X013145Y020259D02*
X012787Y020259D01*
X013115Y020021D02*
X013198Y020021D01*
X013225Y021929D02*
X013225Y021929D01*
X013225Y022167D02*
X013225Y022167D01*
X013225Y022406D02*
X013225Y022406D01*
X013225Y022644D02*
X013225Y022644D01*
X012810Y022644D02*
X012505Y022644D01*
X012505Y022406D02*
X012663Y022406D01*
X012637Y022167D02*
X012505Y022167D01*
X012505Y021929D02*
X012714Y021929D01*
X015577Y024075D02*
X015873Y024075D01*
X014544Y025978D02*
X014457Y025942D01*
X014366Y025917D01*
X014272Y025905D01*
X014253Y025905D01*
X014253Y026597D01*
X014253Y026653D01*
X014197Y026653D01*
X014197Y026597D01*
X013505Y026597D01*
X013505Y026578D01*
X013517Y026484D01*
X013542Y026393D01*
X013578Y026306D01*
X013625Y026224D01*
X013683Y026149D01*
X013749Y026083D01*
X013824Y026025D01*
X013906Y025978D01*
X013993Y025942D01*
X014084Y025917D01*
X014178Y025905D01*
X014197Y025905D01*
X014197Y026597D01*
X014253Y026597D01*
X014945Y026597D01*
X014945Y026578D01*
X014933Y026484D01*
X014908Y026393D01*
X014872Y026306D01*
X014825Y026224D01*
X014767Y026149D01*
X014701Y026083D01*
X014626Y026025D01*
X014544Y025978D01*
X014553Y025983D02*
X037725Y025983D01*
X037533Y026144D02*
X037533Y026144D01*
X037488Y026222D02*
X016522Y026222D01*
X016474Y026174D02*
X016613Y026313D01*
X016689Y026495D01*
X016689Y026692D01*
X016613Y026874D01*
X016474Y027013D01*
X016292Y027089D01*
X016095Y027089D01*
X015913Y027013D01*
X015774Y026874D01*
X015698Y026692D01*
X015698Y026495D01*
X015774Y026313D01*
X015913Y026174D01*
X016095Y026098D01*
X016292Y026098D01*
X016474Y026174D01*
X016674Y026460D02*
X037368Y026460D01*
X037326Y026699D02*
X016686Y026699D01*
X016550Y026937D02*
X037359Y026937D01*
X037376Y027034D02*
X037376Y027034D01*
X037457Y027176D02*
X014690Y027176D01*
X014701Y027167D02*
X014626Y027225D01*
X014544Y027272D01*
X014457Y027308D01*
X014366Y027333D01*
X014272Y027345D01*
X014253Y027345D01*
X014253Y026653D01*
X014945Y026653D01*
X014945Y026672D01*
X014933Y026766D01*
X014908Y026857D01*
X014872Y026944D01*
X014825Y027026D01*
X014767Y027101D01*
X014701Y027167D01*
X014875Y026937D02*
X015837Y026937D01*
X015701Y026699D02*
X014942Y026699D01*
X014926Y026460D02*
X015713Y026460D01*
X015865Y026222D02*
X014823Y026222D01*
X014253Y026222D02*
X014197Y026222D01*
X014197Y026460D02*
X014253Y026460D01*
X014197Y026653D02*
X013505Y026653D01*
X013505Y026672D01*
X013517Y026766D01*
X013542Y026857D01*
X013578Y026944D01*
X013625Y027026D01*
X013683Y027101D01*
X013749Y027167D01*
X013824Y027225D01*
X013906Y027272D01*
X013993Y027308D01*
X014084Y027333D01*
X014178Y027345D01*
X014197Y027345D01*
X014197Y026653D01*
X014197Y026699D02*
X014253Y026699D01*
X014253Y026937D02*
X014197Y026937D01*
X014197Y027176D02*
X014253Y027176D01*
X013760Y027176D02*
X009990Y027176D01*
X010060Y027106D02*
X009877Y027289D01*
X009638Y027388D01*
X009379Y027388D01*
X009140Y027289D01*
X008957Y027106D01*
X008858Y026867D01*
X008858Y026608D01*
X008957Y026369D01*
X009140Y026187D01*
X009379Y026088D01*
X009638Y026088D01*
X009877Y026187D01*
X010060Y026369D01*
X010158Y026608D01*
X010158Y026867D01*
X010060Y027106D01*
X010129Y026937D02*
X011900Y026937D01*
X011837Y026874D02*
X011761Y026692D01*
X011761Y026495D01*
X011837Y026313D01*
X011976Y026174D01*
X012158Y026098D01*
X012355Y026098D01*
X012537Y026174D01*
X012676Y026313D01*
X012752Y026495D01*
X012752Y026692D01*
X012676Y026874D01*
X012537Y027013D01*
X012355Y027089D01*
X012158Y027089D01*
X011976Y027013D01*
X011837Y026874D01*
X011764Y026699D02*
X010158Y026699D01*
X010097Y026460D02*
X011776Y026460D01*
X011928Y026222D02*
X009912Y026222D01*
X009105Y026222D02*
X005972Y026222D01*
X005937Y026187D02*
X006120Y026369D01*
X006218Y026608D01*
X006218Y026867D01*
X006120Y027106D01*
X005937Y027289D01*
X005698Y027388D01*
X005439Y027388D01*
X005200Y027289D01*
X005017Y027106D01*
X004918Y026867D01*
X004918Y026608D01*
X005017Y026369D01*
X005200Y026187D01*
X005439Y026088D01*
X005698Y026088D01*
X005937Y026187D01*
X006157Y026460D02*
X008920Y026460D01*
X008858Y026699D02*
X006218Y026699D01*
X006189Y026937D02*
X008887Y026937D01*
X009027Y027176D02*
X006050Y027176D01*
X005087Y027176D02*
X001993Y027176D01*
X001917Y027306D02*
X001917Y027306D01*
X001788Y027414D02*
X037662Y027414D01*
X037533Y027306D02*
X037533Y027306D01*
X038725Y025983D02*
X039000Y025983D01*
X039000Y025745D02*
X000450Y025745D01*
X000450Y025983D02*
X000725Y025983D01*
X000533Y026144D02*
X000533Y026144D01*
X000488Y026222D02*
X000450Y026222D01*
X001677Y025942D02*
X001677Y025942D01*
X001725Y025983D02*
X013897Y025983D01*
X014197Y025983D02*
X014253Y025983D01*
X013627Y026222D02*
X012585Y026222D01*
X012737Y026460D02*
X013524Y026460D01*
X013508Y026699D02*
X012749Y026699D01*
X012613Y026937D02*
X013575Y026937D01*
X005165Y026222D02*
X001962Y026222D01*
X002074Y026416D02*
X002074Y026416D01*
X002082Y026460D02*
X004980Y026460D01*
X004918Y026699D02*
X002124Y026699D01*
X002129Y026725D02*
X002129Y026725D01*
X002091Y026937D02*
X004947Y026937D01*
X002225Y020021D02*
X002225Y020021D01*
X002225Y019782D02*
X002225Y019782D01*
X002225Y019544D02*
X002225Y019544D01*
X002225Y019305D02*
X002225Y019305D01*
X001876Y019305D02*
X001547Y019305D01*
X001671Y020021D02*
X001766Y020021D01*
X006678Y018351D02*
X009672Y018351D01*
X009605Y018113D02*
X006745Y018113D01*
X006772Y017874D02*
X009641Y017874D01*
X007303Y016205D02*
X006782Y016205D01*
X006583Y016205D02*
X006583Y016205D01*
X006385Y016205D02*
X006050Y016205D01*
X006583Y016443D02*
X006583Y016443D01*
X006583Y016682D02*
X006583Y016682D01*
X007082Y016443D02*
X007098Y016443D01*
X007303Y015489D02*
X000450Y015489D01*
X000450Y015251D02*
X007303Y015251D01*
X007303Y015012D02*
X000450Y015012D01*
X000450Y014774D02*
X007303Y014774D01*
X007303Y014535D02*
X000450Y014535D01*
X000450Y014297D02*
X007303Y014297D01*
X007303Y014058D02*
X000450Y014058D01*
X000450Y013820D02*
X007303Y013820D01*
X007303Y013581D02*
X000450Y013581D01*
X000450Y013343D02*
X007303Y013343D01*
X007303Y013104D02*
X000450Y013104D01*
X000450Y012866D02*
X007303Y012866D01*
X007303Y012627D02*
X000450Y012627D01*
X000450Y012389D02*
X007303Y012389D01*
X007303Y012150D02*
X000450Y012150D01*
X000450Y011912D02*
X007303Y011912D01*
X007303Y011673D02*
X003199Y011673D01*
X003194Y011675D02*
X002856Y011675D01*
X002544Y011546D01*
X002304Y011306D01*
X002175Y010994D01*
X002175Y010656D01*
X002304Y010344D01*
X002544Y010104D01*
X002856Y009975D01*
X003194Y009975D01*
X003506Y010104D01*
X003746Y010344D01*
X003875Y010656D01*
X003875Y010994D01*
X003746Y011306D01*
X003506Y011546D01*
X003194Y011675D01*
X002851Y011673D02*
X000450Y011673D01*
X000450Y011435D02*
X002432Y011435D01*
X002259Y011196D02*
X000450Y011196D01*
X000450Y010958D02*
X002175Y010958D01*
X002175Y010719D02*
X000450Y010719D01*
X000450Y010481D02*
X002248Y010481D01*
X002406Y010242D02*
X000450Y010242D01*
X000450Y010004D02*
X002787Y010004D01*
X003263Y010004D02*
X007303Y010004D01*
X007303Y010242D02*
X003644Y010242D01*
X003802Y010481D02*
X007303Y010481D01*
X007303Y010719D02*
X003875Y010719D01*
X003875Y010958D02*
X007303Y010958D01*
X007303Y011196D02*
X003791Y011196D01*
X003618Y011435D02*
X007303Y011435D01*
X007303Y009765D02*
X000450Y009765D01*
X000450Y009527D02*
X007303Y009527D01*
X007303Y009288D02*
X000450Y009288D01*
X000450Y009050D02*
X007303Y009050D01*
X007303Y008811D02*
X000450Y008811D01*
X000450Y008573D02*
X007303Y008573D01*
X007303Y008334D02*
X000450Y008334D01*
X000450Y008096D02*
X007303Y008096D01*
X007303Y007857D02*
X000450Y007857D01*
X000450Y007619D02*
X007303Y007619D01*
X007303Y007380D02*
X000450Y007380D01*
X000450Y007142D02*
X007303Y007142D01*
X007303Y006903D02*
X000450Y006903D01*
X000450Y006665D02*
X007303Y006665D01*
X007303Y006426D02*
X000450Y006426D01*
X000450Y006188D02*
X007303Y006188D01*
X007303Y005949D02*
X000450Y005949D01*
X000450Y005711D02*
X007303Y005711D01*
X007303Y005472D02*
X000450Y005472D01*
X000450Y005234D02*
X007303Y005234D01*
X007303Y004995D02*
X000450Y004995D01*
X000450Y004757D02*
X007303Y004757D01*
X007303Y004518D02*
X000450Y004518D01*
X000450Y004280D02*
X007303Y004280D01*
X007303Y004041D02*
X000450Y004041D01*
X000450Y003803D02*
X007303Y003803D01*
X007303Y003564D02*
X000450Y003564D01*
X000450Y003326D02*
X007303Y003326D01*
X007303Y003087D02*
X000450Y003087D01*
X000450Y002849D02*
X007303Y002849D01*
X007303Y002610D02*
X000450Y002610D01*
X000450Y002372D02*
X007303Y002372D01*
X007303Y002133D02*
X000450Y002133D01*
X000450Y001895D02*
X000638Y001895D01*
X000533Y001806D02*
X000533Y001806D01*
X000773Y002008D02*
X000773Y002008D01*
X001812Y001895D02*
X007303Y001895D01*
X007303Y001656D02*
X002004Y001656D01*
X001917Y001806D02*
X001917Y001806D01*
X002095Y001418D02*
X005013Y001418D01*
X005013Y001179D02*
X002121Y001179D01*
X002129Y001225D02*
X002129Y001225D01*
X002079Y000941D02*
X005013Y000941D01*
X005013Y000702D02*
X001951Y000702D01*
X002074Y000916D02*
X002074Y000916D01*
X001702Y000464D02*
X005109Y000464D01*
X006153Y001418D02*
X006154Y001418D01*
X006583Y001418D02*
X006583Y001418D01*
X006583Y001602D02*
X006583Y001012D01*
X006583Y001602D01*
X006583Y001179D02*
X006583Y001179D01*
X006583Y001012D02*
X006583Y001012D01*
X007013Y001418D02*
X007182Y001418D01*
X012748Y000464D02*
X037748Y000464D01*
X037533Y000644D02*
X037533Y000644D01*
X037499Y000702D02*
X013072Y000702D01*
X013153Y000941D02*
X018083Y000941D01*
X018052Y000972D02*
X018212Y000812D01*
X018422Y000725D01*
X018648Y000725D01*
X018858Y000812D01*
X019018Y000972D01*
X019105Y001182D01*
X019105Y001408D01*
X019018Y001618D01*
X018858Y001778D01*
X018648Y001865D01*
X018422Y001865D01*
X018212Y001778D01*
X018052Y001618D01*
X017965Y001408D01*
X017965Y001182D01*
X018052Y000972D01*
X017966Y001179D02*
X013131Y001179D01*
X012984Y001418D02*
X017969Y001418D01*
X018090Y001656D02*
X012863Y001656D01*
X012863Y001895D02*
X037638Y001895D01*
X037533Y001806D02*
X037533Y001806D01*
X037446Y001656D02*
X035760Y001656D01*
X035798Y001618D02*
X035638Y001778D01*
X035428Y001865D01*
X035202Y001865D01*
X034992Y001778D01*
X034832Y001618D01*
X034745Y001408D01*
X034745Y001182D01*
X034832Y000972D01*
X034992Y000812D01*
X035202Y000725D01*
X035428Y000725D01*
X035638Y000812D01*
X035798Y000972D01*
X035885Y001182D01*
X035885Y001408D01*
X035798Y001618D01*
X035881Y001418D02*
X037355Y001418D01*
X037376Y001534D02*
X037376Y001534D01*
X037321Y001225D02*
X037321Y001225D01*
X037329Y001179D02*
X035884Y001179D01*
X035767Y000941D02*
X037371Y000941D01*
X037773Y002008D02*
X037773Y002008D01*
X038677Y002008D02*
X038677Y002008D01*
X038812Y001895D02*
X039000Y001895D01*
X038917Y001806D02*
X038917Y001806D01*
X039000Y002133D02*
X012863Y002133D01*
X012863Y002372D02*
X039000Y002372D01*
X039000Y002610D02*
X012863Y002610D01*
X012863Y002849D02*
X039000Y002849D01*
X039000Y003087D02*
X012863Y003087D01*
X012863Y003326D02*
X018275Y003326D01*
X018309Y003308D02*
X018397Y003280D01*
X018489Y003265D01*
X018535Y003265D01*
X018581Y003265D01*
X018673Y003280D01*
X018761Y003308D01*
X018844Y003350D01*
X018919Y003405D01*
X018985Y003471D01*
X019040Y003546D01*
X019082Y003629D01*
X019110Y003717D01*
X019125Y003809D01*
X019125Y003855D01*
X019125Y003901D01*
X019110Y003993D01*
X019082Y004081D01*
X019040Y004164D01*
X018985Y004239D01*
X018919Y004305D01*
X018844Y004360D01*
X018761Y004402D01*
X018673Y004430D01*
X018581Y004445D01*
X018535Y004445D01*
X018535Y003855D01*
X018535Y003855D01*
X019125Y003855D01*
X018535Y003855D01*
X018535Y003855D01*
X018535Y003855D01*
X017945Y003855D01*
X017945Y003901D01*
X017960Y003993D01*
X017988Y004081D01*
X018030Y004164D01*
X018085Y004239D01*
X018151Y004305D01*
X018226Y004360D01*
X018309Y004402D01*
X018397Y004430D01*
X018489Y004445D01*
X018535Y004445D01*
X018535Y003855D01*
X018535Y003265D01*
X018535Y003855D01*
X018535Y003855D01*
X017945Y003855D01*
X017945Y003809D01*
X017960Y003717D01*
X017988Y003629D01*
X018030Y003546D01*
X018085Y003471D01*
X018151Y003405D01*
X018226Y003350D01*
X018309Y003308D01*
X018535Y003326D02*
X018535Y003326D01*
X018535Y003564D02*
X018535Y003564D01*
X018535Y003803D02*
X018535Y003803D01*
X018535Y004041D02*
X018535Y004041D01*
X018535Y004280D02*
X018535Y004280D01*
X018125Y004280D02*
X012863Y004280D01*
X012863Y004518D02*
X020722Y004518D01*
X020945Y003855D02*
X020945Y003809D01*
X020960Y003717D01*
X020988Y003629D01*
X021030Y003546D01*
X021085Y003471D01*
X021151Y003405D01*
X021226Y003350D01*
X021309Y003308D01*
X021397Y003280D01*
X021489Y003265D01*
X021535Y003265D01*
X021535Y003855D01*
X020945Y003855D01*
X020946Y003803D02*
X020885Y003803D01*
X020811Y003564D02*
X021021Y003564D01*
X021275Y003326D02*
X020526Y003326D01*
X020104Y003326D02*
X018795Y003326D01*
X019049Y003564D02*
X019819Y003564D01*
X019745Y003803D02*
X019124Y003803D01*
X019095Y004041D02*
X019775Y004041D01*
X019933Y004280D02*
X018945Y004280D01*
X017975Y004041D02*
X012863Y004041D01*
X012863Y003803D02*
X017946Y003803D01*
X018021Y003564D02*
X012863Y003564D01*
X012863Y004757D02*
X017391Y004757D01*
X017575Y005025D02*
X017125Y005475D01*
X017125Y011925D01*
X016601Y012150D02*
X012863Y012150D01*
X012863Y011912D02*
X016555Y011912D01*
X016612Y011673D02*
X012863Y011673D01*
X012863Y011435D02*
X016805Y011435D01*
X016805Y011196D02*
X012863Y011196D01*
X012863Y010958D02*
X016805Y010958D01*
X016805Y010719D02*
X012863Y010719D01*
X012863Y010481D02*
X016805Y010481D01*
X016805Y010242D02*
X012863Y010242D01*
X012863Y010004D02*
X016805Y010004D01*
X016805Y009765D02*
X012863Y009765D01*
X012863Y009527D02*
X016805Y009527D01*
X016805Y009288D02*
X012863Y009288D01*
X012863Y009050D02*
X016805Y009050D01*
X016805Y008811D02*
X012863Y008811D01*
X012863Y008573D02*
X016805Y008573D01*
X016805Y008334D02*
X012863Y008334D01*
X012863Y008096D02*
X016805Y008096D01*
X016805Y007857D02*
X012863Y007857D01*
X012863Y007619D02*
X016805Y007619D01*
X016805Y007380D02*
X012863Y007380D01*
X012863Y007142D02*
X016805Y007142D01*
X016805Y006903D02*
X012863Y006903D01*
X012863Y006665D02*
X016805Y006665D01*
X016805Y006426D02*
X012863Y006426D01*
X012863Y006188D02*
X016805Y006188D01*
X016805Y005949D02*
X012863Y005949D01*
X012863Y005711D02*
X016805Y005711D01*
X016805Y005472D02*
X012863Y005472D01*
X012863Y005234D02*
X016914Y005234D01*
X017152Y004995D02*
X012863Y004995D01*
X017575Y005025D02*
X023675Y005025D01*
X023975Y005325D01*
X024525Y005325D01*
X025025Y005825D01*
X025025Y006125D01*
X025505Y006188D02*
X025525Y006188D01*
X025525Y006125D02*
X026025Y006125D01*
X026525Y006125D01*
X026525Y006444D01*
X026513Y006522D01*
X026488Y006597D01*
X026453Y006667D01*
X026406Y006731D01*
X026351Y006786D01*
X026287Y006833D01*
X026217Y006868D01*
X026142Y006893D01*
X026064Y006905D01*
X026025Y006905D01*
X026025Y006125D01*
X026025Y006125D01*
X026025Y006125D01*
X026525Y006125D01*
X026525Y005806D01*
X026513Y005728D01*
X026488Y005653D01*
X026453Y005583D01*
X026406Y005519D01*
X026351Y005464D01*
X026287Y005417D01*
X026217Y005382D01*
X026142Y005357D01*
X026064Y005345D01*
X026025Y005345D01*
X026025Y006125D01*
X026025Y006125D01*
X026025Y006125D01*
X026025Y006905D01*
X025986Y006905D01*
X025908Y006893D01*
X025833Y006868D01*
X025763Y006833D01*
X025699Y006786D01*
X025644Y006731D01*
X025597Y006667D01*
X025562Y006597D01*
X025537Y006522D01*
X025525Y006444D01*
X025525Y006125D01*
X025525Y005806D01*
X025537Y005728D01*
X025562Y005653D01*
X025597Y005583D01*
X025644Y005519D01*
X025699Y005464D01*
X025763Y005417D01*
X025833Y005382D01*
X025908Y005357D01*
X025986Y005345D01*
X026025Y005345D01*
X026025Y006125D01*
X025525Y006125D01*
X025525Y005949D02*
X025505Y005949D01*
X025489Y005711D02*
X025543Y005711D01*
X025691Y005472D02*
X025331Y005472D01*
X026025Y005472D02*
X026025Y005472D01*
X026025Y005711D02*
X026025Y005711D01*
X026025Y005949D02*
X026025Y005949D01*
X026025Y006188D02*
X026025Y006188D01*
X026025Y006426D02*
X026025Y006426D01*
X026025Y006665D02*
X026025Y006665D01*
X026025Y006903D02*
X026025Y006903D01*
X025973Y006903D02*
X021805Y006903D01*
X021805Y007142D02*
X032013Y007142D01*
X031774Y007380D02*
X021805Y007380D01*
X021805Y007619D02*
X029736Y007619D01*
X029497Y007857D02*
X021805Y007857D01*
X021805Y008096D02*
X029259Y008096D01*
X029020Y008334D02*
X021805Y008334D01*
X022431Y008573D02*
X022619Y008573D01*
X022545Y008811D02*
X022505Y008811D01*
X022505Y009050D02*
X022545Y009050D01*
X022545Y009288D02*
X022505Y009288D01*
X022494Y009527D02*
X022556Y009527D01*
X022511Y009765D02*
X022706Y009765D01*
X022749Y010004D02*
X022775Y010004D01*
X022988Y010242D02*
X022993Y010242D01*
X023226Y010481D02*
X023228Y010481D01*
X023544Y010004D02*
X023744Y010004D01*
X023779Y010242D02*
X023893Y010242D01*
X024014Y010481D02*
X024123Y010481D01*
X024248Y010719D02*
X024352Y010719D01*
X023706Y009765D02*
X023344Y009765D01*
X023494Y009527D02*
X023556Y009527D01*
X023545Y009288D02*
X023505Y009288D01*
X023505Y009050D02*
X023545Y009050D01*
X023545Y008811D02*
X023505Y008811D01*
X023431Y008573D02*
X023619Y008573D01*
X023120Y006885D02*
X022930Y006885D01*
X022753Y006812D01*
X022618Y006677D01*
X022545Y006500D01*
X022545Y005750D01*
X022618Y005573D01*
X022753Y005438D01*
X022930Y005365D01*
X023120Y005365D01*
X023297Y005438D01*
X023432Y005573D01*
X023505Y005750D01*
X023505Y006500D01*
X023432Y006677D01*
X023297Y006812D01*
X023120Y006885D01*
X023437Y006665D02*
X023613Y006665D01*
X023545Y006426D02*
X023505Y006426D01*
X023505Y006188D02*
X023545Y006188D01*
X023545Y005949D02*
X023505Y005949D01*
X023489Y005711D02*
X023561Y005711D01*
X023669Y005472D02*
X023331Y005472D01*
X022719Y005472D02*
X022331Y005472D01*
X022489Y005711D02*
X022561Y005711D01*
X022545Y005949D02*
X022505Y005949D01*
X022505Y006188D02*
X022545Y006188D01*
X022545Y006426D02*
X022505Y006426D01*
X022437Y006665D02*
X022613Y006665D01*
X024437Y006665D02*
X024613Y006665D01*
X024545Y006426D02*
X024505Y006426D01*
X024505Y006188D02*
X024545Y006188D01*
X024545Y005949D02*
X024505Y005949D01*
X025505Y006426D02*
X025525Y006426D01*
X025596Y006665D02*
X025437Y006665D01*
X026077Y006903D02*
X032251Y006903D01*
X032437Y006665D02*
X032445Y006665D01*
X033005Y006665D02*
X033345Y006665D01*
X033345Y006426D02*
X033005Y006426D01*
X033005Y006188D02*
X033345Y006188D01*
X033345Y005949D02*
X033005Y005949D01*
X033005Y005711D02*
X033345Y005711D01*
X033286Y005472D02*
X033005Y005472D01*
X033065Y005234D02*
X032829Y005234D01*
X032843Y004995D02*
X032591Y004995D01*
X032622Y004757D02*
X032352Y004757D01*
X032400Y004518D02*
X032114Y004518D01*
X031933Y004280D02*
X030945Y004280D01*
X031095Y004041D02*
X031775Y004041D01*
X031745Y003803D02*
X031124Y003803D01*
X031049Y003564D02*
X031819Y003564D01*
X032104Y003326D02*
X030795Y003326D01*
X030535Y003326D02*
X030535Y003326D01*
X030535Y003265D02*
X030535Y003855D01*
X029945Y003855D01*
X029945Y003809D01*
X029960Y003717D01*
X029988Y003629D01*
X030030Y003546D01*
X030085Y003471D01*
X030151Y003405D01*
X030226Y003350D01*
X030309Y003308D01*
X030397Y003280D01*
X030489Y003265D01*
X030535Y003265D01*
X030275Y003326D02*
X029526Y003326D01*
X029811Y003564D02*
X030021Y003564D01*
X029946Y003803D02*
X029885Y003803D01*
X029937Y004041D02*
X029975Y004041D01*
X030535Y003803D02*
X030535Y003803D01*
X030535Y003564D02*
X030535Y003564D01*
X029104Y003326D02*
X027795Y003326D01*
X027535Y003326D02*
X027535Y003326D01*
X027535Y003265D02*
X027535Y003855D01*
X026945Y003855D01*
X026945Y003809D01*
X026960Y003717D01*
X026988Y003629D01*
X027030Y003546D01*
X027085Y003471D01*
X027151Y003405D01*
X027226Y003350D01*
X027309Y003308D01*
X027397Y003280D01*
X027489Y003265D01*
X027535Y003265D01*
X027275Y003326D02*
X026526Y003326D01*
X026811Y003564D02*
X027021Y003564D01*
X026946Y003803D02*
X026885Y003803D01*
X026937Y004041D02*
X026975Y004041D01*
X027535Y003803D02*
X027535Y003803D01*
X027535Y003564D02*
X027535Y003564D01*
X028049Y003564D02*
X028819Y003564D01*
X028745Y003803D02*
X028124Y003803D01*
X028095Y004041D02*
X028775Y004041D01*
X028933Y004280D02*
X027945Y004280D01*
X026719Y005472D02*
X026359Y005472D01*
X026507Y005711D02*
X026561Y005711D01*
X026545Y005949D02*
X026525Y005949D01*
X026525Y006188D02*
X026545Y006188D01*
X026525Y006426D02*
X026545Y006426D01*
X026613Y006665D02*
X026454Y006665D01*
X027437Y006665D02*
X027613Y006665D01*
X027545Y006426D02*
X027505Y006426D01*
X027505Y006188D02*
X027545Y006188D01*
X027545Y005949D02*
X027505Y005949D01*
X027489Y005711D02*
X027561Y005711D01*
X028489Y005711D02*
X028561Y005711D01*
X028545Y005949D02*
X028505Y005949D01*
X028505Y006188D02*
X028545Y006188D01*
X028545Y006426D02*
X028505Y006426D01*
X028437Y006665D02*
X028613Y006665D01*
X029437Y006665D02*
X029613Y006665D01*
X029545Y006426D02*
X029505Y006426D01*
X029505Y006188D02*
X029545Y006188D01*
X029545Y005949D02*
X029505Y005949D01*
X029489Y005711D02*
X029515Y005711D01*
X030489Y005711D02*
X030561Y005711D01*
X030545Y005949D02*
X030505Y005949D01*
X030505Y006188D02*
X030545Y006188D01*
X030545Y006426D02*
X030505Y006426D01*
X030437Y006665D02*
X030613Y006665D01*
X031437Y006665D02*
X031613Y006665D01*
X031545Y006426D02*
X031505Y006426D01*
X031505Y006188D02*
X031545Y006188D01*
X031545Y005949D02*
X031505Y005949D01*
X031489Y005711D02*
X031561Y005711D01*
X031576Y005472D02*
X031331Y005472D01*
X032943Y004280D02*
X033125Y004280D01*
X033151Y004305D02*
X033085Y004239D01*
X033030Y004164D01*
X032988Y004081D01*
X032960Y003993D01*
X032945Y003901D01*
X032945Y003855D01*
X033535Y003855D01*
X033535Y003855D01*
X033535Y004445D01*
X033581Y004445D01*
X033673Y004430D01*
X033761Y004402D01*
X033844Y004360D01*
X033919Y004305D01*
X033985Y004239D01*
X034040Y004164D01*
X034082Y004081D01*
X034110Y003993D01*
X034125Y003901D01*
X034125Y003855D01*
X033535Y003855D01*
X033535Y003855D01*
X033535Y003855D01*
X033535Y004445D01*
X033489Y004445D01*
X033397Y004430D01*
X033309Y004402D01*
X033226Y004360D01*
X033151Y004305D01*
X033165Y004518D02*
X034386Y004518D01*
X034148Y004757D02*
X033386Y004757D01*
X033608Y004995D02*
X033909Y004995D01*
X034224Y005472D02*
X036882Y005472D01*
X036644Y005711D02*
X034155Y005711D01*
X034155Y005949D02*
X036405Y005949D01*
X036167Y006188D02*
X034155Y006188D01*
X034155Y006426D02*
X034709Y006426D01*
X034718Y006403D02*
X034645Y006580D01*
X034645Y006770D01*
X034718Y006947D01*
X034853Y007082D01*
X035030Y007155D01*
X035220Y007155D01*
X035397Y007082D01*
X035524Y006955D01*
X036131Y006955D01*
X036234Y006912D01*
X037541Y005605D01*
X037720Y005605D01*
X037897Y005532D01*
X038032Y005397D01*
X038105Y005220D01*
X038105Y005030D01*
X038032Y004853D01*
X037897Y004718D01*
X037720Y004645D01*
X037530Y004645D01*
X037353Y004718D01*
X037218Y004853D01*
X037145Y005030D01*
X037145Y005209D01*
X035959Y006395D01*
X035524Y006395D01*
X035397Y006268D01*
X035220Y006195D01*
X035030Y006195D01*
X034853Y006268D01*
X034718Y006403D01*
X034645Y006665D02*
X034155Y006665D01*
X034155Y006903D02*
X034700Y006903D01*
X034997Y007142D02*
X034155Y007142D01*
X034114Y007380D02*
X037194Y007380D01*
X037197Y007387D02*
X037162Y007317D01*
X037137Y007242D01*
X037125Y007164D01*
X037125Y007125D01*
X037625Y007125D01*
X037625Y007125D01*
X037625Y007625D01*
X037664Y007625D01*
X037742Y007613D01*
X037817Y007588D01*
X037887Y007553D01*
X037951Y007506D01*
X038006Y007451D01*
X038053Y007387D01*
X038088Y007317D01*
X038113Y007242D01*
X038125Y007164D01*
X038125Y007125D01*
X037625Y007125D01*
X037625Y007125D01*
X037625Y007125D01*
X037625Y007625D01*
X037664Y007625D01*
X037742Y007637D01*
X037817Y007662D01*
X037887Y007697D01*
X037951Y007744D01*
X038006Y007799D01*
X038053Y007863D01*
X038088Y007933D01*
X038113Y008008D01*
X038125Y008086D01*
X038125Y008125D01*
X038125Y008164D01*
X038113Y008242D01*
X038088Y008317D01*
X038053Y008387D01*
X038006Y008451D01*
X037951Y008506D01*
X037887Y008553D01*
X037817Y008588D01*
X037742Y008613D01*
X037664Y008625D01*
X037625Y008625D01*
X037625Y008125D01*
X037625Y008125D01*
X038125Y008125D01*
X037625Y008125D01*
X037625Y008125D01*
X037625Y008125D01*
X037125Y008125D01*
X037125Y008164D01*
X037137Y008242D01*
X037162Y008317D01*
X037197Y008387D01*
X037244Y008451D01*
X037299Y008506D01*
X037363Y008553D01*
X037433Y008588D01*
X037508Y008613D01*
X037586Y008625D01*
X037625Y008625D01*
X037625Y008125D01*
X037625Y007625D01*
X037586Y007625D01*
X037508Y007613D01*
X037433Y007588D01*
X037363Y007553D01*
X037299Y007506D01*
X037244Y007451D01*
X037197Y007387D01*
X037125Y007142D02*
X035253Y007142D01*
X036243Y006903D02*
X037177Y006903D01*
X037162Y006933D02*
X037197Y006863D01*
X037244Y006799D01*
X037299Y006744D01*
X037363Y006697D01*
X037433Y006662D01*
X037508Y006637D01*
X037586Y006625D01*
X037625Y006625D01*
X037664Y006625D01*
X037742Y006637D01*
X037817Y006662D01*
X037887Y006697D01*
X037951Y006744D01*
X038006Y006799D01*
X038053Y006863D01*
X038088Y006933D01*
X038113Y007008D01*
X038125Y007086D01*
X038125Y007125D01*
X037625Y007125D01*
X037625Y006625D01*
X037625Y007125D01*
X037625Y007125D01*
X037125Y007125D01*
X037125Y007086D01*
X037137Y007008D01*
X037162Y006933D01*
X037427Y006665D02*
X036481Y006665D01*
X036720Y006426D02*
X039000Y006426D01*
X039000Y006188D02*
X036958Y006188D01*
X037197Y005949D02*
X039000Y005949D01*
X039000Y005711D02*
X037435Y005711D01*
X037121Y005234D02*
X034462Y005234D01*
X034701Y004995D02*
X037159Y004995D01*
X037315Y004757D02*
X034939Y004757D01*
X035178Y004518D02*
X039000Y004518D01*
X039000Y004280D02*
X035697Y004280D01*
X035855Y004041D02*
X039000Y004041D01*
X039000Y003803D02*
X035885Y003803D01*
X035811Y003564D02*
X039000Y003564D01*
X039000Y003326D02*
X035526Y003326D01*
X035104Y003326D02*
X033795Y003326D01*
X033761Y003308D02*
X033844Y003350D01*
X033919Y003405D01*
X033985Y003471D01*
X034040Y003546D01*
X034082Y003629D01*
X034110Y003717D01*
X034125Y003809D01*
X034125Y003855D01*
X033535Y003855D01*
X033535Y003265D01*
X033581Y003265D01*
X033673Y003280D01*
X033761Y003308D01*
X033535Y003326D02*
X033535Y003326D01*
X033535Y003265D02*
X033535Y003855D01*
X033535Y003855D01*
X032945Y003855D01*
X032945Y003809D01*
X032960Y003717D01*
X032988Y003629D01*
X033030Y003546D01*
X033085Y003471D01*
X033151Y003405D01*
X033226Y003350D01*
X033309Y003308D01*
X033397Y003280D01*
X033489Y003265D01*
X033535Y003265D01*
X033275Y003326D02*
X032526Y003326D01*
X032811Y003564D02*
X033021Y003564D01*
X032946Y003803D02*
X032885Y003803D01*
X032855Y004041D02*
X032975Y004041D01*
X033535Y004041D02*
X033535Y004041D01*
X033535Y003803D02*
X033535Y003803D01*
X033535Y003564D02*
X033535Y003564D01*
X034049Y003564D02*
X034819Y003564D01*
X034745Y003803D02*
X034124Y003803D01*
X034095Y004041D02*
X034775Y004041D01*
X034625Y004280D02*
X033945Y004280D01*
X033535Y004280D02*
X033535Y004280D01*
X033422Y001865D02*
X033212Y001778D01*
X033052Y001618D01*
X032965Y001408D01*
X032965Y001182D01*
X033052Y000972D01*
X033212Y000812D01*
X033422Y000725D01*
X033648Y000725D01*
X033858Y000812D01*
X034018Y000972D01*
X034105Y001182D01*
X034105Y001408D01*
X034018Y001618D01*
X033858Y001778D01*
X033648Y001865D01*
X033422Y001865D01*
X033090Y001656D02*
X032760Y001656D01*
X032798Y001618D02*
X032638Y001778D01*
X032428Y001865D01*
X032202Y001865D01*
X031992Y001778D01*
X031832Y001618D01*
X031745Y001408D01*
X031745Y001182D01*
X031832Y000972D01*
X031992Y000812D01*
X032202Y000725D01*
X032428Y000725D01*
X032638Y000812D01*
X032798Y000972D01*
X032885Y001182D01*
X032885Y001408D01*
X032798Y001618D01*
X032881Y001418D02*
X032969Y001418D01*
X032966Y001179D02*
X032884Y001179D01*
X032767Y000941D02*
X033083Y000941D01*
X033987Y000941D02*
X034863Y000941D01*
X034746Y001179D02*
X034104Y001179D01*
X034101Y001418D02*
X034749Y001418D01*
X034870Y001656D02*
X033980Y001656D01*
X031870Y001656D02*
X030980Y001656D01*
X031018Y001618D02*
X030858Y001778D01*
X030648Y001865D01*
X030422Y001865D01*
X030212Y001778D01*
X030052Y001618D01*
X029965Y001408D01*
X029965Y001182D01*
X030052Y000972D01*
X030212Y000812D01*
X030422Y000725D01*
X030648Y000725D01*
X030858Y000812D01*
X031018Y000972D01*
X031105Y001182D01*
X031105Y001408D01*
X031018Y001618D01*
X031101Y001418D02*
X031749Y001418D01*
X031746Y001179D02*
X031104Y001179D01*
X030987Y000941D02*
X031863Y000941D01*
X030083Y000941D02*
X029767Y000941D01*
X029798Y000972D02*
X029885Y001182D01*
X029885Y001408D01*
X029798Y001618D01*
X029638Y001778D01*
X029428Y001865D01*
X029202Y001865D01*
X028992Y001778D01*
X028832Y001618D01*
X028745Y001408D01*
X028745Y001182D01*
X028832Y000972D01*
X028992Y000812D01*
X029202Y000725D01*
X029428Y000725D01*
X029638Y000812D01*
X029798Y000972D01*
X029884Y001179D02*
X029966Y001179D01*
X029969Y001418D02*
X029881Y001418D01*
X029760Y001656D02*
X030090Y001656D01*
X028870Y001656D02*
X027980Y001656D01*
X028018Y001618D02*
X027858Y001778D01*
X027648Y001865D01*
X027422Y001865D01*
X027212Y001778D01*
X027052Y001618D01*
X026965Y001408D01*
X026965Y001182D01*
X027052Y000972D01*
X027212Y000812D01*
X027422Y000725D01*
X027648Y000725D01*
X027858Y000812D01*
X028018Y000972D01*
X028105Y001182D01*
X028105Y001408D01*
X028018Y001618D01*
X028101Y001418D02*
X028749Y001418D01*
X028746Y001179D02*
X028104Y001179D01*
X027987Y000941D02*
X028863Y000941D01*
X027083Y000941D02*
X026767Y000941D01*
X026798Y000972D02*
X026885Y001182D01*
X026885Y001408D01*
X026798Y001618D01*
X026638Y001778D01*
X026428Y001865D01*
X026202Y001865D01*
X025992Y001778D01*
X025832Y001618D01*
X025745Y001408D01*
X025745Y001182D01*
X025832Y000972D01*
X025992Y000812D01*
X026202Y000725D01*
X026428Y000725D01*
X026638Y000812D01*
X026798Y000972D01*
X026884Y001179D02*
X026966Y001179D01*
X026969Y001418D02*
X026881Y001418D01*
X026760Y001656D02*
X027090Y001656D01*
X025870Y001656D02*
X024980Y001656D01*
X025018Y001618D02*
X024858Y001778D01*
X024648Y001865D01*
X024422Y001865D01*
X024212Y001778D01*
X024052Y001618D01*
X023965Y001408D01*
X023965Y001182D01*
X024052Y000972D01*
X024212Y000812D01*
X024422Y000725D01*
X024648Y000725D01*
X024858Y000812D01*
X025018Y000972D01*
X025105Y001182D01*
X025105Y001408D01*
X025018Y001618D01*
X025101Y001418D02*
X025749Y001418D01*
X025746Y001179D02*
X025104Y001179D01*
X024987Y000941D02*
X025863Y000941D01*
X024083Y000941D02*
X023767Y000941D01*
X023798Y000972D02*
X023885Y001182D01*
X023885Y001408D01*
X023798Y001618D01*
X023638Y001778D01*
X023428Y001865D01*
X023202Y001865D01*
X022992Y001778D01*
X022832Y001618D01*
X022745Y001408D01*
X022745Y001182D01*
X022832Y000972D01*
X022992Y000812D01*
X023202Y000725D01*
X023428Y000725D01*
X023638Y000812D01*
X023798Y000972D01*
X023884Y001179D02*
X023966Y001179D01*
X023969Y001418D02*
X023881Y001418D01*
X023760Y001656D02*
X024090Y001656D01*
X022870Y001656D02*
X021980Y001656D01*
X022018Y001618D02*
X021858Y001778D01*
X021648Y001865D01*
X021422Y001865D01*
X021212Y001778D01*
X021052Y001618D01*
X020965Y001408D01*
X020965Y001182D01*
X021052Y000972D01*
X021212Y000812D01*
X021422Y000725D01*
X021648Y000725D01*
X021858Y000812D01*
X022018Y000972D01*
X022105Y001182D01*
X022105Y001408D01*
X022018Y001618D01*
X022101Y001418D02*
X022749Y001418D01*
X022746Y001179D02*
X022104Y001179D01*
X021987Y000941D02*
X022863Y000941D01*
X021083Y000941D02*
X020767Y000941D01*
X020798Y000972D02*
X020885Y001182D01*
X020885Y001408D01*
X020798Y001618D01*
X020638Y001778D01*
X020428Y001865D01*
X020202Y001865D01*
X019992Y001778D01*
X019832Y001618D01*
X019745Y001408D01*
X019745Y001182D01*
X019832Y000972D01*
X019992Y000812D01*
X020202Y000725D01*
X020428Y000725D01*
X020638Y000812D01*
X020798Y000972D01*
X020884Y001179D02*
X020966Y001179D01*
X020969Y001418D02*
X020881Y001418D01*
X020760Y001656D02*
X021090Y001656D01*
X019870Y001656D02*
X018980Y001656D01*
X019101Y001418D02*
X019749Y001418D01*
X019746Y001179D02*
X019104Y001179D01*
X018987Y000941D02*
X019863Y000941D01*
X021535Y003326D02*
X021535Y003326D01*
X021535Y003564D02*
X021535Y003564D01*
X021535Y003803D02*
X021535Y003803D01*
X022049Y003564D02*
X022819Y003564D01*
X022745Y003803D02*
X022124Y003803D01*
X022095Y004041D02*
X022775Y004041D01*
X022933Y004280D02*
X021945Y004280D01*
X021795Y003326D02*
X023104Y003326D01*
X023526Y003326D02*
X024275Y003326D01*
X024309Y003308D02*
X024397Y003280D01*
X024489Y003265D01*
X024535Y003265D01*
X024535Y003855D01*
X023945Y003855D01*
X023945Y003809D01*
X023960Y003717D01*
X023988Y003629D01*
X024030Y003546D01*
X024085Y003471D01*
X024151Y003405D01*
X024226Y003350D01*
X024309Y003308D01*
X024535Y003326D02*
X024535Y003326D01*
X024535Y003564D02*
X024535Y003564D01*
X024535Y003803D02*
X024535Y003803D01*
X025049Y003564D02*
X025819Y003564D01*
X025745Y003803D02*
X025124Y003803D01*
X025095Y004041D02*
X025775Y004041D01*
X025933Y004280D02*
X024945Y004280D01*
X024795Y003326D02*
X026104Y003326D01*
X024021Y003564D02*
X023811Y003564D01*
X023885Y003803D02*
X023946Y003803D01*
X023937Y004041D02*
X023975Y004041D01*
X031505Y008811D02*
X031545Y008811D01*
X031545Y009050D02*
X031505Y009050D01*
X031505Y009288D02*
X031545Y009288D01*
X031556Y009527D02*
X031494Y009527D01*
X031344Y009765D02*
X031706Y009765D01*
X032344Y009765D02*
X036869Y009765D01*
X036631Y009527D02*
X032494Y009527D01*
X032505Y009288D02*
X036392Y009288D01*
X036154Y009050D02*
X035234Y009050D01*
X035016Y009050D02*
X032505Y009050D01*
X032685Y008811D02*
X034703Y008811D01*
X034645Y008573D02*
X032923Y008573D01*
X033162Y008334D02*
X034705Y008334D01*
X035028Y008096D02*
X033400Y008096D01*
X033639Y007857D02*
X037202Y007857D01*
X037197Y007863D02*
X037244Y007799D01*
X037299Y007744D01*
X037363Y007697D01*
X037433Y007662D01*
X037508Y007637D01*
X037586Y007625D01*
X037625Y007625D01*
X037625Y008125D01*
X037625Y008125D01*
X037125Y008125D01*
X037125Y008086D01*
X037137Y008008D01*
X037162Y007933D01*
X037197Y007863D01*
X037125Y008096D02*
X035222Y008096D01*
X036225Y008334D02*
X037170Y008334D01*
X037402Y008573D02*
X036468Y008573D01*
X036707Y008811D02*
X039000Y008811D01*
X039000Y008573D02*
X037848Y008573D01*
X037625Y008573D02*
X037625Y008573D01*
X037625Y008334D02*
X037625Y008334D01*
X037625Y008096D02*
X037625Y008096D01*
X037625Y007857D02*
X037625Y007857D01*
X037625Y007619D02*
X037625Y007619D01*
X037705Y007619D02*
X039000Y007619D01*
X039000Y007857D02*
X038048Y007857D01*
X038125Y008096D02*
X039000Y008096D01*
X039000Y008334D02*
X038080Y008334D01*
X037545Y007619D02*
X033877Y007619D01*
X033013Y007142D02*
X032804Y007142D01*
X032774Y007380D02*
X032566Y007380D01*
X032536Y007619D02*
X032327Y007619D01*
X032297Y007857D02*
X032089Y007857D01*
X032996Y006903D02*
X033251Y006903D01*
X036945Y009050D02*
X039000Y009050D01*
X039000Y009288D02*
X037184Y009288D01*
X037422Y009527D02*
X039000Y009527D01*
X039000Y009765D02*
X037944Y009765D01*
X038094Y010004D02*
X039000Y010004D01*
X039000Y010242D02*
X038096Y010242D01*
X037966Y012866D02*
X038345Y012866D01*
X038345Y013104D02*
X038204Y013104D01*
X038248Y013343D02*
X038345Y013343D01*
X038345Y013581D02*
X038248Y013581D01*
X038231Y013820D02*
X038345Y013820D01*
X038345Y014058D02*
X037992Y014058D01*
X038345Y014297D02*
X027242Y014297D01*
X024741Y015641D02*
X024741Y016231D01*
X024741Y016231D01*
X024741Y016231D01*
X024151Y016231D01*
X024151Y015832D01*
X024166Y015776D01*
X024195Y015726D01*
X024236Y015685D01*
X024286Y015656D01*
X024342Y015641D01*
X024741Y015641D01*
X024741Y015728D02*
X024741Y015728D01*
X024741Y015966D02*
X024741Y015966D01*
X024741Y016205D02*
X024741Y016205D01*
X024151Y016205D02*
X023657Y016205D01*
X023896Y016443D02*
X024151Y016443D01*
X024151Y015966D02*
X023419Y015966D01*
X024194Y015728D02*
X022229Y015728D01*
X022279Y016920D02*
X022571Y016920D01*
X022445Y017159D02*
X022405Y017159D01*
X022405Y017397D02*
X022445Y017397D01*
X022445Y017636D02*
X022405Y017636D01*
X022405Y017874D02*
X022445Y017874D01*
X022554Y018113D02*
X022296Y018113D01*
X021935Y018590D02*
X023155Y018590D01*
X023155Y018828D02*
X022174Y018828D01*
X022412Y019067D02*
X023155Y019067D01*
X023155Y019305D02*
X022651Y019305D01*
X022889Y019544D02*
X023155Y019544D01*
X023155Y019782D02*
X023128Y019782D01*
X024105Y020021D02*
X024263Y020021D01*
X023155Y018351D02*
X018878Y018351D01*
X018622Y018113D02*
X019554Y018113D01*
X019445Y017874D02*
X018505Y017874D01*
X018505Y017636D02*
X019445Y017636D01*
X019445Y017397D02*
X018609Y017397D01*
X018766Y017159D02*
X019445Y017159D01*
X019571Y016920D02*
X018795Y016920D01*
X018720Y016682D02*
X019165Y016682D01*
X019151Y016443D02*
X018430Y016443D01*
X018152Y016205D02*
X019151Y016205D01*
X019151Y016231D02*
X019151Y015832D01*
X019166Y015776D01*
X019195Y015726D01*
X019236Y015685D01*
X019286Y015656D01*
X019342Y015641D01*
X019741Y015641D01*
X019741Y016231D01*
X019741Y016231D01*
X019741Y016231D01*
X019151Y016231D01*
X019151Y015966D02*
X018307Y015966D01*
X018305Y015728D02*
X019194Y015728D01*
X019741Y015728D02*
X019741Y015728D01*
X019741Y015966D02*
X019741Y015966D01*
X019741Y016205D02*
X019741Y016205D01*
X020279Y016920D02*
X020571Y016920D01*
X020445Y017159D02*
X020405Y017159D01*
X020405Y017397D02*
X020445Y017397D01*
X020445Y017636D02*
X020405Y017636D01*
X020405Y017874D02*
X020445Y017874D01*
X020554Y018113D02*
X020296Y018113D01*
X021296Y018113D02*
X021554Y018113D01*
X021445Y017874D02*
X021405Y017874D01*
X021405Y017636D02*
X021445Y017636D01*
X021445Y017397D02*
X021405Y017397D01*
X021405Y017159D02*
X021445Y017159D01*
X021571Y016920D02*
X021279Y016920D01*
X018568Y018828D02*
X017968Y018828D01*
X018206Y018590D02*
X018312Y018590D01*
X018823Y019067D02*
X017729Y019067D01*
X017491Y019305D02*
X021859Y019305D01*
X019478Y020021D02*
X017072Y020021D01*
X017125Y020259D02*
X019425Y020259D01*
X016254Y018113D02*
X015996Y018113D01*
X016105Y017874D02*
X016145Y017874D01*
X016145Y017636D02*
X016105Y017636D01*
X016105Y017397D02*
X016145Y017397D01*
X016145Y017159D02*
X016105Y017159D01*
X015979Y016920D02*
X016271Y016920D01*
X016886Y016443D02*
X014739Y016443D01*
X016555Y015966D02*
X012863Y015966D01*
X012863Y015728D02*
X016590Y015728D01*
X016755Y015489D02*
X012863Y015489D01*
X012863Y015251D02*
X017395Y015251D01*
X017395Y015012D02*
X012863Y015012D01*
X012863Y014774D02*
X017395Y014774D01*
X017395Y014535D02*
X012863Y014535D01*
X012863Y014297D02*
X017395Y014297D01*
X017395Y014058D02*
X012863Y014058D01*
X012863Y013820D02*
X017395Y013820D01*
X017395Y013581D02*
X012863Y013581D01*
X012863Y013343D02*
X017395Y013343D01*
X017395Y013104D02*
X012863Y013104D01*
X012863Y012866D02*
X017395Y012866D01*
X017395Y012627D02*
X012863Y012627D01*
X012863Y012389D02*
X016782Y012389D01*
X017638Y011673D02*
X017714Y011673D01*
X018305Y012866D02*
X018484Y012866D01*
X018458Y014058D02*
X018305Y014058D01*
X016624Y016205D02*
X012863Y016205D01*
X013010Y017636D02*
X013145Y017636D01*
X017944Y016443D02*
X018020Y016443D01*
X034741Y016443D02*
X034741Y016443D01*
X034741Y016231D02*
X034741Y016231D01*
X034741Y016682D02*
X034741Y016682D01*
X038677Y025942D02*
X038677Y025942D01*
X038962Y026222D02*
X039000Y026222D01*
X039000Y007380D02*
X038056Y007380D01*
X038125Y007142D02*
X039000Y007142D01*
X039000Y006903D02*
X038073Y006903D01*
X037823Y006665D02*
X039000Y006665D01*
X037625Y006665D02*
X037625Y006665D01*
X037625Y006903D02*
X037625Y006903D01*
X037625Y007142D02*
X037625Y007142D01*
X037625Y007380D02*
X037625Y007380D01*
X037957Y005472D02*
X039000Y005472D01*
X039000Y005234D02*
X038100Y005234D01*
X038091Y004995D02*
X039000Y004995D01*
X039000Y004757D02*
X037935Y004757D01*
D27*
X037625Y005125D02*
X036075Y006675D01*
X035125Y006675D01*
X033875Y007225D02*
X033875Y005425D01*
X035315Y003985D01*
X035315Y003855D01*
X033625Y005425D02*
X033625Y006925D01*
X032225Y008325D01*
X031425Y008325D01*
X031025Y008725D01*
X031025Y009125D01*
X030025Y009125D02*
X030025Y009725D01*
X031225Y010925D01*
X037825Y010925D01*
X038625Y011725D01*
X038625Y016525D01*
X037825Y017325D01*
X036825Y017325D01*
X035725Y016231D02*
X035725Y015825D01*
X035425Y015525D01*
X031525Y015525D01*
X030625Y014625D01*
X027175Y014625D01*
X026575Y014025D01*
X026575Y012625D01*
X024025Y009975D01*
X024025Y009125D01*
X023025Y009125D02*
X023025Y009875D01*
X026125Y013025D01*
X026125Y014225D01*
X027125Y015225D01*
X030125Y015225D01*
X030725Y015825D01*
X030725Y016231D01*
X025725Y016231D02*
X025725Y013375D01*
X022025Y009675D01*
X022025Y009125D01*
X021025Y009125D02*
X021025Y015931D01*
X020725Y016231D01*
X021525Y014475D02*
X021525Y006625D01*
X021025Y006125D01*
X019025Y006125D02*
X018825Y006125D01*
X018025Y006925D01*
X018025Y011775D01*
X017675Y012075D01*
X017675Y015375D01*
X017125Y015925D01*
X017325Y016725D02*
X018025Y015925D01*
X018025Y012225D01*
X020525Y009825D01*
X024125Y005025D02*
X026725Y005025D01*
X027025Y005325D01*
X029525Y005325D01*
X030025Y005825D01*
X030025Y006125D01*
X031025Y006125D02*
X031025Y005525D01*
X030825Y005325D01*
X029925Y005325D01*
X029625Y005025D01*
X027125Y005025D01*
X026725Y004625D01*
X024125Y004625D01*
X023355Y003855D01*
X023315Y003855D01*
X023725Y004625D02*
X024125Y005025D01*
X023725Y004625D02*
X021225Y004625D01*
X020455Y003855D01*
X020315Y003855D01*
X026315Y003855D02*
X026355Y003855D01*
X027125Y004625D01*
X029625Y004625D01*
X030025Y005025D01*
X031525Y005025D01*
X032025Y005525D01*
X032025Y006125D01*
X032725Y005525D02*
X032725Y006825D01*
X031725Y007825D01*
X029925Y007825D01*
X029025Y008725D01*
X029025Y009125D01*
X032025Y009125D02*
X032025Y008725D01*
X032175Y008575D01*
X032525Y008575D01*
X033875Y007225D01*
X035125Y008575D02*
X036075Y008575D01*
X037625Y010125D01*
X037625Y008125D02*
X037625Y007125D01*
X033625Y005425D02*
X032315Y004015D01*
X032315Y003855D01*
X031825Y004625D02*
X030125Y004625D01*
X029355Y003855D01*
X029315Y003855D01*
X031825Y004625D02*
X032725Y005525D01*
X017325Y016725D02*
X017325Y017925D01*
X015625Y019625D01*
X015625Y020525D01*
X016775Y019625D02*
X018225Y018175D01*
X018225Y018125D01*
X018975Y018825D01*
X021775Y018825D01*
X022925Y019975D01*
X022925Y020525D01*
X021925Y020525D02*
X021925Y021125D01*
X021575Y021425D01*
X019625Y021425D01*
X019175Y020975D01*
X018225Y020975D01*
X018175Y020925D01*
X017625Y020925D01*
X017225Y021325D01*
X017225Y022225D01*
X020725Y023425D02*
X021925Y022225D01*
X023225Y022225D01*
X023825Y022625D02*
X023825Y017625D01*
X024125Y017325D01*
X024225Y017325D01*
X028219Y020209D02*
X028219Y021219D01*
X029225Y022225D01*
X029225Y023175D01*
X028725Y023675D01*
X028725Y024725D02*
X032210Y024725D01*
X032225Y024710D01*
X036825Y024710D01*
X036825Y022740D02*
X036825Y021325D01*
X034725Y021325D01*
X032225Y022740D02*
X031710Y022225D01*
X029225Y022225D01*
X023825Y022625D02*
X023325Y023125D01*
X022025Y023125D01*
X021725Y023425D01*
X021725Y024225D01*
X020725Y024225D02*
X020725Y023425D01*
X015625Y018025D02*
X015275Y018375D01*
X013075Y018375D01*
X012075Y019375D01*
X013025Y019625D02*
X012225Y020425D01*
X012225Y024625D01*
X009508Y021816D02*
X010175Y021149D01*
X010175Y018075D01*
X010583Y016760D02*
X010583Y001012D01*
X009583Y001012D02*
X009583Y016760D01*
X008583Y016760D02*
X008583Y001012D01*
X007583Y001012D02*
X007583Y016760D01*
X006775Y017475D02*
X006175Y018075D01*
X006175Y019675D01*
X006125Y019725D01*
X005571Y021812D02*
X005585Y021825D01*
X008525Y021825D01*
X009125Y021225D01*
X009125Y019725D01*
X006775Y017475D02*
X012775Y017475D01*
X013175Y017075D01*
X013175Y016675D01*
X013325Y016525D01*
X014425Y016525D01*
X014625Y016725D01*
X014625Y017525D01*
X015625Y017525D02*
X015625Y018025D01*
X018225Y018125D02*
X018225Y016975D01*
X012583Y016760D02*
X012583Y001012D01*
X011583Y001012D02*
X011583Y016760D01*
D28*
X012075Y019375D03*
X013025Y019625D03*
X016775Y019625D03*
X024225Y017325D03*
X020525Y009825D03*
D29*
X021525Y014475D03*
M02*
